<svg width="414" height="414" viewBox="0 0 414 414" fill="none" xmlns="http://www.w3.org/2000/svg">
<circle cx="207" cy="207" r="135" fill="#C3C2C5"/>
<g filter="url(#filter0_d_3058_16719)">
<g filter="url(#filter1_i_3058_16719)">
<ellipse cx="290.835" cy="96.6921" rx="30.8" ry="25.6" transform="rotate(17.6102 290.835 96.6921)" fill="#C7E5ED"/>
</g>
<ellipse cx="290.835" cy="96.6921" rx="30.8" ry="25.6" transform="rotate(17.6102 290.835 96.6921)" stroke="black" stroke-width="1.5"/>
<g filter="url(#filter2_i_3058_16719)">
<path d="M331.061 140.516C324.244 161.994 310.555 141.981 283.393 133.359C256.23 124.738 225.88 130.771 232.698 109.294C239.515 87.817 267.061 77.3955 294.223 86.0173C321.385 94.639 337.878 119.039 331.061 140.516Z" fill="#EE4C33"/>
</g>
<path d="M331.061 140.516C324.244 161.994 310.555 141.981 283.393 133.359C256.23 124.738 225.88 130.771 232.698 109.294C239.515 87.817 267.061 77.3955 294.223 86.0173C321.385 94.639 337.878 119.039 331.061 140.516Z" stroke="black" stroke-width="1.5"/>
<path d="M335.639 141.959C328.822 163.436 307.475 147.718 280.313 139.096C253.15 130.475 220.927 129.189 227.744 107.712C234.034 87.8957 263.512 96.8328 287.912 104.578C313.456 112.686 341.931 122.139 335.639 141.959Z" fill="#5CA7C4" stroke="black" stroke-width="1.5"/>
<g filter="url(#filter3_i_3058_16719)">
<path d="M359.904 158.064C356.824 163.801 320.549 157.743 276.331 143.707C232.113 129.672 197.72 113.719 199.777 107.238C204.322 92.9197 243.852 92.6904 288.069 106.726C332.287 120.761 364.449 143.746 359.904 158.064Z" fill="#EE4C33"/>
</g>
<path d="M359.904 158.064C356.824 163.801 320.549 157.743 276.331 143.707C232.113 129.672 197.72 113.719 199.777 107.238C204.322 92.9197 243.852 92.6904 288.069 106.726C332.287 120.761 364.449 143.746 359.904 158.064Z" stroke="black" stroke-width="1.5"/>
<path d="M359.891 158.104C358.151 163.588 320.67 157.362 276.452 143.327C232.234 129.292 198.182 112.263 199.764 107.278C202.445 98.8335 240.463 103.366 284.681 117.402C328.899 131.437 362.572 149.66 359.891 158.104Z" fill="#5CA7C4" stroke="black" stroke-width="1.5"/>
<path d="M359.407 159.629C357.798 164.7 325.62 159.757 285.816 147.883C283.719 147.258 281.602 146.613 279.467 145.95C278.306 145.589 277.139 145.223 275.968 144.851C231.75 130.816 197.698 113.788 199.28 108.802C199.895 106.865 202.369 105.611 206.351 104.998C213.103 103.958 224.191 104.761 237.899 107.202C243.857 108.263 250.311 109.634 257.12 111.297C262.494 112.61 268.09 114.106 273.837 115.776C277.242 116.765 280.7 117.816 284.197 118.926C285.593 119.369 286.978 119.816 288.352 120.267C293.472 121.948 298.435 123.68 303.199 125.442C308.455 127.385 313.467 129.363 318.181 131.347C325.994 134.634 332.987 137.936 338.901 141.111C347.492 145.724 353.809 150.071 357.066 153.729C359.083 155.994 359.926 157.994 359.407 159.629Z" fill="#D0CBC8"/>
<path d="M275.968 144.851C231.75 130.816 197.698 113.788 199.28 108.802C199.895 106.865 202.369 105.611 206.351 104.998M275.968 144.851L267.285 139.881M275.968 144.851L273.837 115.776M275.968 144.851C277.139 145.223 278.306 145.589 279.467 145.95M206.351 104.998C213.103 103.958 224.191 104.761 237.899 107.202M206.351 104.998L258.602 134.91M237.899 107.202L258.602 134.91M237.899 107.202C243.857 108.263 250.311 109.634 257.12 111.297M258.602 134.91L267.285 139.881M267.285 139.881L257.12 111.297M257.12 111.297C262.494 112.61 268.09 114.106 273.837 115.776M273.837 115.776C277.242 116.765 280.7 117.816 284.197 118.926C285.593 119.369 286.978 119.816 288.352 120.267M279.467 145.95L288.352 120.267M279.467 145.95C281.602 146.613 283.719 147.258 285.816 147.883M288.352 120.267C293.472 121.948 298.435 123.68 303.199 125.442M303.199 125.442L285.816 147.883M303.199 125.442C308.455 127.385 313.467 129.363 318.181 131.347M285.816 147.883C325.62 159.757 357.798 164.7 359.407 159.629C359.926 157.994 359.083 155.994 357.066 153.729M285.816 147.883L318.181 131.347M285.816 147.883L298.801 146.227M318.181 131.347C325.994 134.634 332.987 137.936 338.901 141.111M338.901 141.111C347.492 145.724 353.809 150.071 357.066 153.729M338.901 141.111L298.801 146.227M357.066 153.729L298.801 146.227" stroke="black" stroke-width="1.5"/>
<ellipse cx="266.489" cy="92.7419" rx="4" ry="4.4" transform="rotate(17.6102 266.489 92.7419)" fill="#FFE2A5" stroke="black"/>
<ellipse cx="266.489" cy="92.7416" rx="2.4" ry="2.8" transform="rotate(17.6102 266.489 92.7416)" fill="#D9D9D9" stroke="black"/>
<circle cx="291.718" cy="96.5533" r="4.4" transform="rotate(17.6102 291.718 96.5533)" fill="#FFE2A5" stroke="black"/>
<circle cx="291.718" cy="96.553" r="2.8" transform="rotate(17.6102 291.718 96.553)" fill="#D9D9D9" stroke="black"/>
<ellipse cx="313.504" cy="107.245" rx="3.6" ry="4" transform="rotate(17.6102 313.504 107.245)" fill="#FFE2A5" stroke="black"/>
<ellipse cx="313.504" cy="107.245" rx="2" ry="2.4" transform="rotate(17.6102 313.504 107.245)" fill="#D9D9D9" stroke="black"/>
<g filter="url(#filter4_i_3058_16719)">
<path d="M312.831 147.225C311.948 144.187 293.203 134.559 281.843 130.769C270.43 127.147 244.538 123.157 244.352 125.489C244.166 127.821 252.831 140.684 256.824 143.239C260.816 145.794 288.545 153.308 292.574 154.587C296.602 155.865 313.714 150.264 312.831 147.225Z" fill="#EE4C33"/>
</g>
<path d="M312.831 147.225C311.948 144.187 293.203 134.559 281.843 130.769C270.43 127.147 244.538 123.157 244.352 125.489C244.166 127.821 252.831 140.684 256.824 143.239C260.816 145.794 288.545 153.308 292.574 154.587C296.602 155.865 313.714 150.264 312.831 147.225Z" stroke="black" stroke-width="1.5"/>
<ellipse cx="274.516" cy="149.427" rx="18.4" ry="4.8" transform="rotate(17.6102 274.516 149.427)" fill="#6CCFE9" stroke="black" stroke-width="1.5"/>
<ellipse cx="274.516" cy="149.427" rx="16.8" ry="3.2" transform="rotate(17.6102 274.516 149.427)" fill="#C7E5ED" stroke="black" stroke-width="1.5"/>
<path d="M252.413 133.36C252.124 132.338 252.718 131.277 253.739 130.988C254.76 130.699 255.822 131.293 256.11 132.314L256.823 134.835L253.126 135.881L252.413 133.36Z" fill="#C6E5F7" stroke="black"/>
<path d="M299.315 147.815C299.923 146.945 299.711 145.747 298.842 145.139C297.972 144.531 296.774 144.743 296.166 145.613L294.665 147.76L297.814 149.962L299.315 147.815Z" fill="#C6E5F7" stroke="black"/>
<path d="M262.358 133.492C262.587 132.456 263.613 131.802 264.649 132.031C265.685 132.261 266.339 133.287 266.109 134.323L265.543 136.881L261.791 136.05L262.358 133.492Z" fill="#C6E5F7" stroke="black"/>
<path d="M288.373 141.749C288.783 140.771 288.322 139.645 287.344 139.235C286.365 138.825 285.239 139.286 284.829 140.264L283.816 142.681L287.36 144.166L288.373 141.749Z" fill="#C6E5F7" stroke="black"/>
<path d="M273.692 136.155C274.026 135.102 275.151 134.52 276.203 134.854C277.256 135.188 277.839 136.313 277.505 137.365L276.658 140.034L272.845 138.824L273.692 136.155Z" fill="#C6E5F7" stroke="black"/>
<path fill-rule="evenodd" clip-rule="evenodd" d="M289.134 74.2811C289.025 74.7093 288.59 74.9684 288.162 74.8597C286.127 74.3431 280.601 74.0535 275.402 77.2362C275.026 77.4668 274.533 77.3484 274.302 76.9716C274.072 76.5948 274.19 76.1023 274.567 75.8716C280.203 72.4212 286.189 72.7081 288.555 73.3088C288.984 73.4176 289.243 73.8528 289.134 74.2811Z" fill="white" fill-opacity="0.49"/>
<circle cx="272.734" cy="78.3571" r="0.8" transform="rotate(17.6102 272.734 78.3571)" fill="white" fill-opacity="0.49"/>
</g>
<defs>
<filter id="filter0_d_3058_16719" x="190.477" y="69.8193" width="170.605" height="100.539" filterUnits="userSpaceOnUse" color-interpolation-filters="sRGB">
<feFlood flood-opacity="0" result="BackgroundImageFix"/>
<feColorMatrix in="SourceAlpha" type="matrix" values="0 0 0 0 0 0 0 0 0 0 0 0 0 0 0 0 0 0 127 0" result="hardAlpha"/>
<feOffset dx="-4" dy="4"/>
<feGaussianBlur stdDeviation="2"/>
<feComposite in2="hardAlpha" operator="out"/>
<feColorMatrix type="matrix" values="0 0 0 0 0 0 0 0 0 0 0 0 0 0 0 0 0 0 0.1 0"/>
<feBlend mode="normal" in2="BackgroundImageFix" result="effect1_dropShadow_3058_16719"/>
<feBlend mode="normal" in="SourceGraphic" in2="effect1_dropShadow_3058_16719" result="shape"/>
</filter>
<filter id="filter1_i_3058_16719" x="259.712" y="69.8193" width="62.2444" height="53.7451" filterUnits="userSpaceOnUse" color-interpolation-filters="sRGB">
<feFlood flood-opacity="0" result="BackgroundImageFix"/>
<feBlend mode="normal" in="SourceGraphic" in2="BackgroundImageFix" result="shape"/>
<feColorMatrix in="SourceAlpha" type="matrix" values="0 0 0 0 0 0 0 0 0 0 0 0 0 0 0 0 0 0 127 0" result="hardAlpha"/>
<feOffset dx="-4.8" dy="3.2"/>
<feComposite in2="hardAlpha" operator="arithmetic" k2="-1" k3="1"/>
<feColorMatrix type="matrix" values="0 0 0 0 0 0 0 0 0 0 0 0 0 0 0 0 0 0 0.05 0"/>
<feBlend mode="normal" in2="shape" result="effect1_innerShadow_3058_16719"/>
</filter>
<filter id="filter2_i_3058_16719" x="230.977" y="82.2441" width="102.376" height="68.6309" filterUnits="userSpaceOnUse" color-interpolation-filters="sRGB">
<feFlood flood-opacity="0" result="BackgroundImageFix"/>
<feBlend mode="normal" in="SourceGraphic" in2="BackgroundImageFix" result="shape"/>
<feColorMatrix in="SourceAlpha" type="matrix" values="0 0 0 0 0 0 0 0 0 0 0 0 0 0 0 0 0 0 127 0" result="hardAlpha"/>
<feOffset dx="-4.8" dy="3.2"/>
<feComposite in2="hardAlpha" operator="arithmetic" k2="-1" k3="1"/>
<feColorMatrix type="matrix" values="0 0 0 0 0 0 0 0 0 0 0 0 0 0 0 0 0 0 0.05 0"/>
<feBlend mode="normal" in2="shape" result="effect1_innerShadow_3058_16719"/>
</filter>
<filter id="filter3_i_3058_16719" x="198.938" y="95.5977" width="162.144" height="65.3682" filterUnits="userSpaceOnUse" color-interpolation-filters="sRGB">
<feFlood flood-opacity="0" result="BackgroundImageFix"/>
<feBlend mode="normal" in="SourceGraphic" in2="BackgroundImageFix" result="shape"/>
<feColorMatrix in="SourceAlpha" type="matrix" values="0 0 0 0 0 0 0 0 0 0 0 0 0 0 0 0 0 0 127 0" result="hardAlpha"/>
<feOffset dx="-4.8" dy="3.2"/>
<feComposite in2="hardAlpha" operator="arithmetic" k2="-1" k3="1"/>
<feColorMatrix type="matrix" values="0 0 0 0 0 0 0 0 0 0 0 0 0 0 0 0 0 0 0.05 0"/>
<feBlend mode="normal" in2="shape" result="effect1_innerShadow_3058_16719"/>
</filter>
<filter id="filter4_i_3058_16719" x="243.599" y="124.044" width="70.0156" height="31.4795" filterUnits="userSpaceOnUse" color-interpolation-filters="sRGB">
<feFlood flood-opacity="0" result="BackgroundImageFix"/>
<feBlend mode="normal" in="SourceGraphic" in2="BackgroundImageFix" result="shape"/>
<feColorMatrix in="SourceAlpha" type="matrix" values="0 0 0 0 0 0 0 0 0 0 0 0 0 0 0 0 0 0 127 0" result="hardAlpha"/>
<feOffset dx="-4.8" dy="-4.8"/>
<feComposite in2="hardAlpha" operator="arithmetic" k2="-1" k3="1"/>
<feColorMatrix type="matrix" values="0 0 0 0 0 0 0 0 0 0 0 0 0 0 0 0 0 0 0.08 0"/>
<feBlend mode="normal" in2="shape" result="effect1_innerShadow_3058_16719"/>
</filter>
</defs>
</svg>
