<svg width="414" height="414" viewBox="0 0 414 414" fill="none" xmlns="http://www.w3.org/2000/svg">
<circle cx="207" cy="207" r="135" fill="#C3C2C5"/>
<g filter="url(#filter0_d_3058_16812)">
<g filter="url(#filter1_i_3058_16812)">
<ellipse cx="33.8792" cy="25.7447" rx="33.8792" ry="25.7447" transform="matrix(-0.95075 -0.309958 -0.309958 0.95075 318.054 111.35)" fill="#E4A96F"/>
</g>
<path d="M269.651 150.515C260.615 147.569 253.314 142.111 248.828 135.635C244.341 129.158 242.648 121.622 244.94 114.592C247.231 107.562 253.041 102.472 260.483 99.8838C267.925 97.2961 277.039 97.1895 286.076 100.135C295.112 103.081 302.412 108.54 306.899 115.016C311.386 121.493 313.079 129.029 310.787 136.059C308.495 143.089 302.686 148.179 295.244 150.767C287.802 153.354 278.687 153.461 269.651 150.515Z" stroke="black" stroke-width="1.5"/>
<path d="M270.803 143.482C250.516 136.868 233.015 128.125 221.12 119.313C215.176 114.91 210.596 110.464 207.777 106.227C204.964 101.999 203.833 97.8654 205.037 94.1744C206.24 90.4834 209.589 87.8103 214.354 86.0528C219.128 84.2917 225.448 83.3989 232.846 83.3451C247.649 83.2374 266.94 86.4887 287.227 93.1026C307.515 99.7164 325.016 108.46 336.911 117.272C342.855 121.675 347.435 126.121 350.254 130.358C353.067 134.586 354.197 138.719 352.994 142.41C351.79 146.101 348.441 148.775 343.677 150.532C338.902 152.293 332.582 153.186 325.185 153.24C310.382 153.347 291.09 150.096 270.803 143.482Z" fill="#D2873E" stroke="black" stroke-width="1.5"/>
<path d="M271.337 141.011C251.05 134.397 233.549 125.653 221.654 116.841C215.71 112.438 211.13 107.992 208.311 103.755C205.498 99.5273 204.368 95.3937 205.571 91.7027C206.774 88.0118 210.124 85.3386 214.888 83.5811C219.663 81.82 225.983 80.9273 233.38 80.8734C248.183 80.7657 267.475 84.017 287.762 90.6309C308.049 97.2448 325.55 105.988 337.445 114.8C343.389 119.203 347.969 123.65 350.788 127.886C353.601 132.114 354.731 136.248 353.528 139.939C352.325 143.63 348.975 146.303 344.211 148.06C339.436 149.821 333.116 150.714 325.719 150.768C310.916 150.876 291.625 147.625 271.337 141.011Z" fill="#79A58E" stroke="black" stroke-width="1.5"/>
<g filter="url(#filter2_i_3058_16812)">
<path d="M346.88 129.825C349.571 130.217 351.446 132.644 351.067 135.245C351.01 135.633 350.906 136.003 350.762 136.351C349.998 136.554 347.891 136.807 345.569 136.197C343.248 135.587 341.769 134.361 341.32 133.823C341.699 131.222 344.189 129.432 346.88 129.825Z" fill="#E4C594"/>
</g>
<path d="M351.455 136.638L351.313 136.98L350.955 137.076C350.078 137.309 347.838 137.569 345.379 136.923C342.912 136.274 341.297 134.965 340.745 134.305L340.529 134.047L340.578 133.715C341.02 130.681 343.911 128.634 346.988 129.082C350.065 129.531 352.251 132.318 351.809 135.353C351.743 135.803 351.623 136.234 351.455 136.638Z" stroke="black" stroke-width="1.5"/>
<g filter="url(#filter3_i_3058_16812)">
<path d="M327.603 108.434C332.179 109.101 335.365 113.226 334.72 117.648C334.624 118.308 334.448 118.937 334.203 119.528C332.904 119.873 329.321 120.304 325.375 119.267C321.429 118.23 318.915 116.145 318.151 115.232C318.796 110.81 323.028 107.766 327.603 108.434Z" fill="#E4C594"/>
</g>
<path d="M334.895 119.816L334.753 120.158L334.395 120.253C332.984 120.628 329.268 121.066 325.185 119.992C321.092 118.917 318.442 116.749 317.576 115.713L317.361 115.456L317.409 115.124C318.117 110.268 322.75 106.968 327.711 107.691C332.673 108.415 336.17 112.901 335.462 117.756C335.357 118.478 335.164 119.168 334.895 119.816Z" stroke="black" stroke-width="1.5"/>
<g filter="url(#filter4_i_3058_16812)">
<path d="M216.899 88.3085C219.411 88.6747 221.155 90.9748 220.795 93.4457C220.741 93.8146 220.644 94.1664 220.508 94.4969C219.795 94.6915 217.826 94.9372 215.66 94.3634C213.494 93.7895 212.116 92.6282 211.698 92.1193C212.059 89.6483 214.387 87.9422 216.899 88.3085Z" fill="#E4C594"/>
</g>
<path d="M221.202 94.7816L221.062 95.1233L220.705 95.2204C219.878 95.4462 217.774 95.6993 215.468 95.0884C213.154 94.4751 211.639 93.2285 211.119 92.5954L210.908 92.3392L210.956 92.011C211.378 89.1187 214.097 87.1419 217.007 87.5663C219.918 87.9907 221.959 90.6616 221.537 93.5539C221.475 93.9839 221.361 94.395 221.202 94.7816Z" stroke="black" stroke-width="1.5"/>
<g filter="url(#filter5_ii_3058_16812)">
<path d="M332.162 144.593C333.369 144.478 334.447 145.449 334.572 146.761C334.59 146.957 334.586 147.149 334.563 147.335C334.255 147.521 333.372 147.884 332.301 147.85C331.231 147.816 330.456 147.386 330.202 147.175C330.078 145.863 330.955 144.707 332.162 144.593Z" fill="#B73849"/>
</g>
<path d="M334.91 147.38L334.888 147.548L334.743 147.635C334.385 147.851 333.436 148.236 332.29 148.2C331.139 148.163 330.29 147.703 329.978 147.444L329.867 147.352L329.853 147.208C329.714 145.731 330.703 144.379 332.129 144.244C333.555 144.109 334.78 145.252 334.92 146.728C334.941 146.95 334.937 147.168 334.91 147.38Z" stroke="black" stroke-width="0.7"/>
<g filter="url(#filter6_ii_3058_16812)">
<path d="M321.885 144.504C323.097 144.528 324.058 145.616 324.032 146.933C324.028 147.13 324.002 147.321 323.957 147.503C323.631 147.652 322.712 147.912 321.652 147.756C320.592 147.601 319.872 147.085 319.644 146.846C319.67 145.529 320.673 144.48 321.885 144.504Z" fill="#B73849"/>
</g>
<path d="M324.297 147.587L324.257 147.751L324.103 147.821C323.722 147.995 322.736 148.269 321.601 148.103C320.462 147.935 319.671 147.381 319.391 147.088L319.291 146.983L319.294 146.839C319.323 145.356 320.46 144.126 321.892 144.154C323.324 144.183 324.411 145.458 324.382 146.94C324.377 147.163 324.348 147.38 324.297 147.587Z" stroke="black" stroke-width="0.7"/>
<g filter="url(#filter7_ii_3058_16812)">
<path d="M311.069 143.591C312.281 143.615 313.242 144.703 313.216 146.02C313.212 146.217 313.186 146.408 313.142 146.59C312.815 146.739 311.896 146.999 310.836 146.843C309.776 146.687 309.056 146.171 308.828 145.933C308.854 144.615 309.857 143.567 311.069 143.591Z" fill="#B73849"/>
</g>
<path d="M313.481 146.674L313.441 146.838L313.287 146.908C312.906 147.082 311.92 147.356 310.785 147.19C309.646 147.022 308.855 146.468 308.575 146.175L308.475 146.07L308.478 145.926C308.507 144.443 309.644 143.213 311.076 143.241C312.508 143.27 313.595 144.545 313.566 146.027C313.562 146.25 313.532 146.466 313.481 146.674Z" stroke="black" stroke-width="0.7"/>
<g filter="url(#filter8_ii_3058_16812)">
<path d="M300.071 141.655C301.282 141.679 302.243 142.766 302.217 144.084C302.213 144.28 302.188 144.471 302.143 144.653C301.816 144.803 300.898 145.063 299.838 144.907C298.778 144.751 298.057 144.235 297.829 143.996C297.855 142.679 298.859 141.63 300.071 141.655Z" fill="#B73849"/>
</g>
<path d="M302.483 144.737L302.442 144.901L302.288 144.971C301.908 145.146 300.921 145.42 299.787 145.253C298.647 145.086 297.856 144.532 297.576 144.238L297.476 144.134L297.479 143.989C297.508 142.507 298.645 141.276 300.077 141.305C301.51 141.333 302.597 142.608 302.567 144.091C302.563 144.313 302.534 144.53 302.483 144.737Z" stroke="black" stroke-width="0.7"/>
<g filter="url(#filter9_ii_3058_16812)">
<path d="M290.744 139.631C291.956 139.655 292.917 140.743 292.891 142.06C292.887 142.257 292.861 142.448 292.816 142.63C292.489 142.779 291.571 143.039 290.511 142.883C289.451 142.727 288.73 142.212 288.502 141.973C288.528 140.656 289.532 139.607 290.744 139.631Z" fill="#B73849"/>
</g>
<path d="M293.156 142.714L293.115 142.878L292.962 142.948C292.581 143.122 291.594 143.396 290.46 143.23C289.321 143.062 288.529 142.508 288.249 142.215L288.149 142.11L288.152 141.966C288.182 140.483 289.319 139.253 290.751 139.281C292.183 139.31 293.27 140.585 293.241 142.067C293.236 142.29 293.207 142.506 293.156 142.714Z" stroke="black" stroke-width="0.7"/>
<g filter="url(#filter10_ii_3058_16812)">
<path d="M279.732 136.354C280.939 136.468 281.817 137.624 281.693 138.936C281.674 139.132 281.634 139.32 281.576 139.498C281.239 139.623 280.304 139.814 279.258 139.58C278.213 139.346 277.532 138.778 277.323 138.523C277.447 137.211 278.526 136.24 279.732 136.354Z" fill="#B73849"/>
</g>
<path d="M281.909 139.607L281.856 139.768L281.698 139.826C281.305 139.972 280.301 140.172 279.182 139.922C278.058 139.67 277.31 139.059 277.052 138.745L276.961 138.634L276.974 138.49C277.114 137.014 278.339 135.871 279.765 136.006C281.191 136.14 282.181 137.493 282.041 138.969C282.02 139.191 281.975 139.404 281.909 139.607Z" stroke="black" stroke-width="0.7"/>
<g filter="url(#filter11_ii_3058_16812)">
<path d="M269.701 133.08C270.907 133.194 271.785 134.35 271.661 135.662C271.643 135.857 271.603 136.046 271.544 136.224C271.208 136.349 270.272 136.54 269.227 136.306C268.181 136.071 267.501 135.503 267.291 135.249C267.415 133.937 268.494 132.966 269.701 133.08Z" fill="#B73849"/>
</g>
<path d="M271.877 136.333L271.825 136.493L271.666 136.552C271.273 136.697 270.269 136.898 269.15 136.647C268.027 136.395 267.279 135.784 267.021 135.471L266.929 135.359L266.943 135.216C267.082 133.739 268.308 132.596 269.734 132.731C271.16 132.866 272.149 134.218 272.01 135.694C271.989 135.916 271.943 136.13 271.877 136.333Z" stroke="black" stroke-width="0.7"/>
<g filter="url(#filter12_ii_3058_16812)">
<path d="M259.106 129.516C260.298 129.736 261.07 130.966 260.831 132.261C260.795 132.455 260.739 132.639 260.665 132.811C260.318 132.906 259.37 133.013 258.349 132.688C257.329 132.362 256.701 131.736 256.515 131.464C256.754 130.168 257.914 129.296 259.106 129.516Z" fill="#B73849"/>
</g>
<path d="M260.987 132.949L260.92 133.104L260.757 133.149C260.353 133.259 259.335 133.37 258.243 133.021C257.146 132.671 256.455 131.996 256.226 131.661L256.144 131.542L256.17 131.4C256.44 129.942 257.761 128.912 259.17 129.172C260.578 129.432 261.445 130.867 261.175 132.325C261.135 132.544 261.071 132.753 260.987 132.949Z" stroke="black" stroke-width="0.7"/>
<g filter="url(#filter13_ii_3058_16812)">
<path d="M249.124 125.263C250.293 125.582 250.959 126.872 250.611 128.143C250.559 128.333 250.488 128.512 250.4 128.677C250.046 128.742 249.092 128.769 248.103 128.359C247.113 127.948 246.54 127.272 246.378 126.985C246.725 125.714 247.955 124.943 249.124 125.263Z" fill="#B73849"/>
</g>
<path d="M250.709 128.842L250.629 128.991L250.463 129.021C250.051 129.097 249.028 129.122 247.968 128.682C246.905 128.241 246.273 127.51 246.073 127.157L246.002 127.032L246.04 126.892C246.431 125.462 247.835 124.547 249.217 124.925C250.598 125.303 251.34 126.805 250.949 128.236C250.89 128.45 250.809 128.653 250.709 128.842Z" stroke="black" stroke-width="0.7"/>
<g filter="url(#filter14_ii_3058_16812)">
<path d="M239.574 120.221C240.743 120.54 241.409 121.83 241.061 123.101C241.009 123.291 240.938 123.47 240.849 123.635C240.496 123.7 239.542 123.727 238.552 123.317C237.563 122.906 236.99 122.23 236.827 121.943C237.175 120.672 238.405 119.901 239.574 120.221Z" fill="#B73849"/>
</g>
<path d="M241.158 123.8L241.079 123.949L240.913 123.979C240.501 124.055 239.477 124.08 238.418 123.64C237.355 123.199 236.723 122.468 236.523 122.115L236.452 121.99L236.49 121.85C236.881 120.42 238.285 119.505 239.666 119.883C241.048 120.261 241.79 121.763 241.399 123.194C241.34 123.408 241.259 123.611 241.158 123.8Z" stroke="black" stroke-width="0.7"/>
<g filter="url(#filter15_ii_3058_16812)">
<path d="M230.724 115.107C231.866 115.513 232.434 116.848 231.993 118.09C231.928 118.276 231.843 118.448 231.743 118.607C231.386 118.646 230.432 118.602 229.476 118.12C228.519 117.637 227.998 116.92 227.857 116.621C228.298 115.38 229.582 114.702 230.724 115.107Z" fill="#B73849"/>
</g>
<path d="M232.039 118.794L231.948 118.937L231.78 118.955C231.364 119 230.342 118.949 229.318 118.432C228.29 117.913 227.714 117.138 227.541 116.771L227.479 116.64L227.527 116.504C228.024 115.107 229.491 114.298 230.841 114.778C232.191 115.257 232.819 116.81 232.323 118.207C232.249 118.417 232.153 118.613 232.039 118.794Z" stroke="black" stroke-width="0.7"/>
<circle cx="1.2825" cy="1.2825" r="1.2825" transform="matrix(-0.989536 -0.144289 -0.144289 0.989536 350.538 132.237)" fill="white" fill-opacity="0.59"/>
<circle cx="1.71" cy="1.71" r="1.71" transform="matrix(-0.989536 -0.144289 -0.144289 0.989536 333.547 112.479)" fill="white" fill-opacity="0.59"/>
<circle cx="1.2825" cy="1.2825" r="1.2825" transform="matrix(-0.989536 -0.144289 -0.144289 0.989536 220.07 90.7471)" fill="white" fill-opacity="0.59"/>
<path d="M250.096 118.888C277.621 133.961 301.047 130.926 309.32 127.524C304.363 102.262 259.851 90.5009 238.215 87.778C230.707 91.8674 222.571 103.815 250.096 118.888Z" fill="black" fill-opacity="0.1"/>
<g filter="url(#filter16_i_3058_16812)">
<path d="M242.944 81.4893C247.519 82.1564 250.706 86.2817 250.061 90.7034C249.965 91.3635 249.788 91.9929 249.543 92.5838C248.245 92.9289 244.662 93.3599 240.716 92.3227C236.769 91.2856 234.255 89.2004 233.492 88.2874C234.136 83.8657 238.368 80.8221 242.944 81.4893Z" fill="#E4C594"/>
</g>
<path d="M250.236 92.8714L250.094 93.2135L249.736 93.3087C248.324 93.6838 244.609 94.1214 240.525 93.0481C236.433 91.9726 233.783 89.8044 232.916 88.7686L232.701 88.5112L232.75 88.1792C233.457 83.3239 238.091 80.0237 243.052 80.7471C248.013 81.4705 251.511 85.9564 250.803 90.8116C250.698 91.534 250.505 92.2236 250.236 92.8714Z" stroke="black" stroke-width="1.5"/>
<circle cx="1.71" cy="1.71" r="1.71" transform="matrix(-0.989536 -0.144289 -0.144289 0.989536 246.931 84.2969)" fill="white" fill-opacity="0.59"/>
<g filter="url(#filter17_i_3058_16812)">
<path d="M288.718 67.9243C312.134 71.3386 328.411 92.652 325.076 115.529C324.578 118.944 323.671 122.202 322.41 125.26C315.762 127.056 297.418 129.314 277.226 123.98C257.035 118.647 244.183 107.881 240.281 103.165C243.617 80.2877 265.303 64.5099 288.718 67.9243Z" fill="#E4A96F"/>
</g>
<path d="M323.103 125.546L322.962 125.888L322.605 125.984C315.844 127.811 297.366 130.075 277.035 124.706C256.696 119.333 243.707 108.483 239.703 103.643L239.491 103.386L239.539 103.057C242.937 79.7534 265.017 63.7104 288.826 67.1821C312.635 70.6538 329.216 92.3342 325.818 115.637C325.311 119.114 324.387 122.431 323.103 125.546Z" stroke="black" stroke-width="1.5"/>
<path d="M318.72 97.683C316.973 91.4561 309.206 82.5265 305.541 78.84C308.617 82.7724 313.329 99.3854 314.063 102.313C314.797 105.24 315.298 108.631 318.016 108.198C320.733 107.765 320.903 105.467 318.72 97.683Z" fill="white" fill-opacity="0.76"/>
<circle cx="2.95488" cy="2.95488" r="2.95488" transform="matrix(-0.989536 -0.144289 -0.144289 0.989536 322.047 111.271)" fill="white" fill-opacity="0.76"/>
</g>
<defs>
<filter id="filter0_d_3058_16812" x="195.809" y="65.96" width="158.947" height="96.0322" filterUnits="userSpaceOnUse" color-interpolation-filters="sRGB">
<feFlood flood-opacity="0" result="BackgroundImageFix"/>
<feColorMatrix in="SourceAlpha" type="matrix" values="0 0 0 0 0 0 0 0 0 0 0 0 0 0 0 0 0 0 127 0" result="hardAlpha"/>
<feOffset dx="-4" dy="4"/>
<feGaussianBlur stdDeviation="2"/>
<feComposite in2="hardAlpha" operator="out"/>
<feColorMatrix type="matrix" values="0 0 0 0 0 0 0 0 0 0 0 0 0 0 0 0 0 0 0.1 0"/>
<feBlend mode="normal" in2="BackgroundImageFix" result="effect1_dropShadow_3058_16812"/>
<feBlend mode="normal" in="SourceGraphic" in2="effect1_dropShadow_3058_16812" result="shape"/>
</filter>
<filter id="filter1_i_3058_16812" x="243.17" y="97.1846" width="69.3859" height="56.2822" filterUnits="userSpaceOnUse" color-interpolation-filters="sRGB">
<feFlood flood-opacity="0" result="BackgroundImageFix"/>
<feBlend mode="normal" in="SourceGraphic" in2="BackgroundImageFix" result="shape"/>
<feColorMatrix in="SourceAlpha" type="matrix" values="0 0 0 0 0 0 0 0 0 0 0 0 0 0 0 0 0 0 127 0" result="hardAlpha"/>
<feOffset dx="13.68"/>
<feComposite in2="hardAlpha" operator="arithmetic" k2="-1" k3="1"/>
<feColorMatrix type="matrix" values="0 0 0 0 0 0 0 0 0 0 0 0 0 0 0 0 0 0 0.2 0"/>
<feBlend mode="normal" in2="shape" result="effect1_innerShadow_3058_16812"/>
</filter>
<filter id="filter2_i_3058_16812" x="339.739" y="128.271" width="12.8771" height="9.80957" filterUnits="userSpaceOnUse" color-interpolation-filters="sRGB">
<feFlood flood-opacity="0" result="BackgroundImageFix"/>
<feBlend mode="normal" in="SourceGraphic" in2="BackgroundImageFix" result="shape"/>
<feColorMatrix in="SourceAlpha" type="matrix" values="0 0 0 0 0 0 0 0 0 0 0 0 0 0 0 0 0 0 127 0" result="hardAlpha"/>
<feOffset dx="3.42" dy="-1.71"/>
<feComposite in2="hardAlpha" operator="arithmetic" k2="-1" k3="1"/>
<feColorMatrix type="matrix" values="0 0 0 0 0 0 0 0 0 0 0 0 0 0 0 0 0 0 0.15 0"/>
<feBlend mode="normal" in2="shape" result="effect1_innerShadow_3058_16812"/>
</filter>
<filter id="filter3_i_3058_16812" x="316.57" y="106.842" width="19.7338" height="14.5762" filterUnits="userSpaceOnUse" color-interpolation-filters="sRGB">
<feFlood flood-opacity="0" result="BackgroundImageFix"/>
<feBlend mode="normal" in="SourceGraphic" in2="BackgroundImageFix" result="shape"/>
<feColorMatrix in="SourceAlpha" type="matrix" values="0 0 0 0 0 0 0 0 0 0 0 0 0 0 0 0 0 0 127 0" result="hardAlpha"/>
<feOffset dx="3.42" dy="-1.71"/>
<feComposite in2="hardAlpha" operator="arithmetic" k2="-1" k3="1"/>
<feColorMatrix type="matrix" values="0 0 0 0 0 0 0 0 0 0 0 0 0 0 0 0 0 0 0.15 0"/>
<feBlend mode="normal" in2="shape" result="effect1_innerShadow_3058_16812"/>
</filter>
<filter id="filter4_i_3058_16812" x="210.118" y="86.7588" width="12.2243" height="9.46094" filterUnits="userSpaceOnUse" color-interpolation-filters="sRGB">
<feFlood flood-opacity="0" result="BackgroundImageFix"/>
<feBlend mode="normal" in="SourceGraphic" in2="BackgroundImageFix" result="shape"/>
<feColorMatrix in="SourceAlpha" type="matrix" values="0 0 0 0 0 0 0 0 0 0 0 0 0 0 0 0 0 0 127 0" result="hardAlpha"/>
<feOffset dx="3.42" dy="-1.71"/>
<feComposite in2="hardAlpha" operator="arithmetic" k2="-1" k3="1"/>
<feColorMatrix type="matrix" values="0 0 0 0 0 0 0 0 0 0 0 0 0 0 0 0 0 0 0.15 0"/>
<feBlend mode="normal" in2="shape" result="effect1_innerShadow_3058_16812"/>
</filter>
<filter id="filter5_ii_3058_16812" x="329.49" y="143.883" width="5.79294" height="4.66992" filterUnits="userSpaceOnUse" color-interpolation-filters="sRGB">
<feFlood flood-opacity="0" result="BackgroundImageFix"/>
<feBlend mode="normal" in="SourceGraphic" in2="BackgroundImageFix" result="shape"/>
<feColorMatrix in="SourceAlpha" type="matrix" values="0 0 0 0 0 0 0 0 0 0 0 0 0 0 0 0 0 0 127 0" result="hardAlpha"/>
<feOffset dx="1.2825" dy="0.4275"/>
<feComposite in2="hardAlpha" operator="arithmetic" k2="-1" k3="1"/>
<feColorMatrix type="matrix" values="0 0 0 0 1 0 0 0 0 1 0 0 0 0 1 0 0 0 1 0"/>
<feBlend mode="normal" in2="shape" result="effect1_innerShadow_3058_16812"/>
<feColorMatrix in="SourceAlpha" type="matrix" values="0 0 0 0 0 0 0 0 0 0 0 0 0 0 0 0 0 0 127 0" result="hardAlpha"/>
<feOffset dx="-1.71" dy="-0.855"/>
<feComposite in2="hardAlpha" operator="arithmetic" k2="-1" k3="1"/>
<feColorMatrix type="matrix" values="0 0 0 0 0 0 0 0 0 0 0 0 0 0 0 0 0 0 0.25 0"/>
<feBlend mode="normal" in2="effect1_innerShadow_3058_16812" result="effect2_innerShadow_3058_16812"/>
</filter>
<filter id="filter6_ii_3058_16812" x="318.938" y="143.804" width="5.79456" height="4.70117" filterUnits="userSpaceOnUse" color-interpolation-filters="sRGB">
<feFlood flood-opacity="0" result="BackgroundImageFix"/>
<feBlend mode="normal" in="SourceGraphic" in2="BackgroundImageFix" result="shape"/>
<feColorMatrix in="SourceAlpha" type="matrix" values="0 0 0 0 0 0 0 0 0 0 0 0 0 0 0 0 0 0 127 0" result="hardAlpha"/>
<feOffset dx="1.2825" dy="0.4275"/>
<feComposite in2="hardAlpha" operator="arithmetic" k2="-1" k3="1"/>
<feColorMatrix type="matrix" values="0 0 0 0 1 0 0 0 0 1 0 0 0 0 1 0 0 0 1 0"/>
<feBlend mode="normal" in2="shape" result="effect1_innerShadow_3058_16812"/>
<feColorMatrix in="SourceAlpha" type="matrix" values="0 0 0 0 0 0 0 0 0 0 0 0 0 0 0 0 0 0 127 0" result="hardAlpha"/>
<feOffset dx="-1.71" dy="-0.855"/>
<feComposite in2="hardAlpha" operator="arithmetic" k2="-1" k3="1"/>
<feColorMatrix type="matrix" values="0 0 0 0 0 0 0 0 0 0 0 0 0 0 0 0 0 0 0.25 0"/>
<feBlend mode="normal" in2="effect1_innerShadow_3058_16812" result="effect2_innerShadow_3058_16812"/>
</filter>
<filter id="filter7_ii_3058_16812" x="308.122" y="142.891" width="5.79456" height="4.70117" filterUnits="userSpaceOnUse" color-interpolation-filters="sRGB">
<feFlood flood-opacity="0" result="BackgroundImageFix"/>
<feBlend mode="normal" in="SourceGraphic" in2="BackgroundImageFix" result="shape"/>
<feColorMatrix in="SourceAlpha" type="matrix" values="0 0 0 0 0 0 0 0 0 0 0 0 0 0 0 0 0 0 127 0" result="hardAlpha"/>
<feOffset dx="1.2825" dy="0.4275"/>
<feComposite in2="hardAlpha" operator="arithmetic" k2="-1" k3="1"/>
<feColorMatrix type="matrix" values="0 0 0 0 1 0 0 0 0 1 0 0 0 0 1 0 0 0 1 0"/>
<feBlend mode="normal" in2="shape" result="effect1_innerShadow_3058_16812"/>
<feColorMatrix in="SourceAlpha" type="matrix" values="0 0 0 0 0 0 0 0 0 0 0 0 0 0 0 0 0 0 127 0" result="hardAlpha"/>
<feOffset dx="-1.71" dy="-0.855"/>
<feComposite in2="hardAlpha" operator="arithmetic" k2="-1" k3="1"/>
<feColorMatrix type="matrix" values="0 0 0 0 0 0 0 0 0 0 0 0 0 0 0 0 0 0 0.25 0"/>
<feBlend mode="normal" in2="effect1_innerShadow_3058_16812" result="effect2_innerShadow_3058_16812"/>
</filter>
<filter id="filter8_ii_3058_16812" x="297.123" y="140.954" width="5.79456" height="4.70117" filterUnits="userSpaceOnUse" color-interpolation-filters="sRGB">
<feFlood flood-opacity="0" result="BackgroundImageFix"/>
<feBlend mode="normal" in="SourceGraphic" in2="BackgroundImageFix" result="shape"/>
<feColorMatrix in="SourceAlpha" type="matrix" values="0 0 0 0 0 0 0 0 0 0 0 0 0 0 0 0 0 0 127 0" result="hardAlpha"/>
<feOffset dx="1.2825" dy="0.4275"/>
<feComposite in2="hardAlpha" operator="arithmetic" k2="-1" k3="1"/>
<feColorMatrix type="matrix" values="0 0 0 0 1 0 0 0 0 1 0 0 0 0 1 0 0 0 1 0"/>
<feBlend mode="normal" in2="shape" result="effect1_innerShadow_3058_16812"/>
<feColorMatrix in="SourceAlpha" type="matrix" values="0 0 0 0 0 0 0 0 0 0 0 0 0 0 0 0 0 0 127 0" result="hardAlpha"/>
<feOffset dx="-1.71" dy="-0.855"/>
<feComposite in2="hardAlpha" operator="arithmetic" k2="-1" k3="1"/>
<feColorMatrix type="matrix" values="0 0 0 0 0 0 0 0 0 0 0 0 0 0 0 0 0 0 0.25 0"/>
<feBlend mode="normal" in2="effect1_innerShadow_3058_16812" result="effect2_innerShadow_3058_16812"/>
</filter>
<filter id="filter9_ii_3058_16812" x="287.797" y="138.931" width="5.79456" height="4.70117" filterUnits="userSpaceOnUse" color-interpolation-filters="sRGB">
<feFlood flood-opacity="0" result="BackgroundImageFix"/>
<feBlend mode="normal" in="SourceGraphic" in2="BackgroundImageFix" result="shape"/>
<feColorMatrix in="SourceAlpha" type="matrix" values="0 0 0 0 0 0 0 0 0 0 0 0 0 0 0 0 0 0 127 0" result="hardAlpha"/>
<feOffset dx="1.2825" dy="0.4275"/>
<feComposite in2="hardAlpha" operator="arithmetic" k2="-1" k3="1"/>
<feColorMatrix type="matrix" values="0 0 0 0 1 0 0 0 0 1 0 0 0 0 1 0 0 0 1 0"/>
<feBlend mode="normal" in2="shape" result="effect1_innerShadow_3058_16812"/>
<feColorMatrix in="SourceAlpha" type="matrix" values="0 0 0 0 0 0 0 0 0 0 0 0 0 0 0 0 0 0 127 0" result="hardAlpha"/>
<feOffset dx="-1.71" dy="-0.855"/>
<feComposite in2="hardAlpha" operator="arithmetic" k2="-1" k3="1"/>
<feColorMatrix type="matrix" values="0 0 0 0 0 0 0 0 0 0 0 0 0 0 0 0 0 0 0.25 0"/>
<feBlend mode="normal" in2="effect1_innerShadow_3058_16812" result="effect2_innerShadow_3058_16812"/>
</filter>
<filter id="filter10_ii_3058_16812" x="276.599" y="135.645" width="5.80533" height="4.74609" filterUnits="userSpaceOnUse" color-interpolation-filters="sRGB">
<feFlood flood-opacity="0" result="BackgroundImageFix"/>
<feBlend mode="normal" in="SourceGraphic" in2="BackgroundImageFix" result="shape"/>
<feColorMatrix in="SourceAlpha" type="matrix" values="0 0 0 0 0 0 0 0 0 0 0 0 0 0 0 0 0 0 127 0" result="hardAlpha"/>
<feOffset dx="1.2825" dy="0.4275"/>
<feComposite in2="hardAlpha" operator="arithmetic" k2="-1" k3="1"/>
<feColorMatrix type="matrix" values="0 0 0 0 1 0 0 0 0 1 0 0 0 0 1 0 0 0 1 0"/>
<feBlend mode="normal" in2="shape" result="effect1_innerShadow_3058_16812"/>
<feColorMatrix in="SourceAlpha" type="matrix" values="0 0 0 0 0 0 0 0 0 0 0 0 0 0 0 0 0 0 127 0" result="hardAlpha"/>
<feOffset dx="-1.71" dy="-0.855"/>
<feComposite in2="hardAlpha" operator="arithmetic" k2="-1" k3="1"/>
<feColorMatrix type="matrix" values="0 0 0 0 0 0 0 0 0 0 0 0 0 0 0 0 0 0 0.25 0"/>
<feBlend mode="normal" in2="effect1_innerShadow_3058_16812" result="effect2_innerShadow_3058_16812"/>
</filter>
<filter id="filter11_ii_3058_16812" x="266.567" y="132.37" width="5.80533" height="4.74609" filterUnits="userSpaceOnUse" color-interpolation-filters="sRGB">
<feFlood flood-opacity="0" result="BackgroundImageFix"/>
<feBlend mode="normal" in="SourceGraphic" in2="BackgroundImageFix" result="shape"/>
<feColorMatrix in="SourceAlpha" type="matrix" values="0 0 0 0 0 0 0 0 0 0 0 0 0 0 0 0 0 0 127 0" result="hardAlpha"/>
<feOffset dx="1.2825" dy="0.4275"/>
<feComposite in2="hardAlpha" operator="arithmetic" k2="-1" k3="1"/>
<feColorMatrix type="matrix" values="0 0 0 0 1 0 0 0 0 1 0 0 0 0 1 0 0 0 1 0"/>
<feBlend mode="normal" in2="shape" result="effect1_innerShadow_3058_16812"/>
<feColorMatrix in="SourceAlpha" type="matrix" values="0 0 0 0 0 0 0 0 0 0 0 0 0 0 0 0 0 0 127 0" result="hardAlpha"/>
<feOffset dx="-1.71" dy="-0.855"/>
<feComposite in2="hardAlpha" operator="arithmetic" k2="-1" k3="1"/>
<feColorMatrix type="matrix" values="0 0 0 0 0 0 0 0 0 0 0 0 0 0 0 0 0 0 0.25 0"/>
<feBlend mode="normal" in2="effect1_innerShadow_3058_16812" result="effect2_innerShadow_3058_16812"/>
</filter>
<filter id="filter12_ii_3058_16812" x="255.774" y="128.781" width="5.79987" height="4.82617" filterUnits="userSpaceOnUse" color-interpolation-filters="sRGB">
<feFlood flood-opacity="0" result="BackgroundImageFix"/>
<feBlend mode="normal" in="SourceGraphic" in2="BackgroundImageFix" result="shape"/>
<feColorMatrix in="SourceAlpha" type="matrix" values="0 0 0 0 0 0 0 0 0 0 0 0 0 0 0 0 0 0 127 0" result="hardAlpha"/>
<feOffset dx="1.2825" dy="0.4275"/>
<feComposite in2="hardAlpha" operator="arithmetic" k2="-1" k3="1"/>
<feColorMatrix type="matrix" values="0 0 0 0 1 0 0 0 0 1 0 0 0 0 1 0 0 0 1 0"/>
<feBlend mode="normal" in2="shape" result="effect1_innerShadow_3058_16812"/>
<feColorMatrix in="SourceAlpha" type="matrix" values="0 0 0 0 0 0 0 0 0 0 0 0 0 0 0 0 0 0 127 0" result="hardAlpha"/>
<feOffset dx="-1.71" dy="-0.855"/>
<feComposite in2="hardAlpha" operator="arithmetic" k2="-1" k3="1"/>
<feColorMatrix type="matrix" values="0 0 0 0 0 0 0 0 0 0 0 0 0 0 0 0 0 0 0.25 0"/>
<feBlend mode="normal" in2="effect1_innerShadow_3058_16812" result="effect2_innerShadow_3058_16812"/>
</filter>
<filter id="filter13_ii_3058_16812" x="245.626" y="124.488" width="5.77609" height="4.92676" filterUnits="userSpaceOnUse" color-interpolation-filters="sRGB">
<feFlood flood-opacity="0" result="BackgroundImageFix"/>
<feBlend mode="normal" in="SourceGraphic" in2="BackgroundImageFix" result="shape"/>
<feColorMatrix in="SourceAlpha" type="matrix" values="0 0 0 0 0 0 0 0 0 0 0 0 0 0 0 0 0 0 127 0" result="hardAlpha"/>
<feOffset dx="1.2825" dy="0.4275"/>
<feComposite in2="hardAlpha" operator="arithmetic" k2="-1" k3="1"/>
<feColorMatrix type="matrix" values="0 0 0 0 1 0 0 0 0 1 0 0 0 0 1 0 0 0 1 0"/>
<feBlend mode="normal" in2="shape" result="effect1_innerShadow_3058_16812"/>
<feColorMatrix in="SourceAlpha" type="matrix" values="0 0 0 0 0 0 0 0 0 0 0 0 0 0 0 0 0 0 127 0" result="hardAlpha"/>
<feOffset dx="-1.71" dy="-0.855"/>
<feComposite in2="hardAlpha" operator="arithmetic" k2="-1" k3="1"/>
<feColorMatrix type="matrix" values="0 0 0 0 0 0 0 0 0 0 0 0 0 0 0 0 0 0 0.25 0"/>
<feBlend mode="normal" in2="effect1_innerShadow_3058_16812" result="effect2_innerShadow_3058_16812"/>
</filter>
<filter id="filter14_ii_3058_16812" x="236.076" y="119.446" width="5.77609" height="4.92676" filterUnits="userSpaceOnUse" color-interpolation-filters="sRGB">
<feFlood flood-opacity="0" result="BackgroundImageFix"/>
<feBlend mode="normal" in="SourceGraphic" in2="BackgroundImageFix" result="shape"/>
<feColorMatrix in="SourceAlpha" type="matrix" values="0 0 0 0 0 0 0 0 0 0 0 0 0 0 0 0 0 0 127 0" result="hardAlpha"/>
<feOffset dx="1.2825" dy="0.4275"/>
<feComposite in2="hardAlpha" operator="arithmetic" k2="-1" k3="1"/>
<feColorMatrix type="matrix" values="0 0 0 0 1 0 0 0 0 1 0 0 0 0 1 0 0 0 1 0"/>
<feBlend mode="normal" in2="shape" result="effect1_innerShadow_3058_16812"/>
<feColorMatrix in="SourceAlpha" type="matrix" values="0 0 0 0 0 0 0 0 0 0 0 0 0 0 0 0 0 0 127 0" result="hardAlpha"/>
<feOffset dx="-1.71" dy="-0.855"/>
<feComposite in2="hardAlpha" operator="arithmetic" k2="-1" k3="1"/>
<feColorMatrix type="matrix" values="0 0 0 0 0 0 0 0 0 0 0 0 0 0 0 0 0 0 0.25 0"/>
<feBlend mode="normal" in2="effect1_innerShadow_3058_16812" result="effect2_innerShadow_3058_16812"/>
</filter>
<filter id="filter15_ii_3058_16812" x="227.101" y="114.288" width="5.74036" height="5.0293" filterUnits="userSpaceOnUse" color-interpolation-filters="sRGB">
<feFlood flood-opacity="0" result="BackgroundImageFix"/>
<feBlend mode="normal" in="SourceGraphic" in2="BackgroundImageFix" result="shape"/>
<feColorMatrix in="SourceAlpha" type="matrix" values="0 0 0 0 0 0 0 0 0 0 0 0 0 0 0 0 0 0 127 0" result="hardAlpha"/>
<feOffset dx="1.2825" dy="0.4275"/>
<feComposite in2="hardAlpha" operator="arithmetic" k2="-1" k3="1"/>
<feColorMatrix type="matrix" values="0 0 0 0 1 0 0 0 0 1 0 0 0 0 1 0 0 0 1 0"/>
<feBlend mode="normal" in2="shape" result="effect1_innerShadow_3058_16812"/>
<feColorMatrix in="SourceAlpha" type="matrix" values="0 0 0 0 0 0 0 0 0 0 0 0 0 0 0 0 0 0 127 0" result="hardAlpha"/>
<feOffset dx="-1.71" dy="-0.855"/>
<feComposite in2="hardAlpha" operator="arithmetic" k2="-1" k3="1"/>
<feColorMatrix type="matrix" values="0 0 0 0 0 0 0 0 0 0 0 0 0 0 0 0 0 0 0.25 0"/>
<feBlend mode="normal" in2="effect1_innerShadow_3058_16812" result="effect2_innerShadow_3058_16812"/>
</filter>
<filter id="filter16_i_3058_16812" x="231.911" y="79.8975" width="19.7338" height="14.5762" filterUnits="userSpaceOnUse" color-interpolation-filters="sRGB">
<feFlood flood-opacity="0" result="BackgroundImageFix"/>
<feBlend mode="normal" in="SourceGraphic" in2="BackgroundImageFix" result="shape"/>
<feColorMatrix in="SourceAlpha" type="matrix" values="0 0 0 0 0 0 0 0 0 0 0 0 0 0 0 0 0 0 127 0" result="hardAlpha"/>
<feOffset dx="3.42" dy="-1.71"/>
<feComposite in2="hardAlpha" operator="arithmetic" k2="-1" k3="1"/>
<feColorMatrix type="matrix" values="0 0 0 0 0 0 0 0 0 0 0 0 0 0 0 0 0 0 0.15 0"/>
<feBlend mode="normal" in2="shape" result="effect1_innerShadow_3058_16812"/>
</filter>
<filter id="filter17_i_3058_16812" x="238.7" y="65.96" width="88.3093" height="62.8457" filterUnits="userSpaceOnUse" color-interpolation-filters="sRGB">
<feFlood flood-opacity="0" result="BackgroundImageFix"/>
<feBlend mode="normal" in="SourceGraphic" in2="BackgroundImageFix" result="shape"/>
<feColorMatrix in="SourceAlpha" type="matrix" values="0 0 0 0 0 0 0 0 0 0 0 0 0 0 0 0 0 0 127 0" result="hardAlpha"/>
<feOffset dx="11.11" dy="-5.985"/>
<feComposite in2="hardAlpha" operator="arithmetic" k2="-1" k3="1"/>
<feColorMatrix type="matrix" values="0 0 0 0 0 0 0 0 0 0 0 0 0 0 0 0 0 0 0.14 0"/>
<feBlend mode="normal" in2="shape" result="effect1_innerShadow_3058_16812"/>
</filter>
</defs>
</svg>
