<svg width="414" height="414" viewBox="0 0 414 414" fill="none" xmlns="http://www.w3.org/2000/svg">
<circle cx="207" cy="207" r="135" fill="#C3C2C5"/>
<g filter="url(#filter0_i_3058_16622)">
<path fill-rule="evenodd" clip-rule="evenodd" d="M328.864 237.87C322.513 262.774 308.692 284.692 289.927 301.096C289.289 300.832 288.634 300.571 287.963 300.313C291.521 304.433 290.267 308.904 288.051 311.751C288.001 311.815 287.916 311.84 287.839 311.819C278.812 309.294 272.229 313.946 269.962 316.699C269.908 316.763 269.821 316.786 269.741 316.76C262.023 314.241 256.844 317.821 255.138 320.018C255.096 320.072 255.029 320.101 254.961 320.095C239.744 318.846 229.435 322.601 225.808 324.834C225.667 324.921 225.692 325.124 225.854 325.162C230.564 326.266 252.311 325.663 264.571 325.142C257.504 325.742 249.592 329.244 245.792 331.323C245.617 331.419 245.673 331.677 245.872 331.687C256.674 332.213 281.443 332.409 299.482 329.178C317.686 325.918 325.076 318.629 326.571 315.274C326.604 315.2 326.674 315.155 326.754 315.155C345.5 315.137 368.902 311.426 378.773 309.477C378.951 309.442 378.978 309.207 378.824 309.113C363.739 299.832 352.022 301.836 347.594 304.198C347.438 304.281 347.252 304.13 347.291 303.958C352.115 282.753 342.394 280.396 336.325 281.969C336.131 282.019 335.971 281.776 336.085 281.612C338.486 278.159 335.645 275.796 333.561 274.882C333.412 274.816 333.384 274.613 333.518 274.521C341.798 268.885 356.145 255.29 349.649 244.214C343.257 233.315 334.278 237.105 330.252 240.608C330.12 240.723 329.905 240.63 329.887 240.456C329.803 239.669 329.5 238.74 328.864 237.87ZM125.06 300.91C103.276 281.778 88.1937 255.199 83.7904 225.151C78.9307 224.658 73.0344 225.337 65.9188 227.716C42.0855 236.97 51.3133 254.874 57.3203 257.169C57.5321 257.249 57.5935 257.796 57.3937 257.904C54.937 259.221 51.8839 262.456 53.5827 268.136C55.5068 274.569 64.8819 278.389 69.6697 279.596C69.8247 279.635 69.8765 279.829 69.7614 279.94C65.9558 283.608 59.9568 291.956 64.0797 298.367C64.1629 298.497 64.0883 298.673 63.935 298.687C57.4713 299.275 43.5984 301.19 37.1345 304.431C33.4076 306.3 43.3614 307.153 57.5814 308.371H57.5814C74.5478 309.825 97.5874 311.798 110.71 316.639C110.877 316.701 110.872 316.925 110.706 316.99C107.988 318.06 101.42 319.592 93.1322 318.574C92.9197 318.548 92.8142 318.814 92.9999 318.921C99.3818 322.587 118.672 328.793 151.449 327.528C169.844 326.819 183.218 326.414 193.01 326.118C204.791 325.762 211.388 325.562 215.308 325.177C215.531 325.155 215.547 324.854 215.329 324.806C207.857 323.137 193.645 320.531 188.552 321.731C188.49 321.746 188.431 321.732 188.382 321.692C185.004 318.943 173.723 314.543 154.858 318.43C154.786 318.445 154.711 318.42 154.662 318.364C153.255 316.731 149.537 313.967 145.127 315.085C144.998 315.118 144.87 315.025 144.866 314.892C144.718 309.919 140.342 301.281 123.752 304.381C123.622 304.405 123.498 304.302 123.517 304.171C123.653 303.24 124.119 302.089 125.06 300.91ZM354.77 252.986C357.048 249.312 362.898 240.544 367.337 237.093C367.481 236.981 367.678 237.108 367.642 237.285C367.319 238.87 366.686 241.851 366.097 244.214C365.615 246.149 364.85 246.666 363.968 247.261C363.346 247.681 362.665 248.14 361.985 249.164C360.755 251.014 356.794 253.009 354.939 253.261C354.784 253.282 354.688 253.119 354.77 252.986ZM375.966 256.588C378.353 252.398 381.372 248.796 382.935 247.137C383.068 246.995 382.945 246.763 382.755 246.8C379.952 247.343 377.455 248.336 374.862 249.367C372.188 250.43 369.413 251.533 366.097 252.225C361.662 252.994 358.824 257.897 356.722 261.528C356.035 262.716 355.426 263.768 354.866 264.495C354.76 264.631 354.857 264.835 355.03 264.83C357.441 264.769 362.396 264.218 366.097 262.362C367.835 261.49 369.165 261.233 370.303 261.012C372.395 260.607 373.835 260.328 375.966 256.588ZM46.8182 248.177C41.7335 243.713 36.284 237.366 34.0089 234.522C33.9258 234.418 33.7683 234.423 33.6945 234.534C32.3424 236.564 30.674 240.845 33.8449 243.389C35.847 244.996 36.6794 245.234 37.3861 245.435C38.1309 245.648 38.7363 245.821 40.4241 247.514C42.9071 250.004 45.5854 249.264 46.8011 248.479C46.908 248.41 46.9138 248.261 46.8182 248.177ZM47.0799 272.391C37.7881 268.243 19.8785 259.693 11.0822 253.476C10.9593 253.39 10.9773 253.209 11.1154 253.149C13.5471 252.096 19.7017 251.145 27.2655 254.938C31.9806 257.302 34.0675 257.596 35.4995 257.797C37.0647 258.017 37.8472 258.127 40.4241 260.712C43.0156 263.311 44.246 265.911 45.3068 268.152C45.9785 269.571 46.5822 270.846 47.4204 271.886C47.5693 272.071 47.2967 272.488 47.0799 272.391Z" fill="#F4F8FB"/>
</g>
<path d="M289.927 301.096L289.64 301.789L290.07 301.967L290.421 301.661L289.927 301.096ZM328.864 237.87L329.47 237.428L328.531 236.142L328.138 237.685L328.864 237.87ZM287.963 300.313L288.232 299.613L287.395 300.803L287.963 300.313ZM288.051 311.751L288.642 312.212V312.212L288.051 311.751ZM287.839 311.819L288.041 311.096L288.041 311.096L287.839 311.819ZM269.962 316.699L269.383 316.222L269.383 316.222L269.962 316.699ZM269.741 316.76L269.508 317.473L269.508 317.473L269.741 316.76ZM255.138 320.018L255.73 320.478V320.478L255.138 320.018ZM254.961 320.095L254.899 320.843L254.899 320.843L254.961 320.095ZM225.808 324.834L226.202 325.473L226.202 325.473L225.808 324.834ZM225.854 325.162L225.683 325.892L225.854 325.162ZM264.571 325.142L264.634 325.89L264.539 324.393L264.571 325.142ZM245.792 331.323L246.152 331.981H246.152L245.792 331.323ZM245.872 331.687L245.835 332.436L245.872 331.687ZM299.482 329.178L299.35 328.44L299.482 329.178ZM326.571 315.274L325.886 314.968L325.886 314.968L326.571 315.274ZM326.754 315.155L326.755 315.905H326.755L326.754 315.155ZM378.773 309.477L378.919 310.212H378.919L378.773 309.477ZM378.824 309.113L378.431 309.751V309.751L378.824 309.113ZM347.594 304.198L347.947 304.86L347.947 304.86L347.594 304.198ZM347.291 303.958L348.023 304.124V304.124L347.291 303.958ZM336.325 281.969L336.137 281.243L336.137 281.243L336.325 281.969ZM336.085 281.612L335.47 281.184V281.184L336.085 281.612ZM333.561 274.882L333.259 275.569L333.561 274.882ZM333.518 274.521L333.096 273.901L333.096 273.901L333.518 274.521ZM349.649 244.214L349.002 244.594V244.594L349.649 244.214ZM330.252 240.608L329.76 240.042L329.76 240.042L330.252 240.608ZM329.887 240.456L330.632 240.377V240.377L329.887 240.456ZM83.7904 225.151L84.5324 225.042L84.4477 224.464L83.8661 224.405L83.7904 225.151ZM125.06 300.91L125.647 301.378L126.093 300.818L125.555 300.346L125.06 300.91ZM65.9188 227.716L65.681 227.005L65.6641 227.011L65.6474 227.017L65.9188 227.716ZM57.3203 257.169L57.5879 256.468L57.3203 257.169ZM57.3937 257.904L57.7481 258.565L57.3937 257.904ZM53.5827 268.136L54.3012 267.921L53.5827 268.136ZM69.6697 279.596L69.4864 280.324L69.6697 279.596ZM69.7614 279.94L70.2819 280.48L70.2819 280.48L69.7614 279.94ZM64.0797 298.367L64.7105 297.962L64.7105 297.962L64.0797 298.367ZM63.935 298.687L64.0029 299.434H64.003L63.935 298.687ZM37.1345 304.431L36.7983 303.761H36.7983L37.1345 304.431ZM57.5814 308.371L57.5173 309.118L57.5493 309.121H57.5814V308.371ZM57.5814 308.371L57.6454 307.624L57.6135 307.621H57.5814V308.371ZM110.71 316.639L110.969 315.936L110.969 315.936L110.71 316.639ZM110.706 316.99L110.432 316.293L110.432 316.293L110.706 316.99ZM93.1322 318.574L93.2237 317.829L93.2237 317.829L93.1322 318.574ZM92.9999 318.921L92.6263 319.571L92.6263 319.571L92.9999 318.921ZM151.449 327.528L151.478 328.278L151.449 327.528ZM193.01 326.118L192.988 325.369L193.01 326.118ZM215.308 325.177L215.382 325.923L215.308 325.177ZM215.329 324.806L215.492 324.074L215.492 324.074L215.329 324.806ZM188.552 321.731L188.724 322.461H188.724L188.552 321.731ZM188.382 321.692L188.855 321.11L188.855 321.11L188.382 321.692ZM154.858 318.43L154.707 317.695L154.858 318.43ZM154.662 318.364L154.094 318.854V318.854L154.662 318.364ZM145.127 315.085L144.943 314.358L145.127 315.085ZM144.866 314.892L145.616 314.87V314.87L144.866 314.892ZM123.752 304.381L123.615 303.644H123.614L123.752 304.381ZM123.517 304.171L124.259 304.279L124.259 304.279L123.517 304.171ZM367.337 237.093L367.798 237.685L367.798 237.685L367.337 237.093ZM354.77 252.986L354.133 252.591V252.591L354.77 252.986ZM367.642 237.285L368.377 237.435L368.377 237.435L367.642 237.285ZM366.097 244.214L366.825 244.396V244.396L366.097 244.214ZM363.968 247.261L364.387 247.883L364.387 247.883L363.968 247.261ZM361.985 249.164L361.361 248.748V248.748L361.985 249.164ZM354.939 253.261L354.838 252.518L354.838 252.518L354.939 253.261ZM382.935 247.137L382.389 246.622L382.389 246.622L382.935 247.137ZM375.966 256.588L375.315 256.216V256.216L375.966 256.588ZM382.755 246.8L382.612 246.063L382.755 246.8ZM374.862 249.367L375.139 250.064L374.862 249.367ZM366.097 252.225L366.225 252.964L366.238 252.962L366.251 252.959L366.097 252.225ZM356.722 261.528L356.073 261.153V261.153L356.722 261.528ZM354.866 264.495L354.272 264.037L354.272 264.037L354.866 264.495ZM355.03 264.83L355.049 265.58H355.049L355.03 264.83ZM366.097 262.362L366.434 263.032L366.097 262.362ZM370.303 261.012L370.16 260.276L370.303 261.012ZM34.0089 234.522L33.4232 234.99L33.4232 234.99L34.0089 234.522ZM46.8182 248.177L47.313 247.613L47.313 247.613L46.8182 248.177ZM33.6945 234.534L33.0703 234.118L33.0703 234.118L33.6945 234.534ZM33.8449 243.389L33.3755 243.974L33.8449 243.389ZM37.3861 245.435L37.1802 246.156H37.1802L37.3861 245.435ZM40.4241 247.514L39.893 248.043L40.4241 247.514ZM46.8011 248.479L46.3945 247.849L46.3945 247.849L46.8011 248.479ZM11.0822 253.476L10.6493 254.089L10.6493 254.089L11.0822 253.476ZM47.0799 272.391L46.7741 273.076L47.0799 272.391ZM11.1154 253.149L10.8172 252.461H10.8172L11.1154 253.149ZM27.2655 254.938L26.9293 255.608L27.2655 254.938ZM35.4995 257.797L35.395 258.54H35.395L35.4995 257.797ZM40.4241 260.712L39.893 261.242L40.4241 260.712ZM45.3068 268.152L45.9847 267.831V267.831L45.3068 268.152ZM47.4204 271.886L46.8363 272.357L46.8363 272.357L47.4204 271.886ZM264.571 325.142L264.507 324.395L264.602 325.892L264.571 325.142ZM266.586 325.054L266.62 325.803L266.586 324.304V325.054ZM290.421 301.661C309.297 285.159 323.201 263.11 329.591 238.055L328.138 237.685C321.825 262.438 308.087 284.224 289.434 300.532L290.421 301.661ZM287.694 301.013C288.359 301.269 289.008 301.527 289.64 301.789L290.214 300.403C289.57 300.136 288.909 299.873 288.232 299.613L287.694 301.013ZM288.642 312.212C289.819 310.7 290.761 308.733 290.92 306.564C291.081 304.374 290.438 302.031 288.531 299.823L287.395 300.803C289.046 302.715 289.555 304.667 289.424 306.455C289.291 308.263 288.498 309.956 287.459 311.291L288.642 312.212ZM287.637 312.541C287.988 312.639 288.394 312.532 288.642 312.212L287.459 311.291C287.608 311.099 287.845 311.042 288.041 311.096L287.637 312.541ZM270.541 317.175C272.673 314.587 278.969 310.117 287.637 312.541L288.041 311.096C278.655 308.471 271.785 313.305 269.383 316.222L270.541 317.175ZM269.508 317.473C269.864 317.589 270.28 317.492 270.541 317.175L269.383 316.222C269.537 316.035 269.778 315.983 269.974 316.047L269.508 317.473ZM255.73 320.478C257.27 318.496 262.131 315.065 269.508 317.473L269.974 316.047C261.914 313.417 256.419 317.146 254.546 319.558L255.73 320.478ZM254.899 320.843C255.213 320.868 255.528 320.739 255.73 320.478L254.546 319.558C254.664 319.406 254.846 319.333 255.022 319.348L254.899 320.843ZM226.202 325.473C229.672 323.336 239.817 319.604 254.899 320.843L255.022 319.348C239.671 318.087 229.197 321.867 225.415 324.195L226.202 325.473ZM226.026 324.431C226.257 324.486 226.429 324.683 226.461 324.916C226.491 325.141 226.386 325.359 226.202 325.473L225.415 324.195C225.089 324.396 224.926 324.759 224.974 325.116C225.023 325.481 225.29 325.8 225.683 325.892L226.026 324.431ZM264.539 324.393C258.414 324.653 249.921 324.934 242.374 325.011C238.599 325.05 235.068 325.038 232.19 324.948C229.287 324.857 227.119 324.688 226.026 324.431L225.683 325.892C226.945 326.188 229.261 326.357 232.143 326.447C235.051 326.539 238.605 326.55 242.389 326.511C249.958 326.433 258.468 326.152 264.602 325.892L264.539 324.393ZM246.152 331.981C249.917 329.921 257.721 326.476 264.634 325.89L264.507 324.395C257.288 325.008 249.268 328.566 245.432 330.666L246.152 331.981ZM245.908 330.938C246.509 330.967 246.603 331.735 246.152 331.981L245.432 330.666C244.632 331.104 244.836 332.387 245.835 332.436L245.908 330.938ZM299.35 328.44C281.396 331.656 256.695 331.463 245.908 330.938L245.835 332.436C256.654 332.962 281.49 333.163 299.615 329.916L299.35 328.44ZM325.886 314.968C325.222 316.458 323.137 319.018 318.9 321.623C314.682 324.215 308.375 326.823 299.35 328.44L299.615 329.916C308.794 328.272 315.283 325.606 319.685 322.901C324.067 320.207 326.424 317.445 327.256 315.579L325.886 314.968ZM326.754 314.405C326.381 314.405 326.04 314.621 325.886 314.968L327.256 315.579C327.167 315.779 326.966 315.905 326.755 315.905L326.754 314.405ZM378.628 308.741C368.775 310.686 345.428 314.387 326.754 314.405L326.755 315.905C345.572 315.887 369.028 312.165 378.919 310.212L378.628 308.741ZM378.431 309.751C378.239 309.633 378.154 309.417 378.179 309.22C378.207 309.011 378.368 308.792 378.628 308.741L378.919 310.212C379.357 310.126 379.62 309.773 379.667 309.414C379.712 309.067 379.563 308.687 379.217 308.474L378.431 309.751ZM347.947 304.86C352.104 302.642 363.536 300.587 378.431 309.751L379.217 308.474C363.943 299.076 351.94 301.029 347.241 303.536L347.947 304.86ZM346.56 303.791C346.39 304.538 347.177 305.27 347.947 304.86L347.241 303.536C347.468 303.415 347.703 303.48 347.838 303.588C347.97 303.694 348.075 303.893 348.023 304.124L346.56 303.791ZM336.513 282.695C339.41 281.944 343 282.175 345.322 284.907C347.669 287.67 348.958 293.249 346.56 303.791L348.023 304.124C350.448 293.461 349.289 287.26 346.465 283.936C343.614 280.581 339.309 280.421 336.137 281.243L336.513 282.695ZM335.47 281.184C335.201 281.57 335.283 282.011 335.465 282.286C335.65 282.563 336.039 282.818 336.513 282.695L336.137 281.243C336.418 281.17 336.63 281.328 336.714 281.455C336.797 281.58 336.856 281.818 336.701 282.04L335.47 281.184ZM333.259 275.569C334.228 275.994 335.3 276.729 335.859 277.676C336.13 278.136 336.278 278.638 336.248 279.192C336.218 279.748 336.007 280.411 335.47 281.184L336.701 282.04C337.365 281.086 337.698 280.159 337.746 279.272C337.793 278.383 337.55 277.591 337.151 276.914C336.368 275.587 334.977 274.684 333.862 274.195L333.259 275.569ZM333.096 273.901C332.42 274.362 332.632 275.293 333.259 275.569L333.862 274.195C334.191 274.339 334.347 274.864 333.94 275.141L333.096 273.901ZM349.002 244.594C352.022 249.743 350.266 255.567 346.509 260.98C342.768 266.368 337.189 271.115 333.096 273.901L333.94 275.141C338.128 272.291 343.862 267.423 347.741 261.835C351.603 256.272 353.772 249.761 350.296 243.835L349.002 244.594ZM330.745 241.174C332.675 239.494 335.76 237.782 339.068 237.76C342.303 237.739 345.918 239.334 349.002 244.594L350.296 243.835C346.989 238.195 342.918 236.235 339.058 236.26C335.272 236.285 331.855 238.219 329.76 240.042L330.745 241.174ZM329.141 240.536C329.218 241.263 330.118 241.719 330.745 241.174L329.76 240.042C329.942 239.883 330.169 239.887 330.317 239.949C330.462 240.01 330.609 240.157 330.632 240.377L329.141 240.536ZM328.259 238.312C328.812 239.07 329.07 239.872 329.141 240.536L330.632 240.377C330.535 239.467 330.188 238.411 329.47 237.428L328.259 238.312ZM83.0483 225.26C87.4783 255.49 102.652 282.228 124.566 301.473L125.555 300.346C103.9 281.328 88.9091 254.909 84.5324 225.042L83.0483 225.26ZM66.1567 228.428C73.1969 226.074 78.9846 225.417 83.7147 225.897L83.8661 224.405C78.8767 223.899 72.8718 224.601 65.681 227.005L66.1567 228.428ZM57.5879 256.468C56.2934 255.974 54.7024 254.57 53.4145 252.503C52.139 250.457 51.2166 247.847 51.1794 245.042C51.1423 242.25 51.9813 239.242 54.2634 236.366C56.552 233.481 60.3199 230.695 66.1903 228.416L65.6474 227.017C59.6011 229.365 55.585 232.287 53.0883 235.433C50.5853 238.588 49.6379 241.935 49.6795 245.062C49.7209 248.177 50.7422 251.052 52.1416 253.297C53.5285 255.522 55.3436 257.216 57.0527 257.869L57.5879 256.468ZM57.7481 258.565C58.051 258.402 58.1716 258.124 58.2182 257.958C58.2688 257.779 58.2731 257.599 58.2573 257.448C58.2413 257.296 58.1998 257.125 58.119 256.965C58.0457 256.82 57.8883 256.583 57.5879 256.468L57.0527 257.869C56.8582 257.795 56.7879 257.657 56.7795 257.64C56.7636 257.608 56.7646 257.597 56.7655 257.605C56.7664 257.614 56.7619 257.596 56.7744 257.552C56.783 257.521 56.8362 257.351 57.0393 257.243L57.7481 258.565ZM54.3012 267.921C53.5027 265.251 53.8344 263.223 54.5981 261.724C55.3713 260.207 56.6215 259.169 57.7481 258.565L57.0393 257.243C55.7091 257.956 54.2044 259.194 53.2616 261.043C52.3093 262.912 51.9639 265.341 52.8641 268.351L54.3012 267.921ZM69.8531 278.869C67.5143 278.28 64.0451 277.047 60.9383 275.183C57.8099 273.306 55.1825 270.868 54.3012 267.921L52.8641 268.351C53.907 271.838 56.9293 274.526 60.1664 276.469C63.4251 278.425 67.0374 279.706 69.4864 280.324L69.8531 278.869ZM70.2819 280.48C70.822 279.959 70.5768 279.052 69.8531 278.869L69.4864 280.324C69.0726 280.219 68.9309 279.699 69.2409 279.4L70.2819 280.48ZM64.7105 297.962C62.8423 295.057 63.2232 291.661 64.6348 288.425C66.0447 285.193 68.4274 282.267 70.2819 280.48L69.2409 279.4C67.2898 281.281 64.7702 284.363 63.2599 287.825C61.7513 291.283 61.1942 295.267 63.4489 298.773L64.7105 297.962ZM64.003 299.434C64.7905 299.363 65.0575 298.501 64.7105 297.962L63.4489 298.773C63.3469 298.614 63.3411 298.424 63.4099 298.268C63.4813 298.106 63.6458 297.96 63.8671 297.94L64.003 299.434ZM37.4708 305.102C40.6013 303.532 45.5949 302.257 50.6736 301.301C55.7307 300.349 60.7909 299.726 64.0029 299.434L63.8671 297.94C60.6155 298.236 55.5073 298.865 50.3961 299.827C45.3064 300.785 40.1317 302.089 36.7983 303.761L37.4708 305.102ZM57.6454 307.624C50.5216 307.014 44.5116 306.498 40.7446 305.905C39.8057 305.757 39.0199 305.606 38.3985 305.451C37.7626 305.292 37.3528 305.141 37.1303 305.013C37.0175 304.949 37.0109 304.922 37.034 304.955C37.0761 305.016 37.1222 305.145 37.0826 305.288C37.0543 305.39 37.007 305.403 37.0798 305.341C37.1453 305.286 37.267 305.204 37.4708 305.102L36.7983 303.761C36.5363 303.892 36.2989 304.036 36.1077 304.199C35.9238 304.356 35.7221 304.58 35.6371 304.887C35.5407 305.234 35.6278 305.561 35.8039 305.814C35.961 306.039 36.1815 306.199 36.3844 306.315C36.7932 306.549 37.3686 306.739 38.0351 306.906C38.7161 307.076 39.5499 307.235 40.511 307.386C44.3442 307.991 50.4211 308.511 57.5173 309.118L57.6454 307.624ZM57.5814 307.621H57.5814V309.121H57.5814V307.621ZM110.969 315.936C104.327 313.485 95.2175 311.773 85.687 310.492C76.1452 309.209 66.1257 308.35 57.6454 307.624L57.5174 309.118C66.0035 309.845 75.987 310.701 85.4871 311.978C94.9985 313.257 103.97 314.952 110.45 317.343L110.969 315.936ZM110.981 317.688C111.726 317.395 111.845 316.259 110.969 315.936L110.45 317.343C110.221 317.258 110.08 317.033 110.083 316.804C110.086 316.581 110.222 316.375 110.432 316.293L110.981 317.688ZM93.0408 319.318C101.455 320.352 108.148 318.803 110.981 317.688L110.432 316.293C107.827 317.317 101.386 318.832 93.2237 317.829L93.0408 319.318ZM93.3735 318.27C93.4783 318.331 93.5773 318.438 93.6254 318.585C93.6708 318.724 93.658 318.86 93.6159 318.969C93.5297 319.191 93.2972 319.35 93.0408 319.318L93.2237 317.829C92.7547 317.772 92.3633 318.05 92.2175 318.426C92.0656 318.818 92.1846 319.317 92.6263 319.571L93.3735 318.27ZM151.42 326.779C118.724 328.04 99.5898 321.841 93.3735 318.27L92.6263 319.571C99.1739 323.332 118.62 329.545 151.478 328.278L151.42 326.779ZM192.988 325.369C183.195 325.665 169.819 326.069 151.42 326.779L151.478 328.278C169.87 327.568 183.241 327.164 193.033 326.868L192.988 325.369ZM215.235 324.43C211.347 324.813 204.785 325.012 192.988 325.369L193.033 326.868C204.797 326.512 211.429 326.312 215.382 325.923L215.235 324.43ZM215.165 325.538C214.891 325.477 214.721 325.216 214.735 324.961C214.749 324.703 214.95 324.458 215.235 324.43L215.382 325.923C216.497 325.813 216.498 324.299 215.492 324.074L215.165 325.538ZM188.724 322.461C189.891 322.186 191.648 322.119 193.799 322.22C195.933 322.32 198.397 322.582 200.946 322.936C206.043 323.642 211.443 324.707 215.165 325.538L215.492 324.074C211.743 323.237 206.301 322.163 201.152 321.45C198.577 321.093 196.066 320.824 193.869 320.721C191.69 320.619 189.76 320.676 188.38 321.001L188.724 322.461ZM187.908 322.273C188.139 322.461 188.436 322.529 188.724 322.461L188.38 321.001C188.453 320.984 188.539 320.98 188.63 321.001C188.722 321.022 188.798 321.063 188.855 321.11L187.908 322.273ZM155.009 319.164C173.735 315.306 184.761 319.712 187.908 322.274L188.855 321.11C185.246 318.173 173.71 313.78 154.707 317.695L155.009 319.164ZM154.094 318.854C154.325 319.122 154.678 319.233 155.009 319.164L154.707 317.695C154.893 317.657 155.096 317.719 155.23 317.875L154.094 318.854ZM145.312 315.812C149.321 314.795 152.769 317.316 154.094 318.854L155.23 317.875C153.74 316.145 149.754 313.138 144.943 314.358L145.312 315.812ZM144.116 314.915C144.135 315.549 144.739 315.958 145.312 315.812L144.943 314.358C145.257 314.279 145.605 314.501 145.616 314.87L144.116 314.915ZM123.89 305.118C132.055 303.592 137.06 304.982 140.024 307.209C142.997 309.442 144.048 312.614 144.116 314.915L145.616 314.87C145.536 312.198 144.325 308.564 140.925 306.01C137.517 303.449 132.039 302.07 123.615 303.644L123.89 305.118ZM122.775 304.063C122.67 304.782 123.336 305.222 123.89 305.118L123.614 303.644C123.783 303.612 123.95 303.663 124.072 303.769C124.199 303.881 124.29 304.068 124.259 304.279L122.775 304.063ZM124.474 300.442C123.462 301.709 122.932 302.982 122.775 304.063L124.259 304.279C124.373 303.498 124.776 302.468 125.647 301.378L124.474 300.442ZM366.877 236.501C364.571 238.293 361.948 241.42 359.642 244.507C357.324 247.611 355.28 250.74 354.133 252.591L355.407 253.381C356.538 251.558 358.558 248.466 360.844 245.405C363.143 242.327 365.664 239.344 367.798 237.685L366.877 236.501ZM368.377 237.435C368.547 236.603 367.592 235.945 366.877 236.501L367.798 237.685C367.369 238.018 366.81 237.613 366.907 237.136L368.377 237.435ZM366.825 244.396C367.418 242.016 368.054 239.023 368.377 237.435L366.907 237.136C366.585 238.717 365.955 241.685 365.37 244.033L366.825 244.396ZM364.387 247.883C364.82 247.59 365.323 247.257 365.765 246.713C366.213 246.161 366.565 245.44 366.825 244.396L365.37 244.033C365.148 244.923 364.876 245.428 364.6 245.767C364.318 246.115 363.997 246.337 363.548 246.64L364.387 247.883ZM362.61 249.579C363.206 248.682 363.784 248.29 364.387 247.883L363.548 246.64C362.907 247.072 362.125 247.598 361.361 248.748L362.61 249.579ZM355.04 254.004C356.102 253.86 357.651 253.248 359.06 252.468C360.459 251.693 361.891 250.66 362.61 249.579L361.361 248.748C360.85 249.517 359.686 250.407 358.333 251.156C356.99 251.899 355.631 252.41 354.838 252.518L355.04 254.004ZM354.133 252.591C353.754 253.201 354.186 254.121 355.04 254.004L354.838 252.518C355.067 252.487 355.291 252.601 355.407 252.793C355.519 252.977 355.516 253.206 355.407 253.381L354.133 252.591ZM382.389 246.622C380.797 248.312 377.739 251.961 375.315 256.216L376.618 256.959C378.968 252.834 381.946 249.28 383.481 247.651L382.389 246.622ZM382.897 247.536C382.329 247.646 382.054 246.978 382.389 246.622L383.481 247.651C384.083 247.012 383.562 245.879 382.612 246.063L382.897 247.536ZM375.139 250.064C377.741 249.029 380.175 248.064 382.897 247.536L382.612 246.063C379.73 246.622 377.169 247.642 374.585 248.67L375.139 250.064ZM366.251 252.959C369.638 252.252 372.469 251.125 375.139 250.064L374.585 248.67C371.907 249.734 369.188 250.814 365.944 251.491L366.251 252.959ZM357.371 261.904C358.428 260.078 359.63 258.006 361.103 256.292C362.577 254.578 364.253 253.306 366.225 252.964L365.969 251.486C363.507 251.913 361.545 253.477 359.966 255.314C358.386 257.152 357.118 259.347 356.073 261.153L357.371 261.904ZM355.46 264.952C356.057 264.177 356.694 263.075 357.371 261.904L356.073 261.153C355.376 262.358 354.795 263.358 354.272 264.037L355.46 264.952ZM355.011 264.081C355.513 264.068 355.713 264.624 355.46 264.952L354.272 264.037C353.808 264.639 354.201 265.602 355.049 265.58L355.011 264.081ZM365.761 261.691C362.205 263.475 357.38 264.02 355.011 264.081L355.049 265.58C357.503 265.518 362.587 264.961 366.434 263.032L365.761 261.691ZM370.16 260.276C369.008 260.499 367.595 260.772 365.761 261.691L366.434 263.032C368.076 262.208 369.323 261.966 370.445 261.749L370.16 260.276ZM375.315 256.216C374.276 258.039 373.454 258.93 372.706 259.425C371.96 259.919 371.221 260.07 370.16 260.276L370.445 261.749C371.476 261.549 372.504 261.358 373.534 260.676C374.562 259.995 375.525 258.876 376.618 256.959L375.315 256.216ZM33.4232 234.99C35.7097 237.849 41.1908 244.235 46.3234 248.741L47.313 247.613C42.2762 243.192 36.8583 236.884 34.5947 234.053L33.4232 234.99ZM34.3186 234.95C34.106 235.269 33.6516 235.275 33.4232 234.99L34.5947 234.053C34.2 233.56 33.4306 233.577 33.0703 234.118L34.3186 234.95ZM34.3142 242.804C32.9826 241.736 32.6498 240.316 32.8186 238.855C32.9907 237.365 33.6859 235.9 34.3186 234.95L33.0703 234.118C32.3509 235.198 31.5359 236.888 31.3285 238.683C31.1179 240.506 31.5363 242.498 33.3755 243.974L34.3142 242.804ZM37.592 244.714C37.2524 244.617 36.9264 244.524 36.4484 244.274C35.9589 244.019 35.292 243.589 34.3142 242.804L33.3755 243.974C34.3999 244.796 35.1502 245.289 35.7541 245.604C36.3696 245.925 36.8131 246.052 37.1802 246.156L37.592 244.714ZM40.9552 246.984C40.0941 246.12 39.4732 245.607 38.9457 245.281C38.398 244.943 37.9771 244.824 37.592 244.714L37.1802 246.156C37.5399 246.259 37.7941 246.333 38.1572 246.557C38.5406 246.794 39.0663 247.214 39.893 248.043L40.9552 246.984ZM46.3945 247.849C45.3829 248.502 43.1178 249.153 40.9552 246.984L39.893 248.043C42.6964 250.855 45.7879 250.026 47.2077 249.11L46.3945 247.849ZM46.3234 248.741C46.0738 248.521 46.051 248.071 46.3945 247.849L47.2077 249.11C47.765 248.75 47.7538 248 47.313 247.613L46.3234 248.741ZM10.6493 254.089C19.5146 260.354 37.4902 268.932 46.7741 273.076L47.3856 271.706C38.0859 267.555 20.2424 259.032 11.515 252.864L10.6493 254.089ZM10.8172 252.461C10.1376 252.756 10.0529 253.667 10.6493 254.089L11.515 252.864C11.8657 253.112 11.8171 253.663 11.4136 253.837L10.8172 252.461ZM27.6017 254.267C19.849 250.379 13.4622 251.315 10.8172 252.461L11.4136 253.837C13.6321 252.876 19.5544 251.91 26.9293 255.608L27.6017 254.267ZM35.6039 257.055C34.2467 256.864 32.2388 256.593 27.6017 254.267L26.9293 255.608C31.7224 258.012 33.8884 258.328 35.395 258.54L35.6039 257.055ZM40.9552 260.183C39.655 258.878 38.7503 258.138 37.9336 257.705C37.0911 257.259 36.3834 257.164 35.6039 257.055L35.395 258.54C36.1808 258.65 36.6469 258.721 37.2312 259.031C37.8413 259.354 38.6164 259.961 39.893 261.242L40.9552 260.183ZM45.9847 267.831C44.9214 265.584 43.6454 262.881 40.9552 260.183L39.893 261.242C42.3857 263.742 43.5707 266.237 44.6289 268.472L45.9847 267.831ZM48.0044 271.416C47.2326 270.458 46.6656 269.269 45.9847 267.831L44.6289 268.472C45.2915 269.872 45.9318 271.234 46.8363 272.357L48.0044 271.416ZM46.7741 273.076C47.0923 273.218 47.3964 273.147 47.5953 273.042C47.7851 272.942 47.9217 272.795 48.0117 272.66C48.1028 272.523 48.1798 272.348 48.2046 272.15C48.2295 271.953 48.2069 271.667 48.0044 271.416L46.8363 272.357C46.7083 272.198 46.7075 272.033 46.7164 271.963C46.7252 271.893 46.7484 271.851 46.7629 271.829C46.7762 271.809 46.8133 271.759 46.8956 271.716C46.9872 271.667 47.1758 271.613 47.3856 271.706L46.7741 273.076ZM264.634 325.89C265.296 325.833 265.948 325.804 266.586 325.804V324.304C265.902 324.304 265.207 324.336 264.507 324.395L264.634 325.89ZM266.552 324.304C265.916 324.333 265.243 324.363 264.539 324.393L264.602 325.892C265.308 325.862 265.982 325.832 266.62 325.803L266.552 324.304Z" fill="black"/>
<defs>
<filter id="filter0_i_3058_16622" x="10.2501" y="224.25" width="373.488" height="108.489" filterUnits="userSpaceOnUse" color-interpolation-filters="sRGB">
<feFlood flood-opacity="0" result="BackgroundImageFix"/>
<feBlend mode="normal" in="SourceGraphic" in2="BackgroundImageFix" result="shape"/>
<feColorMatrix in="SourceAlpha" type="matrix" values="0 0 0 0 0 0 0 0 0 0 0 0 0 0 0 0 0 0 127 0" result="hardAlpha"/>
<feOffset dy="-6"/>
<feComposite in2="hardAlpha" operator="arithmetic" k2="-1" k3="1"/>
<feColorMatrix type="matrix" values="0 0 0 0 0.713726 0 0 0 0 0.772549 0 0 0 0 0.792157 0 0 0 1 0"/>
<feBlend mode="normal" in2="shape" result="effect1_innerShadow_3058_16622"/>
</filter>
</defs>
</svg>
