<svg width="414" height="414" viewBox="0 0 414 414" fill="none" xmlns="http://www.w3.org/2000/svg">
<circle cx="207" cy="207" r="135" fill="#C3C2C5"/>
<g filter="url(#filter0_i_3058_16629)">
<path d="M164.941 262.536C169.44 265.42 179.562 284.568 184.061 293.781C163.816 282.965 155.942 266.141 155.942 243.308C155.942 225.041 167.94 216.469 173.939 214.466C176.563 214.867 181.587 217.831 180.687 226.483C179.787 235.136 172.814 236.498 169.44 236.097C171.239 239.943 168.69 248.916 167.19 252.922C168.99 257.729 166.44 261.334 164.941 262.536Z" fill="#F4F8FB"/>
<path d="M148.069 258.93C150.769 282.965 174.688 300.991 186.311 307C167.415 307 150.694 288.574 144.695 279.361C141.321 280.563 132.772 281.524 125.574 275.756C118.376 269.987 118.076 259.732 118.826 255.326C114.327 258.531 102.404 261.335 90.7066 246.914C79.0091 232.493 95.5805 211.262 105.328 202.45C89.132 196.681 94.0809 182.421 98.5799 176.011C87.7823 156.783 101.579 147.971 109.828 145.968C98.5799 136.354 105.328 125.538 101.954 112.319C98.5799 99.0999 101.954 75.0642 118.826 65.4503C132.323 57.7592 146.944 66.2515 152.568 71.459C157.067 71.459 171.689 78.6694 178.438 93.0903C183.836 104.627 180.687 122.733 178.438 130.344C185.636 136.113 182.937 144.765 180.687 148.37C185.186 150.774 189.685 161.589 188.56 172.405L188.534 172.657C187.417 183.407 186.18 195.313 169.44 204.852C152.568 214.466 144.695 228.887 148.069 258.93Z" fill="#F4F8FB"/>
<path d="M131.198 285.37C133.897 295.945 147.319 299.39 153.693 299.79C137.496 304.598 128.198 295.384 125.574 290.177C110.277 291.138 104.204 284.168 103.079 280.563C96.3304 284.168 79.9089 288.013 68.2115 274.554C56.514 261.094 61.8378 245.712 65.9619 239.703C55.1643 231.051 61.4629 220.876 65.9619 216.87C64.8372 211.262 64.8372 199.565 73.8352 197.643C82.8333 195.72 86.5825 201.648 87.3323 204.852C78.3343 212.062 74.96 218.072 77.2095 246.914C79.0091 269.987 100.454 274.955 110.952 274.554C113.652 286.091 125.574 286.571 131.198 285.37Z" fill="#F4F8FB"/>
<path d="M195.309 127.942C193.509 132.749 190.06 137.956 188.56 139.959C190.81 136.354 188.56 132.748 190.81 125.538C193.059 118.327 188.56 114.722 186.311 105.108C184.062 95.4944 190.81 100.301 190.81 87.0822C190.81 73.8631 173.939 71.459 171.689 65.4503C169.439 59.4416 177.313 49.8286 186.311 47.4251C195.309 45.0216 197.558 53.4338 203.182 57.039C208.806 60.6442 218.929 71.459 216.679 82.2756C214.43 93.0921 207.681 85.8808 203.182 93.0903C198.683 100.3 205.432 106.31 203.182 109.916C200.933 113.521 197.558 111.117 195.309 115.924C193.059 120.731 197.558 121.933 195.309 127.942Z" fill="#F4F8FB"/>
<path d="M94.0808 109.916C94.0808 115.684 97.0802 127.541 98.5799 132.748L98.5759 132.742C94.081 125.538 94.0798 125.536 90.7066 118.327C87.3323 111.117 87.3323 105.108 87.3323 101.503C87.3323 97.8979 79.459 96.6962 80.5838 87.0822C81.7085 77.4683 94.0808 67.8544 98.5799 73.8631C103.079 79.8718 97.4551 88.284 94.0808 93.0903C90.7066 97.8966 94.0808 102.705 94.0808 109.916Z" fill="#F4F8FB"/>
</g>
<path d="M164.941 262.536C169.44 265.42 179.562 284.568 184.061 293.781C163.816 282.965 155.942 266.141 155.942 243.308C155.942 225.041 167.94 216.469 173.939 214.466C176.563 214.867 181.587 217.831 180.687 226.483C179.787 235.136 172.814 236.498 169.44 236.097C171.239 239.943 168.69 248.916 167.19 252.922C168.99 257.729 166.44 261.334 164.941 262.536Z" stroke="black" stroke-width="1.5"/>
<path d="M148.069 258.93C150.769 282.965 174.688 300.991 186.311 307C167.415 307 150.694 288.574 144.695 279.361C141.321 280.563 132.772 281.524 125.574 275.756C118.376 269.987 118.076 259.732 118.826 255.326C114.327 258.531 102.404 261.335 90.7066 246.914C79.0091 232.493 95.5805 211.262 105.328 202.45C89.132 196.681 94.0809 182.421 98.5799 176.011C87.7823 156.783 101.579 147.971 109.828 145.968C98.5799 136.354 105.328 125.538 101.954 112.319C98.5799 99.0999 101.954 75.0642 118.826 65.4503C132.323 57.7592 146.944 66.2515 152.568 71.459C157.067 71.459 171.689 78.6694 178.438 93.0903C183.836 104.627 180.687 122.733 178.438 130.344C185.636 136.113 182.937 144.765 180.687 148.37C185.186 150.774 189.685 161.589 188.56 172.405L188.534 172.657C187.417 183.407 186.18 195.313 169.44 204.852C152.568 214.466 144.695 228.887 148.069 258.93Z" stroke="black" stroke-width="1.5"/>
<path d="M131.198 285.37C133.897 295.945 147.319 299.39 153.693 299.79C137.496 304.598 128.198 295.384 125.574 290.177C110.277 291.138 104.204 284.168 103.079 280.563C96.3304 284.168 79.9089 288.013 68.2115 274.554C56.514 261.094 61.8378 245.712 65.9619 239.703C55.1643 231.051 61.4629 220.876 65.9619 216.87C64.8372 211.262 64.8372 199.565 73.8352 197.643C82.8333 195.72 86.5825 201.648 87.3323 204.852C78.3343 212.062 74.96 218.072 77.2095 246.914C79.0091 269.987 100.454 274.955 110.952 274.554C113.652 286.091 125.574 286.571 131.198 285.37Z" stroke="black" stroke-width="1.5"/>
<path d="M195.309 127.942C193.509 132.749 190.06 137.956 188.56 139.959C190.81 136.354 188.56 132.748 190.81 125.538C193.059 118.327 188.56 114.722 186.311 105.108C184.062 95.4944 190.81 100.301 190.81 87.0822C190.81 73.8631 173.939 71.459 171.689 65.4503C169.439 59.4416 177.313 49.8286 186.311 47.4251C195.309 45.0216 197.558 53.4338 203.182 57.039C208.806 60.6442 218.929 71.459 216.679 82.2756C214.43 93.0921 207.681 85.8808 203.182 93.0903C198.683 100.3 205.432 106.31 203.182 109.916C200.933 113.521 197.558 111.117 195.309 115.924C193.059 120.731 197.558 121.933 195.309 127.942Z" stroke="black" stroke-width="1.5"/>
<path d="M94.0808 109.916C94.0808 115.684 97.0802 127.541 98.5799 132.748L98.5759 132.742C94.081 125.538 94.0798 125.536 90.7066 118.327C87.3323 111.117 87.3323 105.108 87.3323 101.503C87.3323 97.8979 79.459 96.6962 80.5838 87.0822C81.7085 77.4683 94.0808 67.8544 98.5799 73.8631C103.079 79.8718 97.4551 88.284 94.0808 93.0903C90.7066 97.8966 94.0808 102.705 94.0808 109.916Z" stroke="black" stroke-width="1.5"/>
<defs>
<filter id="filter0_i_3058_16629" x="59.25" y="46.25" width="158.5" height="261.5" filterUnits="userSpaceOnUse" color-interpolation-filters="sRGB">
<feFlood flood-opacity="0" result="BackgroundImageFix"/>
<feBlend mode="normal" in="SourceGraphic" in2="BackgroundImageFix" result="shape"/>
<feColorMatrix in="SourceAlpha" type="matrix" values="0 0 0 0 0 0 0 0 0 0 0 0 0 0 0 0 0 0 127 0" result="hardAlpha"/>
<feOffset dy="-6"/>
<feComposite in2="hardAlpha" operator="arithmetic" k2="-1" k3="1"/>
<feColorMatrix type="matrix" values="0 0 0 0 0.713726 0 0 0 0 0.772549 0 0 0 0 0.792157 0 0 0 1 0"/>
<feBlend mode="normal" in2="shape" result="effect1_innerShadow_3058_16629"/>
</filter>
</defs>
</svg>
