<svg width="414" height="414" viewBox="0 0 414 414" fill="none" xmlns="http://www.w3.org/2000/svg">
<circle cx="207" cy="207" r="135" fill="#C3C2C5"/>
<g filter="url(#filter0_i_3058_16632)">
<path fill-rule="evenodd" clip-rule="evenodd" d="M234.392 100.68C224.565 100.68 199.621 103.703 193.574 113.53C187.527 123.357 188.283 134.695 202.645 137.718C209.834 139.232 213.425 138.473 218.347 137.431C223.257 136.392 229.494 135.073 241.951 135.451C254.285 135.825 260.89 138.971 266.791 141.782C272.825 144.656 278.124 147.18 288.059 146.033C307.712 143.766 323.586 136.207 329.633 126.38C331.968 122.585 335.996 120.706 339.929 118.872C346.178 115.957 352.189 113.154 350.797 102.948C348.53 86.3186 325.097 85.5627 298.642 95.3891C272.186 105.216 258.58 104.459 234.392 100.68ZM263.124 175.752H263.124L263.125 175.752C266.626 176.138 270.646 176.582 275.965 177.025C287.128 178.154 292.853 175.604 298.423 173.123C301.906 171.572 305.328 170.047 309.98 169.466C322.074 167.954 330.389 170.978 334.924 177.78C339.459 184.583 332.656 199.701 316.783 203.48C309.903 205.119 304.443 203.491 298.556 201.736C290.862 199.442 282.438 196.93 269.162 201.213C264.842 202.606 260.779 204.052 256.944 205.415L256.944 205.415L256.943 205.415C239.979 211.448 227.487 215.891 217.006 207.26C204.156 196.677 217.006 175.513 235.903 174.757C249.259 174.223 254.686 174.821 263.124 175.752ZM243.133 253.14C238.753 253.414 234.776 253.663 232.88 250.345C229.857 245.054 231.368 232.96 246.486 235.227C253.713 236.311 255.758 237.914 257.41 239.209C259.213 240.622 260.549 241.669 267.651 241.275C273.428 240.954 276.889 239.27 280.058 237.728C284.352 235.638 288.111 233.809 296.374 235.984C310.736 239.763 312.248 255.636 299.398 261.683C288.82 266.661 280.291 264.468 273.389 262.694L273.389 262.694L273.389 262.694C271.906 262.313 270.499 261.951 269.162 261.683C265.233 260.898 262.324 259.09 259.482 257.323C256.857 255.691 254.287 254.094 251.021 253.368C248.484 252.805 245.738 252.977 243.133 253.14ZM264.708 300.658C262.175 302.753 259.457 305 252.533 304.011C241.951 302.499 241.195 291.161 251.021 286.626C260.848 282.09 275.209 280.579 281.256 286.626C287.304 292.673 283.524 296.452 281.256 297.964C280.194 298.672 278.635 298.385 276.733 298.035C274.575 297.638 271.975 297.16 269.162 297.964C267.333 298.487 266.046 299.551 264.708 300.658ZM305.445 113.531C304.689 108.995 294.107 104.46 275.966 111.263C259.92 117.28 253.336 116.793 243.661 116.077L243.661 116.077L243.66 116.077C242.397 115.983 241.08 115.886 239.683 115.798C227.589 115.043 209.448 118.066 213.983 124.113C216.323 127.233 221.683 126.127 228.399 124.741C234.699 123.441 242.193 121.894 249.51 123.357C253.576 124.17 256.657 125.093 259.417 125.919C266.917 128.164 272.035 129.696 288.06 126.381C307.23 122.415 306.166 117.292 305.598 114.552C305.516 114.159 305.445 113.815 305.445 113.531ZM240.439 190.631C246.486 183.979 268.659 185.844 278.989 187.608C271.169 187.608 267.664 190.125 263.762 192.927C262.006 194.187 260.17 195.506 257.824 196.678C250.265 200.458 232.88 198.946 240.439 190.631ZM288.06 249.589C288.06 246.565 282.769 245.053 275.966 247.321C270.523 249.135 264.124 248.581 261.604 248.078C263.62 250.597 269.767 255.485 278.233 254.881C286.699 254.276 288.312 251.101 288.06 249.589ZM274.454 291.162C274.454 289.65 271.43 286.627 262.36 289.65C253.289 292.674 252.533 294.185 254.801 295.697C256.056 296.533 257.774 295.75 259.955 294.755C261.715 293.952 263.776 293.011 266.139 292.673C268.186 292.381 269.781 292.428 271.011 292.464C272.959 292.522 273.99 292.552 274.454 291.162Z" fill="#F4F8FB"/>
</g>
<path d="M193.574 113.53L194.213 113.923L193.574 113.53ZM234.392 100.68V99.9303H234.45L234.508 99.9393L234.392 100.68ZM202.645 137.718L202.799 136.985L202.645 137.718ZM218.347 137.431L218.192 136.697L218.347 137.431ZM241.951 135.451L241.973 134.701L241.951 135.451ZM266.791 141.782L266.469 142.459L266.791 141.782ZM288.059 146.033L287.973 145.288L288.059 146.033ZM329.633 126.38L330.271 126.773L329.633 126.38ZM339.929 118.872L340.246 119.552L339.929 118.872ZM350.797 102.948L351.54 102.847L350.797 102.948ZM298.642 95.3891L298.903 96.0922L298.642 95.3891ZM263.124 175.752V175.002H263.158L263.192 175.005L263.124 175.752ZM263.124 175.752V176.502H263.083L263.042 176.498L263.124 175.752ZM263.125 175.752L263.193 175.005L263.2 175.006L263.207 175.007L263.125 175.752ZM275.965 177.025L276.028 176.277L276.041 176.279L275.965 177.025ZM298.423 173.123L298.118 172.438L298.423 173.123ZM309.98 169.466L310.073 170.21L309.98 169.466ZM316.783 203.48L316.956 204.21L316.783 203.48ZM298.556 201.736L298.342 202.454L298.556 201.736ZM269.162 201.213L269.393 201.927L269.162 201.213ZM256.944 205.415L257.195 206.122L257.188 206.125L257.181 206.127L256.944 205.415ZM256.943 205.415L256.692 204.709L256.699 204.706L256.706 204.704L256.943 205.415ZM217.006 207.26L217.483 206.681L217.006 207.26ZM235.903 174.757L235.933 175.507L235.903 174.757ZM232.88 250.345L233.531 249.973L232.88 250.345ZM243.133 253.14L243.18 253.888H243.18L243.133 253.14ZM246.486 235.227L246.375 235.969L246.486 235.227ZM257.41 239.209L257.873 238.618H257.873L257.41 239.209ZM267.651 241.275L267.609 240.526L267.651 241.275ZM280.058 237.728L279.729 237.053H279.729L280.058 237.728ZM296.374 235.984L296.183 236.709H296.183L296.374 235.984ZM299.398 261.683L299.078 261.005L299.398 261.683ZM273.389 262.694L273.561 261.964L273.569 261.966L273.576 261.968L273.389 262.694ZM273.389 262.694L273.217 263.424L273.207 263.421L273.389 262.694ZM273.389 262.694L273.207 263.421L273.202 263.42L273.389 262.694ZM269.162 261.683L269.015 262.419V262.419L269.162 261.683ZM259.482 257.323L259.086 257.96L259.482 257.323ZM251.021 253.368L250.859 254.1H250.859L251.021 253.368ZM252.533 304.011L252.427 304.753L252.533 304.011ZM264.708 300.658L265.186 301.236H265.186L264.708 300.658ZM251.021 286.626L251.336 287.307L251.021 286.626ZM281.256 286.626L281.787 286.095L281.256 286.626ZM281.256 297.964L281.673 298.588H281.673L281.256 297.964ZM276.733 298.035L276.869 297.298L276.869 297.298L276.733 298.035ZM269.162 297.964L269.369 298.685L269.368 298.685L269.162 297.964ZM275.966 111.263L275.702 110.561L275.966 111.263ZM305.445 113.531L306.185 113.407L306.195 113.468V113.531H305.445ZM243.661 116.077L243.606 116.825L243.602 116.824L243.661 116.077ZM243.661 116.077L243.707 115.328L243.72 115.329L243.661 116.077ZM243.66 116.077L243.614 116.825L243.605 116.825L243.66 116.077ZM239.683 115.798L239.73 115.05L239.683 115.798ZM213.983 124.113L213.383 124.563L213.983 124.113ZM228.399 124.741L228.247 124.006L228.399 124.741ZM249.51 123.357L249.657 122.622L249.51 123.357ZM259.417 125.919L259.632 125.201L259.417 125.919ZM288.06 126.381L288.211 127.115L288.06 126.381ZM305.598 114.552L304.863 114.705L305.598 114.552ZM278.989 187.608L279.115 186.868L278.989 188.358V187.608ZM240.439 190.631L240.994 191.136L240.439 190.631ZM263.762 192.927L264.199 193.536V193.536L263.762 192.927ZM275.966 247.321L275.729 246.61L275.966 247.321ZM288.06 249.589L287.32 249.712L287.31 249.651V249.589H288.06ZM261.604 248.078L261.018 248.546L259.732 246.939L261.751 247.342L261.604 248.078ZM278.233 254.881L278.287 255.629L278.233 254.881ZM262.36 289.65L262.123 288.939H262.123L262.36 289.65ZM274.454 291.162H275.204V291.284L275.165 291.399L274.454 291.162ZM254.801 295.697L254.385 296.321H254.385L254.801 295.697ZM259.955 294.755L259.643 294.072H259.643L259.955 294.755ZM266.139 292.673L266.245 293.416H266.245L266.139 292.673ZM271.011 292.464L271.033 291.715L271.011 292.464ZM192.935 113.137C194.553 110.509 197.388 108.399 200.787 106.705C204.197 105.006 208.248 103.691 212.39 102.691C220.672 100.692 229.424 99.9303 234.392 99.9303V101.43C229.533 101.43 220.9 102.18 212.742 104.149C208.664 105.134 204.73 106.416 201.456 108.048C198.17 109.685 195.619 111.638 194.213 113.923L192.935 113.137ZM202.49 138.452C195.115 136.9 191.056 133.157 189.733 128.375C188.429 123.659 189.851 118.149 192.935 113.137L194.213 113.923C191.25 118.738 190.027 123.81 191.179 127.975C192.313 132.076 195.813 135.514 202.799 136.985L202.49 138.452ZM218.502 138.165C213.538 139.215 209.829 139.997 202.49 138.452L202.799 136.985C209.84 138.467 213.311 137.73 218.192 136.697L218.502 138.165ZM241.928 136.2C229.55 135.825 223.377 137.134 218.502 138.165L218.192 136.697C223.138 135.651 229.437 134.321 241.973 134.701L241.928 136.2ZM266.469 142.459C260.603 139.665 254.109 136.57 241.928 136.2L241.973 134.701C254.46 135.08 261.176 138.276 267.114 141.104L266.469 142.459ZM288.145 146.778C277.996 147.949 272.538 145.35 266.469 142.459L267.114 141.104C273.112 143.961 278.253 146.41 287.973 145.288L288.145 146.778ZM330.271 126.773C327.145 131.854 321.526 136.282 314.269 139.719C307.003 143.161 298.039 145.637 288.145 146.778L287.973 145.288C297.732 144.162 306.532 141.724 313.627 138.363C320.732 134.998 326.073 130.733 328.994 125.987L330.271 126.773ZM340.246 119.552C336.272 121.405 332.47 123.201 330.271 126.773L328.994 125.987C331.467 121.968 335.72 120.008 339.612 118.192L340.246 119.552ZM351.54 102.847C352.26 108.125 351.07 111.611 348.786 114.146C346.555 116.621 343.337 118.11 340.246 119.552L339.612 118.192C342.77 116.719 345.683 115.349 347.671 113.142C349.607 110.995 350.726 107.977 350.054 103.049L351.54 102.847ZM298.38 94.6861C311.663 89.7527 324.26 87.4448 333.872 88.5021C338.682 89.0312 342.797 90.4091 345.869 92.7753C348.96 95.1556 350.948 98.5006 351.54 102.847L350.054 103.049C349.513 99.0806 347.722 96.0951 344.954 93.9637C342.168 91.8183 338.346 90.5033 333.708 89.9931C324.423 88.9717 312.076 91.1991 298.903 96.0922L298.38 94.6861ZM234.508 99.9393C246.595 101.828 255.976 102.95 265.623 102.388C275.26 101.827 285.2 99.5817 298.38 94.6861L298.903 96.0922C285.627 101.023 275.537 103.313 265.71 103.885C255.892 104.457 246.376 103.312 234.276 101.421L234.508 99.9393ZM263.124 176.502H263.124V175.002H263.124V176.502ZM263.057 176.499L263.056 176.499L263.192 175.005L263.193 175.005L263.057 176.499ZM275.903 177.772C270.573 177.328 266.545 176.884 263.043 176.498L263.207 175.007C266.707 175.393 270.719 175.835 276.028 176.277L275.903 177.772ZM298.729 173.808C295.947 175.047 293.062 176.334 289.459 177.159C285.849 177.985 281.544 178.343 275.89 177.771L276.041 176.279C281.549 176.836 285.689 176.483 289.124 175.697C292.567 174.908 295.33 173.68 298.118 172.438L298.729 173.808ZM310.073 170.21C305.543 170.776 302.212 172.256 298.729 173.808L298.118 172.438C301.6 170.887 305.112 169.318 309.887 168.722L310.073 170.21ZM334.3 178.196C329.982 171.72 322.012 168.718 310.073 170.21L309.887 168.722C322.136 167.19 330.795 170.235 335.548 177.364L334.3 178.196ZM316.609 202.751C324.346 200.909 329.85 196.31 332.867 191.373C335.914 186.386 336.333 181.247 334.3 178.196L335.548 177.364C338.05 181.117 337.335 186.938 334.147 192.155C330.927 197.423 325.093 202.273 316.956 204.21L316.609 202.751ZM298.771 201.017C304.667 202.775 309.947 204.337 316.609 202.751L316.956 204.21C309.859 205.9 304.218 204.206 298.342 202.454L298.771 201.017ZM268.932 200.499C282.43 196.145 291.035 198.711 298.771 201.017L298.342 202.454C290.688 200.172 282.447 197.715 269.393 201.927L268.932 200.499ZM256.692 204.709C260.526 203.345 264.6 201.897 268.932 200.499L269.393 201.927C265.084 203.316 261.031 204.758 257.195 206.122L256.692 204.709ZM256.706 204.704L256.706 204.704L257.181 206.127L257.181 206.127L256.706 204.704ZM256.706 204.704L256.706 204.704L257.181 206.127L257.181 206.127L256.706 204.704ZM217.483 206.681C222.528 210.835 228.05 211.86 234.454 211.092C240.907 210.318 248.184 207.735 256.692 204.709L257.195 206.122C248.739 209.129 241.288 211.783 234.633 212.581C227.93 213.385 221.966 212.316 216.53 207.839L217.483 206.681ZM235.933 175.507C226.755 175.874 219.042 181.202 215.195 187.705C213.274 190.953 212.337 194.459 212.628 197.757C212.917 201.04 214.425 204.162 217.483 206.681L216.53 207.839C213.163 205.066 211.458 201.575 211.134 197.889C210.81 194.219 211.857 190.403 213.904 186.942C217.994 180.028 226.155 174.397 235.874 174.008L235.933 175.507ZM263.042 176.498C254.626 175.569 249.239 174.974 235.933 175.507L235.874 174.008C249.279 173.472 254.746 174.074 263.206 175.007L263.042 176.498ZM233.531 249.973C234.339 251.386 235.579 252.06 237.207 252.351C238.879 252.65 240.87 252.53 243.086 252.391L243.18 253.888C241.016 254.024 238.829 254.165 236.943 253.828C235.014 253.482 233.318 252.622 232.229 250.717L233.531 249.973ZM246.375 235.969C239.032 234.868 235.232 237.261 233.536 240.316C231.784 243.468 232.138 247.535 233.531 249.973L232.229 250.717C230.598 247.863 230.197 243.237 232.224 239.587C234.307 235.839 238.822 233.319 246.597 234.485L246.375 235.969ZM256.947 239.799C256.134 239.162 255.272 238.486 253.742 237.828C252.199 237.163 249.948 236.505 246.375 235.969L246.597 234.485C250.251 235.034 252.636 235.719 254.335 236.45C256.048 237.187 257.033 237.961 257.873 238.618L256.947 239.799ZM267.692 242.024C264.117 242.222 261.912 242.064 260.349 241.644C258.746 241.213 257.86 240.515 256.947 239.799L257.873 238.618C258.763 239.316 259.447 239.848 260.738 240.195C262.069 240.553 264.083 240.722 267.609 240.526L267.692 242.024ZM280.386 238.402C277.195 239.955 273.624 241.694 267.692 242.024L267.609 240.526C273.232 240.213 276.582 238.585 279.729 237.053L280.386 238.402ZM296.183 236.709C292.132 235.643 289.239 235.571 286.859 235.995C284.466 236.421 282.542 237.353 280.386 238.402L279.729 237.053C281.868 236.013 283.969 234.986 286.596 234.518C289.235 234.048 292.353 234.15 296.565 235.258L296.183 236.709ZM299.078 261.005C305.247 258.102 307.873 252.907 307.345 248.064C306.816 243.22 303.108 238.531 296.183 236.709L296.565 235.258C304.002 237.215 308.23 242.353 308.836 247.902C309.441 253.453 306.398 259.218 299.717 262.362L299.078 261.005ZM273.576 261.968C280.464 263.738 288.76 265.861 299.078 261.005L299.717 262.362C288.88 267.462 280.118 265.198 273.203 263.42L273.576 261.968ZM273.561 261.964L273.561 261.964L273.218 263.424L273.217 263.424L273.561 261.964ZM273.571 261.966L273.571 261.966L273.207 263.421L273.207 263.421L273.571 261.966ZM269.309 260.948C270.67 261.22 272.098 261.587 273.576 261.967L273.202 263.42C271.715 263.038 270.328 262.681 269.015 262.419L269.309 260.948ZM259.878 256.686C262.727 258.457 265.529 260.192 269.309 260.948L269.015 262.419C264.936 261.603 261.922 259.723 259.086 257.96L259.878 256.686ZM251.184 252.636C254.593 253.393 257.264 255.061 259.878 256.686L259.086 257.96C256.449 256.321 253.982 254.794 250.859 254.1L251.184 252.636ZM243.086 252.391C245.669 252.229 248.525 252.045 251.184 252.636L250.859 254.1C248.444 253.564 245.806 253.724 243.18 253.888L243.086 252.391ZM252.639 303.269C256.005 303.749 258.284 303.436 260.003 302.789C261.733 302.139 262.958 301.132 264.23 300.08L265.186 301.236C263.924 302.279 262.524 303.444 260.531 304.193C258.527 304.947 255.985 305.262 252.427 304.753L252.639 303.269ZM251.336 287.307C246.642 289.473 244.618 293.182 244.872 296.393C245.122 299.568 247.626 302.552 252.639 303.269L252.427 304.753C246.858 303.958 243.692 300.517 243.376 296.511C243.063 292.542 245.574 288.314 250.707 285.945L251.336 287.307ZM280.726 287.156C277.924 284.354 273.084 283.22 267.582 283.407C262.112 283.592 256.163 285.079 251.336 287.307L250.707 285.945C255.706 283.637 261.851 282.1 267.531 281.908C273.177 281.716 278.542 282.851 281.787 286.095L280.726 287.156ZM280.84 297.34C281.925 296.616 283.243 295.428 283.647 293.813C284.033 292.27 283.641 290.071 280.726 287.156L281.787 286.095C284.919 289.228 285.661 291.941 285.102 294.177C284.561 296.342 282.855 297.799 281.673 298.588L280.84 297.34ZM276.869 297.298C277.836 297.476 278.642 297.622 279.336 297.647C280.024 297.671 280.496 297.569 280.84 297.34L281.673 298.588C280.955 299.067 280.116 299.176 279.283 299.146C278.456 299.117 277.532 298.945 276.597 298.773L276.869 297.298ZM268.956 297.243C271.959 296.385 274.722 296.903 276.869 297.298L276.597 298.773C274.427 298.374 271.991 297.935 269.369 298.685L268.956 297.243ZM264.23 300.08C265.557 298.983 266.956 297.814 268.956 297.243L269.368 298.685C267.711 299.159 266.536 300.119 265.186 301.236L264.23 300.08ZM275.702 110.561C284.863 107.126 292.18 106.527 297.35 107.405C299.934 107.844 302.005 108.656 303.498 109.69C304.984 110.719 305.952 112.009 306.185 113.407L304.705 113.654C304.56 112.784 303.921 111.807 302.644 110.923C301.374 110.043 299.523 109.296 297.099 108.884C292.254 108.062 285.21 108.597 276.229 111.965L275.702 110.561ZM243.716 115.329C248.559 115.687 252.559 115.981 257.342 115.449C262.122 114.917 267.717 113.555 275.702 110.561L276.229 111.965C268.169 114.988 262.449 116.39 257.507 116.94C252.568 117.49 248.438 117.182 243.606 116.825L243.716 115.329ZM243.72 115.329L243.72 115.329L243.602 116.824L243.602 116.824L243.72 115.329ZM243.707 115.328L243.707 115.328L243.614 116.825L243.614 116.825L243.707 115.328ZM239.73 115.05C241.132 115.138 242.452 115.235 243.716 115.329L243.605 116.825C242.341 116.731 241.029 116.634 239.636 116.547L239.73 115.05ZM213.383 124.563C212.735 123.699 212.428 122.799 212.546 121.892C212.662 120.996 213.176 120.233 213.884 119.598C215.277 118.35 217.647 117.393 220.409 116.679C225.979 115.238 233.619 114.668 239.73 115.05L239.636 116.547C233.654 116.173 226.176 116.737 220.785 118.131C218.067 118.834 215.996 119.72 214.885 120.715C214.342 121.202 214.088 121.662 214.033 122.085C213.979 122.499 214.098 123.016 214.583 123.663L213.383 124.563ZM228.55 125.476C225.216 126.164 222.122 126.805 219.568 126.867C217.016 126.929 214.775 126.418 213.383 124.563L214.583 123.663C215.532 124.928 217.14 125.425 219.532 125.367C221.921 125.309 224.866 124.704 228.247 124.006L228.55 125.476ZM249.363 124.093C242.219 122.664 234.875 124.17 228.55 125.476L228.247 124.006C234.523 122.711 242.166 121.124 249.657 122.622L249.363 124.093ZM259.202 126.638C256.444 125.812 253.391 124.898 249.363 124.093L249.657 122.622C253.76 123.442 256.871 124.374 259.632 125.201L259.202 126.638ZM288.211 127.115C280.165 128.78 274.808 129.238 270.497 128.984C266.18 128.729 262.949 127.759 259.202 126.638L259.632 125.201C263.384 126.324 266.462 127.243 270.585 127.486C274.715 127.73 279.929 127.297 287.908 125.646L288.211 127.115ZM306.332 114.4C306.473 115.077 306.675 116.027 306.537 117.095C306.395 118.189 305.907 119.358 304.768 120.529C302.541 122.821 297.816 125.128 288.211 127.115L287.908 125.646C297.473 123.667 301.802 121.429 303.693 119.484C304.614 118.536 304.951 117.663 305.049 116.902C305.151 116.116 305.007 115.397 304.863 114.705L306.332 114.4ZM306.195 113.531C306.195 113.721 306.245 113.98 306.332 114.4L304.863 114.705C304.787 114.338 304.695 113.909 304.695 113.531H306.195ZM278.863 188.347C273.73 187.471 265.653 186.57 258.122 186.714C254.355 186.785 250.753 187.118 247.734 187.834C244.695 188.555 242.354 189.64 240.994 191.136L239.884 190.127C241.548 188.296 244.246 187.12 247.388 186.375C250.55 185.625 254.27 185.287 258.093 185.214C265.743 185.068 273.917 185.981 279.115 186.868L278.863 188.347ZM263.324 192.317C265.268 190.922 267.185 189.542 269.617 188.524C272.061 187.502 274.993 186.858 278.989 186.858V188.358C275.165 188.358 272.434 188.972 270.196 189.908C267.944 190.85 266.157 192.13 264.199 193.536L263.324 192.317ZM257.489 196.007C259.774 194.865 261.566 193.58 263.324 192.317L264.199 193.536C262.446 194.795 260.565 196.146 258.16 197.349L257.489 196.007ZM240.994 191.136C239.178 193.134 239.111 194.433 239.562 195.255C240.08 196.202 241.486 196.993 243.622 197.457C245.702 197.909 248.267 198.005 250.781 197.751C253.299 197.497 255.706 196.899 257.489 196.007L258.16 197.349C256.163 198.347 253.563 198.978 250.931 199.243C248.296 199.509 245.569 199.416 243.303 198.923C241.093 198.442 239.098 197.533 238.246 195.975C237.326 194.294 237.921 192.286 239.884 190.127L240.994 191.136ZM275.729 246.61C279.221 245.445 282.385 245.23 284.723 245.738C287.007 246.234 288.81 247.53 288.81 249.589H287.31C287.31 248.624 286.467 247.652 284.405 247.204C282.397 246.767 279.514 246.929 276.203 248.033L275.729 246.61ZM261.751 247.342C264.201 247.832 270.456 248.367 275.729 246.61L276.203 248.033C270.59 249.903 264.046 249.331 261.457 248.813L261.751 247.342ZM278.287 255.629C269.509 256.256 263.142 251.201 261.018 248.546L262.19 247.609C264.097 249.994 270.026 254.715 278.18 254.132L278.287 255.629ZM288.8 249.465C288.983 250.566 288.458 251.996 286.862 253.178C285.273 254.354 282.594 255.321 278.287 255.629L278.18 254.132C282.339 253.835 284.699 252.913 285.97 251.972C287.233 251.037 287.389 250.123 287.32 249.712L288.8 249.465ZM262.123 288.939C266.739 287.4 269.931 287.359 272.024 287.987C274.078 288.603 275.204 289.939 275.204 291.162H273.704C273.704 290.873 273.318 289.941 271.593 289.424C269.906 288.918 267.051 288.877 262.597 290.362L262.123 288.939ZM254.385 296.321C253.799 295.931 253.207 295.42 253.025 294.731C252.814 293.937 253.211 293.242 253.824 292.685C254.433 292.132 255.395 291.573 256.725 290.974C258.069 290.369 259.843 289.699 262.123 288.939L262.597 290.362C260.341 291.114 258.62 291.766 257.341 292.342C256.049 292.924 255.263 293.404 254.833 293.795C254.406 294.183 254.473 294.339 254.475 294.348C254.505 294.462 254.669 294.707 255.217 295.073L254.385 296.321ZM260.266 295.437C259.197 295.925 258.153 296.404 257.213 296.64C256.259 296.88 255.265 296.908 254.385 296.321L255.217 295.073C255.592 295.323 256.084 295.377 256.848 295.185C257.626 294.99 258.532 294.579 259.643 294.072L260.266 295.437ZM266.245 293.416C264.004 293.736 262.036 294.629 260.266 295.437L259.643 294.072C261.394 293.274 263.548 292.286 266.033 291.931L266.245 293.416ZM270.988 293.214C269.765 293.178 268.225 293.133 266.245 293.416L266.033 291.931C268.148 291.629 269.797 291.678 271.033 291.715L270.988 293.214ZM275.165 291.399C275.023 291.826 274.819 292.197 274.524 292.491C274.225 292.79 273.871 292.97 273.494 293.078C272.797 293.276 271.913 293.241 270.988 293.214L271.033 291.715C272.056 291.745 272.662 291.755 273.084 291.635C273.266 291.583 273.379 291.514 273.465 291.429C273.554 291.34 273.653 291.193 273.742 290.925L275.165 291.399Z" fill="black"/>
<defs>
<filter id="filter0_i_3058_16632" x="189.25" y="88.25" width="162.5" height="216.752" filterUnits="userSpaceOnUse" color-interpolation-filters="sRGB">
<feFlood flood-opacity="0" result="BackgroundImageFix"/>
<feBlend mode="normal" in="SourceGraphic" in2="BackgroundImageFix" result="shape"/>
<feColorMatrix in="SourceAlpha" type="matrix" values="0 0 0 0 0 0 0 0 0 0 0 0 0 0 0 0 0 0 127 0" result="hardAlpha"/>
<feOffset dy="-6"/>
<feComposite in2="hardAlpha" operator="arithmetic" k2="-1" k3="1"/>
<feColorMatrix type="matrix" values="0 0 0 0 0.713726 0 0 0 0 0.772549 0 0 0 0 0.792157 0 0 0 1 0"/>
<feBlend mode="normal" in2="shape" result="effect1_innerShadow_3058_16632"/>
</filter>
</defs>
</svg>
