<svg width="414" height="414" viewBox="0 0 414 414" fill="none" xmlns="http://www.w3.org/2000/svg">
<circle cx="207" cy="207" r="135" fill="#C3C2C5"/>
<g filter="url(#filter0_i_3058_16637)">
<path d="M236.241 289.662C242.426 290.86 247.253 293.654 248.893 294.901C238.349 291.16 237.647 294.152 229.915 294.901C222.183 295.65 223.588 291.907 216.559 291.907C211.554 291.907 204.691 290.721 200.931 289.933C200.525 289.874 200.111 289.785 199.69 289.662C200.05 289.745 200.467 289.836 200.931 289.933C207.961 290.955 212.649 282.927 217.965 282.927C223.588 282.927 218.668 286.669 223.588 289.662C228.509 292.656 228.509 288.166 236.241 289.662Z" fill="#F4F8FB"/>
<path d="M125.182 267.211C122.37 267.959 120.964 263.469 120.261 264.218C120.73 265.465 122.37 268.258 125.182 269.456C128.696 270.953 132.914 267.211 132.914 269.456C132.914 271.701 125.182 271.701 125.885 276.191C126.588 280.681 134.484 276.191 135.022 280.681C135.561 285.171 123.073 283.675 125.182 288.913C127.29 294.152 134.32 294.9 142.754 291.907C151.189 288.913 145.566 278.436 140.646 278.436C135.725 278.436 131.508 274.694 134.32 272.449C137.131 270.204 139.24 268.708 136.428 264.218C133.617 259.727 127.993 266.463 125.182 267.211Z" fill="#F4F8FB"/>
<path d="M78.79 238.025C81.6016 239.821 84.1789 239.771 85.1161 239.522C77.3843 242.515 75.2755 242.515 73.8697 239.522C72.4639 236.528 75.2755 235.78 78.79 238.025Z" fill="#F4F8FB"/>
<path d="M69.6522 237.276C69.6522 236.279 69.0899 234.283 66.8406 234.283C64.0289 234.283 68.2464 237.276 69.6522 237.276Z" fill="#F4F8FB"/>
<path d="M64.732 219.316C61.9203 219.915 58.4058 218.069 57 217.071C57.2343 216.073 58.5464 213.778 61.9203 212.581C66.1378 211.084 73.1668 211.084 71.0581 208.09C68.9494 205.097 67.5436 196.866 78.79 195.369C90.0364 193.872 88.6307 197.613 92.1453 198.362C95.6598 199.11 99.1743 193.872 105.5 196.117C110.561 197.913 112.295 199.36 112.53 199.859C108.312 200.607 108.312 199.859 103.392 199.11C98.4714 198.362 98.4714 200.607 93.5511 201.355C88.6307 202.104 87.9278 199.11 83.7104 199.11C79.493 199.11 78.0872 200.607 75.9784 202.852C73.8697 205.097 87.2249 208.091 80.8988 211.084C74.5726 214.077 72.4639 213.329 67.5436 214.077C62.6232 214.826 68.2465 218.568 64.732 219.316Z" fill="#F4F8FB"/>
<path d="M87.2249 241.766C88.1621 240.519 91.7235 237.875 98.4714 237.276C95.4255 235.53 89.6148 230.541 90.7394 224.554C92.1453 217.071 96.3627 209.587 105.5 211.832C114.638 214.077 113.935 211.832 120.261 209.587C126.588 207.342 134.32 205.097 137.834 211.832C140.646 217.22 139.006 222.559 137.834 224.554C139.403 226.434 141.005 230.305 137.198 232.922C140.554 231.718 145.321 231.17 149.081 234.283C150.721 231.539 155.547 226.201 161.733 226.799C167.918 227.398 172.276 232.038 173.682 234.283C175.322 235.281 179.587 236.678 183.523 234.283C188.443 231.289 180.008 224.554 180.008 219.316C180.008 215.125 183.289 214.077 184.929 214.077C183.992 212.581 183.242 209.288 187.74 208.09C184.226 207.841 177.197 206.743 177.197 204.349H161.733C164.31 202.852 171.011 200.158 177.197 201.355C178.134 199.609 181.274 196.117 186.335 196.117C188.209 188.633 196.597 174.414 215.154 177.408C233.71 180.401 236.944 189.631 236.241 193.872C238.115 193.872 241.864 194.919 241.864 199.11C243.504 199.36 246.644 200.457 246.081 202.852H235.538C236.006 204.099 236.803 206.893 236.241 208.09C239.287 207.591 244.816 208.39 242.567 215.574C243.973 215.075 247.206 214.826 248.893 217.819H206.719C200.393 219.066 187.74 223.057 187.74 229.044C187.74 236.528 189.849 239.521 184.929 241.018C180.008 242.515 184.226 238.025 168.059 241.018C158.921 242.265 137.834 244.311 126.588 242.515C123.57 242.762 117.426 242.372 116.764 238.873C116.967 240.157 116.674 242.68 113.935 243.263C110.421 244.011 105.5 244.011 103.392 242.515L87.2249 241.766Z" fill="#F4F8FB"/>
<path d="M187.74 264.218C189.38 263.22 194.066 261.823 199.69 264.218C200.393 260.975 203.626 255.087 210.936 257.482C213.279 256.733 218.246 256.434 219.371 261.224C219.965 263.754 219.539 265.282 218.798 266.16C222.637 264.762 229.505 263.84 237.647 267.21C231.789 263.718 221.48 254.339 227.103 244.76C234.132 232.786 244.676 231.289 254.516 233.534C262.389 235.331 264.826 245.758 265.06 250.747C267.637 250.248 273.073 250.597 274.198 255.985C275.322 261.373 271.386 263.719 269.277 264.218C270.683 264.966 273.214 267.061 272.089 269.456C274.666 268.957 279.821 269.156 279.821 273.946C281.461 272.948 286.428 271.85 293.176 275.442C298.565 274.445 310.327 273.347 314.263 276.939L293.176 278.436C291.067 280.431 285.725 283.525 281.227 279.933C276.306 281.928 265.763 285.021 262.951 281.429C260.14 277.837 262.248 274.943 263.654 273.946C257.797 275.442 245.379 277.837 242.567 275.442C231.555 276.939 209.249 277.538 208.125 267.959C203.204 267.211 192.239 265.416 187.74 264.218Z" fill="#F4F8FB"/>
<path d="M352.923 258.23C359.109 260.026 356.906 263.968 355.032 265.714C350.111 267.21 350.814 266.462 348.003 264.218C345.191 261.973 339.568 265.714 337.459 260.475C335.35 255.237 346.597 250.747 348.003 247.005C349.409 243.263 343.082 238.708 324.807 242.515C310.186 245.56 299.034 245.28 295.285 244.76C302.314 244.76 305.828 242.515 323.401 239.521C340.974 236.528 348.706 238.773 355.032 244.76C361.358 250.747 346.597 252.243 345.191 254.488C343.785 256.734 345.191 255.985 352.923 258.23Z" fill="#F4F8FB"/>
</g>
<path d="M236.241 289.662C242.426 290.86 247.253 293.654 248.893 294.901C238.349 291.16 237.647 294.152 229.915 294.901C222.183 295.65 223.588 291.907 216.559 291.907C211.554 291.907 204.691 290.721 200.931 289.933C200.525 289.874 200.111 289.785 199.69 289.662C200.05 289.745 200.467 289.836 200.931 289.933C207.961 290.955 212.649 282.927 217.965 282.927C223.588 282.927 218.668 286.669 223.588 289.662C228.509 292.656 228.509 288.166 236.241 289.662Z" stroke="black" stroke-width="1.5"/>
<path d="M125.182 267.211C122.37 267.959 120.964 263.469 120.261 264.218C120.73 265.465 122.37 268.258 125.182 269.456C128.696 270.953 132.914 267.211 132.914 269.456C132.914 271.701 125.182 271.701 125.885 276.191C126.588 280.681 134.484 276.191 135.022 280.681C135.561 285.171 123.073 283.675 125.182 288.913C127.29 294.152 134.32 294.9 142.754 291.907C151.189 288.913 145.566 278.436 140.646 278.436C135.725 278.436 131.508 274.694 134.32 272.449C137.131 270.204 139.24 268.708 136.428 264.218C133.617 259.727 127.993 266.463 125.182 267.211Z" stroke="black" stroke-width="1.5"/>
<path d="M78.79 238.025C81.6016 239.821 84.1789 239.771 85.1161 239.522C77.3843 242.515 75.2755 242.515 73.8697 239.522C72.4639 236.528 75.2755 235.78 78.79 238.025Z" stroke="black" stroke-width="1.5"/>
<path d="M69.6522 237.276C69.6522 236.279 69.0899 234.283 66.8406 234.283C64.0289 234.283 68.2464 237.276 69.6522 237.276Z" stroke="black" stroke-width="1.5"/>
<path d="M64.732 219.316C61.9203 219.915 58.4058 218.069 57 217.071C57.2343 216.073 58.5464 213.778 61.9203 212.581C66.1378 211.084 73.1668 211.084 71.0581 208.09C68.9494 205.097 67.5436 196.866 78.79 195.369C90.0364 193.872 88.6307 197.613 92.1453 198.362C95.6598 199.11 99.1743 193.872 105.5 196.117C110.561 197.913 112.295 199.36 112.53 199.859C108.312 200.607 108.312 199.859 103.392 199.11C98.4714 198.362 98.4714 200.607 93.5511 201.355C88.6307 202.104 87.9278 199.11 83.7104 199.11C79.493 199.11 78.0872 200.607 75.9784 202.852C73.8697 205.097 87.2249 208.091 80.8988 211.084C74.5726 214.077 72.4639 213.329 67.5436 214.077C62.6232 214.826 68.2465 218.568 64.732 219.316Z" stroke="black" stroke-width="1.5"/>
<path d="M87.2249 241.766C88.1621 240.519 91.7235 237.875 98.4714 237.276C95.4255 235.53 89.6148 230.541 90.7394 224.554C92.1453 217.071 96.3627 209.587 105.5 211.832C114.638 214.077 113.935 211.832 120.261 209.587C126.588 207.342 134.32 205.097 137.834 211.832C140.646 217.22 139.006 222.559 137.834 224.554C139.403 226.434 141.005 230.305 137.198 232.922C140.554 231.718 145.321 231.17 149.081 234.283C150.721 231.539 155.547 226.201 161.733 226.799C167.918 227.398 172.276 232.038 173.682 234.283C175.322 235.281 179.587 236.678 183.523 234.283C188.443 231.289 180.008 224.554 180.008 219.316C180.008 215.125 183.289 214.077 184.929 214.077C183.992 212.581 183.242 209.288 187.74 208.09C184.226 207.841 177.197 206.743 177.197 204.349H161.733C164.31 202.852 171.011 200.158 177.197 201.355C178.134 199.609 181.274 196.117 186.335 196.117C188.209 188.633 196.597 174.414 215.154 177.408C233.71 180.401 236.944 189.631 236.241 193.872C238.115 193.872 241.864 194.919 241.864 199.11C243.504 199.36 246.644 200.457 246.081 202.852H235.538C236.006 204.099 236.803 206.893 236.241 208.09C239.287 207.591 244.816 208.39 242.567 215.574C243.973 215.075 247.206 214.826 248.893 217.819H206.719C200.393 219.066 187.74 223.057 187.74 229.044C187.74 236.528 189.849 239.521 184.929 241.018C180.008 242.515 184.226 238.025 168.059 241.018C158.921 242.265 137.834 244.311 126.588 242.515C123.57 242.762 117.426 242.372 116.764 238.873C116.967 240.157 116.674 242.68 113.935 243.263C110.421 244.011 105.5 244.011 103.392 242.515L87.2249 241.766Z" stroke="black" stroke-width="1.5"/>
<path d="M187.74 264.218C189.38 263.22 194.066 261.823 199.69 264.218C200.393 260.975 203.626 255.087 210.936 257.482C213.279 256.733 218.246 256.434 219.371 261.224C219.965 263.754 219.539 265.282 218.798 266.16C222.637 264.762 229.505 263.84 237.647 267.21C231.789 263.718 221.48 254.339 227.103 244.76C234.132 232.786 244.676 231.289 254.516 233.534C262.389 235.331 264.826 245.758 265.06 250.747C267.637 250.248 273.073 250.597 274.198 255.985C275.322 261.373 271.386 263.719 269.277 264.218C270.683 264.966 273.214 267.061 272.089 269.456C274.666 268.957 279.821 269.156 279.821 273.946C281.461 272.948 286.428 271.85 293.176 275.442C298.565 274.445 310.327 273.347 314.263 276.939L293.176 278.436C291.067 280.431 285.725 283.525 281.227 279.933C276.306 281.928 265.763 285.021 262.951 281.429C260.14 277.837 262.248 274.943 263.654 273.946C257.797 275.442 245.379 277.837 242.567 275.442C231.555 276.939 209.249 277.538 208.125 267.959C203.204 267.211 192.239 265.416 187.74 264.218Z" stroke="black" stroke-width="1.5"/>
<path d="M352.923 258.23C359.109 260.026 356.906 263.968 355.032 265.714C350.111 267.21 350.814 266.462 348.003 264.218C345.191 261.973 339.568 265.714 337.459 260.475C335.35 255.237 346.597 250.747 348.003 247.005C349.409 243.263 343.082 238.708 324.807 242.515C310.186 245.56 299.034 245.28 295.285 244.76C302.314 244.76 305.828 242.515 323.401 239.521C340.974 236.528 348.706 238.773 355.032 244.76C361.358 250.747 346.597 252.243 345.191 254.488C343.785 256.734 345.191 255.985 352.923 258.23Z" stroke="black" stroke-width="1.5"/>
<defs>
<filter id="filter0_i_3058_16637" x="56.1545" y="176.25" width="301.595" height="119.5" filterUnits="userSpaceOnUse" color-interpolation-filters="sRGB">
<feFlood flood-opacity="0" result="BackgroundImageFix"/>
<feBlend mode="normal" in="SourceGraphic" in2="BackgroundImageFix" result="shape"/>
<feColorMatrix in="SourceAlpha" type="matrix" values="0 0 0 0 0 0 0 0 0 0 0 0 0 0 0 0 0 0 127 0" result="hardAlpha"/>
<feOffset dy="-6"/>
<feComposite in2="hardAlpha" operator="arithmetic" k2="-1" k3="1"/>
<feColorMatrix type="matrix" values="0 0 0 0 0.713726 0 0 0 0 0.772549 0 0 0 0 0.792157 0 0 0 1 0"/>
<feBlend mode="normal" in2="shape" result="effect1_innerShadow_3058_16637"/>
</filter>
</defs>
</svg>
