<svg width="414" height="414" viewBox="0 0 414 414" fill="none" xmlns="http://www.w3.org/2000/svg">
<circle cx="207" cy="207" r="135" fill="#C3C2C5"/>
<g filter="url(#filter0_d_3058_16763)">
<g filter="url(#filter1_i_3058_16763)">
<path d="M283.585 325.047C288.889 324.945 292.85 322.624 294.168 321.477L294.933 318.544L292.383 317.524L279.888 315.484L270.325 317.524L271.09 321.477C273.045 322.709 278.281 325.149 283.585 325.047Z" fill="#D9D9D9"/>
</g>
<path d="M283.585 325.047C288.889 324.945 292.85 322.624 294.168 321.477L294.933 318.544L292.383 317.524L279.888 315.484L270.325 317.524L271.09 321.477C273.045 322.709 278.281 325.149 283.585 325.047Z" stroke="black" stroke-width="1.2"/>
<g filter="url(#filter2_i_3058_16763)">
<path d="M311.38 199.46C309.722 189.387 298.247 176.51 285.37 176C269.815 176 260.38 192.065 258.467 197.165C256.555 202.265 255.407 207.365 254.897 215.525C254.489 222.053 253.58 235.032 254.132 240.005C254.897 250.035 256.963 272.594 259.105 282.59C261.782 295.085 264.205 305.54 265.99 307.58L299.395 308.09C302.285 300.695 308.396 283.712 309.722 274.94C311.048 266.168 313.335 247.06 314.312 238.602C315.077 236.562 313.037 209.533 311.38 199.46Z" fill="#CF2226"/>
</g>
<path d="M311.38 199.46C309.722 189.387 298.247 176.51 285.37 176C269.815 176 260.38 192.065 258.467 197.165C256.555 202.265 255.407 207.365 254.897 215.525C254.489 222.053 253.58 235.032 254.132 240.005C254.897 250.035 256.963 272.594 259.105 282.59C261.782 295.085 264.205 305.54 265.99 307.58L299.395 308.09C302.285 300.695 308.396 283.712 309.722 274.94C311.048 266.168 313.335 247.06 314.312 238.602C315.077 236.562 313.037 209.533 311.38 199.46Z" stroke="black" stroke-width="1.2"/>
<path d="M262.293 260.151L259.87 226.746L263.185 224.578L265.608 259.513L262.293 260.151Z" fill="#D9D9D9" stroke="black" stroke-width="1.2"/>
<path d="M299.522 321.224C299.114 318.47 296.717 314.126 295.57 312.299L301.817 298.656L300.925 328.491C300.627 327.216 299.93 323.978 299.522 321.224Z" fill="#73171B" stroke="black" stroke-width="1.2"/>
<path d="M298.758 329.127L301.053 328.49L299.65 319.182L298.12 313.572L295.953 311.277L294.933 314.72C296.565 316.658 298.163 325.132 298.758 329.127Z" fill="#E75643" stroke="black" stroke-width="1.2"/>
<g filter="url(#filter3_ii_3058_16763)">
<path d="M252.858 308.09C258.264 304.622 263.61 305.625 265.608 306.56L260.635 278.766C258.552 279.616 253.291 281.928 248.905 284.376C244.519 286.824 242.062 293.131 241.382 295.978L241 322.243C242.7 318.971 247.451 311.558 252.858 308.09Z" fill="#F1462A"/>
</g>
<path d="M252.858 308.09C258.264 304.622 263.61 305.625 265.608 306.56L260.635 278.766C258.552 279.616 253.291 281.928 248.905 284.376C244.519 286.824 242.062 293.131 241.382 295.978L241 322.243C242.7 318.971 247.451 311.558 252.858 308.09Z" stroke="black" stroke-width="1.2"/>
<mask id="mask0_3058_16763" style="mask-type:alpha" maskUnits="userSpaceOnUse" x="253" y="176" width="62" height="133">
<path d="M311.38 199.46C309.722 189.387 298.247 176.51 285.37 176C269.815 176 260.38 192.065 258.467 197.165C256.555 202.265 255.407 207.365 254.897 215.525C254.489 222.053 253.58 235.032 254.132 240.005C254.897 250.035 256.963 272.594 259.105 282.59C261.782 295.085 264.205 305.54 265.99 307.58L299.395 308.09C302.285 300.695 308.396 283.712 309.722 274.94C311.048 266.168 313.335 247.06 314.312 238.602C315.077 236.562 313.037 209.533 311.38 199.46Z" fill="#CF2226"/>
</mask>
<g mask="url(#mask0_3058_16763)">
<g filter="url(#filter4_ii_3058_16763)">
<path d="M289.45 193.115C272.595 192.013 263.189 196.873 259.218 200.744C257.87 202.058 257.099 203.81 256.404 205.56C254.816 209.56 253.906 213.797 253.713 218.096L252.472 245.656C252.305 249.379 252.507 253.11 253.076 256.793L259.743 299.959C262.596 310.923 272.494 318.574 283.823 318.574H289.76C297.906 318.574 305.327 313.894 308.837 306.543C309.51 305.133 310.025 303.653 310.372 302.13L319.676 261.293C321.188 254.655 321.485 247.799 320.553 241.056L316.48 211.602C315.928 205.992 309.748 194.441 289.45 193.115Z" fill="#DAD7C6"/>
</g>
<path d="M289.45 193.115C272.595 192.013 263.189 196.873 259.218 200.744C257.87 202.058 257.099 203.81 256.404 205.56C254.816 209.56 253.906 213.797 253.713 218.096L252.472 245.656C252.305 249.379 252.507 253.11 253.076 256.793L259.743 299.959C262.596 310.923 272.494 318.574 283.823 318.574H289.76C297.906 318.574 305.327 313.894 308.837 306.543C309.51 305.133 310.025 303.653 310.372 302.13L319.676 261.293C321.188 254.655 321.485 247.799 320.553 241.056L316.48 211.602C315.928 205.992 309.748 194.441 289.45 193.115Z" stroke="black" stroke-width="1.2"/>
</g>
<path d="M288.52 237.206C290.393 243.829 285.967 250.984 278.474 253.102C270.98 255.22 263.464 251.44 261.592 244.817C259.72 238.194 264.145 231.039 271.639 228.921C279.132 226.803 286.648 230.583 288.52 237.206Z" fill="#978E7F" stroke="black" stroke-width="1.2"/>
<path d="M285.767 237.984C287.251 243.235 283.744 248.929 277.771 250.618C271.799 252.306 265.83 249.29 264.346 244.039C262.862 238.788 266.368 233.094 272.341 231.405C278.313 229.717 284.282 232.733 285.767 237.984Z" fill="#513F31" stroke="black" stroke-width="1.2"/>
<mask id="mask1_3058_16763" style="mask-type:alpha" maskUnits="userSpaceOnUse" x="263" y="230" width="24" height="22">
<path d="M285.767 237.986C287.251 243.237 283.744 248.931 277.772 250.62C271.799 252.308 265.83 249.292 264.346 244.041C262.862 238.79 266.368 233.095 272.341 231.407C278.313 229.719 284.282 232.735 285.767 237.986Z" fill="#513F31" stroke="black" stroke-width="1.2"/>
</mask>
<g mask="url(#mask1_3058_16763)">
<path d="M286.787 239.26C288.271 244.511 284.764 250.206 278.792 251.894C272.819 253.582 266.85 250.566 265.366 245.315C263.882 240.064 267.388 234.37 273.361 232.682C279.333 230.993 285.302 234.01 286.787 239.26Z" fill="#286FB4" stroke="black" stroke-width="1.2"/>
<ellipse cx="277.444" cy="244.511" rx="10.5422" ry="10.728" transform="rotate(-15.7836 277.444 244.511)" fill="#6CC8F2"/>
<mask id="mask2_3058_16763" style="mask-type:alpha" maskUnits="userSpaceOnUse" x="266" y="233" width="23" height="23">
<ellipse cx="277.444" cy="244.514" rx="10.5422" ry="10.728" transform="rotate(-15.7836 277.444 244.514)" fill="#6CC8F2"/>
</mask>
<g mask="url(#mask2_3058_16763)">
<path d="M276.828 232.741L266.883 248.806L267.903 251.866L278.995 232.741H276.828Z" fill="white" fill-opacity="0.6"/>
<path d="M281.035 233.124L269.688 251.866L270.58 252.759L282.183 233.761L281.035 233.124Z" fill="white" fill-opacity="0.6"/>
</g>
</g>
<path d="M299.305 307.326C299.305 307.612 299.073 308.043 298.247 308.552C297.455 309.042 296.268 309.504 294.749 309.901C291.72 310.692 287.502 311.188 282.82 311.188C278.138 311.188 273.92 310.692 270.891 309.901C269.372 309.504 268.185 309.042 267.393 308.552C266.568 308.043 266.335 307.612 266.335 307.326C266.335 307.04 266.568 306.609 267.393 306.099C268.185 305.61 269.372 305.148 270.891 304.751C273.92 303.96 278.138 303.463 282.82 303.463C287.502 303.463 291.72 303.96 294.749 304.751C296.268 305.148 297.455 305.61 298.247 306.099C299.073 306.609 299.305 307.04 299.305 307.326Z" fill="#DDDACB" stroke="black" stroke-width="1.2"/>
<g filter="url(#filter5_iii_3058_16763)">
<path d="M297.61 309.748C296.463 306.815 289.833 306.433 283.075 306.05C273.385 305.54 268.753 308.303 267.648 309.748L270.963 320.713C271.898 319.863 275.629 318.163 283.075 318.163C290.521 318.163 293.658 320.373 294.295 321.478L297.61 309.748Z" fill="#BFB3A2"/>
</g>
<path d="M297.61 309.748C296.463 306.815 289.833 306.433 283.075 306.05C273.385 305.54 268.753 308.303 267.648 309.748L270.963 320.713C271.898 319.863 275.629 318.163 283.075 318.163C290.521 318.163 293.658 320.373 294.295 321.478L297.61 309.748Z" stroke="black" stroke-width="1.2"/>
<path d="M311.507 236.944C313.139 236.536 314.567 237.114 315.077 237.454L313.802 262.954C313.335 263.124 312.221 263.235 311.507 262.317C310.615 261.169 308.702 256.069 308.065 253.137C307.427 250.204 307.172 246.762 307.555 243.574C307.937 240.387 309.467 237.454 311.507 236.944Z" fill="#786A61" stroke="black" stroke-width="1.2"/>
<path d="M316.352 240.004C316.225 238.602 315.587 237.709 314.95 237.454C314.312 237.284 312.604 237.301 310.87 238.729C308.702 240.514 308.192 245.232 309.085 250.459C309.977 255.687 313.42 263.082 313.802 262.954C314.108 262.852 314.567 254.2 314.695 249.95C314.95 246.762 316.454 241.126 316.352 240.004Z" fill="#555340" stroke="black" stroke-width="1.2"/>
<path d="M312.354 258.844L313.202 260.94L313.505 258.699L314.142 253.982L314.144 253.969L314.145 253.956L314.652 248.383C314.704 248.142 314.762 247.882 314.823 247.606C315.13 246.229 315.519 244.479 315.72 242.951C315.841 242.03 315.902 241.141 315.819 240.44C315.778 240.09 315.696 239.743 315.538 239.452C315.377 239.158 315.123 238.9 314.752 238.794C313.55 238.352 312.51 239.107 311.809 239.957C311.076 240.847 310.504 242.072 310.17 243.14C309.822 244.252 309.696 245.89 309.712 247.5C309.728 249.122 309.89 250.791 310.157 251.991C310.477 253.433 311.52 256.782 312.354 258.844Z" fill="#347AC1" stroke="black" stroke-width="1.2"/>
<mask id="mask3_3058_16763" style="mask-type:alpha" maskUnits="userSpaceOnUse" x="310" y="239" width="6" height="20">
<path d="M314.057 248.292C314.695 245.36 316.097 239.75 314.567 239.367C312.91 238.73 311.38 241.28 310.742 243.32C310.105 245.36 310.232 249.567 310.742 251.862C311.054 253.267 312.086 256.584 312.91 258.62L313.547 253.902L314.057 248.292Z" fill="#356CA4"/>
</mask>
<g mask="url(#mask3_3058_16763)">
<path d="M310.105 251.225C311.533 249.185 314.1 246.337 315.077 246.507L313.42 260.788C311.635 258.195 308.677 253.265 310.105 251.225Z" fill="#5D95C6"/>
<path d="M310.232 252.755C311.427 250.657 313.93 250.078 314.822 250.206L314.041 263.541C312.303 261.029 309.037 254.853 310.232 252.755Z" fill="white" fill-opacity="0.49"/>
</g>
<path d="M267.902 186.711C270.452 183.141 275.807 181.229 276.19 181.739C276.572 182.248 275.552 182.759 274.66 183.396C273.767 184.034 271.6 186.711 268.922 189.389C266.245 192.067 265.097 199.716 263.95 203.414C263.032 206.372 263.057 211.361 263.185 213.486L259.87 214.634C259.615 213.359 259.411 209.33 260.635 203.414C262.165 196.019 265.352 190.281 267.902 186.711Z" fill="white" fill-opacity="0.49"/>
<path d="M262.293 276.816C264.639 271.716 268.455 271.036 270.07 271.333L263.823 283.701L262.93 310.858L259.998 311.368C259.785 301.976 259.947 281.916 262.293 276.816Z" fill="#C8332C" stroke="black" stroke-width="1.2"/>
<path d="M276.19 300.659L273.512 272.099C273.172 271.589 271.727 270.773 268.667 271.589C264.842 272.609 263.44 279.112 262.802 281.917C262.292 284.161 262.59 302.232 262.802 310.987C265.352 298.619 268.667 298.619 270.707 298.492C272.339 298.39 275.042 299.894 276.19 300.659Z" fill="#A61E20" stroke="black" stroke-width="1.2"/>
<g filter="url(#filter6_i_3058_16763)">
<path d="M316.225 309.238C311.329 305.77 303.22 304.053 299.777 303.628C300.967 300.525 303.679 293.352 305.005 289.476C306.331 285.6 307.257 279.36 307.555 276.725C309.467 276.598 314.567 279.785 318.775 282.08C322.141 283.916 326.382 289.475 328.082 292.025L327.317 320.203C325.66 317.993 321.121 312.706 316.225 309.238Z" fill="#A61E22"/>
</g>
<path d="M316.225 309.238C311.329 305.77 303.22 304.053 299.777 303.628C300.967 300.525 303.679 293.352 305.005 289.476C306.331 285.6 307.257 279.36 307.555 276.725C309.467 276.598 314.567 279.785 318.775 282.08C322.141 283.916 326.382 289.475 328.082 292.025L327.317 320.203C325.66 317.993 321.121 312.706 316.225 309.238Z" stroke="black" stroke-width="1.2"/>
<path d="M254.488 265.746L254.403 265.917L254.432 266.106L256.226 277.679L256.227 277.68C256.24 277.888 256.273 278.087 256.322 278.277L257.496 278.035L257.421 277.555C257.405 277.185 257.484 276.741 257.734 276.218C258.005 275.65 258.651 275.033 259.753 274.42C260.843 273.813 262.312 273.247 264.126 272.744C267.752 271.74 272.679 271.011 278.518 270.693C290.144 270.062 299.626 272.716 303.795 274.106C307.016 275.18 309.292 277.493 310.001 278.477L310.816 279.61L311.077 278.239L313.117 267.529L313.141 267.403L313.111 267.279C312.469 264.566 309.968 262.804 307.358 261.612C305.087 260.575 302.576 259.9 300.759 259.411C300.466 259.332 300.19 259.258 299.937 259.189C296.177 258.151 285.919 256.744 278.475 256.872C271.004 257.001 264.939 258.546 260.792 260.231C258.709 261.077 257.389 261.911 256.453 262.829C255.516 263.749 255.002 264.72 254.488 265.746Z" fill="#C1B6A5" stroke="black" stroke-width="1.2"/>
<mask id="mask4_3058_16763" style="mask-type:alpha" maskUnits="userSpaceOnUse" x="255" y="257" width="58" height="22">
<path d="M255.025 266.015C256.045 263.975 256.937 262.445 261.017 260.788C265.097 259.13 271.09 257.6 278.485 257.473C285.88 257.345 296.08 258.748 299.778 259.768C303.475 260.788 311.38 262.573 312.528 267.418L310.487 278.128C309.722 277.065 307.351 274.66 303.985 273.538C299.778 272.135 290.215 269.458 278.485 270.095C266.755 270.733 258.595 273.028 257.192 275.96C256.898 276.576 256.796 277.128 256.824 277.617L256.903 278.128C256.861 277.966 256.834 277.796 256.824 277.617L255.025 266.015Z" fill="#958B7D"/>
</mask>
<g mask="url(#mask4_3058_16763)">
<path d="M259.87 260.807L276.73 253.394L296.08 255.752V272.264H276.73L259.87 275.961V260.807Z" fill="#968D7E"/>
<rect x="296.08" y="257.473" width="10.2" height="16.575" fill="#6C6256"/>
<rect x="306.28" y="257.473" width="10.455" height="25.245" fill="#594441"/>
</g>
<path d="M295.608 332.443C295.608 334.978 294.81 338.004 293.577 341.151C292.348 344.288 290.706 347.5 289.056 350.394C287.408 353.286 285.759 355.851 284.521 357.694C283.903 358.614 283.388 359.354 283.028 359.863C282.992 359.914 282.957 359.962 282.925 360.008C282.896 359.971 282.866 359.933 282.835 359.893C282.465 359.418 281.936 358.724 281.301 357.854C280.029 356.113 278.334 353.669 276.64 350.859C273.232 345.206 269.905 338.191 269.905 332.443C269.905 329.658 271.523 327.075 274.01 325.165C276.494 323.257 279.777 322.078 282.948 322.078C286.116 322.078 289.3 323.255 291.686 325.158C294.072 327.062 295.608 329.645 295.608 332.443Z" fill="#F15024" stroke="black" stroke-width="1.2"/>
<path d="M293.147 330.037C293.147 338.298 282.841 352.333 282.841 352.333C282.841 352.333 272.237 339.294 272.237 330.037C272.237 325.31 277.696 321.478 282.841 321.478C287.986 321.478 293.147 325.31 293.147 330.037Z" fill="#F57921"/>
<path d="M289.578 327.208C289.578 332.738 282.79 342.133 282.79 342.133C282.79 342.133 275.808 333.404 275.808 327.208C275.808 324.043 279.402 321.478 282.79 321.478C286.178 321.478 289.578 324.043 289.578 327.208Z" fill="#FAA21C"/>
<path d="M285.002 210.208L285.016 210.208C295.623 210.719 303.146 211.999 309.909 216.162C313.252 218.218 315.065 219.87 316.047 221.42C317.045 222.996 317.142 224.408 317.207 225.825C317.292 227.708 316.923 231.969 316.626 234.877L285.002 210.208ZM285.002 210.208H284.987C281.912 210.208 274.339 210.514 268.667 211.751C261.54 213.306 255.086 217.438 253.517 218.615C251.76 219.933 251.492 221.961 251.492 223.048C251.492 223.874 251.663 230.297 251.748 233.392L252.94 233.472C253.151 232.179 254.331 230.828 256.42 229.523C258.48 228.237 261.289 227.081 264.488 226.125C270.886 224.213 278.725 223.14 284.963 223.392C297.506 223.899 305.197 226.429 311.107 229.447C314.36 231.108 315.296 233.307 315.422 234.859C315.358 235.479 315.298 236.036 315.246 236.495L316.412 236.752C316.576 236.259 316.671 235.61 316.626 234.878L285.002 210.208Z" fill="#C1B6A5" stroke="black" stroke-width="1.2"/>
<mask id="mask5_3058_16763" style="mask-type:alpha" maskUnits="userSpaceOnUse" x="252" y="210" width="65" height="27">
<path d="M284.988 210.808C295.57 211.318 302.965 212.593 309.595 216.673C316.225 220.753 316.48 223.048 316.608 225.853C316.691 227.692 316.323 231.944 316.024 234.867C316.073 235.549 315.984 236.138 315.843 236.563C315.896 236.088 315.959 235.51 316.024 234.867C315.899 233.09 314.845 230.682 311.38 228.913C305.388 225.853 297.61 223.303 284.988 222.793C272.365 222.283 253.368 227.128 252.348 233.375C252.263 230.273 252.093 223.864 252.093 223.048C252.093 222.028 252.348 220.243 253.878 219.095C255.408 217.948 261.783 213.868 268.795 212.338C274.405 211.114 281.928 210.808 284.988 210.808Z" fill="#978D81"/>
</mask>
<g mask="url(#mask5_3058_16763)">
<path d="M257.32 214.632L276.318 206.217L298.12 208.894V227.637L276.318 224.959L257.32 230.187V214.632Z" fill="#968D7E"/>
<rect x="298.12" y="210.808" width="11.73" height="18.87" fill="#6C6256"/>
<rect x="309.85" y="210.808" width="11.73" height="28.56" fill="#594441"/>
</g>
</g>
<defs>
<filter id="filter0_d_3058_16763" x="232.4" y="175.4" width="96.2872" height="193.603" filterUnits="userSpaceOnUse" color-interpolation-filters="sRGB">
<feFlood flood-opacity="0" result="BackgroundImageFix"/>
<feColorMatrix in="SourceAlpha" type="matrix" values="0 0 0 0 0 0 0 0 0 0 0 0 0 0 0 0 0 0 127 0" result="hardAlpha"/>
<feOffset dx="-4" dy="4"/>
<feGaussianBlur stdDeviation="2"/>
<feComposite in2="hardAlpha" operator="out"/>
<feColorMatrix type="matrix" values="0 0 0 0 0 0 0 0 0 0 0 0 0 0 0 0 0 0 0.1 0"/>
<feBlend mode="normal" in2="BackgroundImageFix" result="effect1_dropShadow_3058_16763"/>
<feBlend mode="normal" in="SourceGraphic" in2="effect1_dropShadow_3058_16763" result="shape"/>
</filter>
<filter id="filter1_i_3058_16763" x="269.624" y="314.874" width="26.0226" height="10.7764" filterUnits="userSpaceOnUse" color-interpolation-filters="sRGB">
<feFlood flood-opacity="0" result="BackgroundImageFix"/>
<feBlend mode="normal" in="SourceGraphic" in2="BackgroundImageFix" result="shape"/>
<feColorMatrix in="SourceAlpha" type="matrix" values="0 0 0 0 0 0 0 0 0 0 0 0 0 0 0 0 0 0 127 0" result="hardAlpha"/>
<feOffset dx="2.04" dy="-3.315"/>
<feComposite in2="hardAlpha" operator="arithmetic" k2="-1" k3="1"/>
<feColorMatrix type="matrix" values="0 0 0 0 0 0 0 0 0 0 0 0 0 0 0 0 0 0 0.25 0"/>
<feBlend mode="normal" in2="shape" result="effect1_innerShadow_3058_16763"/>
</filter>
<filter id="filter2_i_3058_16763" x="253.359" y="175.4" width="61.7189" height="133.296" filterUnits="userSpaceOnUse" color-interpolation-filters="sRGB">
<feFlood flood-opacity="0" result="BackgroundImageFix"/>
<feBlend mode="normal" in="SourceGraphic" in2="BackgroundImageFix" result="shape"/>
<feColorMatrix in="SourceAlpha" type="matrix" values="0 0 0 0 0 0 0 0 0 0 0 0 0 0 0 0 0 0 127 0" result="hardAlpha"/>
<feOffset dx="-13.005" dy="-8.415"/>
<feComposite in2="hardAlpha" operator="arithmetic" k2="-1" k3="1"/>
<feColorMatrix type="matrix" values="0 0 0 0 0 0 0 0 0 0 0 0 0 0 0 0 0 0 0.25 0"/>
<feBlend mode="normal" in2="shape" result="effect1_innerShadow_3058_16763"/>
</filter>
<filter id="filter3_ii_3058_16763" x="240.4" y="277.93" width="26.002" height="44.5898" filterUnits="userSpaceOnUse" color-interpolation-filters="sRGB">
<feFlood flood-opacity="0" result="BackgroundImageFix"/>
<feBlend mode="normal" in="SourceGraphic" in2="BackgroundImageFix" result="shape"/>
<feColorMatrix in="SourceAlpha" type="matrix" values="0 0 0 0 0 0 0 0 0 0 0 0 0 0 0 0 0 0 127 0" result="hardAlpha"/>
<feOffset dx="2.295" dy="4.335"/>
<feComposite in2="hardAlpha" operator="arithmetic" k2="-1" k3="1"/>
<feColorMatrix type="matrix" values="0 0 0 0 0 0 0 0 0 0 0 0 0 0 0 0 0 0 0.1 0"/>
<feBlend mode="normal" in2="shape" result="effect1_innerShadow_3058_16763"/>
<feColorMatrix in="SourceAlpha" type="matrix" values="0 0 0 0 0 0 0 0 0 0 0 0 0 0 0 0 0 0 127 0" result="hardAlpha"/>
<feOffset dx="6.375" dy="10.2"/>
<feComposite in2="hardAlpha" operator="arithmetic" k2="-1" k3="1"/>
<feColorMatrix type="matrix" values="0 0 0 0 0 0 0 0 0 0 0 0 0 0 0 0 0 0 0.15 0"/>
<feBlend mode="normal" in2="effect1_innerShadow_3058_16763" result="effect2_innerShadow_3058_16763"/>
</filter>
<filter id="filter4_ii_3058_16763" x="251.815" y="192.356" width="69.8685" height="126.818" filterUnits="userSpaceOnUse" color-interpolation-filters="sRGB">
<feFlood flood-opacity="0" result="BackgroundImageFix"/>
<feBlend mode="normal" in="SourceGraphic" in2="BackgroundImageFix" result="shape"/>
<feColorMatrix in="SourceAlpha" type="matrix" values="0 0 0 0 0 0 0 0 0 0 0 0 0 0 0 0 0 0 127 0" result="hardAlpha"/>
<feOffset dx="-10.2" dy="-7.14"/>
<feComposite in2="hardAlpha" operator="arithmetic" k2="-1" k3="1"/>
<feColorMatrix type="matrix" values="0 0 0 0 0.34902 0 0 0 0 0.266667 0 0 0 0 0.254902 0 0 0 0.47 0"/>
<feBlend mode="normal" in2="shape" result="effect1_innerShadow_3058_16763"/>
<feColorMatrix in="SourceAlpha" type="matrix" values="0 0 0 0 0 0 0 0 0 0 0 0 0 0 0 0 0 0 127 0" result="hardAlpha"/>
<feOffset dx="-20.91" dy="-9.18"/>
<feComposite in2="hardAlpha" operator="arithmetic" k2="-1" k3="1"/>
<feColorMatrix type="matrix" values="0 0 0 0 0.34902 0 0 0 0 0.266667 0 0 0 0 0.254902 0 0 0 0.29 0"/>
<feBlend mode="normal" in2="effect1_innerShadow_3058_16763" result="effect2_innerShadow_3058_16763"/>
</filter>
<filter id="filter5_iii_3058_16763" x="266.984" y="305.389" width="31.258" height="17.6201" filterUnits="userSpaceOnUse" color-interpolation-filters="sRGB">
<feFlood flood-opacity="0" result="BackgroundImageFix"/>
<feBlend mode="normal" in="SourceGraphic" in2="BackgroundImageFix" result="shape"/>
<feColorMatrix in="SourceAlpha" type="matrix" values="0 0 0 0 0 0 0 0 0 0 0 0 0 0 0 0 0 0 127 0" result="hardAlpha"/>
<feOffset dy="3.06"/>
<feComposite in2="hardAlpha" operator="arithmetic" k2="-1" k3="1"/>
<feColorMatrix type="matrix" values="0 0 0 0 0 0 0 0 0 0 0 0 0 0 0 0 0 0 0.15 0"/>
<feBlend mode="normal" in2="shape" result="effect1_innerShadow_3058_16763"/>
<feColorMatrix in="SourceAlpha" type="matrix" values="0 0 0 0 0 0 0 0 0 0 0 0 0 0 0 0 0 0 127 0" result="hardAlpha"/>
<feOffset dy="7.14"/>
<feComposite in2="hardAlpha" operator="arithmetic" k2="-1" k3="1"/>
<feColorMatrix type="matrix" values="0 0 0 0 0 0 0 0 0 0 0 0 0 0 0 0 0 0 0.15 0"/>
<feBlend mode="normal" in2="effect1_innerShadow_3058_16763" result="effect2_innerShadow_3058_16763"/>
<feColorMatrix in="SourceAlpha" type="matrix" values="0 0 0 0 0 0 0 0 0 0 0 0 0 0 0 0 0 0 127 0" result="hardAlpha"/>
<feOffset dy="10.2"/>
<feComposite in2="hardAlpha" operator="arithmetic" k2="-1" k3="1"/>
<feColorMatrix type="matrix" values="0 0 0 0 0 0 0 0 0 0 0 0 0 0 0 0 0 0 0.15 0"/>
<feBlend mode="normal" in2="effect2_innerShadow_3058_16763" result="effect3_innerShadow_3058_16763"/>
</filter>
<filter id="filter6_i_3058_16763" x="298.942" y="276.122" width="29.7449" height="45.8184" filterUnits="userSpaceOnUse" color-interpolation-filters="sRGB">
<feFlood flood-opacity="0" result="BackgroundImageFix"/>
<feBlend mode="normal" in="SourceGraphic" in2="BackgroundImageFix" result="shape"/>
<feColorMatrix in="SourceAlpha" type="matrix" values="0 0 0 0 0 0 0 0 0 0 0 0 0 0 0 0 0 0 127 0" result="hardAlpha"/>
<feOffset dx="-3.825" dy="6.885"/>
<feComposite in2="hardAlpha" operator="arithmetic" k2="-1" k3="1"/>
<feColorMatrix type="matrix" values="0 0 0 0 0 0 0 0 0 0 0 0 0 0 0 0 0 0 0.09 0"/>
<feBlend mode="normal" in2="shape" result="effect1_innerShadow_3058_16763"/>
</filter>
</defs>
</svg>
