<svg width="163" height="217" viewBox="0 0 163 217" fill="none" xmlns="http://www.w3.org/2000/svg">
<g filter="url(#filter0_i_3053_14172)">
<path fill-rule="evenodd" clip-rule="evenodd" d="M45.3918 12.6803C35.5653 12.6803 10.6212 15.7033 4.5742 25.53C-1.47284 35.3567 -0.716934 46.6949 13.6448 49.7185C20.8342 51.232 24.4247 50.4725 29.347 49.4313C34.2575 48.3925 40.4935 47.0733 52.9506 47.4508C65.2846 47.8246 71.8895 50.9705 77.7913 53.7816C83.8252 56.6556 89.1241 59.1795 99.0593 58.0331C118.712 55.7655 134.586 48.2067 140.633 38.3803C142.968 34.5846 146.996 32.7062 150.929 30.8718C157.178 27.9573 163.189 25.1539 161.797 14.948C159.53 -1.68142 136.097 -2.4373 109.642 7.38915C83.1858 17.2156 69.5799 16.4593 45.3918 12.6803ZM74.1242 87.7521H74.1243L74.1248 87.7521C77.626 88.1383 81.6458 88.5816 86.9654 89.0249C98.1283 90.1542 103.853 87.604 109.423 85.1228C112.906 83.5716 116.328 82.0473 120.98 81.4658C133.074 79.954 141.389 82.9775 145.924 89.7805C150.459 96.5834 143.656 111.701 127.783 115.48C120.903 117.119 115.443 115.491 109.556 113.736C101.862 111.442 93.4384 108.93 80.1624 113.213C75.842 114.606 71.7785 116.052 67.9436 117.415L67.9435 117.415L67.9434 117.415C50.9794 123.448 38.4871 127.891 28.0065 119.26C15.1565 108.677 28.0065 87.5131 46.9035 86.7572C60.2589 86.223 65.6857 86.8215 74.1242 87.7521ZM54.1331 165.14C49.7531 165.414 45.7762 165.663 43.8801 162.345C40.8565 157.054 42.3681 144.96 57.4859 147.227C64.7133 148.311 66.7579 149.914 68.4099 151.209C70.2135 152.622 71.5493 153.669 78.6506 153.275C84.428 152.954 87.8885 151.27 91.0576 149.728C95.3517 147.638 99.1107 145.809 107.374 147.984C121.736 151.763 123.248 167.636 110.398 173.683C99.82 178.661 91.2912 176.468 84.3895 174.694L84.3891 174.694L84.3889 174.694C82.9064 174.313 81.4989 173.951 80.1624 173.683C76.2327 172.898 73.3244 171.09 70.4818 169.323C67.8567 167.691 65.2874 166.094 62.0212 165.368C59.4845 164.805 56.7375 164.977 54.1331 165.14ZM75.708 212.658C73.1746 214.753 70.4574 217 63.533 216.011C52.9507 214.499 52.1948 203.161 62.0212 198.626C71.8477 194.09 86.2094 192.579 92.2565 198.626C98.3035 204.673 94.5241 208.452 92.2565 209.964C91.1944 210.672 89.6348 210.385 87.733 210.035C85.5745 209.638 82.9752 209.16 80.1624 209.964C78.3334 210.487 77.0464 211.551 75.708 212.658ZM116.445 25.5305C115.689 20.9953 105.107 16.46 86.9657 23.2629C70.9203 29.2798 64.3361 28.7926 54.661 28.0767L54.6606 28.0767L54.6603 28.0767C53.3967 27.9832 52.0803 27.8858 50.6832 27.7985C38.5891 27.0426 20.448 30.0661 24.9832 36.1132C27.3234 39.2334 32.6825 38.1273 39.3989 36.741C45.6987 35.4407 53.1927 33.8939 60.5096 35.3573C64.5756 36.1705 67.6573 37.093 70.4166 37.919C77.9167 40.1642 83.0346 41.6963 99.0595 38.3808C118.23 34.4146 117.166 29.292 116.598 26.5522C116.516 26.1591 116.445 25.8151 116.445 25.5305ZM51.439 102.631C57.486 95.9795 79.6585 97.844 89.9889 99.6077C82.1691 99.6077 78.6639 102.125 74.7617 104.927C73.0059 106.187 71.1699 107.506 68.8243 108.678C61.2655 112.458 43.8803 110.946 51.439 102.631ZM99.0598 161.589C99.0598 158.565 93.7688 157.053 86.9657 159.321C81.5233 161.135 75.1235 160.581 72.604 160.078C74.6197 162.597 80.7675 167.485 89.2334 166.881C97.6992 166.276 99.3118 163.101 99.0598 161.589ZM85.4538 203.162C85.4538 201.65 82.4303 198.627 73.3597 201.65C64.2892 204.674 63.5333 206.185 65.8009 207.697C67.0558 208.533 68.7738 207.75 70.9547 206.755C72.7146 205.952 74.7761 205.011 77.1391 204.673C79.1864 204.381 80.7811 204.428 82.0107 204.464C83.9588 204.522 84.9904 204.552 85.4538 203.162Z" fill="#F4F8FB"/>
</g>
<path d="M4.5742 25.53L5.21295 25.9231L4.5742 25.53ZM45.3918 12.6803V11.9303H45.45L45.5075 11.9393L45.3918 12.6803ZM13.6448 49.7185L13.7993 48.9845L13.6448 49.7185ZM29.347 49.4313L29.1918 48.6975L29.347 49.4313ZM52.9506 47.4508L52.9733 46.7012L52.9506 47.4508ZM77.7913 53.7816L77.4688 54.4587L77.7913 53.7816ZM99.0593 58.0331L98.9733 57.2881L99.0593 58.0331ZM140.633 38.3803L141.271 38.7733L140.633 38.3803ZM150.929 30.8718L151.246 31.5516L150.929 30.8718ZM161.797 14.948L162.54 14.8466L161.797 14.948ZM109.642 7.38915L109.903 8.09221L109.642 7.38915ZM74.1243 87.7521V87.0021H74.1583L74.1922 87.0052L74.1243 87.7521ZM74.1242 87.7521V88.5021H74.083L74.042 88.4976L74.1242 87.7521ZM74.1248 87.7521L74.1927 87.0052L74.1999 87.0059L74.207 87.0067L74.1248 87.7521ZM86.9654 89.0249L87.0277 88.2773L87.0409 88.2787L86.9654 89.0249ZM109.423 85.1228L109.118 84.4377L109.423 85.1228ZM120.98 81.4658L121.073 82.21L120.98 81.4658ZM127.783 115.48L127.956 116.21L127.783 115.48ZM109.556 113.736L109.342 114.454L109.556 113.736ZM80.1624 113.213L80.3926 113.927L80.1624 113.213ZM67.9436 117.415L68.1949 118.122L68.1878 118.125L68.1807 118.127L67.9436 117.415ZM67.9434 117.415L67.6921 116.709L67.6992 116.706L67.7063 116.704L67.9434 117.415ZM28.0065 119.26L28.4832 118.681L28.0065 119.26ZM46.9035 86.7572L46.9335 87.5066L46.9035 86.7572ZM43.8801 162.345L44.5313 161.973L43.8801 162.345ZM54.1331 165.14L54.18 165.888H54.18L54.1331 165.14ZM57.4859 147.227L57.3747 147.969L57.4859 147.227ZM68.4099 151.209L68.8726 150.618H68.8726L68.4099 151.209ZM78.6506 153.275L78.609 152.526L78.6506 153.275ZM91.0576 149.728L90.7294 149.053H90.7294L91.0576 149.728ZM107.374 147.984L107.183 148.709H107.183L107.374 147.984ZM110.398 173.683L110.078 173.005L110.398 173.683ZM84.3895 174.694L84.5612 173.964L84.5688 173.966L84.5762 173.968L84.3895 174.694ZM84.3891 174.694L84.2173 175.424L84.2072 175.421L84.3891 174.694ZM84.3889 174.694L84.207 175.421L84.2021 175.42L84.3889 174.694ZM80.1624 173.683L80.0153 174.419V174.419L80.1624 173.683ZM70.4818 169.323L70.0858 169.96L70.4818 169.323ZM62.0212 165.368L61.8586 166.1H61.8586L62.0212 165.368ZM63.533 216.011L63.4269 216.753L63.533 216.011ZM75.708 212.658L76.186 213.236H76.186L75.708 212.658ZM62.0212 198.626L62.3355 199.307L62.0212 198.626ZM92.2565 198.626L92.7868 198.095L92.2565 198.626ZM92.2565 209.964L92.6726 210.588H92.6726L92.2565 209.964ZM87.733 210.035L87.8688 209.298L87.8688 209.298L87.733 210.035ZM80.1624 209.964L80.3685 210.685L80.3684 210.685L80.1624 209.964ZM86.9657 23.2629L86.7024 22.5607L86.9657 23.2629ZM116.445 25.5305L117.185 25.4072L117.195 25.4685V25.5305H116.445ZM54.661 28.0767L54.6057 28.8247L54.602 28.8244L54.661 28.0767ZM54.6606 28.0767L54.7074 27.3281L54.7196 27.329L54.6606 28.0767ZM54.6603 28.0767L54.6135 28.8253L54.605 28.8246L54.6603 28.0767ZM50.6832 27.7985L50.73 27.0499L50.6832 27.7985ZM24.9832 36.1132L24.3832 36.5632L24.9832 36.1132ZM39.3989 36.741L39.2473 36.0065L39.3989 36.741ZM60.5096 35.3573L60.6567 34.6218L60.5096 35.3573ZM70.4166 37.919L70.6317 37.2005L70.4166 37.919ZM99.0595 38.3808L99.2115 39.1152L99.0595 38.3808ZM116.598 26.5522L115.863 26.7046L116.598 26.5522ZM89.9889 99.6077L90.1152 98.8684L89.9889 100.358V99.6077ZM51.439 102.631L51.994 103.136L51.439 102.631ZM74.7617 104.927L75.1991 105.536V105.536L74.7617 104.927ZM86.9657 159.321L86.7285 158.61L86.9657 159.321ZM99.0598 161.589L98.32 161.712L98.3098 161.651V161.589H99.0598ZM72.604 160.078L72.0183 160.546L70.7323 158.939L72.751 159.342L72.604 160.078ZM89.2334 166.881L89.2868 167.629L89.2334 166.881ZM73.3597 201.65L73.1226 200.939H73.1226L73.3597 201.65ZM85.4538 203.162H86.2038V203.284L86.1653 203.399L85.4538 203.162ZM65.8009 207.697L65.3849 208.321H65.3849L65.8009 207.697ZM70.9547 206.755L70.6433 206.072H70.6433L70.9547 206.755ZM77.1391 204.673L77.2452 205.416H77.2452L77.1391 204.673ZM82.0107 204.464L82.0328 203.715L82.0107 204.464ZM3.93546 25.1369C5.55261 22.509 8.3878 20.3987 11.7867 18.7053C15.1971 17.0062 19.2477 15.6908 23.3897 14.6911C31.6718 12.6921 40.4237 11.9303 45.3918 11.9303V13.4303C40.5333 13.4303 31.9 14.18 23.7417 16.1492C19.6635 17.1335 15.7301 18.4164 12.4557 20.0479C9.16977 21.685 6.61932 23.6376 5.21295 25.9231L3.93546 25.1369ZM13.4902 50.4524C6.11458 48.8996 2.05585 45.1567 0.733353 40.3754C-0.571182 35.659 0.851471 30.1485 3.93546 25.1369L5.21295 25.9231C2.24989 30.7382 1.02698 35.8102 2.17906 39.9755C3.31319 44.0758 6.81325 47.5138 13.7993 48.9845L13.4902 50.4524ZM29.5022 50.165C24.5383 51.2151 20.8287 51.9973 13.4902 50.4524L13.7993 48.9845C20.8398 50.4668 24.311 49.73 29.1918 48.6975L29.5022 50.165ZM52.9278 48.2005C40.5499 47.8254 34.3768 49.1339 29.5022 50.165L29.1918 48.6975C34.1382 47.6511 40.4372 46.3213 52.9733 46.7012L52.9278 48.2005ZM77.4688 54.4587C71.6031 51.6648 65.109 48.5696 52.9278 48.2005L52.9733 46.7012C65.4603 47.0796 72.1759 50.2762 78.1138 53.1045L77.4688 54.4587ZM99.1452 58.7782C88.9956 59.9493 83.5383 57.3497 77.4688 54.4587L78.1138 53.1045C84.112 55.9615 89.2527 58.4097 98.9733 57.2881L99.1452 58.7782ZM141.271 38.7733C138.145 43.8537 132.526 48.2816 125.269 51.7191C118.003 55.1612 109.039 57.6366 99.1452 58.7782L98.9733 57.2881C108.732 56.1621 117.532 53.7242 124.627 50.3634C131.732 46.9979 137.073 42.7333 139.994 37.9872L141.271 38.7733ZM151.246 31.5516C147.272 33.4048 143.47 35.2012 141.271 38.7733L139.994 37.9872C142.467 33.968 146.72 32.0076 150.612 30.1921L151.246 31.5516ZM162.54 14.8466C163.26 20.125 162.07 23.6115 159.786 26.1463C157.555 28.6215 154.337 30.1099 151.246 31.5516L150.612 30.1921C153.77 28.7192 156.683 27.3487 158.671 25.142C160.607 22.9951 161.726 19.9769 161.054 15.0493L162.54 14.8466ZM109.38 6.68608C122.663 1.75271 135.26 -0.555175 144.872 0.502112C149.682 1.03122 153.797 2.40905 156.869 4.77533C159.96 7.15562 161.948 10.5006 162.54 14.8466L161.054 15.0493C160.513 11.0806 158.722 8.0951 155.954 5.96373C153.168 3.81834 149.346 2.50334 144.708 1.99312C135.423 0.971734 123.076 3.19914 109.903 8.09221L109.38 6.68608ZM45.5075 11.9393C57.5954 13.8278 66.9763 14.9499 76.6227 14.388C86.2597 13.8267 96.2001 11.5817 109.38 6.68608L109.903 8.09221C96.6273 13.0231 86.5368 15.3131 76.7099 15.8855C66.8924 16.4573 57.3762 15.3118 45.276 13.4213L45.5075 11.9393ZM74.1243 88.5021H74.1242V87.0021H74.1243V88.5021ZM74.0569 88.4991L74.0564 88.499L74.1922 87.0052L74.1927 87.0052L74.0569 88.4991ZM86.9032 89.7723C81.5728 89.3281 77.5446 88.8838 74.0426 88.4976L74.207 87.0067C77.7074 87.3927 81.7187 87.835 87.0277 88.2775L86.9032 89.7723ZM109.729 85.8079C106.947 87.0471 104.062 88.334 100.459 89.1589C96.849 89.9854 92.5445 90.3431 86.89 89.7711L87.0409 88.2787C92.5493 88.8359 96.6886 88.4832 100.124 87.6967C103.567 86.9084 106.33 85.6797 109.118 84.4377L109.729 85.8079ZM121.073 82.21C116.543 82.7763 113.212 84.2563 109.729 85.8079L109.118 84.4377C112.6 82.8869 116.112 81.3184 120.887 80.7216L121.073 82.21ZM145.3 90.1965C140.982 83.7202 133.012 80.7176 121.073 82.21L120.887 80.7216C133.136 79.1904 141.795 82.2349 146.548 89.3644L145.3 90.1965ZM127.609 114.751C135.346 112.909 140.85 108.31 143.867 103.373C146.914 98.386 147.333 93.2469 145.3 90.1965L146.548 89.3644C149.05 93.117 148.335 98.9381 145.147 104.155C141.927 109.423 136.093 114.273 127.956 116.21L127.609 114.751ZM109.771 113.017C115.667 114.775 120.947 116.337 127.609 114.751L127.956 116.21C120.859 117.9 115.218 116.206 109.342 114.454L109.771 113.017ZM79.9321 112.499C93.4298 108.145 102.035 110.711 109.771 113.017L109.342 114.454C101.688 112.172 93.447 109.715 80.3926 113.927L79.9321 112.499ZM67.6923 116.709C71.526 115.345 75.5996 113.897 79.9321 112.499L80.3926 113.927C76.0844 115.316 72.031 116.758 68.1949 118.122L67.6923 116.709ZM67.7063 116.704L67.7064 116.704L68.1807 118.127L68.1807 118.127L67.7063 116.704ZM67.7063 116.704L67.7063 116.704L68.1807 118.127L68.1806 118.127L67.7063 116.704ZM28.4832 118.681C33.5276 122.835 39.0497 123.86 45.4544 123.092C51.9071 122.318 59.184 119.735 67.6921 116.709L68.1947 118.122C59.7388 121.129 52.2876 123.783 45.633 124.581C38.9303 125.385 32.966 124.316 27.5297 119.839L28.4832 118.681ZM46.9335 87.5066C37.7548 87.8738 30.0423 93.2023 26.1954 99.7055C24.2743 102.953 23.3371 106.459 23.6278 109.757C23.9171 113.04 25.4251 116.162 28.4832 118.681L27.5297 119.839C24.1629 117.066 22.4584 113.575 22.1335 109.889C21.8101 106.219 22.857 102.403 24.9043 98.9417C28.9941 92.0282 37.1552 86.3966 46.8735 86.0078L46.9335 87.5066ZM74.042 88.4976C65.6256 87.5694 60.2389 86.9744 46.9335 87.5066L46.8735 86.0078C60.279 85.4716 65.7457 86.0735 74.2064 87.0066L74.042 88.4976ZM44.5313 161.973C45.3387 163.386 46.5787 164.06 48.2072 164.351C49.879 164.65 51.8698 164.53 54.0862 164.391L54.18 165.888C52.0164 166.024 49.8288 166.165 47.943 165.828C46.014 165.482 44.3176 164.622 43.2289 162.717L44.5313 161.973ZM57.3747 147.969C50.0324 146.868 46.2324 149.261 44.5356 152.316C42.7841 155.468 43.1383 159.535 44.5313 161.973L43.2289 162.717C41.5983 159.863 41.1966 155.237 43.2244 151.587C45.3069 147.839 49.8217 145.319 57.5972 146.485L57.3747 147.969ZM67.9472 151.799C67.1344 151.162 66.2718 150.486 64.7421 149.828C63.1987 149.163 60.9481 148.505 57.3747 147.969L57.5972 146.485C61.2512 147.034 63.6365 147.719 65.3353 148.45C67.0477 149.187 68.0334 149.961 68.8726 150.618L67.9472 151.799ZM78.6922 154.024C75.117 154.222 72.9124 154.064 71.3488 153.644C69.746 153.213 68.8604 152.515 67.9472 151.799L68.8726 150.618C69.763 151.316 70.4471 151.848 71.7384 152.195C73.0689 152.553 75.0829 152.722 78.609 152.526L78.6922 154.024ZM91.3858 150.402C88.1954 151.955 84.6241 153.694 78.6922 154.024L78.609 152.526C84.232 152.213 87.5817 150.585 90.7294 149.053L91.3858 150.402ZM107.183 148.709C103.132 147.643 100.239 147.571 97.8588 147.995C95.4664 148.421 93.5416 149.353 91.3858 150.402L90.7294 149.053C92.8677 148.013 94.9694 146.986 97.5959 146.518C100.235 146.048 103.353 146.15 107.565 147.258L107.183 148.709ZM110.078 173.005C116.247 170.102 118.873 164.907 118.345 160.064C117.816 155.22 114.108 150.531 107.183 148.709L107.565 147.258C115.002 149.215 119.23 154.353 119.836 159.902C120.441 165.453 117.398 171.218 110.717 174.362L110.078 173.005ZM84.5762 173.968C91.464 175.738 99.7598 177.861 110.078 173.005L110.717 174.362C99.8803 179.462 91.1183 177.198 84.2027 175.42L84.5762 173.968ZM84.5609 173.964L84.5612 173.964L84.2177 175.424L84.2173 175.424L84.5609 173.964ZM84.5708 173.966L84.571 173.966L84.2072 175.421L84.207 175.421L84.5708 173.966ZM80.3095 172.948C81.6697 173.22 83.0976 173.587 84.5757 173.967L84.2021 175.42C82.7151 175.038 81.3282 174.681 80.0153 174.419L80.3095 172.948ZM70.8777 168.686C73.7268 170.457 76.5294 172.192 80.3095 172.948L80.0153 174.419C75.936 173.603 72.9221 171.723 70.0858 169.96L70.8777 168.686ZM62.1839 164.636C65.5926 165.393 68.2644 167.061 70.8777 168.686L70.0858 169.96C67.4489 168.321 64.9822 166.794 61.8586 166.1L62.1839 164.636ZM54.0862 164.391C56.6689 164.229 59.5252 164.045 62.1839 164.636L61.8586 166.1C59.4438 165.564 56.8062 165.724 54.18 165.888L54.0862 164.391ZM63.6391 215.269C67.0053 215.749 69.2842 215.436 71.0031 214.789C72.7331 214.139 73.9583 213.132 75.23 212.08L76.186 213.236C74.9243 214.279 73.5242 215.444 71.5311 216.193C69.527 216.947 66.9851 217.262 63.4269 216.753L63.6391 215.269ZM62.3355 199.307C57.6423 201.473 55.618 205.182 55.8715 208.393C56.1222 211.568 58.6259 214.552 63.6391 215.269L63.4269 216.753C57.8578 215.958 54.6924 212.517 54.3762 208.511C54.0628 204.542 56.5738 200.314 61.707 197.945L62.3355 199.307ZM91.7262 199.156C88.9239 196.354 84.0844 195.22 78.5816 195.407C73.1118 195.592 67.1626 197.079 62.3355 199.307L61.707 197.945C66.7063 195.637 72.8512 194.1 78.5307 193.908C84.1771 193.716 89.5421 194.851 92.7868 198.095L91.7262 199.156ZM91.8403 209.34C92.9252 208.616 94.2432 207.428 94.6469 205.813C95.0327 204.27 94.6409 202.071 91.7262 199.156L92.7868 198.095C95.9191 201.228 96.6611 203.941 96.1021 206.177C95.5609 208.342 93.8554 209.799 92.6726 210.588L91.8403 209.34ZM87.8688 209.298C88.8358 209.476 89.6422 209.622 90.3362 209.647C91.0241 209.671 91.4963 209.569 91.8403 209.34L92.6726 210.588C91.9546 211.067 91.1158 211.176 90.2831 211.146C89.4563 211.117 88.532 210.945 87.5973 210.773L87.8688 209.298ZM79.9563 209.243C82.959 208.385 85.7221 208.903 87.8688 209.298L87.5973 210.773C85.4269 210.374 82.9914 209.935 80.3685 210.685L79.9563 209.243ZM75.23 212.08C76.5566 210.983 77.9558 209.814 79.9563 209.243L80.3684 210.685C78.711 211.159 77.5361 212.119 76.186 213.236L75.23 212.08ZM86.7024 22.5607C95.8626 19.1256 103.18 18.5275 108.35 19.4055C110.934 19.8442 113.005 20.6559 114.498 21.6896C115.984 22.7186 116.952 24.0095 117.185 25.4072L115.705 25.6538C115.56 24.784 114.921 23.8072 113.644 22.9229C112.374 22.0433 110.523 21.296 108.099 20.8843C103.254 20.0616 96.2103 20.5972 87.229 23.9652L86.7024 22.5607ZM54.7164 27.3288C59.5593 27.6871 63.5587 27.9813 68.3416 27.4492C73.1222 26.9174 78.7169 25.5552 86.7024 22.5607L87.229 23.9652C79.1691 26.9876 73.449 28.3902 68.5074 28.94C63.568 29.4896 59.4378 29.1822 54.6057 28.8247L54.7164 27.3288ZM54.7196 27.329L54.7201 27.3291L54.602 28.8244L54.6016 28.8244L54.7196 27.329ZM54.7071 27.3282L54.7074 27.3282L54.6138 28.8253L54.6135 28.8252L54.7071 27.3282ZM50.73 27.0499C52.132 27.1376 53.4525 27.2353 54.7157 27.3287L54.605 28.8246C53.3408 28.7311 52.0286 28.634 50.6364 28.547L50.73 27.0499ZM24.3832 36.5632C23.7351 35.699 23.428 34.7986 23.5456 33.8922C23.6619 32.996 24.1758 32.233 24.8842 31.5981C26.2773 30.3496 28.6474 29.3929 31.4094 28.6786C36.9791 27.2382 44.6188 26.668 50.73 27.0499L50.6364 28.547C44.6535 28.1731 37.1755 28.7367 31.785 30.1308C29.0669 30.8338 26.9962 31.7196 25.8854 32.7151C25.3418 33.2022 25.0881 33.6617 25.0331 34.0852C24.9795 34.4987 25.0975 35.0156 25.5832 35.6632L24.3832 36.5632ZM39.5505 37.4755C36.2158 38.1638 33.1223 38.805 30.5681 38.8668C28.0161 38.9286 25.7745 38.4182 24.3832 36.5632L25.5832 35.6632C26.5321 36.9284 28.1402 37.4251 30.5319 37.3673C32.9213 37.3095 35.8655 36.7045 39.2473 36.0065L39.5505 37.4755ZM60.3625 36.0927C53.219 34.664 45.8747 36.1702 39.5505 37.4755L39.2473 36.0065C45.5227 34.7112 53.1664 33.1238 60.6567 34.6218L60.3625 36.0927ZM70.2015 38.6375C67.4441 37.8121 64.3913 36.8985 60.3625 36.0927L60.6567 34.6218C64.7598 35.4425 67.8705 36.3739 70.6317 37.2005L70.2015 38.6375ZM99.2115 39.1152C91.1651 40.78 85.8081 41.2385 81.497 40.9839C77.1798 40.7289 73.9492 39.7594 70.2015 38.6375L70.6317 37.2005C74.3841 38.3238 77.4625 39.243 81.5855 39.4865C85.7146 39.7303 90.929 39.2971 98.9076 37.6464L99.2115 39.1152ZM117.332 26.3998C117.473 27.0772 117.675 28.0265 117.537 29.0947C117.395 30.189 116.907 31.3582 115.768 32.5293C113.541 34.8215 108.816 37.1281 99.2115 39.1152L98.9076 37.6464C108.473 35.6673 112.802 33.4295 114.693 31.4839C115.614 30.5361 115.951 29.663 116.049 28.9024C116.151 28.1155 116.007 27.3971 115.863 26.7046L117.332 26.3998ZM117.195 25.5305C117.195 25.721 117.245 25.9798 117.332 26.3998L115.863 26.7046C115.787 26.3385 115.695 25.9092 115.695 25.5305H117.195ZM89.8627 100.347C84.7305 99.4708 76.6533 98.5698 69.122 98.7136C65.3554 98.7854 61.7526 99.1183 58.7339 99.8344C55.6948 100.555 53.3535 101.64 51.994 103.136L50.8841 102.127C52.548 100.296 55.2459 99.1201 58.3877 98.3748C61.5499 97.6248 65.2697 97.2868 69.0934 97.2138C76.7427 97.0678 84.917 97.9809 90.1152 98.8684L89.8627 100.347ZM74.3242 104.317C76.2681 102.922 78.1852 101.542 80.6168 100.524C83.0613 99.502 85.9927 98.8577 89.9889 98.8577V100.358C86.1653 100.358 83.4342 100.972 81.1956 101.908C78.944 102.85 77.1574 104.13 75.1991 105.536L74.3242 104.317ZM68.4889 108.007C70.7745 106.865 72.5663 105.58 74.3242 104.317L75.1991 105.536C73.4455 106.795 71.5652 108.146 69.1597 109.349L68.4889 108.007ZM51.994 103.136C50.1776 105.134 50.1115 106.433 50.5616 107.255C51.0795 108.202 52.4862 108.993 54.6219 109.457C56.7023 109.909 59.2666 110.005 61.7807 109.751C64.2985 109.497 66.7061 108.899 68.4889 108.007L69.1597 109.349C67.163 110.347 64.563 110.978 61.9313 111.243C59.296 111.509 56.5691 111.416 54.3033 110.923C52.0926 110.442 50.0979 109.533 49.2457 107.975C48.3259 106.294 48.9211 104.286 50.8841 102.127L51.994 103.136ZM86.7285 158.61C90.2209 157.445 93.3849 157.23 95.7232 157.738C98.0072 158.234 99.8098 159.53 99.8098 161.589H98.3098C98.3098 160.624 97.4669 159.652 95.4046 159.204C93.3966 158.767 90.5136 158.929 87.2029 160.033L86.7285 158.61ZM72.751 159.342C75.201 159.832 81.4563 160.367 86.7285 158.61L87.2029 160.033C81.5902 161.903 75.046 161.331 72.4569 160.813L72.751 159.342ZM89.2868 167.629C80.5094 168.256 74.1419 163.201 72.0183 160.546L73.1896 159.609C75.0974 161.994 81.0256 166.715 89.1799 166.132L89.2868 167.629ZM99.7996 161.465C99.9831 162.566 99.458 163.996 97.862 165.178C96.273 166.354 93.5939 167.321 89.2868 167.629L89.1799 166.132C93.3387 165.835 95.6987 164.913 96.9696 163.972C98.2333 163.037 98.3885 162.123 98.32 161.712L99.7996 161.465ZM73.1226 200.939C77.7385 199.4 80.9311 199.359 83.0237 199.987C85.078 200.603 86.2038 201.939 86.2038 203.162H84.7038C84.7038 202.873 84.3179 201.941 82.5927 201.424C80.9059 200.918 78.0515 200.877 73.5969 202.362L73.1226 200.939ZM65.3849 208.321C64.7994 207.931 64.207 207.42 64.0247 206.731C63.8144 205.937 64.2114 205.242 64.824 204.685C65.4332 204.132 66.3949 203.573 67.7251 202.974C69.0687 202.369 70.8432 201.699 73.1226 200.939L73.5969 202.362C71.3409 203.114 69.6195 203.766 68.3411 204.342C67.0494 204.924 66.2631 205.404 65.833 205.795C65.4063 206.183 65.4725 206.339 65.4748 206.348C65.5051 206.462 65.6686 206.707 66.2169 207.073L65.3849 208.321ZM71.266 207.437C70.1965 207.925 69.153 208.404 68.2133 208.64C67.2593 208.88 66.2648 208.908 65.3849 208.321L66.2169 207.073C66.5919 207.323 67.0838 207.377 67.8478 207.185C68.626 206.99 69.5319 206.579 70.6433 206.072L71.266 207.437ZM77.2452 205.416C75.0041 205.736 73.0357 206.629 71.266 207.437L70.6433 206.072C72.3936 205.274 74.5481 204.286 77.0331 203.931L77.2452 205.416ZM81.9885 205.214C80.7649 205.178 79.2247 205.133 77.2452 205.416L77.0331 203.931C79.1482 203.629 80.7973 203.678 82.0328 203.715L81.9885 205.214ZM86.1653 203.399C86.023 203.826 85.8195 204.197 85.5239 204.491C85.2246 204.79 84.8715 204.97 84.4941 205.078C83.7969 205.276 82.9135 205.241 81.9885 205.214L82.0328 203.715C83.056 203.745 83.6625 203.755 84.084 203.635C84.2659 203.583 84.3793 203.514 84.4647 203.429C84.5537 203.34 84.6529 203.193 84.7423 202.925L86.1653 203.399Z" fill="black"/>
<defs>
<filter id="filter0_i_3053_14172" x="0.249634" y="0.25" width="162.5" height="216.752" filterUnits="userSpaceOnUse" color-interpolation-filters="sRGB">
<feFlood flood-opacity="0" result="BackgroundImageFix"/>
<feBlend mode="normal" in="SourceGraphic" in2="BackgroundImageFix" result="shape"/>
<feColorMatrix in="SourceAlpha" type="matrix" values="0 0 0 0 0 0 0 0 0 0 0 0 0 0 0 0 0 0 127 0" result="hardAlpha"/>
<feOffset dy="-6"/>
<feComposite in2="hardAlpha" operator="arithmetic" k2="-1" k3="1"/>
<feColorMatrix type="matrix" values="0 0 0 0 0.713726 0 0 0 0 0.772549 0 0 0 0 0.792157 0 0 0 1 0"/>
<feBlend mode="normal" in2="shape" result="effect1_innerShadow_3053_14172"/>
</filter>
</defs>
</svg>
