<svg width="374" height="109" viewBox="0 0 374 109" fill="none" xmlns="http://www.w3.org/2000/svg">
<g filter="url(#filter0_i_3053_14145)">
<path fill-rule="evenodd" clip-rule="evenodd" d="M318.864 13.8701C312.513 38.7741 298.692 60.6917 279.927 77.0963C279.289 76.8319 278.634 76.5707 277.963 76.3129C281.521 80.4328 280.267 84.9041 278.051 87.7515C278.001 87.8152 277.916 87.8403 277.839 87.8186C268.812 85.294 262.229 89.946 259.962 92.6985C259.908 92.7633 259.821 92.7863 259.741 92.7603C252.023 90.2409 246.844 93.8215 245.138 96.018C245.096 96.0725 245.029 96.1007 244.961 96.095C229.744 94.8456 219.435 98.6012 215.808 100.834C215.667 100.921 215.692 101.124 215.854 101.162C220.564 102.266 242.311 101.663 254.571 101.142C247.504 101.742 239.592 105.244 235.792 107.323C235.617 107.419 235.673 107.677 235.872 107.687C246.674 108.213 271.443 108.409 289.482 105.178C307.686 101.918 315.076 94.6295 316.571 91.2737C316.604 91.1998 316.674 91.1549 316.754 91.1549C335.5 91.1374 358.902 87.4258 368.773 85.4767C368.951 85.4417 368.978 85.2074 368.824 85.1127C353.739 75.8318 342.022 77.8355 337.594 80.1979C337.438 80.2812 337.252 80.1303 337.291 79.9578C342.115 58.7526 332.394 56.3959 326.325 57.9689C326.131 58.019 325.971 57.7759 326.085 57.6118C328.486 54.1592 325.645 51.796 323.561 50.8818C323.412 50.8164 323.384 50.6129 323.518 50.5212C331.798 44.885 346.145 31.29 339.649 20.2142C333.257 9.31499 324.278 13.1054 320.252 16.6079C320.12 16.7226 319.905 16.6302 319.887 16.4564C319.803 15.6694 319.5 14.7405 318.864 13.8701ZM115.06 76.9096C93.2762 57.7782 78.1937 31.1994 73.7904 1.15089C68.9307 0.657861 63.0344 1.33747 55.9188 3.71649C32.0855 12.9701 41.3133 30.8745 47.3203 33.1685C47.5321 33.2494 47.5935 33.7964 47.3937 33.9036C44.937 35.2208 41.8839 38.4564 43.5827 44.1361C45.5068 50.5693 54.8819 54.3894 59.6697 55.5964C59.8247 55.6355 59.8765 55.829 59.7614 55.9399C55.9558 59.6079 49.9568 67.9561 54.0797 74.3672C54.1629 74.4966 54.0883 74.6734 53.935 74.6873C47.4713 75.2749 33.5984 77.1896 27.1345 80.4313C23.4076 82.3005 33.3614 83.1531 47.5814 84.3712H47.5814C64.5478 85.8246 87.5874 87.7982 100.71 92.6393C100.877 92.701 100.872 92.9252 100.706 92.9905C97.9877 94.0604 91.4205 95.5923 83.1322 94.5738C82.9197 94.5477 82.8142 94.814 82.9999 94.9206C89.3818 98.5868 108.672 104.793 141.449 103.528C159.844 102.819 173.218 102.414 183.01 102.118C194.791 101.762 201.388 101.562 205.308 101.177C205.531 101.155 205.547 100.854 205.329 100.806C197.857 99.1373 183.645 96.5309 178.552 97.731C178.49 97.7456 178.431 97.7322 178.382 97.6918C175.004 94.9429 163.723 90.5433 144.858 94.4298C144.786 94.4448 144.711 94.4202 144.662 94.3642C143.255 92.7309 139.537 89.9665 135.127 91.0854C134.998 91.1181 134.87 91.0253 134.866 90.8924C134.718 85.9194 130.342 77.281 113.752 80.381C113.622 80.4053 113.498 80.3019 113.517 80.1708C113.653 79.2398 114.119 78.0886 115.06 76.9096ZM344.77 28.986C347.048 25.312 352.898 16.5441 357.337 13.0928C357.481 12.9814 357.678 13.1076 357.642 13.2854C357.319 14.8701 356.686 17.8508 356.097 20.2142C355.615 22.1493 354.85 22.6658 353.968 23.2613C353.346 23.6811 352.665 24.1402 351.985 25.1635C350.755 27.0143 346.794 29.0092 344.939 29.2613C344.784 29.2824 344.688 29.1188 344.77 28.986ZM365.966 32.5876C368.353 28.3978 371.372 24.7962 372.935 23.1367C373.068 22.9951 372.945 22.7626 372.755 22.7996C369.952 23.343 367.455 24.3359 364.862 25.3666C362.188 26.4296 359.413 27.5328 356.097 28.2248C351.662 28.9937 348.824 33.8967 346.722 37.5283C346.035 38.7161 345.426 39.7679 344.866 40.4945C344.76 40.6313 344.857 40.8349 345.03 40.8305C347.441 40.769 352.396 40.2181 356.097 38.3618C357.835 37.4902 359.165 37.2326 360.303 37.0122C362.395 36.607 363.835 36.328 365.966 32.5876ZM36.8182 24.1769C31.7335 19.7133 26.284 13.3663 24.0089 10.5215C23.9258 10.4175 23.7683 10.4231 23.6945 10.5339C22.3424 12.5635 20.674 16.845 23.8449 19.3893C25.847 20.9959 26.6794 21.2335 27.3861 21.4353C28.1309 21.6479 28.7363 21.8208 30.4241 23.5138C32.9071 26.0043 35.5854 25.2639 36.8011 24.4794C36.908 24.4104 36.9138 24.2608 36.8182 24.1769ZM37.0799 48.391C27.7881 44.2432 9.87853 35.6928 1.08219 29.4764C0.959302 29.3896 0.977338 29.2091 1.11542 29.1493C3.54712 28.0957 9.70175 27.1445 17.2655 30.9378C21.9806 33.3024 24.0675 33.5959 25.4995 33.7972C27.0647 34.0173 27.8472 34.1273 30.4241 36.712C33.0156 39.3114 34.246 41.9107 35.3068 44.1516C35.9785 45.5706 36.5822 46.8458 37.4204 47.8863C37.5693 48.0713 37.2967 48.4878 37.0799 48.391Z" fill="#F4F8FB"/>
</g>
<path d="M279.927 77.0963L279.64 77.7892L280.07 77.9674L280.421 77.6609L279.927 77.0963ZM318.864 13.8701L319.47 13.4278L318.531 12.1421L318.138 13.6848L318.864 13.8701ZM277.963 76.3129L278.232 75.6127L277.395 76.8031L277.963 76.3129ZM278.051 87.7515L278.642 88.2122V88.2121L278.051 87.7515ZM277.839 87.8186L278.041 87.0963L278.041 87.0963L277.839 87.8186ZM259.962 92.6985L259.383 92.2217L259.383 92.2217L259.962 92.6985ZM259.741 92.7603L259.508 93.4732L259.508 93.4732L259.741 92.7603ZM245.138 96.018L245.73 96.4781V96.4781L245.138 96.018ZM244.961 96.095L244.899 96.8425L244.899 96.8425L244.961 96.095ZM215.808 100.834L216.202 101.473L216.202 101.473L215.808 100.834ZM215.854 101.162L215.683 101.892L215.854 101.162ZM254.571 101.142L254.634 101.89L254.539 100.393L254.571 101.142ZM235.792 107.323L236.152 107.981H236.152L235.792 107.323ZM235.872 107.687L235.835 108.436L235.872 107.687ZM289.482 105.178L289.35 104.44L289.482 105.178ZM316.571 91.2737L315.886 90.9684L315.886 90.9685L316.571 91.2737ZM316.754 91.1549L316.755 91.9049H316.755L316.754 91.1549ZM368.773 85.4767L368.919 86.2125H368.919L368.773 85.4767ZM368.824 85.1127L368.431 85.7515V85.7515L368.824 85.1127ZM337.594 80.1979L337.947 80.8597L337.947 80.8596L337.594 80.1979ZM337.291 79.9578L338.023 80.1242V80.1242L337.291 79.9578ZM326.325 57.9689L326.137 57.2428L326.137 57.2428L326.325 57.9689ZM326.085 57.6118L325.47 57.1836V57.1837L326.085 57.6118ZM323.561 50.8818L323.259 51.5686L323.561 50.8818ZM323.518 50.5212L323.096 49.9012L323.096 49.9013L323.518 50.5212ZM339.649 20.2142L339.002 20.5936V20.5936L339.649 20.2142ZM320.252 16.6079L319.76 16.0421L319.76 16.0421L320.252 16.6079ZM319.887 16.4564L320.632 16.3771V16.377L319.887 16.4564ZM73.7904 1.15089L74.5324 1.04215L74.4477 0.463729L73.8661 0.404723L73.7904 1.15089ZM115.06 76.9096L115.647 77.3775L116.093 76.8183L115.555 76.3461L115.06 76.9096ZM55.9188 3.71649L55.681 3.00519L55.6641 3.01086L55.6474 3.01733L55.9188 3.71649ZM47.3203 33.1685L47.5879 32.4679L47.3203 33.1685ZM47.3937 33.9036L47.7481 34.5646L47.3937 33.9036ZM43.5827 44.1361L44.3012 43.9212L43.5827 44.1361ZM59.6697 55.5964L59.4864 56.3236L59.6697 55.5964ZM59.7614 55.9399L60.2819 56.4799L60.2819 56.4799L59.7614 55.9399ZM54.0797 74.3672L54.7105 73.9615L54.7105 73.9615L54.0797 74.3672ZM53.935 74.6873L54.0029 75.4342H54.003L53.935 74.6873ZM27.1345 80.4313L26.7983 79.7609H26.7983L27.1345 80.4313ZM47.5814 84.3712L47.5173 85.1185L47.5493 85.1212H47.5814V84.3712ZM47.5814 84.3712L47.6454 83.624L47.6135 83.6212H47.5814V84.3712ZM100.71 92.6393L100.969 91.9356L100.969 91.9356L100.71 92.6393ZM100.706 92.9905L100.432 92.2926L100.432 92.2926L100.706 92.9905ZM83.1322 94.5738L83.2237 93.8294L83.2237 93.8294L83.1322 94.5738ZM82.9999 94.9206L82.6263 95.5709L82.6263 95.571L82.9999 94.9206ZM141.449 103.528L141.478 104.278L141.449 103.528ZM183.01 102.118L182.988 101.369L183.01 102.118ZM205.308 101.177L205.382 101.923L205.308 101.177ZM205.329 100.806L205.492 100.074L205.492 100.074L205.329 100.806ZM178.552 97.731L178.724 98.461H178.724L178.552 97.731ZM178.382 97.6918L178.855 97.1101L178.855 97.11L178.382 97.6918ZM144.858 94.4298L144.707 93.6953L144.858 94.4298ZM144.662 94.3642L144.094 94.8537V94.8537L144.662 94.3642ZM135.127 91.0854L134.943 90.3584L135.127 91.0854ZM134.866 90.8924L135.616 90.8702V90.8701L134.866 90.8924ZM113.752 80.381L113.615 79.6438H113.614L113.752 80.381ZM113.517 80.1708L114.259 80.2789L114.259 80.2789L113.517 80.1708ZM357.337 13.0928L357.798 13.6849L357.798 13.6848L357.337 13.0928ZM344.77 28.986L344.133 28.5907V28.5907L344.77 28.986ZM357.642 13.2854L358.377 13.4351L358.377 13.435L357.642 13.2854ZM356.097 20.2142L356.825 20.3956V20.3956L356.097 20.2142ZM353.968 23.2613L354.387 23.8829L354.387 23.8829L353.968 23.2613ZM351.985 25.1635L351.361 24.7484V24.7484L351.985 25.1635ZM344.939 29.2613L344.838 28.5182L344.838 28.5182L344.939 29.2613ZM372.935 23.1367L372.389 22.6223L372.389 22.6223L372.935 23.1367ZM365.966 32.5876L365.315 32.2163V32.2163L365.966 32.5876ZM372.755 22.7996L372.612 22.0633L372.755 22.7996ZM364.862 25.3666L365.139 26.0635L364.862 25.3666ZM356.097 28.2248L356.225 28.9638L356.238 28.9616L356.251 28.959L356.097 28.2248ZM346.722 37.5283L346.073 37.1526V37.1526L346.722 37.5283ZM344.866 40.4945L344.272 40.0366L344.272 40.0367L344.866 40.4945ZM345.03 40.8305L345.049 41.5802H345.049L345.03 40.8305ZM356.097 38.3618L356.434 39.0322L356.097 38.3618ZM360.303 37.0122L360.16 36.2759L360.303 37.0122ZM24.0089 10.5215L23.4232 10.9899L23.4232 10.9899L24.0089 10.5215ZM36.8182 24.1769L37.313 23.6132L37.313 23.6132L36.8182 24.1769ZM23.6945 10.5339L23.0703 10.1181L23.0703 10.1181L23.6945 10.5339ZM23.8449 19.3893L23.3755 19.9743L23.8449 19.3893ZM27.3861 21.4353L27.1802 22.1565H27.1802L27.3861 21.4353ZM30.4241 23.5138L29.893 24.0433L30.4241 23.5138ZM36.8011 24.4794L36.3945 23.8492L36.3945 23.8492L36.8011 24.4794ZM1.08219 29.4764L0.649343 30.0889L0.649348 30.0889L1.08219 29.4764ZM37.0799 48.391L36.7741 49.0759L37.0799 48.391ZM1.11542 29.1493L0.81724 28.4611H0.817237L1.11542 29.1493ZM17.2655 30.9378L16.9293 31.6082L17.2655 30.9378ZM25.4995 33.7972L25.395 34.5399H25.395L25.4995 33.7972ZM30.4241 36.712L29.893 37.2416L30.4241 36.712ZM35.3068 44.1516L35.9847 43.8307V43.8307L35.3068 44.1516ZM37.4204 47.8863L36.8363 48.3568L36.8363 48.3568L37.4204 47.8863ZM254.571 101.142L254.507 100.395L254.602 101.892L254.571 101.142ZM256.586 101.054L256.62 101.803L256.586 100.304V101.054ZM280.421 77.6609C299.297 61.159 313.201 39.1102 319.591 14.0555L318.138 13.6848C311.825 38.4379 298.087 60.2245 279.434 76.5316L280.421 77.6609ZM277.694 77.013C278.359 77.2686 279.008 77.5273 279.64 77.7892L280.214 76.4034C279.57 76.1364 278.909 75.8728 278.232 75.6127L277.694 77.013ZM278.642 88.2121C279.819 86.6999 280.761 84.7328 280.92 82.5642C281.081 80.3743 280.438 78.0311 278.531 75.8227L277.395 76.8031C279.046 78.7146 279.555 80.667 279.424 82.4545C279.291 84.2634 278.498 85.9557 277.459 87.2908L278.642 88.2121ZM277.637 88.5408C277.988 88.6391 278.394 88.5318 278.642 88.2122L277.459 87.2908C277.608 87.0986 277.845 87.0415 278.041 87.0963L277.637 88.5408ZM260.541 93.1753C262.673 90.5871 268.969 86.1167 277.637 88.5408L278.041 87.0963C268.655 84.4713 261.785 89.3049 259.383 92.2217L260.541 93.1753ZM259.508 93.4732C259.864 93.5894 260.28 93.4921 260.541 93.1753L259.383 92.2217C259.537 92.0346 259.778 91.9832 259.974 92.0473L259.508 93.4732ZM245.73 96.4781C247.27 94.4965 252.131 91.0651 259.508 93.4732L259.974 92.0473C251.914 89.4166 246.419 93.1465 244.546 95.558L245.73 96.4781ZM244.899 96.8425C245.213 96.8683 245.528 96.7386 245.73 96.4781L244.546 95.558C244.664 95.4064 244.846 95.3331 245.022 95.3476L244.899 96.8425ZM216.202 101.473C219.672 99.3359 229.817 95.6041 244.899 96.8425L245.022 95.3476C229.671 94.0871 219.197 97.8665 215.415 100.195L216.202 101.473ZM216.026 100.431C216.257 100.486 216.429 100.683 216.461 100.916C216.491 101.141 216.386 101.359 216.202 101.473L215.415 100.195C215.089 100.396 214.926 100.759 214.974 101.116C215.023 101.481 215.29 101.8 215.683 101.892L216.026 100.431ZM254.539 100.393C248.414 100.653 239.921 100.934 232.374 101.011C228.599 101.05 225.068 101.038 222.19 100.948C219.287 100.857 217.119 100.688 216.026 100.431L215.683 101.892C216.945 102.188 219.261 102.357 222.143 102.447C225.051 102.539 228.605 102.55 232.389 102.511C239.958 102.433 248.468 102.152 254.602 101.892L254.539 100.393ZM236.152 107.981C239.917 105.921 247.721 102.476 254.634 101.89L254.507 100.395C247.288 101.008 239.268 104.566 235.432 106.666L236.152 107.981ZM235.908 106.938C236.509 106.967 236.603 107.735 236.152 107.981L235.432 106.666C234.632 107.104 234.836 108.387 235.835 108.436L235.908 106.938ZM289.35 104.44C271.396 107.656 246.695 107.463 235.908 106.938L235.835 108.436C246.654 108.962 271.49 109.163 289.615 105.916L289.35 104.44ZM315.886 90.9685C315.222 92.4578 313.137 95.0179 308.9 97.6227C304.682 100.215 298.375 102.823 289.35 104.44L289.615 105.916C298.794 104.272 305.283 101.606 309.685 98.9006C314.067 96.2072 316.424 93.4454 317.256 91.5788L315.886 90.9685ZM316.754 90.4049C316.381 90.4052 316.04 90.6209 315.886 90.9684L317.256 91.5789C317.167 91.7788 316.966 91.9047 316.755 91.9049L316.754 90.4049ZM368.628 84.7409C358.775 86.6863 335.428 90.3875 316.754 90.4049L316.755 91.9049C335.572 91.8874 359.028 88.1653 368.919 86.2125L368.628 84.7409ZM368.431 85.7515C368.239 85.6333 368.154 85.4172 368.179 85.2197C368.207 85.0105 368.368 84.7924 368.628 84.7409L368.919 86.2125C369.357 86.126 369.62 85.7732 369.667 85.4145C369.712 85.0674 369.563 84.6868 369.217 84.4739L368.431 85.7515ZM337.947 80.8596C342.104 78.6421 353.536 76.5872 368.431 85.7515L369.217 84.4739C353.943 75.0764 341.94 77.029 337.241 79.5362L337.947 80.8596ZM336.56 79.7915C336.39 80.538 337.177 81.2705 337.947 80.8597L337.241 79.5362C337.468 79.4153 337.703 79.48 337.838 79.588C337.97 79.6937 338.075 79.893 338.023 80.1242L336.56 79.7915ZM326.513 58.6949C329.41 57.9442 333 58.1753 335.322 60.9072C337.669 63.6696 338.958 69.2491 336.56 79.7915L338.023 80.1242C340.448 69.4613 339.289 63.2599 336.465 59.9359C333.614 56.5813 329.309 56.4206 326.137 57.2428L326.513 58.6949ZM325.47 57.1837C325.201 57.5699 325.283 58.0112 325.465 58.2861C325.65 58.5632 326.039 58.8178 326.513 58.6949L326.137 57.2428C326.418 57.17 326.63 57.3281 326.714 57.4552C326.797 57.5801 326.856 57.8178 326.701 58.04L325.47 57.1837ZM323.259 51.5686C324.228 51.9936 325.3 52.7291 325.859 53.6761C326.13 54.1358 326.278 54.6385 326.248 55.1921C326.218 55.7481 326.007 56.4114 325.47 57.1836L326.701 58.04C327.365 57.0859 327.698 56.1591 327.746 55.2724C327.793 54.3833 327.55 53.5907 327.151 52.9137C326.368 51.5874 324.977 50.6842 323.862 50.195L323.259 51.5686ZM323.096 49.9013C322.42 50.3618 322.632 51.2934 323.259 51.5686L323.862 50.195C324.191 50.3393 324.347 50.864 323.94 51.1412L323.096 49.9013ZM339.002 20.5936C342.022 25.7432 340.266 31.5675 336.509 36.9798C332.768 42.3681 327.189 47.1153 323.096 49.9012L323.94 51.1412C328.128 48.291 333.862 43.4225 337.741 37.8352C341.603 32.2721 343.772 25.7609 340.296 19.8348L339.002 20.5936ZM320.745 17.1737C322.675 15.4938 325.76 13.7818 329.068 13.7604C332.303 13.7394 335.918 15.3341 339.002 20.5936L340.296 19.8348C336.989 14.1951 332.918 12.2354 329.058 12.2604C325.272 12.285 321.855 14.2194 319.76 16.0421L320.745 17.1737ZM319.141 16.5358C319.218 17.2634 320.118 17.7187 320.745 17.1737L319.76 16.0421C319.942 15.8833 320.169 15.8866 320.317 15.9487C320.462 16.0096 320.609 16.1569 320.632 16.3771L319.141 16.5358ZM318.259 14.3125C318.812 15.0696 319.07 15.8716 319.141 16.5359L320.632 16.377C320.535 15.4672 320.188 14.4113 319.47 13.4278L318.259 14.3125ZM73.0483 1.25964C77.4783 31.4901 92.652 58.2282 114.566 77.4731L115.555 76.3461C93.9004 57.3282 78.9091 30.9088 74.5324 1.04215L73.0483 1.25964ZM56.1567 4.42778C63.1969 2.07394 68.9846 1.41719 73.7147 1.89706L73.8661 0.404723C68.8767 -0.101466 62.8718 0.601008 55.681 3.00519L56.1567 4.42778ZM47.5879 32.4679C46.2934 31.9735 44.7024 30.5697 43.4145 28.5034C42.139 26.457 41.2166 23.8467 41.1794 21.0424C41.1423 18.2501 41.9813 15.2422 44.2634 12.3658C46.552 9.48123 50.3199 6.6949 56.1903 4.41564L55.6474 3.01733C49.6011 5.36485 45.585 8.28667 43.0883 11.4335C40.5853 14.5884 39.6379 17.935 39.6795 21.0623C39.7209 24.1775 40.7422 27.0518 42.1416 29.2968C43.5285 31.522 45.3436 33.2165 47.0527 33.8692L47.5879 32.4679ZM47.7481 34.5646C48.051 34.4021 48.1716 34.124 48.2182 33.9582C48.2688 33.7788 48.2731 33.599 48.2573 33.4478C48.2413 33.2956 48.1998 33.1252 48.119 32.9649C48.0457 32.8196 47.8883 32.5826 47.5879 32.4679L47.0527 33.8692C46.8582 33.7949 46.7879 33.6566 46.7795 33.64C46.7636 33.6084 46.7646 33.5966 46.7655 33.6046C46.7664 33.6137 46.7619 33.5958 46.7744 33.5516C46.783 33.5211 46.8362 33.3515 47.0393 33.2426L47.7481 34.5646ZM44.3012 43.9212C43.5027 41.2512 43.8344 39.2228 44.5981 37.7245C45.3713 36.2073 46.6215 35.1686 47.7481 34.5646L47.0393 33.2426C45.7091 33.9558 44.2044 35.1936 43.2616 37.0434C42.3093 38.912 41.9639 41.3413 42.8641 44.351L44.3012 43.9212ZM59.8531 54.8691C57.5143 54.2795 54.0451 53.0475 50.9383 51.183C47.8099 49.3055 45.1825 46.8677 44.3012 43.9212L42.8641 44.351C43.907 47.8377 46.9293 50.5265 50.1664 52.4691C53.4251 54.4248 57.0374 55.7062 59.4864 56.3236L59.8531 54.8691ZM60.2819 56.4799C60.822 55.9593 60.5768 55.0516 59.8531 54.8691L59.4864 56.3236C59.0726 56.2193 58.9309 55.6987 59.2409 55.3999L60.2819 56.4799ZM54.7105 73.9615C52.8423 71.0565 53.2232 67.6606 54.6348 64.4248C56.0447 61.1929 58.4274 58.2673 60.2819 56.4799L59.2409 55.3999C57.2898 57.2805 54.7702 60.363 53.2599 63.825C51.7513 67.2831 51.1942 71.2668 53.4489 74.7729L54.7105 73.9615ZM54.003 75.4342C54.7905 75.3626 55.0575 74.5011 54.7105 73.9615L53.4489 74.7729C53.3469 74.6144 53.3411 74.4235 53.4099 74.2677C53.4813 74.1058 53.6458 73.9605 53.8671 73.9404L54.003 75.4342ZM27.4708 81.1018C30.6013 79.5318 35.5949 78.2574 40.6736 77.3011C45.7307 76.3488 50.7909 75.7262 54.0029 75.4342L53.8671 73.9404C50.6155 74.236 45.5073 74.8646 40.3961 75.827C35.3064 76.7854 30.1317 78.0892 26.7983 79.7609L27.4708 81.1018ZM47.6454 83.624C40.5216 83.0137 34.5116 82.4984 30.7446 81.9046C29.8057 81.7566 29.0199 81.6057 28.3985 81.4505C27.7626 81.2917 27.3528 81.141 27.1303 81.0135C27.0175 80.9489 27.0109 80.9224 27.034 80.9554C27.0761 81.0158 27.1222 81.1448 27.0826 81.2878C27.0543 81.3896 27.007 81.4033 27.0798 81.3414C27.1453 81.2857 27.267 81.204 27.4708 81.1018L26.7983 79.7609C26.5363 79.8924 26.2989 80.0363 26.1077 80.199C25.9238 80.3555 25.7221 80.5805 25.6371 80.8869C25.5407 81.2344 25.6278 81.5614 25.8039 81.8139C25.961 82.0389 26.1815 82.1986 26.3844 82.3149C26.7932 82.5492 27.3686 82.7394 28.0351 82.9058C28.7161 83.0759 29.5499 83.2347 30.511 83.3863C34.3442 83.9906 40.4211 84.5106 47.5173 85.1185L47.6454 83.624ZM47.5814 83.6212H47.5814V85.1212H47.5814V83.6212ZM100.969 91.9356C94.3265 89.485 85.2175 87.773 75.687 86.4916C66.1452 85.2085 56.1257 84.3504 47.6454 83.624L47.5174 85.1185C56.0035 85.8454 65.987 86.7008 75.4871 87.9782C84.9985 89.2571 93.9704 90.9525 100.45 93.3429L100.969 91.9356ZM100.981 93.6884C101.726 93.3953 101.845 92.2588 100.969 91.9356L100.45 93.3429C100.221 93.2583 100.08 93.0334 100.083 92.8038C100.086 92.5811 100.222 92.3751 100.432 92.2926L100.981 93.6884ZM83.0408 95.3182C91.455 96.3521 98.148 94.8032 100.981 93.6884L100.432 92.2926C97.8274 93.3175 91.3859 94.8324 83.2237 93.8294L83.0408 95.3182ZM83.3735 94.2703C83.4783 94.3305 83.5773 94.4379 83.6254 94.5853C83.6708 94.7244 83.658 94.8602 83.6159 94.9687C83.5297 95.1911 83.2972 95.3497 83.0408 95.3182L83.2237 93.8294C82.7547 93.7718 82.3633 94.0505 82.2175 94.4261C82.0656 94.8178 82.1846 95.3172 82.6263 95.5709L83.3735 94.2703ZM141.42 102.779C108.724 104.04 89.5898 97.8413 83.3735 94.2703L82.6263 95.571C89.1739 99.3323 108.62 105.545 141.478 104.278L141.42 102.779ZM182.988 101.369C173.195 101.665 159.819 102.069 141.42 102.779L141.478 104.278C159.87 103.568 173.241 103.164 183.033 102.868L182.988 101.369ZM205.235 100.43C201.347 100.813 194.785 101.012 182.988 101.369L183.033 102.868C194.797 102.512 201.429 102.312 205.382 101.923L205.235 100.43ZM205.165 101.538C204.891 101.477 204.721 101.216 204.735 100.961C204.749 100.703 204.95 100.458 205.235 100.43L205.382 101.923C206.497 101.813 206.498 100.299 205.492 100.074L205.165 101.538ZM178.724 98.461C179.891 98.186 181.648 98.1187 183.799 98.2197C185.933 98.3199 188.397 98.5822 190.946 98.9356C196.043 99.6421 201.443 100.707 205.165 101.538L205.492 100.074C201.743 99.2365 196.301 98.1635 191.152 97.4498C188.577 97.0929 186.066 96.8244 183.869 96.7213C181.69 96.619 179.76 96.6759 178.38 97.001L178.724 98.461ZM177.908 98.2735C178.139 98.4608 178.436 98.529 178.724 98.461L178.38 97.001C178.453 96.984 178.539 96.98 178.63 97.0011C178.722 97.0221 178.798 97.0633 178.855 97.1101L177.908 98.2735ZM145.009 95.1644C163.735 91.3064 174.761 95.7124 177.908 98.2735L178.855 97.11C175.246 94.1734 163.71 89.7802 144.707 93.6953L145.009 95.1644ZM144.094 94.8537C144.325 95.1218 144.678 95.2327 145.009 95.1644L144.707 93.6953C144.893 93.6568 145.096 93.7186 145.23 93.8746L144.094 94.8537ZM135.312 91.8124C139.321 90.7952 142.769 93.3164 144.094 94.8537L145.23 93.8746C143.74 92.1453 139.754 89.1379 134.943 90.3584L135.312 91.8124ZM134.116 90.9147C134.135 91.5492 134.739 91.9576 135.312 91.8124L134.943 90.3584C135.257 90.2786 135.605 90.5014 135.616 90.8702L134.116 90.9147ZM113.89 81.1182C122.055 79.5925 127.06 80.982 130.024 83.209C132.997 85.4422 134.048 88.6139 134.116 90.9148L135.616 90.8701C135.536 88.1979 134.325 84.5639 130.925 82.0097C127.517 79.4492 122.039 78.0696 113.615 79.6438L113.89 81.1182ZM112.775 80.0627C112.67 80.782 113.336 81.2219 113.89 81.1182L113.614 79.6438C113.783 79.6123 113.95 79.6628 114.072 79.7693C114.199 79.8805 114.29 80.0677 114.259 80.2789L112.775 80.0627ZM114.474 76.4417C113.462 77.7094 112.932 78.982 112.775 80.0627L114.259 80.2789C114.373 79.4976 114.776 78.4678 115.647 77.3775L114.474 76.4417ZM356.877 12.5007C354.571 14.2932 351.948 17.4196 349.642 20.5071C347.324 23.6111 345.28 26.7403 344.133 28.5907L345.407 29.3812C346.538 27.5577 348.558 24.4659 350.844 21.4046C353.143 18.3268 355.664 15.3436 357.798 13.6849L356.877 12.5007ZM358.377 13.435C358.547 12.6027 357.592 11.9448 356.877 12.5007L357.798 13.6848C357.369 14.018 356.81 13.6126 356.907 13.1357L358.377 13.435ZM356.825 20.3956C357.418 18.0164 358.054 15.0234 358.377 13.4351L356.907 13.1357C356.585 14.7168 355.955 17.6851 355.37 20.0328L356.825 20.3956ZM354.387 23.8829C354.82 23.5904 355.323 23.2565 355.765 22.713C356.213 22.1613 356.565 21.4401 356.825 20.3956L355.37 20.0328C355.148 20.9234 354.876 21.428 354.6 21.7672C354.318 22.1146 353.997 22.3366 353.548 22.6396L354.387 23.8829ZM352.61 25.5787C353.206 24.6821 353.784 24.2899 354.387 23.8829L353.548 22.6396C352.907 23.0723 352.125 23.5983 351.361 24.7484L352.61 25.5787ZM345.04 30.0045C346.102 29.8602 347.651 29.248 349.06 28.4681C350.459 27.6934 351.891 26.6604 352.61 25.5787L351.361 24.7484C350.85 25.5175 349.686 26.4073 348.333 27.1557C346.99 27.899 345.631 28.4103 344.838 28.5182L345.04 30.0045ZM344.133 28.5907C343.754 29.2008 344.186 30.1206 345.04 30.0045L344.838 28.5182C345.067 28.487 345.291 28.6015 345.407 28.7928C345.519 28.977 345.516 29.2058 345.407 29.3812L344.133 28.5907ZM372.389 22.6223C370.797 24.3123 367.739 27.9615 365.315 32.2163L366.618 32.9588C368.968 28.8341 371.946 25.28 373.481 23.651L372.389 22.6223ZM372.897 23.5359C372.329 23.6461 372.054 22.978 372.389 22.6223L373.481 23.651C374.083 23.0123 373.562 21.8791 372.612 22.0633L372.897 23.5359ZM365.139 26.0635C367.741 25.0293 370.175 24.0639 372.897 23.5359L372.612 22.0633C369.73 22.6222 367.169 23.6424 364.585 24.6696L365.139 26.0635ZM356.251 28.959C359.638 28.2521 362.469 27.125 365.139 26.0635L364.585 24.6696C361.907 25.7342 359.188 26.8136 355.944 27.4907L356.251 28.959ZM347.371 37.904C348.428 36.0779 349.63 34.0061 351.103 32.292C352.577 30.5776 354.253 29.3058 356.225 28.9638L355.969 27.4859C353.507 27.9127 351.545 29.4768 349.966 31.3141C348.386 33.1516 347.118 35.3471 346.073 37.1526L347.371 37.904ZM345.46 40.9524C346.057 40.1774 346.694 39.0746 347.371 37.904L346.073 37.1526C345.376 38.3575 344.795 39.3584 344.272 40.0366L345.46 40.9524ZM345.011 40.0807C345.513 40.0679 345.713 40.6239 345.46 40.9524L344.272 40.0367C343.808 40.6387 344.201 41.6019 345.049 41.5802L345.011 40.0807ZM355.761 37.6914C352.205 39.4748 347.38 40.0203 345.011 40.0807L345.049 41.5802C347.503 41.5177 352.587 40.9614 356.434 39.0322L355.761 37.6914ZM360.16 36.2759C359.008 36.4991 357.595 36.7719 355.761 37.6914L356.434 39.0322C358.076 38.2085 359.323 37.966 360.445 37.7486L360.16 36.2759ZM365.315 32.2163C364.276 34.0392 363.454 34.9298 362.706 35.4253C361.96 35.9193 361.221 36.0704 360.16 36.2759L360.445 37.7486C361.476 37.5488 362.504 37.3579 363.534 36.676C364.562 35.9955 365.525 34.8764 366.618 32.9588L365.315 32.2163ZM23.4232 10.9899C25.7097 13.8491 31.1908 20.2349 36.3234 24.7405L37.313 23.6132C32.2762 19.1918 26.8583 12.8836 24.5947 10.0531L23.4232 10.9899ZM24.3186 10.9498C24.106 11.269 23.6516 11.2755 23.4232 10.9899L24.5947 10.0531C24.2 9.55957 23.4306 9.57729 23.0703 10.1181L24.3186 10.9498ZM24.3142 18.8043C22.9826 17.7358 22.6498 16.3157 22.8186 14.8547C22.9907 13.3651 23.6859 11.8996 24.3186 10.9498L23.0703 10.1181C22.3509 11.1979 21.5359 12.8878 21.3285 14.6825C21.1179 16.5057 21.5363 18.4985 23.3755 19.9743L24.3142 18.8043ZM27.592 20.7141C27.2524 20.6172 26.9264 20.5238 26.4484 20.2743C25.9589 20.0187 25.292 19.5889 24.3142 18.8043L23.3755 19.9743C24.3999 20.7963 25.1502 21.2886 25.7541 21.6039C26.3696 21.9253 26.8131 22.0517 27.1802 22.1565L27.592 20.7141ZM30.9552 22.9842C30.0941 22.1204 29.4732 21.6073 28.9457 21.2814C28.398 20.9429 27.9771 20.8241 27.592 20.7141L27.1802 22.1565C27.5399 22.2592 27.7941 22.333 28.1572 22.5574C28.5406 22.7943 29.0663 23.2141 29.893 24.0433L30.9552 22.9842ZM36.3945 23.8492C35.3829 24.5019 33.1178 25.1534 30.9552 22.9842L29.893 24.0433C32.6964 26.8552 35.7879 26.0258 37.2077 25.1096L36.3945 23.8492ZM36.3234 24.7405C36.0738 24.5214 36.051 24.0708 36.3945 23.8492L37.2077 25.1096C37.765 24.7501 37.7538 24.0002 37.313 23.6132L36.3234 24.7405ZM0.649348 30.0889C9.51461 36.354 27.4902 44.9316 36.7741 49.0759L37.3856 47.7062C28.0859 43.5548 10.2424 35.0316 1.51504 28.8639L0.649348 30.0889ZM0.817237 28.4611C0.137563 28.7556 0.052874 29.6674 0.649343 30.0889L1.51505 28.8639C1.86573 29.1118 1.81711 29.6626 1.4136 29.8375L0.817237 28.4611ZM17.6017 30.2674C9.84904 26.3794 3.46217 27.3151 0.81724 28.4611L1.41359 29.8375C3.63207 28.8762 9.55445 27.9097 16.9293 31.6082L17.6017 30.2674ZM25.6039 33.0545C24.2467 32.8637 22.2388 32.5929 17.6017 30.2674L16.9293 31.6082C21.7224 34.0119 23.8884 34.328 25.395 34.5399L25.6039 33.0545ZM30.9552 36.1825C29.655 34.8783 28.7503 34.138 27.9336 33.7052C27.0911 33.2587 26.3834 33.1641 25.6039 33.0545L25.395 34.5399C26.1808 34.6504 26.6469 34.7209 27.2312 35.0306C27.8413 35.3539 28.6164 35.9611 29.893 37.2416L30.9552 36.1825ZM35.9847 43.8307C34.9214 41.5845 33.6454 38.8808 30.9552 36.1825L29.893 37.2416C32.3857 39.7419 33.5707 42.2369 34.6289 44.4724L35.9847 43.8307ZM38.0044 47.4158C37.2326 46.4576 36.6656 45.269 35.9847 43.8307L34.6289 44.4724C35.2915 45.8721 35.9318 47.234 36.8363 48.3568L38.0044 47.4158ZM36.7741 49.0759C37.0923 49.2179 37.3964 49.1473 37.5953 49.0424C37.7851 48.9423 37.9217 48.795 38.0117 48.6598C38.1028 48.5229 38.1798 48.348 38.2046 48.1505C38.2295 47.9532 38.2069 47.6672 38.0044 47.4158L36.8363 48.3568C36.7083 48.1979 36.7075 48.0333 36.7164 47.9632C36.7252 47.8927 36.7484 47.8506 36.7629 47.8288C36.7762 47.8088 36.8133 47.759 36.8956 47.7156C36.9872 47.6673 37.1758 47.6125 37.3856 47.7062L36.7741 49.0759ZM254.634 101.89C255.296 101.833 255.948 101.804 256.586 101.804V100.304C255.902 100.304 255.207 100.336 254.507 100.395L254.634 101.89ZM256.552 100.304C255.916 100.333 255.243 100.363 254.539 100.393L254.602 101.892C255.308 101.862 255.982 101.832 256.62 101.803L256.552 100.304Z" fill="black"/>
<defs>
<filter id="filter0_i_3053_14145" x="0.25" y="0.25" width="373.488" height="108.489" filterUnits="userSpaceOnUse" color-interpolation-filters="sRGB">
<feFlood flood-opacity="0" result="BackgroundImageFix"/>
<feBlend mode="normal" in="SourceGraphic" in2="BackgroundImageFix" result="shape"/>
<feColorMatrix in="SourceAlpha" type="matrix" values="0 0 0 0 0 0 0 0 0 0 0 0 0 0 0 0 0 0 127 0" result="hardAlpha"/>
<feOffset dy="-6"/>
<feComposite in2="hardAlpha" operator="arithmetic" k2="-1" k3="1"/>
<feColorMatrix type="matrix" values="0 0 0 0 0.713726 0 0 0 0 0.772549 0 0 0 0 0.792157 0 0 0 1 0"/>
<feBlend mode="normal" in2="shape" result="effect1_innerShadow_3053_14145"/>
</filter>
</defs>
</svg>
