<svg width="159" height="262" viewBox="0 0 159 262" fill="none" xmlns="http://www.w3.org/2000/svg">
<g filter="url(#filter0_i_3053_14166)">
<path d="M105.941 216.536C110.44 219.42 120.562 238.568 125.061 247.781C104.816 236.965 96.9425 220.141 96.9425 197.308C96.9425 179.041 108.94 170.469 114.939 168.466C117.563 168.867 122.587 171.831 121.687 180.483C120.787 189.136 113.814 190.498 110.44 190.097C112.239 193.943 109.69 202.916 108.19 206.922C109.99 211.729 107.44 215.334 105.941 216.536Z" fill="#F4F8FB"/>
<path d="M89.0692 212.93C91.7686 236.965 115.688 254.991 127.311 261C108.415 261 91.6936 242.574 85.6949 233.361C82.3206 234.563 73.7725 235.524 66.574 229.756C59.3756 223.987 59.0757 213.732 59.8255 209.326C55.3265 212.531 43.4041 215.335 31.7066 200.914C20.0091 186.493 36.5805 165.262 46.3285 156.45C30.132 150.681 35.0809 136.421 39.5799 130.011C28.7823 110.783 42.5793 101.971 50.8275 99.9678C39.5799 90.3538 46.3285 79.5382 42.9542 66.319C39.5799 53.0999 42.9542 29.0642 59.8255 19.4503C73.3226 11.7592 87.9444 20.2515 93.5682 25.459C98.0672 25.459 112.689 32.6694 119.438 47.0903C124.836 58.627 121.687 76.7332 119.438 84.3443C126.636 90.1126 123.937 98.7651 121.687 102.37C126.186 104.774 130.685 115.589 129.56 126.405L129.534 126.657C128.417 137.407 127.18 149.313 110.44 158.852C93.5682 168.466 85.695 182.887 89.0692 212.93Z" fill="#F4F8FB"/>
<path d="M72.1978 239.37C74.8972 249.945 88.3193 253.39 94.6929 253.79C78.4963 258.598 69.1984 249.384 66.574 244.177C51.2773 245.138 45.2037 238.168 44.0789 234.563C37.3304 238.168 20.9089 242.013 9.21146 228.554C-2.486 215.094 2.83783 199.712 6.96194 193.703C-3.8357 185.051 2.46292 174.876 6.96194 170.87C5.83718 165.262 5.83718 153.565 14.8352 151.643C23.8333 149.72 27.5825 155.648 28.3323 158.852C19.3343 166.062 15.96 172.072 18.2095 200.914C20.0091 223.987 41.4545 228.955 51.9522 228.554C54.6516 240.091 66.574 240.571 72.1978 239.37Z" fill="#F4F8FB"/>
<path d="M136.309 81.9417C134.509 86.7486 131.06 91.9562 129.56 93.9591C131.81 90.3541 129.56 86.7484 131.81 79.5379C134.059 72.3275 129.56 68.7223 127.311 59.1083C125.062 49.4944 131.81 54.3014 131.81 41.0822C131.81 27.8631 114.939 25.459 112.689 19.4503C110.439 13.4416 118.313 3.82858 127.311 1.4251C136.309 -0.978378 138.558 7.4338 144.182 11.039C149.806 14.6442 159.929 25.459 157.679 36.2756C155.43 47.0921 148.681 39.8808 144.182 47.0903C139.683 54.2999 146.432 60.3103 144.182 63.9156C141.933 67.5208 138.558 65.1173 136.309 69.9243C134.059 74.7312 138.558 75.933 136.309 81.9417Z" fill="#F4F8FB"/>
<path d="M35.0808 63.9156C35.0808 69.6841 38.0802 81.541 39.5799 86.7484L39.5759 86.7419C35.081 79.5377 35.0798 79.5358 31.7066 72.3275C28.3323 65.117 28.3323 59.1083 28.3323 55.5031C28.3323 51.8979 20.459 50.6962 21.5838 41.0822C22.7085 31.4683 35.0808 21.8544 39.5799 27.8631C44.0791 33.8718 38.4551 42.284 35.0808 47.0903C31.7066 51.8966 35.0808 56.7049 35.0808 63.9156Z" fill="#F4F8FB"/>
</g>
<path d="M105.941 216.536C110.44 219.42 120.562 238.568 125.061 247.781C104.816 236.965 96.9425 220.141 96.9425 197.308C96.9425 179.041 108.94 170.469 114.939 168.466C117.563 168.867 122.587 171.831 121.687 180.483C120.787 189.136 113.814 190.498 110.44 190.097C112.239 193.943 109.69 202.916 108.19 206.922C109.99 211.729 107.44 215.334 105.941 216.536Z" stroke="black" stroke-width="1.5"/>
<path d="M89.0692 212.93C91.7686 236.965 115.688 254.991 127.311 261C108.415 261 91.6936 242.574 85.6949 233.361C82.3206 234.563 73.7725 235.524 66.574 229.756C59.3756 223.987 59.0757 213.732 59.8255 209.326C55.3265 212.531 43.4041 215.335 31.7066 200.914C20.0091 186.493 36.5805 165.262 46.3285 156.45C30.132 150.681 35.0809 136.421 39.5799 130.011C28.7823 110.783 42.5793 101.971 50.8275 99.9678C39.5799 90.3538 46.3285 79.5382 42.9542 66.319C39.5799 53.0999 42.9542 29.0642 59.8255 19.4503C73.3226 11.7592 87.9444 20.2515 93.5682 25.459C98.0672 25.459 112.689 32.6694 119.438 47.0903C124.836 58.627 121.687 76.7332 119.438 84.3443C126.636 90.1126 123.937 98.7651 121.687 102.37C126.186 104.774 130.685 115.589 129.56 126.405L129.534 126.657C128.417 137.407 127.18 149.313 110.44 158.852C93.5682 168.466 85.695 182.887 89.0692 212.93Z" stroke="black" stroke-width="1.5"/>
<path d="M72.1978 239.37C74.8972 249.945 88.3193 253.39 94.6929 253.79C78.4963 258.598 69.1984 249.384 66.574 244.177C51.2773 245.138 45.2037 238.168 44.0789 234.563C37.3304 238.168 20.9089 242.013 9.21146 228.554C-2.486 215.094 2.83783 199.712 6.96194 193.703C-3.8357 185.051 2.46292 174.876 6.96194 170.87C5.83718 165.262 5.83718 153.565 14.8352 151.643C23.8333 149.72 27.5825 155.648 28.3323 158.852C19.3343 166.062 15.96 172.072 18.2095 200.914C20.0091 223.987 41.4545 228.955 51.9522 228.554C54.6516 240.091 66.574 240.571 72.1978 239.37Z" stroke="black" stroke-width="1.5"/>
<path d="M136.309 81.9417C134.509 86.7486 131.06 91.9562 129.56 93.9591C131.81 90.3541 129.56 86.7484 131.81 79.5379C134.059 72.3275 129.56 68.7223 127.311 59.1083C125.062 49.4944 131.81 54.3014 131.81 41.0822C131.81 27.8631 114.939 25.459 112.689 19.4503C110.439 13.4416 118.313 3.82858 127.311 1.4251C136.309 -0.978378 138.558 7.4338 144.182 11.039C149.806 14.6442 159.929 25.459 157.679 36.2756C155.43 47.0921 148.681 39.8808 144.182 47.0903C139.683 54.2999 146.432 60.3103 144.182 63.9156C141.933 67.5208 138.558 65.1173 136.309 69.9243C134.059 74.7312 138.558 75.933 136.309 81.9417Z" stroke="black" stroke-width="1.5"/>
<path d="M35.0808 63.9156C35.0808 69.6841 38.0802 81.541 39.5799 86.7484L39.5759 86.7419C35.081 79.5377 35.0798 79.5358 31.7066 72.3275C28.3323 65.117 28.3323 59.1083 28.3323 55.5031C28.3323 51.8979 20.459 50.6962 21.5838 41.0822C22.7085 31.4683 35.0808 21.8544 39.5799 27.8631C44.0791 33.8718 38.4551 42.284 35.0808 47.0903C31.7066 51.8966 35.0808 56.7049 35.0808 63.9156Z" stroke="black" stroke-width="1.5"/>
<defs>
<filter id="filter0_i_3053_14166" x="0.25" y="0.25" width="158.5" height="261.5" filterUnits="userSpaceOnUse" color-interpolation-filters="sRGB">
<feFlood flood-opacity="0" result="BackgroundImageFix"/>
<feBlend mode="normal" in="SourceGraphic" in2="BackgroundImageFix" result="shape"/>
<feColorMatrix in="SourceAlpha" type="matrix" values="0 0 0 0 0 0 0 0 0 0 0 0 0 0 0 0 0 0 127 0" result="hardAlpha"/>
<feOffset dy="-6"/>
<feComposite in2="hardAlpha" operator="arithmetic" k2="-1" k3="1"/>
<feColorMatrix type="matrix" values="0 0 0 0 0.713726 0 0 0 0 0.772549 0 0 0 0 0.792157 0 0 0 1 0"/>
<feBlend mode="normal" in2="shape" result="effect1_innerShadow_3053_14166"/>
</filter>
</defs>
</svg>
