<svg width="302" height="120" viewBox="0 0 302 120" fill="none" xmlns="http://www.w3.org/2000/svg">
<g filter="url(#filter0_i_3053_14180)">
<path d="M180.241 113.662C186.426 114.86 191.253 117.654 192.893 118.901C182.349 115.16 181.647 118.152 173.915 118.901C166.183 119.65 167.588 115.907 160.559 115.907C155.554 115.907 148.691 114.721 144.931 113.933C144.525 113.874 144.111 113.785 143.69 113.662C144.05 113.745 144.467 113.836 144.931 113.933C151.961 114.955 156.649 106.927 161.965 106.927C167.588 106.927 162.668 110.669 167.588 113.662C172.509 116.656 172.509 112.166 180.241 113.662Z" fill="#F4F8FB"/>
<path d="M69.1817 91.2111C66.3701 91.9595 64.9643 87.4694 64.2614 88.2177C64.73 89.4649 66.3701 92.2585 69.1817 93.4558C72.6963 94.9526 76.9137 91.2111 76.9137 93.4558C76.9137 95.7005 69.1817 95.7009 69.8847 100.191C70.5876 104.681 78.4842 100.191 79.0224 104.681C79.5606 109.171 67.073 107.675 69.1817 112.913C71.2905 118.152 78.3195 118.9 86.7544 115.907C95.1892 112.913 89.566 102.436 84.6457 102.436C79.7253 102.436 75.5079 98.6943 78.3195 96.4493C81.1311 94.2042 83.2398 92.7081 80.4282 88.2177C77.6166 83.7273 71.9934 90.4628 69.1817 91.2111Z" fill="#F4F8FB"/>
<path d="M22.79 62.0249C25.6016 63.821 28.1789 63.7711 29.1161 63.5216C21.3843 66.5152 19.2755 66.515 17.8697 63.5216C16.4639 60.5282 19.2755 59.7798 22.79 62.0249Z" fill="#F4F8FB"/>
<path d="M13.6522 61.2764C13.6522 60.2786 13.0899 58.283 10.8406 58.283C8.02894 58.283 12.2464 61.2764 13.6522 61.2764Z" fill="#F4F8FB"/>
<path d="M8.73196 43.3159C5.92034 43.9146 2.40581 42.0686 1 41.0708C1.2343 40.073 2.54639 37.778 5.92034 36.5805C10.1378 35.0837 17.1668 35.084 15.0581 32.0904C12.9494 29.0969 11.5436 20.8658 22.79 19.3691C34.0364 17.8724 32.6307 21.6135 36.1453 22.3618C39.6598 23.1102 43.1743 17.8717 49.5005 20.1168C54.5614 21.9128 56.2952 23.3596 56.5295 23.8585C52.3121 24.6068 52.3121 23.8586 47.3917 23.1103C42.4714 22.3619 42.4714 24.607 37.5511 25.3553C32.6307 26.1037 31.9278 23.1103 27.7104 23.1103C23.493 23.1103 22.0872 24.607 19.9784 26.852C17.8697 29.0971 31.2249 32.0905 24.8988 35.084C18.5726 38.0774 16.4639 37.329 11.5436 38.0774C6.62324 38.8257 12.2465 42.5675 8.73196 43.3159Z" fill="#F4F8FB"/>
<path d="M31.2249 65.7664C32.1621 64.5192 35.7235 61.8752 42.4714 61.2764C39.4255 59.5302 33.6148 54.541 34.7394 48.5542C36.1453 41.0708 40.3627 33.587 49.5005 35.8322C58.6382 38.0774 57.9352 35.8322 64.2614 33.5871C70.5876 31.3421 78.3196 29.097 81.8341 35.8322C84.6457 41.2203 83.0056 46.5586 81.8341 48.5542C83.403 50.4335 85.0048 54.3053 81.1979 56.9217C84.554 55.7181 89.3214 55.1701 93.0806 58.283C94.7207 55.539 99.5473 50.2006 105.733 50.7993C111.918 51.398 116.276 56.0379 117.682 58.283C119.322 59.2808 123.587 60.6778 127.523 58.283C132.443 55.2894 124.008 48.5544 124.008 43.3159C124.008 39.1251 127.289 38.0774 128.929 38.0774C127.992 36.5806 127.242 33.2878 131.74 32.0904C128.226 31.8409 121.197 30.7433 121.197 28.3486H105.733C108.31 26.852 115.011 24.158 121.197 25.3553C122.134 23.6091 125.274 20.1168 130.335 20.1168C132.209 12.6332 140.597 -1.5856 159.154 1.40782C177.71 4.40124 180.944 13.6309 180.241 17.8716C182.115 17.8716 185.864 18.9193 185.864 23.1101C187.504 23.3596 190.644 24.4572 190.081 26.8519H179.538C180.006 28.0992 180.803 30.893 180.241 32.0904C183.287 31.5915 188.816 32.3897 186.567 39.5739C187.973 39.075 191.206 38.8256 192.893 41.819H150.719C144.393 43.0663 131.74 47.0575 131.74 53.0443C131.74 60.5279 133.849 63.5213 128.929 65.018C124.008 66.5147 128.226 62.0246 112.059 65.018C102.921 66.2653 81.8341 68.3108 70.5876 66.5147C67.5703 66.7618 61.426 66.3724 60.7643 62.8733C60.9673 64.1567 60.6736 66.68 57.9353 67.2631C54.4208 68.0115 49.5005 68.0115 47.3917 66.5147L31.2249 65.7664Z" fill="#F4F8FB"/>
<path d="M131.74 88.2177C133.38 87.2199 138.066 85.823 143.69 88.2177C144.393 84.9746 147.626 79.0871 154.936 81.4819C157.279 80.7333 162.246 80.4336 163.371 85.2236C163.965 87.7544 163.539 89.2822 162.798 90.1604C166.637 88.7618 173.505 87.8396 181.647 91.2105C175.789 87.7182 165.48 78.3388 171.103 68.7598C178.132 56.7861 188.676 55.2894 198.516 57.5345C206.389 59.3305 208.826 69.7576 209.06 74.7467C211.637 74.2478 217.073 74.597 218.198 79.9851C219.322 85.3733 215.386 87.7186 213.277 88.2177C214.683 88.9659 217.214 91.0608 216.089 93.4556C218.666 92.9566 223.821 93.1562 223.821 97.9457C225.461 96.9479 230.428 95.8503 237.176 99.4424C242.565 98.4446 254.327 97.347 258.263 100.939L237.176 102.436C235.067 104.431 229.725 107.525 225.227 103.933C220.306 105.928 209.763 109.021 206.951 105.429C204.14 101.837 206.248 98.9435 207.654 97.9457C201.797 99.4424 189.379 101.837 186.567 99.4424C175.555 100.939 153.249 101.538 152.125 91.9588C147.204 91.2109 136.239 89.4156 131.74 88.2177Z" fill="#F4F8FB"/>
<path d="M296.923 82.2302C303.109 84.0263 300.906 87.9676 299.032 89.7138C294.111 91.2098 294.814 90.4621 292.003 88.2177C289.191 85.9733 283.568 89.7138 281.459 84.4753C279.35 79.2368 290.597 74.7467 292.003 71.0049C293.409 67.2631 287.082 62.7085 268.807 66.5147C254.186 69.5598 243.034 69.2802 239.285 68.7598C246.314 68.7598 249.828 66.5147 267.401 63.5213C284.974 60.5279 292.706 62.773 299.032 68.7598C305.358 74.7467 290.597 76.2434 289.191 78.4884C287.785 80.7335 289.191 79.9851 296.923 82.2302Z" fill="#F4F8FB"/>
</g>
<path d="M180.241 113.662C186.426 114.86 191.253 117.654 192.893 118.901C182.349 115.16 181.647 118.152 173.915 118.901C166.183 119.65 167.588 115.907 160.559 115.907C155.554 115.907 148.691 114.721 144.931 113.933C144.525 113.874 144.111 113.785 143.69 113.662C144.05 113.745 144.467 113.836 144.931 113.933C151.961 114.955 156.649 106.927 161.965 106.927C167.588 106.927 162.668 110.669 167.588 113.662C172.509 116.656 172.509 112.166 180.241 113.662Z" stroke="black" stroke-width="1.5"/>
<path d="M69.1817 91.2111C66.3701 91.9595 64.9643 87.4694 64.2614 88.2177C64.73 89.4649 66.3701 92.2585 69.1817 93.4558C72.6963 94.9526 76.9137 91.2111 76.9137 93.4558C76.9137 95.7005 69.1817 95.7009 69.8847 100.191C70.5876 104.681 78.4842 100.191 79.0224 104.681C79.5606 109.171 67.073 107.675 69.1817 112.913C71.2905 118.152 78.3195 118.9 86.7544 115.907C95.1892 112.913 89.566 102.436 84.6457 102.436C79.7253 102.436 75.5079 98.6943 78.3195 96.4493C81.1311 94.2042 83.2398 92.7081 80.4282 88.2177C77.6166 83.7273 71.9934 90.4628 69.1817 91.2111Z" stroke="black" stroke-width="1.5"/>
<path d="M22.79 62.0249C25.6016 63.821 28.1789 63.7711 29.1161 63.5216C21.3843 66.5152 19.2755 66.515 17.8697 63.5216C16.4639 60.5282 19.2755 59.7798 22.79 62.0249Z" stroke="black" stroke-width="1.5"/>
<path d="M13.6522 61.2764C13.6522 60.2786 13.0899 58.283 10.8406 58.283C8.02894 58.283 12.2464 61.2764 13.6522 61.2764Z" stroke="black" stroke-width="1.5"/>
<path d="M8.73196 43.3159C5.92034 43.9146 2.40581 42.0686 1 41.0708C1.2343 40.073 2.54639 37.778 5.92034 36.5805C10.1378 35.0837 17.1668 35.084 15.0581 32.0904C12.9494 29.0969 11.5436 20.8658 22.79 19.3691C34.0364 17.8724 32.6307 21.6135 36.1453 22.3618C39.6598 23.1102 43.1743 17.8717 49.5005 20.1168C54.5614 21.9128 56.2952 23.3596 56.5295 23.8585C52.3121 24.6068 52.3121 23.8586 47.3917 23.1103C42.4714 22.3619 42.4714 24.607 37.5511 25.3553C32.6307 26.1037 31.9278 23.1103 27.7104 23.1103C23.493 23.1103 22.0872 24.607 19.9784 26.852C17.8697 29.0971 31.2249 32.0905 24.8988 35.084C18.5726 38.0774 16.4639 37.329 11.5436 38.0774C6.62324 38.8257 12.2465 42.5675 8.73196 43.3159Z" stroke="black" stroke-width="1.5"/>
<path d="M31.2249 65.7664C32.1621 64.5192 35.7235 61.8752 42.4714 61.2764C39.4255 59.5302 33.6148 54.541 34.7394 48.5542C36.1453 41.0708 40.3627 33.587 49.5005 35.8322C58.6382 38.0774 57.9352 35.8322 64.2614 33.5871C70.5876 31.3421 78.3196 29.097 81.8341 35.8322C84.6457 41.2203 83.0056 46.5586 81.8341 48.5542C83.403 50.4335 85.0048 54.3053 81.1979 56.9217C84.554 55.7181 89.3214 55.1701 93.0806 58.283C94.7207 55.539 99.5473 50.2006 105.733 50.7993C111.918 51.398 116.276 56.0379 117.682 58.283C119.322 59.2808 123.587 60.6778 127.523 58.283C132.443 55.2894 124.008 48.5544 124.008 43.3159C124.008 39.1251 127.289 38.0774 128.929 38.0774C127.992 36.5806 127.242 33.2878 131.74 32.0904C128.226 31.8409 121.197 30.7433 121.197 28.3486H105.733C108.31 26.852 115.011 24.158 121.197 25.3553C122.134 23.6091 125.274 20.1168 130.335 20.1168C132.209 12.6332 140.597 -1.5856 159.154 1.40782C177.71 4.40124 180.944 13.6309 180.241 17.8716C182.115 17.8716 185.864 18.9193 185.864 23.1101C187.504 23.3596 190.644 24.4572 190.081 26.8519H179.538C180.006 28.0992 180.803 30.893 180.241 32.0904C183.287 31.5915 188.816 32.3897 186.567 39.5739C187.973 39.075 191.206 38.8256 192.893 41.819H150.719C144.393 43.0663 131.74 47.0575 131.74 53.0443C131.74 60.5279 133.849 63.5213 128.929 65.018C124.008 66.5147 128.226 62.0246 112.059 65.018C102.921 66.2653 81.8341 68.3108 70.5876 66.5147C67.5703 66.7618 61.426 66.3724 60.7643 62.8733C60.9673 64.1567 60.6736 66.68 57.9353 67.2631C54.4208 68.0115 49.5005 68.0115 47.3917 66.5147L31.2249 65.7664Z" stroke="black" stroke-width="1.5"/>
<path d="M131.74 88.2177C133.38 87.2199 138.066 85.823 143.69 88.2177C144.393 84.9746 147.626 79.0871 154.936 81.4819C157.279 80.7333 162.246 80.4336 163.371 85.2236C163.965 87.7544 163.539 89.2822 162.798 90.1604C166.637 88.7618 173.505 87.8396 181.647 91.2105C175.789 87.7182 165.48 78.3388 171.103 68.7598C178.132 56.7861 188.676 55.2894 198.516 57.5345C206.389 59.3305 208.826 69.7576 209.06 74.7467C211.637 74.2478 217.073 74.597 218.198 79.9851C219.322 85.3733 215.386 87.7186 213.277 88.2177C214.683 88.9659 217.214 91.0608 216.089 93.4556C218.666 92.9566 223.821 93.1562 223.821 97.9457C225.461 96.9479 230.428 95.8503 237.176 99.4424C242.565 98.4446 254.327 97.347 258.263 100.939L237.176 102.436C235.067 104.431 229.725 107.525 225.227 103.933C220.306 105.928 209.763 109.021 206.951 105.429C204.14 101.837 206.248 98.9435 207.654 97.9457C201.797 99.4424 189.379 101.837 186.567 99.4424C175.555 100.939 153.249 101.538 152.125 91.9588C147.204 91.2109 136.239 89.4156 131.74 88.2177Z" stroke="black" stroke-width="1.5"/>
<path d="M296.923 82.2302C303.109 84.0263 300.906 87.9676 299.032 89.7138C294.111 91.2098 294.814 90.4621 292.003 88.2177C289.191 85.9733 283.568 89.7138 281.459 84.4753C279.35 79.2368 290.597 74.7467 292.003 71.0049C293.409 67.2631 287.082 62.7085 268.807 66.5147C254.186 69.5598 243.034 69.2802 239.285 68.7598C246.314 68.7598 249.828 66.5147 267.401 63.5213C284.974 60.5279 292.706 62.773 299.032 68.7598C305.358 74.7467 290.597 76.2434 289.191 78.4884C287.785 80.7335 289.191 79.9851 296.923 82.2302Z" stroke="black" stroke-width="1.5"/>
<defs>
<filter id="filter0_i_3053_14180" x="0.154541" y="0.25" width="301.595" height="119.5" filterUnits="userSpaceOnUse" color-interpolation-filters="sRGB">
<feFlood flood-opacity="0" result="BackgroundImageFix"/>
<feBlend mode="normal" in="SourceGraphic" in2="BackgroundImageFix" result="shape"/>
<feColorMatrix in="SourceAlpha" type="matrix" values="0 0 0 0 0 0 0 0 0 0 0 0 0 0 0 0 0 0 127 0" result="hardAlpha"/>
<feOffset dy="-6"/>
<feComposite in2="hardAlpha" operator="arithmetic" k2="-1" k3="1"/>
<feColorMatrix type="matrix" values="0 0 0 0 0.713726 0 0 0 0 0.772549 0 0 0 0 0.792157 0 0 0 1 0"/>
<feBlend mode="normal" in2="shape" result="effect1_innerShadow_3053_14180"/>
</filter>
</defs>
</svg>
