<svg width="97" height="194" viewBox="0 0 97 194" fill="none" xmlns="http://www.w3.org/2000/svg">
<g filter="url(#filter0_d_3058_16098)">
<g filter="url(#filter1_i_3058_16098)">
<path d="M51.5852 150.047C56.8892 149.945 60.8502 147.624 62.1677 146.477L62.9327 143.544L60.3827 142.524L47.8877 140.484L38.3252 142.524L39.0902 146.477C41.0452 147.709 46.2812 150.149 51.5852 150.047Z" fill="#D9D9D9"/>
</g>
<path d="M51.5852 150.047C56.8892 149.945 60.8502 147.624 62.1677 146.477L62.9327 143.544L60.3827 142.524L47.8877 140.484L38.3252 142.524L39.0902 146.477C41.0452 147.709 46.2812 150.149 51.5852 150.047Z" stroke="black" stroke-width="1.2"/>
<g filter="url(#filter2_i_3058_16098)">
<path d="M79.3798 24.46C77.7223 14.3875 66.2472 1.51 53.3697 1C37.8147 1 28.3798 17.065 26.4673 22.165C24.5548 27.265 23.4073 32.365 22.8973 40.525C22.4893 47.053 21.5798 60.0325 22.1323 65.005C22.8973 75.035 24.9628 97.594 27.1048 107.59C29.7823 120.085 32.2048 130.54 33.9898 132.58L67.3948 133.09C70.2848 125.695 76.3963 108.712 77.7223 99.94C79.0483 91.168 81.3348 72.06 82.3123 63.6025C83.0773 61.5625 81.0373 34.5325 79.3798 24.46Z" fill="#CF2226"/>
</g>
<path d="M79.3798 24.46C77.7223 14.3875 66.2472 1.51 53.3697 1C37.8147 1 28.3798 17.065 26.4673 22.165C24.5548 27.265 23.4073 32.365 22.8973 40.525C22.4893 47.053 21.5798 60.0325 22.1323 65.005C22.8973 75.035 24.9628 97.594 27.1048 107.59C29.7823 120.085 32.2048 130.54 33.9898 132.58L67.3948 133.09C70.2848 125.695 76.3963 108.712 77.7223 99.94C79.0483 91.168 81.3348 72.06 82.3123 63.6025C83.0773 61.5625 81.0373 34.5325 79.3798 24.46Z" stroke="black" stroke-width="1.2"/>
<path d="M30.2926 85.1506L27.8701 51.7456L31.1851 49.5781L33.6076 84.5131L30.2926 85.1506Z" fill="#D9D9D9" stroke="black" stroke-width="1.2"/>
<path d="M67.5223 146.224C67.1143 143.47 64.7173 139.126 63.5698 137.299L69.8173 123.656L68.9248 153.491C68.6273 152.216 67.9303 148.978 67.5223 146.224Z" fill="#73171B" stroke="black" stroke-width="1.2"/>
<path d="M66.7576 154.127L69.0526 153.49L67.6501 144.182L66.1201 138.572L63.9526 136.277L62.9326 139.72C64.5646 141.658 66.1626 150.132 66.7576 154.127Z" fill="#E75643" stroke="black" stroke-width="1.2"/>
<g filter="url(#filter3_ii_3058_16098)">
<path d="M20.8575 133.09C26.2635 129.622 31.61 130.625 33.6075 131.56L28.635 103.766C26.5525 104.616 21.291 106.928 16.905 109.376C12.519 111.824 10.0625 118.131 9.3825 120.978L9 147.243C10.7 143.971 15.4515 136.558 20.8575 133.09Z" fill="#F1462A"/>
</g>
<path d="M20.8575 133.09C26.2635 129.622 31.61 130.625 33.6075 131.56L28.635 103.766C26.5525 104.616 21.291 106.928 16.905 109.376C12.519 111.824 10.0625 118.131 9.3825 120.978L9 147.243C10.7 143.971 15.4515 136.558 20.8575 133.09Z" stroke="black" stroke-width="1.2"/>
<mask id="mask0_3058_16098" style="mask-type:alpha" maskUnits="userSpaceOnUse" x="21" y="1" width="62" height="133">
<path d="M79.3798 24.46C77.7223 14.3875 66.2472 1.51 53.3697 1C37.8147 1 28.3798 17.065 26.4673 22.165C24.5548 27.265 23.4073 32.365 22.8973 40.525C22.4893 47.053 21.5798 60.0325 22.1323 65.005C22.8973 75.035 24.9628 97.594 27.1048 107.59C29.7823 120.085 32.2048 130.54 33.9898 132.58L67.3948 133.09C70.2848 125.695 76.3963 108.712 77.7223 99.94C79.0483 91.168 81.3348 72.06 82.3123 63.6025C83.0773 61.5625 81.0373 34.5325 79.3798 24.46Z" fill="#CF2226"/>
</mask>
<g mask="url(#mask0_3058_16098)">
<g filter="url(#filter4_ii_3058_16098)">
<path d="M57.45 18.1146C40.5946 17.0135 31.1889 21.8732 27.2177 25.7436C25.8695 27.0576 25.0987 28.8105 24.4039 30.5602C22.8158 34.56 21.9062 38.7967 21.7126 43.0959L20.472 70.6563C20.3044 74.3792 20.5065 78.1096 21.0753 81.7926L27.7425 124.959C30.5959 135.923 40.4943 143.574 51.8226 143.574H57.7601C65.906 143.574 73.3272 138.894 76.8371 131.543C77.5103 130.133 78.0251 128.653 78.3721 127.13L87.6756 86.2925C89.1877 79.6554 89.4847 72.7992 88.5524 66.0562L84.48 36.6019C83.9275 30.992 77.748 19.4406 57.45 18.1146Z" fill="#DAD7C6"/>
</g>
<path d="M57.45 18.1146C40.5946 17.0135 31.1889 21.8732 27.2177 25.7436C25.8695 27.0576 25.0987 28.8105 24.4039 30.5602C22.8158 34.56 21.9062 38.7967 21.7126 43.0959L20.472 70.6563C20.3044 74.3792 20.5065 78.1096 21.0753 81.7926L27.7425 124.959C30.5959 135.923 40.4943 143.574 51.8226 143.574H57.7601C65.906 143.574 73.3272 138.894 76.8371 131.543C77.5103 130.133 78.0251 128.653 78.3721 127.13L87.6756 86.2925C89.1877 79.6554 89.4847 72.7992 88.5524 66.0562L84.48 36.6019C83.9275 30.992 77.748 19.4406 57.45 18.1146Z" stroke="black" stroke-width="1.2"/>
</g>
<path d="M56.5205 62.2056C58.3926 68.8285 53.9673 75.9839 46.4739 78.102C38.9805 80.2201 31.4642 76.4402 29.5922 69.8172C27.7201 63.1943 32.1454 56.039 39.6388 53.9209C47.1322 51.8028 54.6485 55.5827 56.5205 62.2056Z" fill="#978E7F" stroke="black" stroke-width="1.2"/>
<path d="M53.7665 62.984C55.2507 68.2349 51.7439 73.9294 45.7714 75.6176C39.7989 77.3058 33.83 74.2897 32.3458 69.0389C30.8615 63.788 34.3683 58.0935 40.3408 56.4053C46.3133 54.7171 52.2823 57.7332 53.7665 62.984Z" fill="#513F31" stroke="black" stroke-width="1.2"/>
<mask id="mask1_3058_16098" style="mask-type:alpha" maskUnits="userSpaceOnUse" x="31" y="55" width="24" height="22">
<path d="M53.7667 62.986C55.2509 68.2368 51.7442 73.9313 45.7716 75.6195C39.7991 77.3077 33.8302 74.2916 32.346 69.0408C30.8618 63.79 34.3686 58.0955 40.3411 56.4073C46.3136 54.7191 52.2825 57.7352 53.7667 62.986Z" fill="#513F31" stroke="black" stroke-width="1.2"/>
</mask>
<g mask="url(#mask1_3058_16098)">
<path d="M54.7867 64.2604C56.2709 69.5112 52.7642 75.2057 46.7917 76.8939C40.8191 78.5821 34.8502 75.5661 33.366 70.3152C31.8818 65.0644 35.3886 59.3699 41.3611 57.6817C47.3336 55.9935 53.3025 59.0096 54.7867 64.2604Z" fill="#286FB4" stroke="black" stroke-width="1.2"/>
<ellipse cx="45.4439" cy="69.5106" rx="10.5422" ry="10.728" transform="rotate(-15.7836 45.4439 69.5106)" fill="#6CC8F2"/>
<mask id="mask2_3058_16098" style="mask-type:alpha" maskUnits="userSpaceOnUse" x="34" y="58" width="23" height="23">
<ellipse cx="45.4442" cy="69.5136" rx="10.5422" ry="10.728" transform="rotate(-15.7836 45.4442 69.5136)" fill="#6CC8F2"/>
</mask>
<g mask="url(#mask2_3058_16098)">
<path d="M44.8281 57.7412L34.8831 73.8062L35.9031 76.8662L46.9956 57.7412H44.8281Z" fill="white" fill-opacity="0.6"/>
<path d="M49.0356 58.1237L37.6881 76.8662L38.5806 77.7587L50.1831 58.7612L49.0356 58.1237Z" fill="white" fill-opacity="0.6"/>
</g>
</g>
<path d="M67.3051 132.326C67.3051 132.612 67.0726 133.043 66.2472 133.552C65.4549 134.042 64.2686 134.504 62.7494 134.901C59.72 135.692 55.5021 136.188 50.8201 136.188C46.1381 136.188 41.9202 135.692 38.8908 134.901C37.3716 134.504 36.1853 134.042 35.393 133.552C34.5676 133.043 34.3351 132.612 34.3351 132.326C34.3351 132.04 34.5676 131.609 35.393 131.099C36.1853 130.61 37.3716 130.148 38.8908 129.751C41.9202 128.96 46.1381 128.463 50.8201 128.463C55.5021 128.463 59.72 128.96 62.7494 129.751C64.2686 130.148 65.4549 130.61 66.2472 131.099C67.0726 131.609 67.3051 132.04 67.3051 132.326Z" fill="#DDDACB" stroke="black" stroke-width="1.2"/>
<g filter="url(#filter5_iii_3058_16098)">
<path d="M65.61 134.748C64.4625 131.815 57.8325 131.433 51.075 131.05C41.385 130.54 36.7525 133.303 35.6475 134.748L38.9625 145.713C39.8975 144.863 43.629 143.163 51.075 143.163C58.521 143.163 61.6575 145.373 62.295 146.478L65.61 134.748Z" fill="#BFB3A2"/>
</g>
<path d="M65.61 134.748C64.4625 131.815 57.8325 131.433 51.075 131.05C41.385 130.54 36.7525 133.303 35.6475 134.748L38.9625 145.713C39.8975 144.863 43.629 143.163 51.075 143.163C58.521 143.163 61.6575 145.373 62.295 146.478L65.61 134.748Z" stroke="black" stroke-width="1.2"/>
<path d="M79.5075 61.944C81.1395 61.536 82.5675 62.114 83.0775 62.454L81.8024 87.9542C81.3349 88.1242 80.2214 88.2347 79.5075 87.3167C78.615 86.1692 76.7025 81.0692 76.065 78.1367C75.4275 75.2042 75.1725 71.7617 75.555 68.5742C75.9375 65.3867 77.4675 62.454 79.5075 61.944Z" fill="#786A61" stroke="black" stroke-width="1.2"/>
<path d="M84.3523 65.0042C84.2248 63.6017 83.5873 62.7092 82.9498 62.4542C82.3123 62.2842 80.6038 62.3012 78.8698 63.7292C76.7023 65.5142 76.1923 70.2317 77.0848 75.4592C77.9773 80.6867 81.4198 88.0817 81.8023 87.9542C82.1083 87.8522 82.5673 79.1996 82.6948 74.9496C82.9498 71.7621 84.4543 66.1262 84.3523 65.0042Z" fill="#555340" stroke="black" stroke-width="1.2"/>
<path d="M80.3537 83.8437L81.2017 85.9398L81.5045 83.6991L82.142 78.9816L82.1438 78.9686L82.1449 78.9555L82.6516 73.3825C82.704 73.1418 82.762 72.8816 82.8232 72.6065C83.1297 71.2291 83.519 69.4794 83.7201 67.9508C83.8412 67.0302 83.9014 66.1414 83.8187 65.4396C83.7775 65.0898 83.6962 64.7425 83.5376 64.4519C83.3773 64.1581 83.123 63.8999 82.7514 63.7945C81.5499 63.3522 80.5095 64.1068 79.8093 64.9571C79.076 65.8475 78.5035 67.0717 78.1697 68.1398C77.8222 69.2519 77.696 70.8903 77.7121 72.5004C77.7284 74.1219 77.89 75.7914 78.1567 76.9914C78.4772 78.4335 79.5198 81.7824 80.3537 83.8437Z" fill="#347AC1" stroke="black" stroke-width="1.2"/>
<mask id="mask3_3058_16098" style="mask-type:alpha" maskUnits="userSpaceOnUse" x="78" y="64" width="6" height="20">
<path d="M82.0572 73.2922C82.6947 70.3597 84.0972 64.7498 82.5672 64.3673C80.9097 63.7298 79.3797 66.2798 78.7422 68.3198C78.1047 70.3598 78.2322 74.5673 78.7422 76.8623C79.0544 78.2674 80.0863 81.5845 80.9097 83.6197L81.5472 78.9022L82.0572 73.2922Z" fill="#356CA4"/>
</mask>
<g mask="url(#mask3_3058_16098)">
<path d="M78.1045 76.2255C79.5325 74.1855 82.0995 71.3373 83.077 71.5073L81.4195 85.7875C79.6345 83.1951 76.6765 78.2655 78.1045 76.2255Z" fill="#5D95C6"/>
<path d="M78.2322 77.7549C79.4274 75.657 81.9299 75.0777 82.8222 75.2055L82.0408 88.5409C80.3033 86.0292 77.037 79.8528 78.2322 77.7549Z" fill="white" fill-opacity="0.49"/>
</g>
<path d="M35.9025 11.7112C38.4525 8.14117 43.8075 6.22867 44.19 6.73867C44.5725 7.24843 43.5524 7.75891 42.6599 8.39641C41.7674 9.03391 39.5999 11.7112 36.9224 14.3889C34.2449 17.0666 33.0974 24.7164 31.9499 28.4139C31.0319 31.3719 31.0574 36.3614 31.1849 38.4864L27.87 39.6339C27.615 38.3589 27.411 34.3299 28.635 28.4139C30.165 21.0189 33.3525 15.2812 35.9025 11.7112Z" fill="white" fill-opacity="0.49"/>
<path d="M30.2927 101.816C32.6387 96.7159 36.4552 96.0359 38.0702 96.3334L31.8227 108.701L30.9302 135.858L27.9977 136.368C27.7852 126.976 27.9467 106.916 30.2927 101.816Z" fill="#C8332C" stroke="black" stroke-width="1.2"/>
<path d="M44.1898 125.659L41.5123 97.0993C41.1723 96.5893 39.7273 95.7733 36.6673 96.5893C32.8423 97.6093 31.4398 104.112 30.8023 106.917C30.2923 109.161 30.5898 127.232 30.8023 135.987C33.3523 123.619 36.6673 123.619 38.7073 123.492C40.3393 123.39 43.0423 124.894 44.1898 125.659Z" fill="#A61E20" stroke="black" stroke-width="1.2"/>
<g filter="url(#filter6_i_3058_16098)">
<path d="M84.2248 134.238C79.3288 130.77 71.2198 129.053 67.7773 128.628C68.9673 125.525 71.6788 118.352 73.0048 114.476C74.3308 110.6 75.2573 104.36 75.5548 101.725C77.4673 101.598 82.5673 104.785 86.7748 107.08C90.1408 108.916 94.3823 114.475 96.0823 117.025L95.3173 145.203C93.6598 142.993 89.1208 137.706 84.2248 134.238Z" fill="#A61E22"/>
</g>
<path d="M84.2248 134.238C79.3288 130.77 71.2198 129.053 67.7773 128.628C68.9673 125.525 71.6788 118.352 73.0048 114.476C74.3308 110.6 75.2573 104.36 75.5548 101.725C77.4673 101.598 82.5673 104.785 86.7748 107.08C90.1408 108.916 94.3823 114.475 96.0823 117.025L95.3173 145.203C93.6598 142.993 89.1208 137.706 84.2248 134.238Z" stroke="black" stroke-width="1.2"/>
<path d="M22.4882 90.7462L22.4027 90.9173L22.432 91.1064L24.2262 102.679L24.2265 102.68C24.2401 102.888 24.273 103.087 24.3219 103.277L25.4958 103.035L25.4214 102.555C25.4054 102.185 25.4837 101.741 25.7337 101.218C26.0054 100.65 26.6505 100.033 27.7533 99.4197C28.8428 98.8134 30.3118 98.2471 32.126 97.7444C35.7523 96.7398 40.6787 96.0108 46.5175 95.6935C58.1436 95.0616 67.6259 97.7163 71.7952 99.106C75.0164 100.18 77.2919 102.493 78.0005 103.477L78.8157 104.61L79.0768 103.239L81.1168 92.5291L81.1408 92.4032L81.1113 92.2786C80.4688 89.5661 77.9683 87.8041 75.3579 86.6118C73.0874 85.5746 70.5761 84.8997 68.7591 84.4113C68.4656 84.3325 68.1903 84.2585 67.937 84.1886C64.1773 83.1514 53.9194 81.7437 46.4746 81.8721C39.0039 82.0009 32.9385 83.5464 28.7916 85.2311C26.7085 86.0773 25.3888 86.911 24.4534 87.8291C23.5163 88.7488 23.0015 89.7197 22.4882 90.7462Z" fill="#C1B6A5" stroke="black" stroke-width="1.2"/>
<mask id="mask4_3058_16098" style="mask-type:alpha" maskUnits="userSpaceOnUse" x="23" y="82" width="58" height="22">
<path d="M23.0249 91.0155C24.0449 88.9755 24.9374 87.4455 29.0174 85.788C33.0974 84.1305 39.0899 82.6005 46.4849 82.473C53.8799 82.3455 64.0799 83.748 67.7774 84.768C71.4749 85.788 79.3799 87.5728 80.5274 92.4178L78.4874 103.128C77.7224 102.065 75.3509 99.6598 71.9849 98.5378C67.7774 97.1353 58.2149 94.4578 46.4849 95.0953C34.7549 95.7328 26.5949 98.0278 25.1924 100.96C24.8981 101.576 24.7962 102.128 24.8237 102.617L24.9029 103.128C24.8612 102.966 24.8337 102.796 24.8237 102.617L23.0249 91.0155Z" fill="#958B7D"/>
</mask>
<g mask="url(#mask4_3058_16098)">
<path d="M27.8699 85.8068L44.7302 78.3936L64.0799 80.7523V97.2636H44.7302L27.8699 100.961V85.8068Z" fill="#968D7E"/>
<rect x="64.0801" y="82.4727" width="10.2" height="16.575" fill="#6C6256"/>
<rect x="74.2798" y="82.4727" width="10.455" height="25.245" fill="#594441"/>
</g>
<path d="M63.6077 157.443C63.6077 159.978 62.8097 163.004 61.5771 166.151C60.3482 169.288 58.7056 172.5 57.0564 175.394C55.4081 178.286 53.7589 180.851 52.5215 182.694C51.903 183.614 51.3878 184.354 51.0277 184.863C50.9918 184.914 50.9574 184.962 50.9246 185.008C50.8959 184.971 50.8661 184.933 50.8352 184.893C50.4654 184.418 49.9361 183.724 49.3006 182.854C48.029 181.113 46.3342 178.669 44.6403 175.859C41.2323 170.206 37.9052 163.191 37.9052 157.443C37.9052 154.658 39.5228 152.075 42.0097 150.165C44.4939 148.257 47.7773 147.078 50.9477 147.078C54.1159 147.078 57.3001 148.255 59.6857 150.158C62.0723 152.062 63.6077 154.645 63.6077 157.443Z" fill="#F15024" stroke="black" stroke-width="1.2"/>
<path d="M61.1473 155.037C61.1473 163.298 50.841 177.333 50.841 177.333C50.841 177.333 40.2373 164.294 40.2373 155.037C40.2373 150.31 45.6962 146.478 50.841 146.478C55.9857 146.478 61.1473 150.31 61.1473 155.037Z" fill="#F57921"/>
<path d="M57.5776 152.208C57.5776 157.738 50.7905 167.133 50.7905 167.133C50.7905 167.133 43.8076 158.404 43.8076 152.208C43.8076 149.043 47.4025 146.478 50.7905 146.478C54.1785 146.478 57.5776 149.043 57.5776 152.208Z" fill="#FAA21C"/>
<path d="M53.002 35.2076L53.0164 35.2083C63.6234 35.7195 71.1456 36.9992 77.9095 41.1616C81.2518 43.2184 83.0652 44.8702 84.0466 46.4197C85.0446 47.9955 85.1425 49.408 85.2069 50.8254C85.2925 52.708 84.9231 56.9693 84.6264 59.8769L53.002 35.2076ZM53.002 35.2076H52.9875C49.9122 35.2076 42.3395 35.5138 36.6671 36.7514C29.5404 38.3063 23.0865 42.4384 21.5175 43.6151C19.76 44.9333 19.4925 46.961 19.4925 48.0476C19.4925 48.8745 19.663 55.2969 19.7477 58.3915L20.9397 58.4718C21.1507 57.1793 22.3309 55.828 24.4206 54.5232C26.4798 53.2374 29.2888 52.0806 32.4883 51.1247C38.8864 49.2132 46.7251 48.1401 52.9633 48.3921C65.5056 48.8989 73.1974 51.4292 79.1071 54.447C82.3604 56.1082 83.2958 58.3068 83.4219 59.8595C83.3584 60.4787 83.2981 61.0361 83.2463 61.4953L84.4117 61.7524C84.5761 61.2593 84.6715 60.6104 84.6262 59.8782L53.002 35.2076Z" fill="#C1B6A5" stroke="black" stroke-width="1.2"/>
<mask id="mask5_3058_16098" style="mask-type:alpha" maskUnits="userSpaceOnUse" x="20" y="35" width="65" height="27">
<path d="M52.9875 35.8076C63.57 36.3176 70.965 37.5926 77.595 41.6726C84.225 45.7526 84.48 48.0476 84.6075 50.8526C84.6911 52.6925 84.3234 56.9435 84.0242 59.8675C84.0724 60.5494 83.9839 61.1383 83.8425 61.5626C83.8961 61.088 83.9585 60.5098 84.0242 59.8675C83.8986 58.0902 82.8446 55.6818 79.38 53.9126C73.3875 50.8526 65.61 48.3026 52.9875 47.7926C40.365 47.2826 21.3675 52.1276 20.3475 58.3751C20.2625 55.2726 20.0925 48.8636 20.0925 48.0476C20.0925 47.0276 20.3475 45.2426 21.8775 44.0951C23.4075 42.9476 29.7825 38.8676 36.795 37.3376C42.405 36.1136 49.9275 35.8076 52.9875 35.8076Z" fill="#978D81"/>
</mask>
<g mask="url(#mask5_3058_16098)">
<path d="M25.3198 39.6318L44.3173 31.2168L66.1198 33.8943V52.6368L44.3173 49.9593L25.3198 55.1868V39.6318Z" fill="#968D7E"/>
<rect x="66.1199" y="35.8076" width="11.73" height="18.87" fill="#6C6256"/>
<rect x="77.8499" y="35.8076" width="11.73" height="28.56" fill="#594441"/>
</g>
</g>
<defs>
<filter id="filter0_d_3058_16098" x="0.400146" y="0.400391" width="96.2871" height="193.603" filterUnits="userSpaceOnUse" color-interpolation-filters="sRGB">
<feFlood flood-opacity="0" result="BackgroundImageFix"/>
<feColorMatrix in="SourceAlpha" type="matrix" values="0 0 0 0 0 0 0 0 0 0 0 0 0 0 0 0 0 0 127 0" result="hardAlpha"/>
<feOffset dx="-4" dy="4"/>
<feGaussianBlur stdDeviation="2"/>
<feComposite in2="hardAlpha" operator="out"/>
<feColorMatrix type="matrix" values="0 0 0 0 0 0 0 0 0 0 0 0 0 0 0 0 0 0 0.1 0"/>
<feBlend mode="normal" in2="BackgroundImageFix" result="effect1_dropShadow_3058_16098"/>
<feBlend mode="normal" in="SourceGraphic" in2="effect1_dropShadow_3058_16098" result="shape"/>
</filter>
<filter id="filter1_i_3058_16098" x="37.6243" y="139.874" width="26.0225" height="10.7764" filterUnits="userSpaceOnUse" color-interpolation-filters="sRGB">
<feFlood flood-opacity="0" result="BackgroundImageFix"/>
<feBlend mode="normal" in="SourceGraphic" in2="BackgroundImageFix" result="shape"/>
<feColorMatrix in="SourceAlpha" type="matrix" values="0 0 0 0 0 0 0 0 0 0 0 0 0 0 0 0 0 0 127 0" result="hardAlpha"/>
<feOffset dx="2.04" dy="-3.315"/>
<feComposite in2="hardAlpha" operator="arithmetic" k2="-1" k3="1"/>
<feColorMatrix type="matrix" values="0 0 0 0 0 0 0 0 0 0 0 0 0 0 0 0 0 0 0.25 0"/>
<feBlend mode="normal" in2="shape" result="effect1_innerShadow_3058_16098"/>
</filter>
<filter id="filter2_i_3058_16098" x="21.3591" y="0.400391" width="61.7188" height="133.296" filterUnits="userSpaceOnUse" color-interpolation-filters="sRGB">
<feFlood flood-opacity="0" result="BackgroundImageFix"/>
<feBlend mode="normal" in="SourceGraphic" in2="BackgroundImageFix" result="shape"/>
<feColorMatrix in="SourceAlpha" type="matrix" values="0 0 0 0 0 0 0 0 0 0 0 0 0 0 0 0 0 0 127 0" result="hardAlpha"/>
<feOffset dx="-13.005" dy="-8.415"/>
<feComposite in2="hardAlpha" operator="arithmetic" k2="-1" k3="1"/>
<feColorMatrix type="matrix" values="0 0 0 0 0 0 0 0 0 0 0 0 0 0 0 0 0 0 0.25 0"/>
<feBlend mode="normal" in2="shape" result="effect1_innerShadow_3058_16098"/>
</filter>
<filter id="filter3_ii_3058_16098" x="8.40015" y="102.93" width="26.002" height="44.5898" filterUnits="userSpaceOnUse" color-interpolation-filters="sRGB">
<feFlood flood-opacity="0" result="BackgroundImageFix"/>
<feBlend mode="normal" in="SourceGraphic" in2="BackgroundImageFix" result="shape"/>
<feColorMatrix in="SourceAlpha" type="matrix" values="0 0 0 0 0 0 0 0 0 0 0 0 0 0 0 0 0 0 127 0" result="hardAlpha"/>
<feOffset dx="2.295" dy="4.335"/>
<feComposite in2="hardAlpha" operator="arithmetic" k2="-1" k3="1"/>
<feColorMatrix type="matrix" values="0 0 0 0 0 0 0 0 0 0 0 0 0 0 0 0 0 0 0.1 0"/>
<feBlend mode="normal" in2="shape" result="effect1_innerShadow_3058_16098"/>
<feColorMatrix in="SourceAlpha" type="matrix" values="0 0 0 0 0 0 0 0 0 0 0 0 0 0 0 0 0 0 127 0" result="hardAlpha"/>
<feOffset dx="6.375" dy="10.2"/>
<feComposite in2="hardAlpha" operator="arithmetic" k2="-1" k3="1"/>
<feColorMatrix type="matrix" values="0 0 0 0 0 0 0 0 0 0 0 0 0 0 0 0 0 0 0.15 0"/>
<feBlend mode="normal" in2="effect1_innerShadow_3058_16098" result="effect2_innerShadow_3058_16098"/>
</filter>
<filter id="filter4_ii_3058_16098" x="19.8149" y="17.3564" width="69.8687" height="126.818" filterUnits="userSpaceOnUse" color-interpolation-filters="sRGB">
<feFlood flood-opacity="0" result="BackgroundImageFix"/>
<feBlend mode="normal" in="SourceGraphic" in2="BackgroundImageFix" result="shape"/>
<feColorMatrix in="SourceAlpha" type="matrix" values="0 0 0 0 0 0 0 0 0 0 0 0 0 0 0 0 0 0 127 0" result="hardAlpha"/>
<feOffset dx="-10.2" dy="-7.14"/>
<feComposite in2="hardAlpha" operator="arithmetic" k2="-1" k3="1"/>
<feColorMatrix type="matrix" values="0 0 0 0 0.34902 0 0 0 0 0.266667 0 0 0 0 0.254902 0 0 0 0.47 0"/>
<feBlend mode="normal" in2="shape" result="effect1_innerShadow_3058_16098"/>
<feColorMatrix in="SourceAlpha" type="matrix" values="0 0 0 0 0 0 0 0 0 0 0 0 0 0 0 0 0 0 127 0" result="hardAlpha"/>
<feOffset dx="-20.91" dy="-9.18"/>
<feComposite in2="hardAlpha" operator="arithmetic" k2="-1" k3="1"/>
<feColorMatrix type="matrix" values="0 0 0 0 0.34902 0 0 0 0 0.266667 0 0 0 0 0.254902 0 0 0 0.29 0"/>
<feBlend mode="normal" in2="effect1_innerShadow_3058_16098" result="effect2_innerShadow_3058_16098"/>
</filter>
<filter id="filter5_iii_3058_16098" x="34.9841" y="130.389" width="31.2581" height="17.6201" filterUnits="userSpaceOnUse" color-interpolation-filters="sRGB">
<feFlood flood-opacity="0" result="BackgroundImageFix"/>
<feBlend mode="normal" in="SourceGraphic" in2="BackgroundImageFix" result="shape"/>
<feColorMatrix in="SourceAlpha" type="matrix" values="0 0 0 0 0 0 0 0 0 0 0 0 0 0 0 0 0 0 127 0" result="hardAlpha"/>
<feOffset dy="3.06"/>
<feComposite in2="hardAlpha" operator="arithmetic" k2="-1" k3="1"/>
<feColorMatrix type="matrix" values="0 0 0 0 0 0 0 0 0 0 0 0 0 0 0 0 0 0 0.15 0"/>
<feBlend mode="normal" in2="shape" result="effect1_innerShadow_3058_16098"/>
<feColorMatrix in="SourceAlpha" type="matrix" values="0 0 0 0 0 0 0 0 0 0 0 0 0 0 0 0 0 0 127 0" result="hardAlpha"/>
<feOffset dy="7.14"/>
<feComposite in2="hardAlpha" operator="arithmetic" k2="-1" k3="1"/>
<feColorMatrix type="matrix" values="0 0 0 0 0 0 0 0 0 0 0 0 0 0 0 0 0 0 0.15 0"/>
<feBlend mode="normal" in2="effect1_innerShadow_3058_16098" result="effect2_innerShadow_3058_16098"/>
<feColorMatrix in="SourceAlpha" type="matrix" values="0 0 0 0 0 0 0 0 0 0 0 0 0 0 0 0 0 0 127 0" result="hardAlpha"/>
<feOffset dy="10.2"/>
<feComposite in2="hardAlpha" operator="arithmetic" k2="-1" k3="1"/>
<feColorMatrix type="matrix" values="0 0 0 0 0 0 0 0 0 0 0 0 0 0 0 0 0 0 0.15 0"/>
<feBlend mode="normal" in2="effect2_innerShadow_3058_16098" result="effect3_innerShadow_3058_16098"/>
</filter>
<filter id="filter6_i_3058_16098" x="66.9424" y="101.122" width="29.7449" height="45.8184" filterUnits="userSpaceOnUse" color-interpolation-filters="sRGB">
<feFlood flood-opacity="0" result="BackgroundImageFix"/>
<feBlend mode="normal" in="SourceGraphic" in2="BackgroundImageFix" result="shape"/>
<feColorMatrix in="SourceAlpha" type="matrix" values="0 0 0 0 0 0 0 0 0 0 0 0 0 0 0 0 0 0 127 0" result="hardAlpha"/>
<feOffset dx="-3.825" dy="6.885"/>
<feComposite in2="hardAlpha" operator="arithmetic" k2="-1" k3="1"/>
<feColorMatrix type="matrix" values="0 0 0 0 0 0 0 0 0 0 0 0 0 0 0 0 0 0 0.09 0"/>
<feBlend mode="normal" in2="shape" result="effect1_innerShadow_3058_16098"/>
</filter>
</defs>
</svg>
