<svg width="78" height="169" viewBox="0 0 78 169" fill="none" xmlns="http://www.w3.org/2000/svg">
<g filter="url(#filter0_d_3058_16244)">
<g filter="url(#filter1_ii_3058_16244)">
<path d="M9.02856 93C9.42856 84.2 15.5286 77.6667 18.5286 75.5L23.5286 95.5C15.1286 97.9 14.0286 107.5 14.5286 112C12.5286 109.333 8.62856 101.8 9.02856 93Z" fill="#A52A21"/>
</g>
<path d="M9.02856 93C9.42856 84.2 15.5286 77.6667 18.5286 75.5L23.5286 95.5C15.1286 97.9 14.0286 107.5 14.5286 112C12.5286 109.333 8.62856 101.8 9.02856 93Z" stroke="black"/>
<g filter="url(#filter2_ii_3058_16244)">
<path d="M77.0286 93C76.6286 84.2 70.5286 77.6667 67.5286 75.5L62.5286 95.5C70.9286 97.9 72.0286 107.5 71.5286 112C73.5286 109.333 77.4286 101.8 77.0286 93Z" fill="#A52A21"/>
</g>
<path d="M77.0286 93C76.6286 84.2 70.5286 77.6667 67.5286 75.5L62.5286 95.5C70.9286 97.9 72.0286 107.5 71.5286 112C73.5286 109.333 77.4286 101.8 77.0286 93Z" stroke="black"/>
<path d="M64.5285 115C58.5285 102.5 49.0285 101.5 42.5285 101C36.0285 101.5 26.5286 102.5 20.5286 115C15.7286 125 17.8619 133.167 19.5286 136C20.8619 135.333 23.8286 133.6 25.0286 132C24.0286 134.5 22.6286 140.3 25.0286 143.5C28.0286 147.5 42.5285 156 42.5285 161C42.5285 156 57.0285 147.5 60.0285 143.5C62.4285 140.3 61.0285 134.5 60.0285 132C61.2285 133.6 64.1951 135.333 65.5285 136C67.1951 133.167 69.3285 125 64.5285 115Z" fill="#E0AF6D" stroke="black"/>
<path d="M60.1688 113.467C55.3578 103.675 47.7404 102.892 42.5286 102.5C37.3167 102.892 29.6994 103.675 24.8884 113.467C21.0397 121.3 22.7502 127.697 24.0866 129.917C25.1557 129.394 27.5345 128.037 28.4967 126.783C27.6948 128.742 26.5723 133.285 28.4967 135.792C30.9021 138.925 42.5286 145.583 42.5286 149.5C42.5286 145.583 54.155 138.925 56.5605 135.792C58.4849 133.285 57.3624 128.742 56.5605 126.783C57.5227 128.037 59.9015 129.394 60.9706 129.917C62.307 127.697 64.0175 121.3 60.1688 113.467Z" fill="#FBE4BA"/>
<path d="M52.2307 108.567C49.5846 103.15 45.3951 102.717 42.5286 102.5C39.662 102.717 35.4725 103.15 32.8265 108.567C30.7097 112.9 31.6505 116.439 32.3855 117.667C32.9735 117.378 34.2818 116.627 34.811 115.933C34.37 117.017 33.7526 119.53 34.811 120.917C36.134 122.65 42.5286 126.333 42.5286 128.5C42.5286 126.333 48.9231 122.65 50.2461 120.917C51.3046 119.53 50.6872 117.017 50.2461 115.933C50.7754 116.627 52.0837 117.378 52.6717 117.667C53.4067 116.439 54.3475 112.9 52.2307 108.567Z" fill="#F2BF66"/>
<path d="M56.0286 101.5C56.0286 102.166 55.7271 102.838 55.1055 103.491C54.4814 104.147 53.5548 104.76 52.3714 105.286C50.0061 106.337 46.7033 107 43.0286 107C39.3539 107 36.0511 106.337 33.6857 105.286C32.5024 104.76 31.5757 104.147 30.9517 103.491C30.3301 102.838 30.0286 102.166 30.0286 101.5C30.0286 100.834 30.3301 100.162 30.9517 99.5092C31.5757 98.8535 32.5024 98.2402 33.6857 97.7143C36.0511 96.663 39.3539 96 43.0286 96C46.7033 96 50.0061 96.663 52.3714 97.7143C53.5548 98.2402 54.4814 98.8535 55.1055 99.5092C55.7271 100.162 56.0286 100.834 56.0286 101.5Z" fill="#AB2828" stroke="black"/>
<g filter="url(#filter3_ii_3058_16244)">
<path d="M62.0288 26.4995C54.8288 8.09946 45.6954 1.83333 42.5287 1C39.362 1.83333 31.2287 8.1 24.0287 26.5C15.0287 49.5 18.0287 74.5 19.0287 81.5C20.0287 88.5 21.5287 97.5 28.0287 100C34.5273 102.499 39.5266 102.499 43.0265 102.499H43.0288C46.5288 102.499 51.5288 102.499 58.0288 99.9995C64.5288 97.4995 66.0288 88.4995 67.0288 81.4995C68.0288 74.4995 71.0288 49.4995 62.0288 26.4995Z" fill="#A52526"/>
</g>
<path d="M62.0288 26.4995C54.8288 8.09946 45.6954 1.83333 42.5287 1C39.362 1.83333 31.2287 8.1 24.0287 26.5C15.0287 49.5 18.0287 74.5 19.0287 81.5C20.0287 88.5 21.5287 97.5 28.0287 100C34.5273 102.499 39.5266 102.499 43.0265 102.499H43.0288C46.5288 102.499 51.5288 102.499 58.0288 99.9995C64.5288 97.4995 66.0288 88.4995 67.0288 81.4995C68.0288 74.4995 71.0288 49.4995 62.0288 26.4995Z" stroke="black"/>
<g filter="url(#filter4_ii_3058_16244)">
<path d="M64.0286 27.5C59.5286 24 50.5286 23.5 43.0286 23C33.8286 23 25.5286 26 22.5286 27.5C15.7286 39.9 15.6952 64 16.5286 74.5C20.5286 76.6667 31.4286 81 43.0286 81C54.6286 81 65.1953 76.6667 69.0286 74.5C73.0286 56.1 67.3619 35.5 64.0286 27.5Z" fill="#FFF1E8"/>
</g>
<path d="M64.0286 27.5C59.5286 24 50.5286 23.5 43.0286 23C33.8286 23 25.5286 26 22.5286 27.5C15.7286 39.9 15.6952 64 16.5286 74.5C20.5286 76.6667 31.4286 81 43.0286 81C54.6286 81 65.1953 76.6667 69.0286 74.5C73.0286 56.1 67.3619 35.5 64.0286 27.5Z" stroke="black"/>
<circle cx="42.5286" cy="43.5" r="13.5" fill="#BD2929" stroke="black"/>
<path d="M42.5286 56.5C44.2357 56.5 45.9262 56.1637 47.5034 55.5104C49.0807 54.8571 50.5138 53.8995 51.721 52.6924C52.9281 51.4852 53.8857 50.0521 54.539 48.4749C55.1923 46.8977 55.5286 45.2072 55.5286 43.5C55.5286 41.7928 55.1923 40.1023 54.539 38.5251C53.8857 36.9479 52.9281 35.5148 51.721 34.3076C50.5138 33.1004 49.0807 32.1429 47.5034 31.4896C45.9262 30.8363 44.2357 30.5 42.5286 30.5L42.5286 43.5L42.5286 56.5Z" fill="#531518"/>
<g filter="url(#filter5_i_3058_16244)">
<circle cx="42.5286" cy="43.5" r="10" fill="#476A88"/>
</g>
<circle cx="42.5286" cy="43.5" r="9.5" stroke="black"/>
<circle cx="43.0286" cy="68" r="7" fill="#BD2929" stroke="black"/>
<path d="M43.0286 74.5C43.8822 74.5 44.7274 74.3319 45.516 74.0052C46.3046 73.6786 47.0212 73.1998 47.6248 72.5962C48.2283 71.9926 48.7071 71.2761 49.0338 70.4874C49.3604 69.6988 49.5286 68.8536 49.5286 68C49.5286 67.1464 49.3604 66.3012 49.0338 65.5126C48.7071 64.7239 48.2283 64.0074 47.6248 63.4038C47.0212 62.8002 46.3046 62.3214 45.516 61.9948C44.7274 61.6681 43.8822 61.5 43.0286 61.5L43.0286 68L43.0286 74.5Z" fill="#531518"/>
<g filter="url(#filter6_i_3058_16244)">
<circle cx="43.0286" cy="68" r="4.5" fill="#406B98"/>
</g>
<circle cx="43.0286" cy="68" r="4" stroke="black"/>
<path d="M45.0286 93.5C45.0286 94.3089 44.694 102.168 44.1511 109.836C43.8798 113.668 43.5574 117.439 43.2003 120.248C43.0214 121.656 42.8357 122.806 42.6468 123.599C42.6063 123.768 42.5668 123.917 42.5286 124.045C42.4903 123.917 42.4508 123.768 42.4103 123.599C42.2215 122.806 42.0357 121.656 41.8568 120.248C41.4997 117.439 41.1773 113.668 40.906 109.836C40.3631 102.168 40.0286 94.3089 40.0286 93.5C40.0286 92.1193 41.1479 91 42.5286 91C43.9093 91 45.0286 92.1193 45.0286 93.5Z" fill="#9C2624" stroke="black"/>
</g>
<defs>
<filter id="filter0_d_3058_16244" x="0.5" y="0.483398" width="77.0571" height="168.517" filterUnits="userSpaceOnUse" color-interpolation-filters="sRGB">
<feFlood flood-opacity="0" result="BackgroundImageFix"/>
<feColorMatrix in="SourceAlpha" type="matrix" values="0 0 0 0 0 0 0 0 0 0 0 0 0 0 0 0 0 0 127 0" result="hardAlpha"/>
<feOffset dx="-4" dy="4"/>
<feGaussianBlur stdDeviation="2"/>
<feComposite in2="hardAlpha" operator="out"/>
<feColorMatrix type="matrix" values="0 0 0 0 0 0 0 0 0 0 0 0 0 0 0 0 0 0 0.1 0"/>
<feBlend mode="normal" in2="BackgroundImageFix" result="effect1_dropShadow_3058_16244"/>
<feBlend mode="normal" in="SourceGraphic" in2="effect1_dropShadow_3058_16244" result="shape"/>
</filter>
<filter id="filter1_ii_3058_16244" x="8.5" y="74.6621" width="15.6309" height="39.1035" filterUnits="userSpaceOnUse" color-interpolation-filters="sRGB">
<feFlood flood-opacity="0" result="BackgroundImageFix"/>
<feBlend mode="normal" in="SourceGraphic" in2="BackgroundImageFix" result="shape"/>
<feColorMatrix in="SourceAlpha" type="matrix" values="0 0 0 0 0 0 0 0 0 0 0 0 0 0 0 0 0 0 127 0" result="hardAlpha"/>
<feOffset dx="4" dy="5"/>
<feComposite in2="hardAlpha" operator="arithmetic" k2="-1" k3="1"/>
<feColorMatrix type="matrix" values="0 0 0 0 1 0 0 0 0 1 0 0 0 0 1 0 0 0 0.25 0"/>
<feBlend mode="normal" in2="shape" result="effect1_innerShadow_3058_16244"/>
<feColorMatrix in="SourceAlpha" type="matrix" values="0 0 0 0 0 0 0 0 0 0 0 0 0 0 0 0 0 0 127 0" result="hardAlpha"/>
<feOffset dx="-2" dy="-6"/>
<feComposite in2="hardAlpha" operator="arithmetic" k2="-1" k3="1"/>
<feColorMatrix type="matrix" values="0 0 0 0 0 0 0 0 0 0 0 0 0 0 0 0 0 0 0.44 0"/>
<feBlend mode="normal" in2="effect1_innerShadow_3058_16244" result="effect2_innerShadow_3058_16244"/>
</filter>
<filter id="filter2_ii_3058_16244" x="61.9263" y="74.6621" width="15.6309" height="39.1035" filterUnits="userSpaceOnUse" color-interpolation-filters="sRGB">
<feFlood flood-opacity="0" result="BackgroundImageFix"/>
<feBlend mode="normal" in="SourceGraphic" in2="BackgroundImageFix" result="shape"/>
<feColorMatrix in="SourceAlpha" type="matrix" values="0 0 0 0 0 0 0 0 0 0 0 0 0 0 0 0 0 0 127 0" result="hardAlpha"/>
<feOffset dx="-4" dy="5"/>
<feComposite in2="hardAlpha" operator="arithmetic" k2="-1" k3="1"/>
<feColorMatrix type="matrix" values="0 0 0 0 1 0 0 0 0 1 0 0 0 0 1 0 0 0 0.25 0"/>
<feBlend mode="normal" in2="shape" result="effect1_innerShadow_3058_16244"/>
<feColorMatrix in="SourceAlpha" type="matrix" values="0 0 0 0 0 0 0 0 0 0 0 0 0 0 0 0 0 0 127 0" result="hardAlpha"/>
<feOffset dx="1" dy="-3"/>
<feComposite in2="hardAlpha" operator="arithmetic" k2="-1" k3="1"/>
<feColorMatrix type="matrix" values="0 0 0 0 0 0 0 0 0 0 0 0 0 0 0 0 0 0 0.44 0"/>
<feBlend mode="normal" in2="effect1_innerShadow_3058_16244" result="effect2_innerShadow_3058_16244"/>
</filter>
<filter id="filter3_ii_3058_16244" x="17.2393" y="0.483398" width="51.5791" height="102.516" filterUnits="userSpaceOnUse" color-interpolation-filters="sRGB">
<feFlood flood-opacity="0" result="BackgroundImageFix"/>
<feBlend mode="normal" in="SourceGraphic" in2="BackgroundImageFix" result="shape"/>
<feColorMatrix in="SourceAlpha" type="matrix" values="0 0 0 0 0 0 0 0 0 0 0 0 0 0 0 0 0 0 127 0" result="hardAlpha"/>
<feOffset dx="3"/>
<feComposite in2="hardAlpha" operator="arithmetic" k2="-1" k3="1"/>
<feColorMatrix type="matrix" values="0 0 0 0 1 0 0 0 0 1 0 0 0 0 1 0 0 0 0.25 0"/>
<feBlend mode="normal" in2="shape" result="effect1_innerShadow_3058_16244"/>
<feColorMatrix in="SourceAlpha" type="matrix" values="0 0 0 0 0 0 0 0 0 0 0 0 0 0 0 0 0 0 127 0" result="hardAlpha"/>
<feOffset dx="-3"/>
<feComposite in2="hardAlpha" operator="arithmetic" k2="-1" k3="1"/>
<feColorMatrix type="matrix" values="0 0 0 0 0 0 0 0 0 0 0 0 0 0 0 0 0 0 0.25 0"/>
<feBlend mode="normal" in2="effect1_innerShadow_3058_16244" result="effect2_innerShadow_3058_16244"/>
</filter>
<filter id="filter4_ii_3058_16244" x="15.658" y="22.5" width="55.2463" height="59" filterUnits="userSpaceOnUse" color-interpolation-filters="sRGB">
<feFlood flood-opacity="0" result="BackgroundImageFix"/>
<feBlend mode="normal" in="SourceGraphic" in2="BackgroundImageFix" result="shape"/>
<feColorMatrix in="SourceAlpha" type="matrix" values="0 0 0 0 0 0 0 0 0 0 0 0 0 0 0 0 0 0 127 0" result="hardAlpha"/>
<feOffset dx="3"/>
<feComposite in2="hardAlpha" operator="arithmetic" k2="-1" k3="1"/>
<feColorMatrix type="matrix" values="0 0 0 0 1 0 0 0 0 1 0 0 0 0 1 0 0 0 0.25 0"/>
<feBlend mode="normal" in2="shape" result="effect1_innerShadow_3058_16244"/>
<feColorMatrix in="SourceAlpha" type="matrix" values="0 0 0 0 0 0 0 0 0 0 0 0 0 0 0 0 0 0 127 0" result="hardAlpha"/>
<feOffset dx="-3"/>
<feComposite in2="hardAlpha" operator="arithmetic" k2="-1" k3="1"/>
<feColorMatrix type="matrix" values="0 0 0 0 0 0 0 0 0 0 0 0 0 0 0 0 0 0 0.25 0"/>
<feBlend mode="normal" in2="effect1_innerShadow_3058_16244" result="effect2_innerShadow_3058_16244"/>
</filter>
<filter id="filter5_i_3058_16244" x="32.5286" y="33.5" width="20" height="20" filterUnits="userSpaceOnUse" color-interpolation-filters="sRGB">
<feFlood flood-opacity="0" result="BackgroundImageFix"/>
<feBlend mode="normal" in="SourceGraphic" in2="BackgroundImageFix" result="shape"/>
<feColorMatrix in="SourceAlpha" type="matrix" values="0 0 0 0 0 0 0 0 0 0 0 0 0 0 0 0 0 0 127 0" result="hardAlpha"/>
<feOffset dx="5" dy="4"/>
<feComposite in2="hardAlpha" operator="arithmetic" k2="-1" k3="1"/>
<feColorMatrix type="matrix" values="0 0 0 0 0 0 0 0 0 0 0 0 0 0 0 0 0 0 0.25 0"/>
<feBlend mode="normal" in2="shape" result="effect1_innerShadow_3058_16244"/>
</filter>
<filter id="filter6_i_3058_16244" x="38.5286" y="63.5" width="9" height="9" filterUnits="userSpaceOnUse" color-interpolation-filters="sRGB">
<feFlood flood-opacity="0" result="BackgroundImageFix"/>
<feBlend mode="normal" in="SourceGraphic" in2="BackgroundImageFix" result="shape"/>
<feColorMatrix in="SourceAlpha" type="matrix" values="0 0 0 0 0 0 0 0 0 0 0 0 0 0 0 0 0 0 127 0" result="hardAlpha"/>
<feOffset dx="2" dy="2"/>
<feComposite in2="hardAlpha" operator="arithmetic" k2="-1" k3="1"/>
<feColorMatrix type="matrix" values="0 0 0 0 0 0 0 0 0 0 0 0 0 0 0 0 0 0 0.25 0"/>
<feBlend mode="normal" in2="shape" result="effect1_innerShadow_3058_16244"/>
</filter>
</defs>
</svg>
