<svg width="414" height="414" viewBox="0 0 414 414" fill="none" xmlns="http://www.w3.org/2000/svg">
<circle cx="207" cy="207" r="135" fill="#C3C2C5"/>
<g filter="url(#filter0_d_3058_16743)">
<path d="M123.027 265.892L114.482 263.871L110.557 273.993L119.357 276.822L123.027 265.892Z" fill="#BCC8D8" stroke="black" stroke-width="0.96"/>
<path d="M149.994 288.333L158.539 290.354L162.463 280.232L153.664 277.402L149.994 288.333Z" fill="#BCC8D8" stroke="black" stroke-width="0.96"/>
<g filter="url(#filter1_i_3058_16743)">
<path d="M119.487 253.232L113.734 268.416L107.982 283.601L85.0854 274.118L65.3837 265.959L49.9419 259.564L55.6945 244.379L61.4471 229.194L77.6876 235.92L98.5874 244.576L119.487 253.232Z" fill="#F8E28B"/>
</g>
<path d="M113.734 268.416L119.487 253.232L98.5874 244.576M113.734 268.416L107.982 283.601L85.0854 274.118M113.734 268.416L55.6945 244.379M55.6945 244.379L49.9419 259.564L65.3837 265.959M55.6945 244.379L61.4471 229.194L77.6876 235.92M77.6876 235.92L65.3837 265.959M77.6876 235.92L98.5874 244.576M65.3837 265.959L85.0854 274.118M85.0854 274.118L98.5874 244.576" stroke="black" stroke-width="0.96"/>
<g filter="url(#filter2_i_3058_16743)">
<path d="M208.004 282.383L224.805 287.719L219.856 302.917L214.908 318.115L199.169 313.44L176.894 306.823L154.619 300.206L159.845 284.476L165.07 268.747L186.537 275.565L208.004 282.383Z" fill="#F8E28B"/>
</g>
<path d="M208.004 282.383L224.805 287.719L219.856 302.917M208.004 282.383L199.169 313.44M208.004 282.383L186.537 275.565M199.169 313.44L214.908 318.115L219.856 302.917M199.169 313.44L176.894 306.823M176.894 306.823L154.619 300.206L159.845 284.476M176.894 306.823L186.537 275.565M186.537 275.565L165.07 268.747L159.845 284.476M159.845 284.476L219.856 302.917" stroke="black" stroke-width="0.96"/>
<g filter="url(#filter3_ii_3058_16743)">
<path d="M131.952 245.399C129.967 246.527 125.988 249.319 125.951 251.464C124.153 256.366 117.471 277.326 114.356 287.193C117.507 285.817 125.999 283.529 134.762 285.393C143.524 287.257 147.369 295.615 148.196 299.561L160.609 263.041L156.506 251.98L142.405 245.575L131.952 245.399Z" fill="#5E9EF4"/>
</g>
<path d="M131.952 245.399C129.967 246.527 125.988 249.319 125.951 251.464C124.153 256.366 117.471 277.326 114.356 287.193C117.507 285.817 125.999 283.529 134.762 285.393C143.524 287.257 147.369 295.615 148.196 299.561L160.609 263.041L156.506 251.98L142.405 245.575L131.952 245.399Z" stroke="black" stroke-width="0.96"/>
<path d="M146.362 249.396C137.636 245.388 129.122 248.926 125.956 251.196C125.956 251.196 126.01 247.979 128.477 244.804C132.588 239.512 143.014 241.296 147.816 242.718C152.617 244.139 161.64 249.654 162.367 254.224C162.948 257.88 160.874 263.225 159.764 265.44C158.933 261.762 155.088 253.404 146.362 249.396Z" fill="#1868D4" stroke="black" stroke-width="0.96"/>
<path d="M143.372 235.942C139.302 235.658 137.863 239.334 137.653 241.207C138.999 240.872 143.024 240.708 148.351 242.728C153.679 244.749 157.122 247.255 158.178 248.256C158.83 246.659 159.341 242.86 156.165 240.447C155.543 239.975 154.927 239.548 154.31 239.164C151.943 237.688 149.572 236.831 146.851 236.351C145.755 236.159 144.603 236.027 143.372 235.942Z" fill="#4241C5"/>
<path d="M146.851 236.351C145.755 236.159 144.603 236.027 143.372 235.942C139.302 235.658 137.863 239.334 137.653 241.207C138.999 240.872 143.024 240.708 148.351 242.728C153.679 244.749 157.122 247.255 158.178 248.256C158.83 246.659 159.341 242.86 156.165 240.447C155.543 239.975 154.927 239.548 154.31 239.164M146.851 236.351L150.417 215.685M146.851 236.351C149.572 236.831 151.943 237.688 154.31 239.164M154.31 239.164L162.52 229.294" stroke="black" stroke-width="0.96"/>
<g filter="url(#filter4_ii_3058_16743)">
<path d="M137.98 277.39C124.933 272.075 118.83 276.276 117.453 278.397C116.921 280.538 113.806 287.988 113.806 287.988C114.917 290.606 120.299 296.481 124.873 299.435C128.278 301.635 139.838 302.697 143.853 302.705C148.146 302.509 150.176 293.428 150.176 293.428C150.176 293.428 154.214 284.002 137.98 277.39Z" fill="#1868D4"/>
</g>
<path d="M137.98 277.39C124.933 272.075 118.83 276.276 117.453 278.397C116.921 280.538 113.806 287.988 113.806 287.988C114.917 290.606 120.299 296.481 124.873 299.435C128.278 301.635 139.838 302.697 143.853 302.705C148.146 302.509 150.176 293.428 150.176 293.428C150.176 293.428 154.214 284.002 137.98 277.39Z" stroke="black" stroke-width="0.96"/>
<g filter="url(#filter5_i_3058_16743)">
<circle cx="71.7922" cy="251.621" r="2.41257" transform="rotate(0.967906 71.7922 251.621)" fill="#4241C5"/>
</g>
<circle cx="71.7922" cy="251.621" r="2.41257" transform="rotate(0.967906 71.7922 251.621)" stroke="black" stroke-width="0.96"/>
<g filter="url(#filter6_i_3058_16743)">
<circle cx="92.0353" cy="259.471" r="2.41257" transform="rotate(0.967906 92.0353 259.471)" fill="#4241C5"/>
</g>
<circle cx="92.0353" cy="259.471" r="2.41257" transform="rotate(0.967906 92.0353 259.471)" stroke="black" stroke-width="0.96"/>
<g filter="url(#filter7_i_3058_16743)">
<circle cx="181.576" cy="291.547" r="2.41257" transform="rotate(0.967906 181.576 291.547)" fill="#4241C5"/>
</g>
<circle cx="181.576" cy="291.547" r="2.41257" transform="rotate(0.967906 181.576 291.547)" stroke="black" stroke-width="0.96"/>
<g filter="url(#filter8_i_3058_16743)">
<circle cx="203.445" cy="298.35" r="2.41257" transform="rotate(0.967906 203.445 298.35)" fill="#4241C5"/>
</g>
<circle cx="203.445" cy="298.35" r="2.41257" transform="rotate(0.967906 203.445 298.35)" stroke="black" stroke-width="0.96"/>
<path d="M148.521 264.446C153.438 265.387 156.745 269.59 157.779 271.841L155.531 277.97C153.906 272.58 147.976 270.246 145.214 269.752L148.521 264.446Z" fill="#6AFFF6"/>
<path d="M132.721 263.375C128.665 262.234 123.505 264.024 121.432 265.061L124.197 257.065L126.224 251.201C129.073 247.603 135.854 247.163 138.889 247.393C139.224 249.095 137.948 252.672 136.359 256.198C135.134 258.916 133.723 261.602 132.721 263.375Z" fill="#6AFFF6"/>
<path d="M124.197 257.065L126.224 251.201C129.073 247.603 135.854 247.163 138.889 247.393C139.224 249.095 137.948 252.672 136.359 256.198M124.197 257.065L121.432 265.061C123.505 264.024 128.665 262.234 132.721 263.375C133.723 261.602 135.134 258.916 136.359 256.198M124.197 257.065C126.311 255.849 131.703 253.974 136.359 256.198M157.779 271.841C156.745 269.59 153.438 265.387 148.521 264.446L145.214 269.752C147.976 270.246 153.906 272.58 155.531 277.97L157.779 271.841Z" stroke="black" stroke-width="0.96"/>
<path d="M154.811 268.284L152.511 266.445L149.291 270.586L152.051 272.426L153.891 274.266L156.191 269.666L154.811 268.284Z" fill="white" fill-opacity="0.42"/>
<g filter="url(#filter9_ii_3058_16743)">
<path d="M136.411 283.009C123.363 277.695 115.838 284.092 113.534 288.253C112.671 291.724 111.817 294.658 123.751 302.367C131.972 307.677 144.893 304.601 147.083 301.957C149.053 299.577 152.645 289.622 136.411 283.009Z" fill="#1868D4"/>
</g>
<path d="M136.411 283.009C123.363 277.695 115.838 284.092 113.534 288.253C112.671 291.724 111.817 294.658 123.751 302.367C131.972 307.677 144.893 304.601 147.083 301.957C149.053 299.577 152.645 289.622 136.411 283.009Z" stroke="black" stroke-width="0.96"/>
<g filter="url(#filter10_i_3058_16743)">
<path d="M134.201 287.22C126.198 284.259 121.592 287.801 120.183 290.107C119.658 292.032 119.137 293.66 126.46 297.949C131.505 300.903 139.422 299.209 140.762 297.744C141.967 296.426 144.159 290.905 134.201 287.22Z" fill="#DAE0E8"/>
</g>
<path d="M134.201 287.22C126.198 284.259 121.592 287.801 120.183 290.107C119.658 292.032 119.137 293.66 126.46 297.949C131.505 300.903 139.422 299.209 140.762 297.744C141.967 296.426 144.159 290.905 134.201 287.22Z" stroke="black" stroke-width="0.96"/>
<path d="M124.908 263.225L134.109 248.043C134.109 248.043 132.432 248.464 130.889 248.963C129.919 249.277 129.003 249.646 128.588 249.882L122.148 264.145L124.908 263.225Z" fill="white" fill-opacity="0.56"/>
</g>
<defs>
<filter id="filter0_d_3058_16743" x="41.328" y="215.604" width="184.083" height="111.104" filterUnits="userSpaceOnUse" color-interpolation-filters="sRGB">
<feFlood flood-opacity="0" result="BackgroundImageFix"/>
<feColorMatrix in="SourceAlpha" type="matrix" values="0 0 0 0 0 0 0 0 0 0 0 0 0 0 0 0 0 0 127 0" result="hardAlpha"/>
<feOffset dx="-4" dy="4"/>
<feGaussianBlur stdDeviation="2"/>
<feComposite in2="hardAlpha" operator="out"/>
<feColorMatrix type="matrix" values="0 0 0 0 0 0 0 0 0 0 0 0 0 0 0 0 0 0 0.1 0"/>
<feBlend mode="normal" in2="BackgroundImageFix" result="effect1_dropShadow_3058_16743"/>
<feBlend mode="normal" in="SourceGraphic" in2="effect1_dropShadow_3058_16743" result="shape"/>
</filter>
<filter id="filter1_i_3058_16743" x="49.328" y="228.562" width="70.7729" height="55.6719" filterUnits="userSpaceOnUse" color-interpolation-filters="sRGB">
<feFlood flood-opacity="0" result="BackgroundImageFix"/>
<feBlend mode="normal" in="SourceGraphic" in2="BackgroundImageFix" result="shape"/>
<feColorMatrix in="SourceAlpha" type="matrix" values="0 0 0 0 0 0 0 0 0 0 0 0 0 0 0 0 0 0 127 0" result="hardAlpha"/>
<feOffset dx="7" dy="-4"/>
<feComposite in2="hardAlpha" operator="arithmetic" k2="-1" k3="1"/>
<feColorMatrix type="matrix" values="0 0 0 0 0 0 0 0 0 0 0 0 0 0 0 0 0 0 0.1 0"/>
<feBlend mode="normal" in2="shape" result="effect1_innerShadow_3058_16743"/>
</filter>
<filter id="filter2_i_3058_16743" x="154.007" y="268.146" width="71.4034" height="50.5625" filterUnits="userSpaceOnUse" color-interpolation-filters="sRGB">
<feFlood flood-opacity="0" result="BackgroundImageFix"/>
<feBlend mode="normal" in="SourceGraphic" in2="BackgroundImageFix" result="shape"/>
<feColorMatrix in="SourceAlpha" type="matrix" values="0 0 0 0 0 0 0 0 0 0 0 0 0 0 0 0 0 0 127 0" result="hardAlpha"/>
<feOffset dx="7" dy="-4"/>
<feComposite in2="hardAlpha" operator="arithmetic" k2="-1" k3="1"/>
<feColorMatrix type="matrix" values="0 0 0 0 0 0 0 0 0 0 0 0 0 0 0 0 0 0 0.1 0"/>
<feBlend mode="normal" in2="shape" result="effect1_innerShadow_3058_16743"/>
</filter>
<filter id="filter3_ii_3058_16743" x="113.58" y="244.916" width="47.5385" height="56.4609" filterUnits="userSpaceOnUse" color-interpolation-filters="sRGB">
<feFlood flood-opacity="0" result="BackgroundImageFix"/>
<feBlend mode="normal" in="SourceGraphic" in2="BackgroundImageFix" result="shape"/>
<feColorMatrix in="SourceAlpha" type="matrix" values="0 0 0 0 0 0 0 0 0 0 0 0 0 0 0 0 0 0 127 0" result="hardAlpha"/>
<feOffset dx="6" dy="2"/>
<feComposite in2="hardAlpha" operator="arithmetic" k2="-1" k3="1"/>
<feColorMatrix type="matrix" values="0 0 0 0 0 0 0 0 0 0 0 0 0 0 0 0 0 0 0.19 0"/>
<feBlend mode="normal" in2="shape" result="effect1_innerShadow_3058_16743"/>
<feColorMatrix in="SourceAlpha" type="matrix" values="0 0 0 0 0 0 0 0 0 0 0 0 0 0 0 0 0 0 127 0" result="hardAlpha"/>
<feOffset dx="17" dy="2"/>
<feComposite in2="hardAlpha" operator="arithmetic" k2="-1" k3="1"/>
<feColorMatrix type="matrix" values="0 0 0 0 0 0 0 0 0 0 0 0 0 0 0 0 0 0 0.11 0"/>
<feBlend mode="normal" in2="effect1_innerShadow_3058_16743" result="effect2_innerShadow_3058_16743"/>
</filter>
<filter id="filter4_ii_3058_16743" x="113.285" y="274.33" width="37.8164" height="28.8545" filterUnits="userSpaceOnUse" color-interpolation-filters="sRGB">
<feFlood flood-opacity="0" result="BackgroundImageFix"/>
<feBlend mode="normal" in="SourceGraphic" in2="BackgroundImageFix" result="shape"/>
<feColorMatrix in="SourceAlpha" type="matrix" values="0 0 0 0 0 0 0 0 0 0 0 0 0 0 0 0 0 0 127 0" result="hardAlpha"/>
<feOffset dx="6" dy="-4"/>
<feComposite in2="hardAlpha" operator="arithmetic" k2="-1" k3="1"/>
<feColorMatrix type="matrix" values="0 0 0 0 0 0 0 0 0 0 0 0 0 0 0 0 0 0 0.19 0"/>
<feBlend mode="normal" in2="shape" result="effect1_innerShadow_3058_16743"/>
<feColorMatrix in="SourceAlpha" type="matrix" values="0 0 0 0 0 0 0 0 0 0 0 0 0 0 0 0 0 0 127 0" result="hardAlpha"/>
<feOffset dx="17" dy="-8"/>
<feComposite in2="hardAlpha" operator="arithmetic" k2="-1" k3="1"/>
<feColorMatrix type="matrix" values="0 0 0 0 0 0 0 0 0 0 0 0 0 0 0 0 0 0 0.11 0"/>
<feBlend mode="normal" in2="effect1_innerShadow_3058_16743" result="effect2_innerShadow_3058_16743"/>
</filter>
<filter id="filter5_i_3058_16743" x="68.8996" y="248.729" width="5.78516" height="5.78516" filterUnits="userSpaceOnUse" color-interpolation-filters="sRGB">
<feFlood flood-opacity="0" result="BackgroundImageFix"/>
<feBlend mode="normal" in="SourceGraphic" in2="BackgroundImageFix" result="shape"/>
<feColorMatrix in="SourceAlpha" type="matrix" values="0 0 0 0 0 0 0 0 0 0 0 0 0 0 0 0 0 0 127 0" result="hardAlpha"/>
<feOffset dx="-1" dy="-2"/>
<feComposite in2="hardAlpha" operator="arithmetic" k2="-1" k3="1"/>
<feColorMatrix type="matrix" values="0 0 0 0 1 0 0 0 0 1 0 0 0 0 1 0 0 0 0.9 0"/>
<feBlend mode="normal" in2="shape" result="effect1_innerShadow_3058_16743"/>
</filter>
<filter id="filter6_i_3058_16743" x="89.1427" y="256.578" width="5.78516" height="5.78516" filterUnits="userSpaceOnUse" color-interpolation-filters="sRGB">
<feFlood flood-opacity="0" result="BackgroundImageFix"/>
<feBlend mode="normal" in="SourceGraphic" in2="BackgroundImageFix" result="shape"/>
<feColorMatrix in="SourceAlpha" type="matrix" values="0 0 0 0 0 0 0 0 0 0 0 0 0 0 0 0 0 0 127 0" result="hardAlpha"/>
<feOffset dx="-1" dy="-2"/>
<feComposite in2="hardAlpha" operator="arithmetic" k2="-1" k3="1"/>
<feColorMatrix type="matrix" values="0 0 0 0 1 0 0 0 0 1 0 0 0 0 1 0 0 0 0.9 0"/>
<feBlend mode="normal" in2="shape" result="effect1_innerShadow_3058_16743"/>
</filter>
<filter id="filter7_i_3058_16743" x="178.683" y="288.654" width="5.78516" height="5.78516" filterUnits="userSpaceOnUse" color-interpolation-filters="sRGB">
<feFlood flood-opacity="0" result="BackgroundImageFix"/>
<feBlend mode="normal" in="SourceGraphic" in2="BackgroundImageFix" result="shape"/>
<feColorMatrix in="SourceAlpha" type="matrix" values="0 0 0 0 0 0 0 0 0 0 0 0 0 0 0 0 0 0 127 0" result="hardAlpha"/>
<feOffset dx="-1" dy="-2"/>
<feComposite in2="hardAlpha" operator="arithmetic" k2="-1" k3="1"/>
<feColorMatrix type="matrix" values="0 0 0 0 1 0 0 0 0 1 0 0 0 0 1 0 0 0 0.9 0"/>
<feBlend mode="normal" in2="shape" result="effect1_innerShadow_3058_16743"/>
</filter>
<filter id="filter8_i_3058_16743" x="200.552" y="295.458" width="5.78516" height="5.78516" filterUnits="userSpaceOnUse" color-interpolation-filters="sRGB">
<feFlood flood-opacity="0" result="BackgroundImageFix"/>
<feBlend mode="normal" in="SourceGraphic" in2="BackgroundImageFix" result="shape"/>
<feColorMatrix in="SourceAlpha" type="matrix" values="0 0 0 0 0 0 0 0 0 0 0 0 0 0 0 0 0 0 127 0" result="hardAlpha"/>
<feOffset dx="-1" dy="-2"/>
<feComposite in2="hardAlpha" operator="arithmetic" k2="-1" k3="1"/>
<feColorMatrix type="matrix" values="0 0 0 0 1 0 0 0 0 1 0 0 0 0 1 0 0 0 0.9 0"/>
<feBlend mode="normal" in2="shape" result="effect1_innerShadow_3058_16743"/>
</filter>
<filter id="filter9_ii_3058_16743" x="112.607" y="280.511" width="36.7291" height="25.2471" filterUnits="userSpaceOnUse" color-interpolation-filters="sRGB">
<feFlood flood-opacity="0" result="BackgroundImageFix"/>
<feBlend mode="normal" in="SourceGraphic" in2="BackgroundImageFix" result="shape"/>
<feColorMatrix in="SourceAlpha" type="matrix" values="0 0 0 0 0 0 0 0 0 0 0 0 0 0 0 0 0 0 127 0" result="hardAlpha"/>
<feOffset dx="6" dy="-3"/>
<feComposite in2="hardAlpha" operator="arithmetic" k2="-1" k3="1"/>
<feColorMatrix type="matrix" values="0 0 0 0 0 0 0 0 0 0 0 0 0 0 0 0 0 0 0.19 0"/>
<feBlend mode="normal" in2="shape" result="effect1_innerShadow_3058_16743"/>
<feColorMatrix in="SourceAlpha" type="matrix" values="0 0 0 0 0 0 0 0 0 0 0 0 0 0 0 0 0 0 127 0" result="hardAlpha"/>
<feOffset dx="13"/>
<feComposite in2="hardAlpha" operator="arithmetic" k2="-1" k3="1"/>
<feColorMatrix type="matrix" values="0 0 0 0 0 0 0 0 0 0 0 0 0 0 0 0 0 0 0.11 0"/>
<feBlend mode="normal" in2="effect1_innerShadow_3058_16743" result="effect2_innerShadow_3058_16743"/>
</filter>
<filter id="filter10_i_3058_16743" x="119.432" y="285.611" width="22.8914" height="14.4434" filterUnits="userSpaceOnUse" color-interpolation-filters="sRGB">
<feFlood flood-opacity="0" result="BackgroundImageFix"/>
<feBlend mode="normal" in="SourceGraphic" in2="BackgroundImageFix" result="shape"/>
<feColorMatrix in="SourceAlpha" type="matrix" values="0 0 0 0 0 0 0 0 0 0 0 0 0 0 0 0 0 0 127 0" result="hardAlpha"/>
<feOffset dx="4" dy="-3"/>
<feComposite in2="hardAlpha" operator="arithmetic" k2="-1" k3="1"/>
<feColorMatrix type="matrix" values="0 0 0 0 0 0 0 0 0 0 0 0 0 0 0 0 0 0 0.18 0"/>
<feBlend mode="normal" in2="shape" result="effect1_innerShadow_3058_16743"/>
</filter>
</defs>
</svg>
