<svg width="414" height="414" viewBox="0 0 414 414" fill="none" xmlns="http://www.w3.org/2000/svg">
<g filter="url(#filter0_d_3058_16317)">
<g filter="url(#filter1_i_3058_16317)">
<path d="M100.401 310.431C100.401 310.431 101.121 313.12 106.694 315.562C112.267 318.005 114.732 316.712 114.732 316.712L116.476 312.731L102.145 306.451L100.401 310.431Z" fill="#7083D1"/>
</g>
<path d="M102.403 307.109L100.94 310.446C100.964 310.502 100.997 310.572 101.042 310.655C101.177 310.909 101.418 311.288 101.829 311.747C102.651 312.664 104.163 313.907 106.894 315.104C109.626 316.301 111.565 316.57 112.796 316.553C113.412 316.545 113.854 316.465 114.133 316.392C114.224 316.368 114.298 316.345 114.355 316.326L115.818 312.989L102.403 307.109Z" stroke="black"/>
<rect x="0.286272" y="-0.111808" width="8.25802" height="0.434632" transform="matrix(0.915901 0.401405 0.401405 -0.915901 130.448 287.176)" fill="#D9D9D9" stroke="black" stroke-width="0.434632"/>
<rect x="0.286272" y="-0.111808" width="8.25802" height="0.434632" transform="matrix(0.915901 0.401405 0.401405 -0.915901 135.333 276.029)" fill="#D9D9D9" stroke="black" stroke-width="0.434632"/>
<path d="M139.062 289.112L135.739 296.942L143.438 300.316L151.411 303.81L159.338 307.284L167.266 310.759L170.773 303.012L174.279 295.265L177.786 287.519L169.826 283.862L161.625 280.095L153.904 276.549L145.944 272.892L142.503 281.002L139.062 289.112Z" fill="#BDACFF"/>
<path d="M139.062 289.112L135.739 296.942L143.438 300.316M139.062 289.112L146.865 292.532M139.062 289.112L142.503 281.002M170.772 303.012L167.266 310.759L159.338 307.284M170.772 303.012L162.813 299.523M170.772 303.012L174.279 295.265M146.865 292.532L154.775 295.999M146.865 292.532L150.385 284.54M146.865 292.532L143.438 300.316M154.775 295.999L162.813 299.523M154.775 295.999L151.411 303.81M154.775 295.999L158.199 288.048M162.813 299.523L159.338 307.284M162.813 299.523L166.32 291.692M174.279 295.265L177.786 287.519L169.826 283.862M174.279 295.265L166.32 291.692M142.503 281.002L145.944 272.892L153.904 276.549M142.503 281.002L150.385 284.54M166.32 291.692L158.199 288.048M166.32 291.692L169.826 283.862M158.199 288.048L150.385 284.54M158.199 288.048L161.625 280.095M150.385 284.54L153.904 276.549M153.904 276.549L161.625 280.095M143.438 300.316L151.411 303.81M151.411 303.81L159.338 307.284M161.625 280.095L169.826 283.862" stroke="black"/>
<path d="M73.2574 260.273L69.935 268.103L77.6333 271.477L85.6066 274.971L93.534 278.445L101.461 281.92L104.968 274.173L108.475 266.426L111.982 258.68L104.021 255.023L95.8204 251.256L88.1002 247.71L80.1395 244.053L76.6985 252.163L73.2574 260.273Z" fill="#BDACFF"/>
<path d="M73.2574 260.273L69.935 268.103L77.6333 271.477M73.2574 260.273L81.0611 263.693M73.2574 260.273L76.6985 252.163M104.968 274.173L101.461 281.92L93.534 278.445M104.968 274.173L97.0091 270.684M104.968 274.173L108.475 266.426M81.0611 263.693L88.9705 267.16M81.0611 263.693L84.5809 255.701M81.0611 263.693L77.6333 271.477M88.9705 267.16L97.0091 270.684M88.9705 267.16L85.6066 274.971M88.9705 267.16L92.3953 259.209M97.0091 270.684L93.534 278.445M97.0091 270.684L100.515 262.854M108.475 266.426L111.982 258.68L104.021 255.023M108.475 266.426L100.515 262.854M76.6985 252.163L80.1395 244.053L88.1002 247.71M76.6985 252.163L84.5809 255.701M100.515 262.854L92.3953 259.209M100.515 262.854L104.021 255.023M92.3953 259.209L84.5809 255.701M92.3953 259.209L95.8204 251.256M84.5809 255.701L88.1002 247.71M88.1002 247.71L95.8204 251.256M77.6333 271.477L85.6066 274.971M85.6066 274.971L93.534 278.445M95.8204 251.256L104.021 255.023" stroke="black"/>
<path d="M89.3229 276.155L75.7882 270.223L81.1301 245.041L93.0725 250.275L89.3229 276.155Z" fill="white" fill-opacity="0.33"/>
<path d="M143.064 299.708L156.599 305.64L171.494 284.645L159.552 279.411L143.064 299.708Z" fill="white" fill-opacity="0.33"/>
<g filter="url(#filter2_ii_3058_16317)">
<path d="M96.474 302.067C96.474 302.067 97.7396 307.842 108.488 312.553C119.236 317.263 124.34 314.28 124.34 314.28L129.05 303.532L101.185 291.319L96.474 302.067Z" fill="#151E2F"/>
</g>
<path d="M96.962 301.958C96.9619 301.958 96.9619 301.958 96.962 301.958L96.962 301.958ZM97.0037 302.105C97.0096 302.124 97.0163 302.144 97.0238 302.167C97.0736 302.316 97.158 302.543 97.2929 302.832C97.5626 303.411 98.0348 304.244 98.8376 305.227C100.442 307.191 103.378 309.767 108.688 312.095C113.999 314.422 117.883 314.835 120.414 314.684C121.681 314.608 122.614 314.39 123.222 314.196C123.527 314.099 123.75 314.008 123.894 313.943C123.916 313.933 123.935 313.924 123.953 313.916L128.392 303.789L101.442 291.978L97.0037 302.105ZM124.089 313.847C124.089 313.847 124.089 313.847 124.089 313.847L124.089 313.847Z" stroke="black"/>
<path d="M128.243 304.127C128.477 303.592 128.435 302.899 128.036 302.045C127.637 301.192 126.907 300.236 125.876 299.239C123.818 297.249 120.643 295.173 116.836 293.504C113.028 291.835 109.35 290.908 106.491 290.743C105.06 290.661 103.862 290.772 102.965 291.057C102.066 291.342 101.528 291.781 101.293 292.316C101.059 292.85 101.101 293.543 101.5 294.398C101.899 295.251 102.63 296.207 103.66 297.203C105.718 299.194 108.893 301.27 112.701 302.938C116.508 304.607 120.187 305.535 123.045 305.699C124.476 305.781 125.674 305.671 126.572 305.385C127.471 305.1 128.009 304.662 128.243 304.127Z" fill="#BBDAEF" stroke="black"/>
<g filter="url(#filter3_i_3058_16317)">
<path d="M107.379 294.508C107.379 294.508 108.099 297.196 113.672 299.638C119.245 302.081 121.71 300.788 121.71 300.788L125.199 292.827L110.868 286.546L107.379 294.508Z" fill="#7083D1"/>
</g>
<path d="M111.126 287.205L107.919 294.523C107.943 294.578 107.976 294.648 108.02 294.731C108.156 294.985 108.397 295.365 108.808 295.823C109.63 296.74 111.141 297.983 113.873 299.18C116.604 300.378 118.543 300.646 119.774 300.629C120.39 300.621 120.832 300.541 121.112 300.468C121.202 300.445 121.276 300.422 121.334 300.402L124.541 293.084L111.126 287.205Z" stroke="black"/>
<g filter="url(#filter4_ii_3058_16317)">
<path d="M104.499 283.756C104.499 283.756 105.541 288.958 116.687 293.843C127.834 298.728 132.365 295.968 132.365 295.968L143.182 271.287L115.316 259.075L104.499 283.756Z" fill="#272E4B"/>
</g>
<path d="M115.573 259.733L105.028 283.794C105.032 283.806 105.036 283.818 105.04 283.831C105.084 283.963 105.16 284.165 105.287 284.428C105.539 284.952 105.993 285.717 106.792 286.64C108.388 288.485 111.369 290.966 116.888 293.385C122.407 295.803 126.252 296.314 128.69 296.237C129.91 296.199 130.781 296.014 131.337 295.845C131.615 295.76 131.816 295.679 131.942 295.621C131.955 295.616 131.967 295.61 131.978 295.605L142.523 271.544L115.573 259.733Z" stroke="black"/>
<path d="M142.549 271.484C142.784 270.949 142.741 270.257 142.342 269.402C141.943 268.549 141.213 267.593 140.182 266.596C138.124 264.606 134.949 262.53 131.142 260.862C127.334 259.193 123.656 258.265 120.797 258.101C119.366 258.018 118.168 258.129 117.271 258.414C116.372 258.7 115.834 259.138 115.6 259.673C115.365 260.208 115.407 260.901 115.807 261.755C116.205 262.608 116.936 263.564 117.966 264.561C120.024 266.551 123.2 268.627 127.007 270.296C130.815 271.964 134.493 272.892 137.351 273.057C138.783 273.139 139.981 273.028 140.878 272.743C141.777 272.457 142.315 272.019 142.549 271.484Z" fill="#BBDAEF" stroke="black"/>
<g filter="url(#filter5_ii_3058_16317)">
<path d="M138.405 269.194C139.946 265.676 137.795 259.435 132.738 257.219C127.681 255.003 121.634 257.651 120.093 261.168C118.872 263.954 122.796 266.149 127.853 268.365C132.91 270.581 137.358 271.582 138.405 269.194Z" fill="#7083D1"/>
</g>
<path d="M137.947 268.993C138.645 267.399 138.528 265.109 137.586 262.916C136.65 260.735 134.93 258.726 132.537 257.677C130.144 256.629 127.502 256.725 125.264 257.515C123.013 258.309 121.25 259.775 120.551 261.369C120.302 261.936 120.317 262.451 120.538 262.957C120.767 263.484 121.232 264.028 121.932 264.591C123.335 265.718 125.522 266.798 128.054 267.907C130.569 269.009 132.892 269.79 134.693 270.01C135.595 270.12 136.325 270.084 136.872 269.907C137.401 269.737 137.751 269.439 137.947 268.993Z" stroke="black"/>
<path d="M133.245 258.065L133.972 256.407L132.499 255.762L131.772 257.42C131.799 257.452 131.829 257.486 131.862 257.52C132.03 257.703 132.229 257.874 132.415 257.955C132.602 258.037 132.862 258.067 133.11 258.068C133.158 258.068 133.203 258.067 133.245 258.065ZM133.511 258.044C133.511 258.044 133.511 258.044 133.511 258.044L133.511 258.044Z" fill="#D9D9D9" stroke="black"/>
<rect x="0.286272" y="-0.111808" width="7.38875" height="0.434632" transform="matrix(0.915901 0.401405 0.401405 -0.915901 104.175 275.661)" fill="#D9D9D9" stroke="black" stroke-width="0.434632"/>
<rect x="0.286272" y="-0.111808" width="7.38875" height="0.434632" transform="matrix(0.915901 0.401405 0.401405 -0.915901 109.06 264.515)" fill="#D9D9D9" stroke="black" stroke-width="0.434632"/>
<g filter="url(#filter6_ii_3058_16317)">
<path d="M166.115 251.441C166.115 251.441 156.453 242.461 142.383 236.294C128.312 230.128 115.161 229.11 115.161 229.11C111.672 237.071 121.494 250.392 133.834 255.8C145.378 260.86 162.228 259.228 166.115 251.441Z" fill="#7C7175"/>
</g>
<path d="M115.702 229.663C115.621 229.654 115.548 229.647 115.484 229.641C114.07 233.34 115.539 238.307 118.969 243.122C122.48 248.053 127.95 252.676 134.035 255.342C139.717 257.833 146.724 258.681 152.786 257.942C158.697 257.221 163.536 255.017 165.491 251.55C165.446 251.511 165.397 251.466 165.342 251.418C165.053 251.163 164.625 250.791 164.066 250.326C162.948 249.394 161.309 248.086 159.233 246.586C155.078 243.584 149.176 239.818 142.182 236.752C135.188 233.687 128.419 231.9 123.396 230.88C120.885 230.369 118.813 230.051 117.37 229.861C116.649 229.766 116.085 229.702 115.702 229.663Z" stroke="black"/>
<path d="M165.483 251.639C165.549 251.487 165.56 251.243 165.388 250.852C165.215 250.462 164.886 249.989 164.384 249.44C163.384 248.345 161.78 247.038 159.677 245.604C155.478 242.742 149.372 239.43 142.356 236.355C135.34 233.28 128.767 231.035 123.816 229.888C121.336 229.313 119.289 229.02 117.806 229.026C117.062 229.029 116.491 229.108 116.087 229.246C115.683 229.384 115.511 229.557 115.444 229.709C115.378 229.861 115.367 230.105 115.539 230.496C115.712 230.886 116.041 231.359 116.543 231.908C117.543 233.003 119.147 234.309 121.25 235.743C125.449 238.606 131.555 241.918 138.571 244.993C145.587 248.068 152.16 250.313 157.111 251.46C159.591 252.034 161.638 252.328 163.122 252.321C163.865 252.318 164.436 252.24 164.84 252.102C165.244 251.964 165.416 251.791 165.483 251.639Z" fill="#101828" stroke="black"/>
<path d="M118.319 233.816C120.161 231.776 125.266 227.275 130.941 225.586C138.036 223.475 144.034 222.782 147.617 224.352M147.617 224.352C151.199 225.923 156.446 233.442 157.613 237.275C158.78 241.108 161.387 250.318 160.515 252.309M147.617 224.352C150.211 228.178 154.372 238.607 150.263 249.714M147.617 224.352C143.078 225.685 132.591 230.485 126.951 239.023M147.617 224.352L138.37 245.451" stroke="black"/>
<rect x="0.658653" y="-0.257248" width="2.47706" height="5.08485" transform="matrix(0.915901 0.401405 0.401405 -0.915901 145.66 224.091)" fill="#E43838" stroke="black"/>
<rect x="0.658653" y="-0.257248" width="2.47706" height="14.6468" transform="matrix(0.915901 0.401405 0.401405 -0.915901 136.936 243.996)" fill="#BBDAEF" stroke="black"/>
</g>
<defs>
<filter id="filter0_d_3058_16317" x="61.2817" y="219.275" width="117.165" height="105.778" filterUnits="userSpaceOnUse" color-interpolation-filters="sRGB">
<feFlood flood-opacity="0" result="BackgroundImageFix"/>
<feColorMatrix in="SourceAlpha" type="matrix" values="0 0 0 0 0 0 0 0 0 0 0 0 0 0 0 0 0 0 127 0" result="hardAlpha"/>
<feOffset dx="-4" dy="4"/>
<feGaussianBlur stdDeviation="2"/>
<feComposite in2="hardAlpha" operator="out"/>
<feColorMatrix type="matrix" values="0 0 0 0 0 0 0 0 0 0 0 0 0 0 0 0 0 0 0.1 0"/>
<feBlend mode="normal" in2="BackgroundImageFix" result="effect1_dropShadow_3058_16317"/>
<feBlend mode="normal" in="SourceGraphic" in2="effect1_dropShadow_3058_16317" result="shape"/>
</filter>
<filter id="filter1_i_3058_16317" x="100.401" y="306.45" width="16.0754" height="10.6035" filterUnits="userSpaceOnUse" color-interpolation-filters="sRGB">
<feFlood flood-opacity="0" result="BackgroundImageFix"/>
<feBlend mode="normal" in="SourceGraphic" in2="BackgroundImageFix" result="shape"/>
<feColorMatrix in="SourceAlpha" type="matrix" values="0 0 0 0 0 0 0 0 0 0 0 0 0 0 0 0 0 0 127 0" result="hardAlpha"/>
<feOffset dx="-5" dy="2"/>
<feComposite in2="hardAlpha" operator="arithmetic" k2="-1" k3="1"/>
<feColorMatrix type="matrix" values="0 0 0 0 1 0 0 0 0 1 0 0 0 0 1 0 0 0 0.25 0"/>
<feBlend mode="normal" in2="shape" result="effect1_innerShadow_3058_16317"/>
</filter>
<filter id="filter2_ii_3058_16317" x="96.4741" y="291.319" width="32.5759" height="23.8916" filterUnits="userSpaceOnUse" color-interpolation-filters="sRGB">
<feFlood flood-opacity="0" result="BackgroundImageFix"/>
<feBlend mode="normal" in="SourceGraphic" in2="BackgroundImageFix" result="shape"/>
<feColorMatrix in="SourceAlpha" type="matrix" values="0 0 0 0 0 0 0 0 0 0 0 0 0 0 0 0 0 0 127 0" result="hardAlpha"/>
<feOffset dx="-17" dy="-3"/>
<feComposite in2="hardAlpha" operator="arithmetic" k2="-1" k3="1"/>
<feColorMatrix type="matrix" values="0 0 0 0 1 0 0 0 0 1 0 0 0 0 1 0 0 0 0.13 0"/>
<feBlend mode="normal" in2="shape" result="effect1_innerShadow_3058_16317"/>
<feColorMatrix in="SourceAlpha" type="matrix" values="0 0 0 0 0 0 0 0 0 0 0 0 0 0 0 0 0 0 127 0" result="hardAlpha"/>
<feOffset dx="-6" dy="-3"/>
<feComposite in2="hardAlpha" operator="arithmetic" k2="-1" k3="1"/>
<feColorMatrix type="matrix" values="0 0 0 0 1 0 0 0 0 1 0 0 0 0 1 0 0 0 0.13 0"/>
<feBlend mode="normal" in2="effect1_innerShadow_3058_16317" result="effect2_innerShadow_3058_16317"/>
</filter>
<filter id="filter3_i_3058_16317" x="107.379" y="286.546" width="17.8201" height="14.584" filterUnits="userSpaceOnUse" color-interpolation-filters="sRGB">
<feFlood flood-opacity="0" result="BackgroundImageFix"/>
<feBlend mode="normal" in="SourceGraphic" in2="BackgroundImageFix" result="shape"/>
<feColorMatrix in="SourceAlpha" type="matrix" values="0 0 0 0 0 0 0 0 0 0 0 0 0 0 0 0 0 0 127 0" result="hardAlpha"/>
<feOffset dx="-5" dy="-2"/>
<feComposite in2="hardAlpha" operator="arithmetic" k2="-1" k3="1"/>
<feColorMatrix type="matrix" values="0 0 0 0 1 0 0 0 0 1 0 0 0 0 1 0 0 0 0.25 0"/>
<feBlend mode="normal" in2="shape" result="effect1_innerShadow_3058_16317"/>
</filter>
<filter id="filter4_ii_3058_16317" x="104.499" y="259.074" width="38.6824" height="37.6699" filterUnits="userSpaceOnUse" color-interpolation-filters="sRGB">
<feFlood flood-opacity="0" result="BackgroundImageFix"/>
<feBlend mode="normal" in="SourceGraphic" in2="BackgroundImageFix" result="shape"/>
<feColorMatrix in="SourceAlpha" type="matrix" values="0 0 0 0 0 0 0 0 0 0 0 0 0 0 0 0 0 0 127 0" result="hardAlpha"/>
<feOffset dx="-17" dy="-3"/>
<feComposite in2="hardAlpha" operator="arithmetic" k2="-1" k3="1"/>
<feColorMatrix type="matrix" values="0 0 0 0 1 0 0 0 0 1 0 0 0 0 1 0 0 0 0.13 0"/>
<feBlend mode="normal" in2="shape" result="effect1_innerShadow_3058_16317"/>
<feColorMatrix in="SourceAlpha" type="matrix" values="0 0 0 0 0 0 0 0 0 0 0 0 0 0 0 0 0 0 127 0" result="hardAlpha"/>
<feOffset dx="-6" dy="-3"/>
<feComposite in2="hardAlpha" operator="arithmetic" k2="-1" k3="1"/>
<feColorMatrix type="matrix" values="0 0 0 0 1 0 0 0 0 1 0 0 0 0 1 0 0 0 0.13 0"/>
<feBlend mode="normal" in2="effect1_innerShadow_3058_16317" result="effect2_innerShadow_3058_16317"/>
</filter>
<filter id="filter5_ii_3058_16317" x="119.868" y="256.406" width="19.0264" height="14.166" filterUnits="userSpaceOnUse" color-interpolation-filters="sRGB">
<feFlood flood-opacity="0" result="BackgroundImageFix"/>
<feBlend mode="normal" in="SourceGraphic" in2="BackgroundImageFix" result="shape"/>
<feColorMatrix in="SourceAlpha" type="matrix" values="0 0 0 0 0 0 0 0 0 0 0 0 0 0 0 0 0 0 127 0" result="hardAlpha"/>
<feOffset dx="5"/>
<feComposite in2="hardAlpha" operator="arithmetic" k2="-1" k3="1"/>
<feColorMatrix type="matrix" values="0 0 0 0 0 0 0 0 0 0 0 0 0 0 0 0 0 0 0.25 0"/>
<feBlend mode="normal" in2="shape" result="effect1_innerShadow_3058_16317"/>
<feColorMatrix in="SourceAlpha" type="matrix" values="0 0 0 0 0 0 0 0 0 0 0 0 0 0 0 0 0 0 127 0" result="hardAlpha"/>
<feOffset dx="-6"/>
<feComposite in2="hardAlpha" operator="arithmetic" k2="-1" k3="1"/>
<feColorMatrix type="matrix" values="0 0 0 0 1 0 0 0 0 1 0 0 0 0 1 0 0 0 0.13 0"/>
<feBlend mode="normal" in2="effect1_innerShadow_3058_16317" result="effect2_innerShadow_3058_16317"/>
</filter>
<filter id="filter6_ii_3058_16317" x="114.448" y="229.109" width="51.6667" height="29.5898" filterUnits="userSpaceOnUse" color-interpolation-filters="sRGB">
<feFlood flood-opacity="0" result="BackgroundImageFix"/>
<feBlend mode="normal" in="SourceGraphic" in2="BackgroundImageFix" result="shape"/>
<feColorMatrix in="SourceAlpha" type="matrix" values="0 0 0 0 0 0 0 0 0 0 0 0 0 0 0 0 0 0 127 0" result="hardAlpha"/>
<feOffset dx="10"/>
<feComposite in2="hardAlpha" operator="arithmetic" k2="-1" k3="1"/>
<feColorMatrix type="matrix" values="0 0 0 0 0 0 0 0 0 0 0 0 0 0 0 0 0 0 0.25 0"/>
<feBlend mode="normal" in2="shape" result="effect1_innerShadow_3058_16317"/>
<feColorMatrix in="SourceAlpha" type="matrix" values="0 0 0 0 0 0 0 0 0 0 0 0 0 0 0 0 0 0 127 0" result="hardAlpha"/>
<feOffset dx="-10"/>
<feComposite in2="hardAlpha" operator="arithmetic" k2="-1" k3="1"/>
<feColorMatrix type="matrix" values="0 0 0 0 1 0 0 0 0 1 0 0 0 0 1 0 0 0 0.25 0"/>
<feBlend mode="normal" in2="effect1_innerShadow_3058_16317" result="effect2_innerShadow_3058_16317"/>
</filter>
</defs>
</svg>
