<svg width="149" height="155" viewBox="0 0 149 155" fill="none" xmlns="http://www.w3.org/2000/svg">
<g filter="url(#filter0_d_3058_15914)">
<path d="M71.0979 20.2236C79.611 16.3046 84.2203 15.3229 85.1281 15.9372C86.2505 19.0984 81.9204 23.6748 74.608 27.7415C68.7581 30.9949 60.2879 29.4854 58.9206 28.3096C57.9898 27.6913 62.5847 24.1426 71.0979 20.2236Z" fill="#3E3129" stroke="black"/>
<path d="M73.4881 24.5633L73.3672 25.3214L74.1094 25.1254L76.7128 24.4382L77.0873 24.3393L77.0852 23.952L77.0027 8.82877L76.0089 8.75277L73.4881 24.5633Z" fill="#D9D9D9" stroke="black"/>
<path d="M72.9338 26.4928L74.0294 26.2036L73.0773 25.5893L58.6091 16.2527L58.0153 17.0548L69.8801 27.0786L70.0789 27.2465L70.3304 27.1801L72.9338 26.4928Z" fill="#D9D9D9" stroke="black"/>
<rect x="74.8686" y="31.8238" width="1.82454" height="6.41443" transform="rotate(-38.6133 74.8686 31.8238)" fill="#D9D9D9" stroke="black"/>
<g filter="url(#filter1_i_3058_15914)">
<path d="M76.2396 33.1227C84.0033 30.0866 88.1957 22.2519 85.6036 15.6234C83.1679 17.9978 77.3123 23.2301 73.3747 25.1646C69.4371 27.0992 61.616 27.9275 58.1977 28.0998C61.386 33.6646 69.0812 35.9221 76.2396 33.1227Z" fill="#DBDBDB"/>
</g>
<path d="M85.3893 16.5232C87.2995 22.6752 83.3503 29.8051 76.0575 32.657C69.3905 35.2643 62.3362 33.3456 59.0681 28.5488C60.7965 28.4318 63.2103 28.1893 65.6722 27.7865C68.5546 27.3148 71.5562 26.6151 73.5952 25.6134C75.6183 24.6195 78.1035 22.7967 80.3687 20.9462C82.3238 19.349 84.1389 17.7113 85.3893 16.5232Z" stroke="black"/>
<circle cx="58.7732" cy="17.2299" r="2" transform="rotate(7.01374 58.7732 17.2299)" fill="#D9D9D9" stroke="black"/>
<circle cx="75.8745" cy="9.25824" r="2" transform="rotate(7.01374 75.8745 9.25824)" fill="#D9D9D9" stroke="black"/>
<rect x="53.0967" y="96.1266" width="43" height="4" transform="rotate(7.01374 53.0967 96.1266)" fill="#D9D9D9" stroke="black"/>
<rect x="55.0192" y="64.1218" width="43" height="4" transform="rotate(7.01374 55.0192 64.1218)" fill="#D9D9D9" stroke="black"/>
<path d="M97.0556 58.2106L107.973 59.5538L119.387 60.958L130.801 62.3623L141.719 63.7055L140.07 77.1044L138.422 90.5034L127.504 89.1602L116.09 87.756L104.676 86.3518L93.7587 85.0086L95.4071 71.6096L97.0556 58.2106Z" fill="#84BEFD" stroke="black"/>
<path d="M93.026 90.9636L103.944 92.3067L115.358 93.711L126.772 95.1152L137.689 96.4584L136.041 109.857L134.392 123.256L123.475 121.913L112.061 120.509L100.647 119.105L89.7291 117.762L91.3776 104.363L93.026 90.9636Z" fill="#84BEFD" stroke="black"/>
<path d="M11.8838 78.9665L22.8015 80.3097L34.2154 81.7139L45.6294 83.1181L56.5471 84.4613L54.8986 97.8603L53.2502 111.259L42.3325 109.916L30.9185 108.512L19.5046 107.108L8.58691 105.764L10.2354 92.3655L11.8838 78.9665Z" fill="#84BEFD" stroke="black"/>
<path d="M15.7913 47.2057L26.709 48.5489L38.1229 49.9532L49.5369 51.3574L60.4545 52.7006L58.8061 66.0996L57.1576 79.4985L46.24 78.1554L34.826 76.7511L23.4121 75.3469L12.4944 74.0037L14.1428 60.6047L15.7913 47.2057Z" fill="#84BEFD" stroke="black"/>
<g filter="url(#filter2_i_3058_15914)">
<path d="M90.7432 48.0973C91.5484 41.5522 87.1052 36.1571 79.6239 35.4162C69.5793 34.612 67.0073 41.5859 66.9768 45.1734L57.0094 126.191C58.5415 127.097 63.2016 129.107 69.5856 129.893C75.9695 130.678 79.7057 129.701 80.7758 129.115L90.7432 48.0973Z" fill="#E4F5FF"/>
</g>
<path d="M79.6732 34.9187L79.6732 34.9186L79.6638 34.9178C74.5102 34.5052 71.1963 36.0895 69.1752 38.3114C67.184 40.5005 66.4999 43.2508 66.4771 45.1402L56.5132 126.13L56.4732 126.454L56.7548 126.621C58.351 127.566 63.078 129.596 69.5245 130.389C72.7528 130.786 75.323 130.739 77.2318 130.515C79.1267 130.292 80.4006 129.89 81.0162 129.553L81.2408 129.43L81.2721 129.176L91.2394 48.1583C91.6584 44.7531 90.7118 41.6256 88.6699 39.2539C86.6297 36.8842 83.5237 35.3 79.6732 34.9187Z" stroke="black"/>
<mask id="mask0_3058_15914" style="mask-type:alpha" maskUnits="userSpaceOnUse" x="57" y="35" width="34" height="96">
<path d="M90.7432 48.0973C91.5484 41.5522 87.1052 36.1571 79.6239 35.4162C69.5793 34.612 67.0073 41.5859 66.9768 45.1734L57.0094 126.191C58.5415 127.097 63.2016 129.107 69.5856 129.893C75.9695 130.678 79.7057 129.701 80.7758 129.115L90.7432 48.0973Z" fill="#E4F5FF"/>
</mask>
<g mask="url(#mask0_3058_15914)">
<g filter="url(#filter3_i_3058_15914)">
<path d="M100.796 40.0943C99.982 46.7066 90.3506 49.8288 79.1134 48.4463C67.8763 47.0638 59.2888 41.7002 60.1023 35.0879C60.9158 28.4756 70.6848 24.236 81.9219 25.6184C93.159 27.0009 101.609 33.482 100.796 40.0943Z" fill="#29AAE1"/>
</g>
<path d="M100.299 40.0333C99.925 43.0751 97.5181 45.3967 93.6913 46.7989C89.8718 48.1985 84.739 48.6346 79.1745 47.9501C73.61 47.2655 68.736 45.5982 65.3696 43.3145C61.9968 41.0265 60.2244 38.1908 60.5986 35.149C60.9749 32.0904 63.4367 29.4914 67.3023 27.8138C71.1557 26.1415 76.3151 25.4324 81.8609 26.1147C87.4066 26.797 92.2403 28.7355 95.5734 31.2919C98.9171 33.8565 100.676 36.9747 100.299 40.0333Z" stroke="black"/>
<g filter="url(#filter4_i_3058_15914)">
<path d="M57.5333 113.297C57.5333 113.297 65.2502 115.319 70.3061 115.941C75.3619 116.563 83.3388 116.472 83.3388 116.472L82.1256 126.333C82.1256 126.333 74.1487 126.424 69.0929 125.802C64.037 125.18 56.3201 123.158 56.3201 123.158L57.5333 113.297Z" fill="#363636"/>
</g>
<path d="M82.773 116.975L81.6829 125.836C81.4618 125.837 81.163 125.838 80.8009 125.837C79.9765 125.836 78.8248 125.828 77.5156 125.801C74.8925 125.746 71.6554 125.613 69.1539 125.306C66.6524 124.998 63.4798 124.342 60.9216 123.759C59.6448 123.468 58.5255 123.197 57.7254 122.998C57.374 122.911 57.0843 122.838 56.87 122.783L57.9601 113.923C58.1593 113.973 58.4076 114.036 58.6976 114.108C59.5024 114.308 60.6283 114.581 61.9127 114.873C64.477 115.457 67.6907 116.123 70.245 116.437C72.7994 116.751 76.0786 116.884 78.7079 116.939C80.0249 116.967 81.1834 116.975 82.0127 116.976C82.3114 116.977 82.5675 116.976 82.773 116.975Z" stroke="black"/>
</g>
<circle cx="69.7535" cy="50.8223" r="1.5" transform="rotate(7.01374 69.7535 50.8223)" fill="black"/>
<circle cx="74.2198" cy="51.3712" r="1.5" transform="rotate(7.01374 74.2198 51.3712)" fill="black"/>
<circle cx="78.6861" cy="51.921" r="1.5" transform="rotate(7.01374 78.6861 51.921)" fill="black"/>
<circle cx="83.1524" cy="52.4708" r="1.5" transform="rotate(7.01374 83.1524 52.4708)" fill="black"/>
<circle cx="87.6188" cy="53.0196" r="1.5" transform="rotate(7.01374 87.6188 53.0196)" fill="black"/>
<path d="M70.2576 54.9138L85.1453 56.7454L84.1971 64.4528L83.3167 71.6092L82.3718 79.2892L81.6632 85.0492L80.6324 93.4274L79.9882 98.6638L79.04 106.371L64.1522 104.54L65.1004 96.8322L65.7447 91.5958L66.7754 83.2176L67.4841 77.4576L68.4289 69.7776L69.3094 62.6212L70.2576 54.9138Z" stroke="black"/>
<circle cx="71.5351" cy="105.952" r="2.5" transform="rotate(7.01374 71.5351 105.952)" fill="#84BEFD" stroke="black"/>
<circle cx="73.2445" cy="92.0568" r="2.5" transform="rotate(7.01374 73.2445 92.0568)" fill="#84BEFD" stroke="black"/>
<circle cx="74.954" cy="78.1613" r="2.5" transform="rotate(7.01374 74.954 78.1613)" fill="#84BEFD" stroke="black"/>
<circle cx="76.7857" cy="63.2736" r="2.5" transform="rotate(7.01374 76.7857 63.2736)" fill="#84BEFD" stroke="black"/>
<rect x="69.2838" y="128.344" width="2" height="10" transform="rotate(7.01374 69.2838 128.344)" fill="#FFE5E6" stroke="black"/>
<circle cx="68.1317" cy="141.805" r="4.5" transform="rotate(7.01374 68.1317 141.805)" fill="#CE5938" stroke="black"/>
<path d="M118.83 61.394L130.74 62.8593L115.655 87.1994L103.745 85.7341L118.83 61.394Z" fill="white" fill-opacity="0.43"/>
<path d="M114.8 94.1469L126.711 95.6122L111.626 119.952L99.7153 118.487L114.8 94.1469Z" fill="white" fill-opacity="0.43"/>
<path d="M37.0693 50.3267L25.1591 48.8614L33.8945 76.1321L45.8047 77.5974L37.0693 50.3267Z" fill="white" fill-opacity="0.43"/>
<path d="M33.1618 82.0874L21.2516 80.6222L29.987 107.893L41.8972 109.358L33.1618 82.0874Z" fill="white" fill-opacity="0.43"/>
</g>
<defs>
<filter id="filter0_d_3058_15914" x="0.029541" y="6.75781" width="142.247" height="148.047" filterUnits="userSpaceOnUse" color-interpolation-filters="sRGB">
<feFlood flood-opacity="0" result="BackgroundImageFix"/>
<feColorMatrix in="SourceAlpha" type="matrix" values="0 0 0 0 0 0 0 0 0 0 0 0 0 0 0 0 0 0 127 0" result="hardAlpha"/>
<feOffset dx="-4" dy="4"/>
<feGaussianBlur stdDeviation="2"/>
<feComposite in2="hardAlpha" operator="out"/>
<feColorMatrix type="matrix" values="0 0 0 0 0 0 0 0 0 0 0 0 0 0 0 0 0 0 0.1 0"/>
<feBlend mode="normal" in2="BackgroundImageFix" result="effect1_dropShadow_3058_15914"/>
<feBlend mode="normal" in="SourceGraphic" in2="effect1_dropShadow_3058_15914" result="shape"/>
</filter>
<filter id="filter1_i_3058_15914" x="58.1976" y="15.623" width="28.1729" height="18.7021" filterUnits="userSpaceOnUse" color-interpolation-filters="sRGB">
<feFlood flood-opacity="0" result="BackgroundImageFix"/>
<feBlend mode="normal" in="SourceGraphic" in2="BackgroundImageFix" result="shape"/>
<feColorMatrix in="SourceAlpha" type="matrix" values="0 0 0 0 0 0 0 0 0 0 0 0 0 0 0 0 0 0 127 0" result="hardAlpha"/>
<feOffset dx="-6" dy="1"/>
<feComposite in2="hardAlpha" operator="arithmetic" k2="-1" k3="1"/>
<feColorMatrix type="matrix" values="0 0 0 0 0 0 0 0 0 0 0 0 0 0 0 0 0 0 0.25 0"/>
<feBlend mode="normal" in2="shape" result="effect1_innerShadow_3058_15914"/>
</filter>
<filter id="filter2_i_3058_15914" x="55.937" y="34.3525" width="35.8998" height="96.833" filterUnits="userSpaceOnUse" color-interpolation-filters="sRGB">
<feFlood flood-opacity="0" result="BackgroundImageFix"/>
<feBlend mode="normal" in="SourceGraphic" in2="BackgroundImageFix" result="shape"/>
<feColorMatrix in="SourceAlpha" type="matrix" values="0 0 0 0 0 0 0 0 0 0 0 0 0 0 0 0 0 0 127 0" result="hardAlpha"/>
<feOffset dx="7"/>
<feComposite in2="hardAlpha" operator="arithmetic" k2="-1" k3="1"/>
<feColorMatrix type="matrix" values="0 0 0 0 0 0 0 0 0 0 0 0 0 0 0 0 0 0 0.25 0"/>
<feBlend mode="normal" in2="shape" result="effect1_innerShadow_3058_15914"/>
</filter>
<filter id="filter3_i_3058_15914" x="60.049" y="25.3574" width="40.8008" height="23.4111" filterUnits="userSpaceOnUse" color-interpolation-filters="sRGB">
<feFlood flood-opacity="0" result="BackgroundImageFix"/>
<feBlend mode="normal" in="SourceGraphic" in2="BackgroundImageFix" result="shape"/>
<feColorMatrix in="SourceAlpha" type="matrix" values="0 0 0 0 0 0 0 0 0 0 0 0 0 0 0 0 0 0 127 0" result="hardAlpha"/>
<feOffset dx="14" dy="7"/>
<feComposite in2="hardAlpha" operator="arithmetic" k2="-1" k3="1"/>
<feColorMatrix type="matrix" values="0 0 0 0 0.0103624 0 0 0 0 0.352368 0 0 0 0 0.668066 0 0 0 0.55 0"/>
<feBlend mode="normal" in2="shape" result="effect1_innerShadow_3058_15914"/>
</filter>
<filter id="filter4_i_3058_15914" x="56.3201" y="113.297" width="27.0187" height="13.041" filterUnits="userSpaceOnUse" color-interpolation-filters="sRGB">
<feFlood flood-opacity="0" result="BackgroundImageFix"/>
<feBlend mode="normal" in="SourceGraphic" in2="BackgroundImageFix" result="shape"/>
<feColorMatrix in="SourceAlpha" type="matrix" values="0 0 0 0 0 0 0 0 0 0 0 0 0 0 0 0 0 0 127 0" result="hardAlpha"/>
<feOffset dx="7"/>
<feComposite in2="hardAlpha" operator="arithmetic" k2="-1" k3="1"/>
<feColorMatrix type="matrix" values="0 0 0 0 0 0 0 0 0 0 0 0 0 0 0 0 0 0 0.25 0"/>
<feBlend mode="normal" in2="shape" result="effect1_innerShadow_3058_15914"/>
</filter>
</defs>
</svg>
