<svg width="185" height="113" viewBox="0 0 185 113" fill="none" xmlns="http://www.w3.org/2000/svg">
<g filter="url(#filter0_d_3058_16173)">
<path d="M82.0267 51.8921L73.4816 49.871L69.5572 59.9926L78.3567 62.8222L82.0267 51.8921Z" fill="#BCC8D8" stroke="black" stroke-width="0.96"/>
<path d="M108.994 74.3325L117.539 76.3536L121.464 66.232L112.664 63.4024L108.994 74.3325Z" fill="#BCC8D8" stroke="black" stroke-width="0.96"/>
<g filter="url(#filter1_i_3058_16173)">
<path d="M78.4871 39.2317L72.7344 54.4163L66.9818 69.6009L44.0853 60.1183L24.3836 51.9589L8.94179 45.5636L14.6944 30.379L20.447 15.1944L36.6876 21.9205L57.5873 30.5761L78.4871 39.2317Z" fill="#F8E28B"/>
</g>
<path d="M72.7344 54.4163L78.4871 39.2317L57.5873 30.5761M72.7344 54.4163L66.9818 69.6009L44.0853 60.1183M72.7344 54.4163L14.6944 30.379M14.6944 30.379L8.94179 45.5636L24.3836 51.9589M14.6944 30.379L20.447 15.1944L36.6876 21.9205M36.6876 21.9205L24.3836 51.9589M36.6876 21.9205L57.5873 30.5761M24.3836 51.9589L44.0853 60.1183M44.0853 60.1183L57.5873 30.5761" stroke="black" stroke-width="0.96"/>
<g filter="url(#filter2_i_3058_16173)">
<path d="M167.004 68.3828L183.805 73.7186L178.856 88.9168L173.908 104.115L158.169 99.4397L135.894 92.8229L113.619 86.2061L118.845 70.4763L124.07 54.7466L145.537 61.5647L167.004 68.3828Z" fill="#F8E28B"/>
</g>
<path d="M167.004 68.3828L183.805 73.7186L178.856 88.9168M167.004 68.3828L158.169 99.4397M167.004 68.3828L145.537 61.5647M158.169 99.4397L173.908 104.115L178.856 88.9168M158.169 99.4397L135.894 92.8229M135.894 92.8229L113.619 86.2061L118.845 70.4763M135.894 92.8229L145.537 61.5647M145.537 61.5647L124.07 54.7466L118.845 70.4763M118.845 70.4763L178.856 88.9168" stroke="black" stroke-width="0.96"/>
<g filter="url(#filter3_ii_3058_16173)">
<path d="M90.9522 31.3986C88.9671 32.5268 84.9878 35.3193 84.9515 37.4635C83.1528 42.3662 76.4715 63.3261 73.3557 73.1932C76.5068 71.8166 84.9996 69.5293 93.7618 71.3932C102.524 73.257 106.369 81.6153 107.196 85.5614L119.609 49.0412L115.506 37.9797L101.405 31.5752L90.9522 31.3986Z" fill="#5E9EF4"/>
</g>
<path d="M90.9522 31.3986C88.9671 32.5268 84.9878 35.3193 84.9515 37.4635C83.1528 42.3662 76.4715 63.3261 73.3557 73.1932C76.5068 71.8166 84.9996 69.5293 93.7618 71.3932C102.524 73.257 106.369 81.6153 107.196 85.5614L119.609 49.0412L115.506 37.9797L101.405 31.5752L90.9522 31.3986Z" stroke="black" stroke-width="0.96"/>
<path d="M105.362 35.3956C96.6361 31.3875 88.1222 34.9256 84.956 37.1957C84.956 37.1957 85.0103 33.979 87.4769 30.8039C91.5883 25.5116 102.014 27.2961 106.815 28.7177C111.617 30.1393 120.64 35.6537 121.367 40.2238C121.948 43.8799 119.874 49.2247 118.764 51.4401C117.933 47.762 114.088 39.4037 105.362 35.3956Z" fill="#1868D4" stroke="black" stroke-width="0.96"/>
<path d="M102.372 21.9416C98.3019 21.6583 96.8636 25.3338 96.6532 27.207C97.9993 26.8723 102.024 26.7079 107.352 28.7282C112.679 30.7486 116.122 33.2554 117.178 34.2563C117.83 32.6587 118.341 28.8603 115.165 26.4473C114.543 25.9747 113.927 25.5483 113.31 25.1639C110.943 23.6883 108.572 22.8305 105.851 22.3515C104.755 22.1587 103.603 22.0273 102.372 21.9416Z" fill="#4241C5"/>
<path d="M105.851 22.3515C104.755 22.1587 103.603 22.0273 102.372 21.9416C98.3019 21.6583 96.8636 25.3338 96.6532 27.207C97.9993 26.8723 102.024 26.7079 107.352 28.7282C112.679 30.7486 116.122 33.2554 117.178 34.2563C117.83 32.6587 118.341 28.8603 115.165 26.4473C114.543 25.9747 113.927 25.5483 113.31 25.1639M105.851 22.3515L109.417 1.68486M105.851 22.3515C108.572 22.8305 110.943 23.6883 113.31 25.1639M113.31 25.1639L121.52 15.2944" stroke="black" stroke-width="0.96"/>
<g filter="url(#filter4_ii_3058_16173)">
<path d="M96.9801 63.3895C83.9328 58.0749 77.8296 62.276 76.4532 64.3972C75.921 66.5378 72.8059 73.9877 72.8059 73.9877C73.9168 76.6058 79.2994 82.4809 83.8728 85.4349C87.2784 87.6346 98.8378 88.6968 102.853 88.7047C107.146 88.5091 109.176 79.428 109.176 79.428C109.176 79.428 113.214 70.0021 96.9801 63.3895Z" fill="#1868D4"/>
</g>
<path d="M96.9801 63.3895C83.9328 58.0749 77.8296 62.276 76.4532 64.3972C75.921 66.5378 72.8059 73.9877 72.8059 73.9877C73.9168 76.6058 79.2994 82.4809 83.8728 85.4349C87.2784 87.6346 98.8378 88.6968 102.853 88.7047C107.146 88.5091 109.176 79.428 109.176 79.428C109.176 79.428 113.214 70.0021 96.9801 63.3895Z" stroke="black" stroke-width="0.96"/>
<g filter="url(#filter5_i_3058_16173)">
<circle cx="30.7924" cy="37.6209" r="2.41257" transform="rotate(0.967906 30.7924 37.6209)" fill="#4241C5"/>
</g>
<circle cx="30.7924" cy="37.6209" r="2.41257" transform="rotate(0.967906 30.7924 37.6209)" stroke="black" stroke-width="0.96"/>
<g filter="url(#filter6_i_3058_16173)">
<circle cx="51.0353" cy="45.4706" r="2.41257" transform="rotate(0.967906 51.0353 45.4706)" fill="#4241C5"/>
</g>
<circle cx="51.0353" cy="45.4706" r="2.41257" transform="rotate(0.967906 51.0353 45.4706)" stroke="black" stroke-width="0.96"/>
<g filter="url(#filter7_i_3058_16173)">
<circle cx="140.576" cy="77.5467" r="2.41257" transform="rotate(0.967906 140.576 77.5467)" fill="#4241C5"/>
</g>
<circle cx="140.576" cy="77.5467" r="2.41257" transform="rotate(0.967906 140.576 77.5467)" stroke="black" stroke-width="0.96"/>
<g filter="url(#filter8_i_3058_16173)">
<circle cx="162.445" cy="84.3504" r="2.41257" transform="rotate(0.967906 162.445 84.3504)" fill="#4241C5"/>
</g>
<circle cx="162.445" cy="84.3504" r="2.41257" transform="rotate(0.967906 162.445 84.3504)" stroke="black" stroke-width="0.96"/>
<path d="M107.521 50.4462C112.438 51.3872 115.745 55.5897 116.779 57.8414L114.531 63.9697C112.906 58.5802 106.976 56.2459 104.214 55.7524L107.521 50.4462Z" fill="#6AFFF6"/>
<path d="M91.721 49.375C87.6651 48.234 82.5052 50.0236 80.4322 51.061L83.1967 43.0649L85.2241 37.2009C88.0731 33.6029 94.8546 33.1633 97.8892 33.3933C98.2238 35.0946 96.9479 38.6723 95.359 42.1979C94.1342 44.9157 92.7234 47.6025 91.721 49.375Z" fill="#6AFFF6"/>
<path d="M83.1967 43.0649L85.2241 37.2009C88.0731 33.6029 94.8546 33.1633 97.8892 33.3933C98.2238 35.0946 96.9479 38.6723 95.359 42.1979M83.1967 43.0649L80.4322 51.061C82.5052 50.0236 87.6651 48.234 91.721 49.375C92.7234 47.6025 94.1342 44.9157 95.359 42.1979M83.1967 43.0649C85.3109 41.8494 90.7032 39.9745 95.359 42.1979M116.779 57.8414C115.745 55.5897 112.438 51.3872 107.521 50.4462L104.214 55.7524C106.976 56.2459 112.906 58.5802 114.531 63.9697L116.779 57.8414Z" stroke="black" stroke-width="0.96"/>
<path d="M113.811 54.2837L111.511 52.4453L108.291 56.5858L111.051 58.426L112.891 60.2662L115.192 55.6657L113.811 54.2837Z" fill="white" fill-opacity="0.42"/>
<g filter="url(#filter9_ii_3058_16173)">
<path d="M95.4108 69.0093C82.3634 63.6947 74.838 70.0916 72.5335 74.2529C71.6706 77.7236 70.8168 80.6583 82.751 88.3669C90.9724 93.6771 103.893 90.6009 106.083 87.9568C108.053 85.5771 111.645 75.6218 95.4108 69.0093Z" fill="#1868D4"/>
</g>
<path d="M95.4108 69.0093C82.3634 63.6947 74.838 70.0916 72.5335 74.2529C71.6706 77.7236 70.8168 80.6583 82.751 88.3669C90.9724 93.6771 103.893 90.6009 106.083 87.9568C108.053 85.5771 111.645 75.6218 95.4108 69.0093Z" stroke="black" stroke-width="0.96"/>
<g filter="url(#filter10_i_3058_16173)">
<path d="M93.2013 73.2203C85.1983 70.2587 80.5916 73.8006 79.1831 76.1073C78.6575 78.0322 78.137 79.6597 85.4601 83.9486C90.5048 86.9031 98.4221 85.2089 99.7617 83.744C100.967 82.4255 103.159 76.9053 93.2013 73.2203Z" fill="#DAE0E8"/>
</g>
<path d="M93.2013 73.2203C85.1983 70.2587 80.5916 73.8006 79.1831 76.1073C78.6575 78.0322 78.137 79.6597 85.4601 83.9486C90.5048 86.9031 98.4221 85.2089 99.7617 83.744C100.967 82.4255 103.159 76.9053 93.2013 73.2203Z" stroke="black" stroke-width="0.96"/>
<path d="M83.908 49.2246L93.109 34.043C93.109 34.043 91.4317 34.4641 89.8886 34.9631C88.9191 35.2766 88.0026 35.6458 87.5884 35.8825L81.1477 50.1447L83.908 49.2246Z" fill="white" fill-opacity="0.56"/>
</g>
<defs>
<filter id="filter0_d_3058_16173" x="0.327881" y="1.60352" width="184.083" height="111.104" filterUnits="userSpaceOnUse" color-interpolation-filters="sRGB">
<feFlood flood-opacity="0" result="BackgroundImageFix"/>
<feColorMatrix in="SourceAlpha" type="matrix" values="0 0 0 0 0 0 0 0 0 0 0 0 0 0 0 0 0 0 127 0" result="hardAlpha"/>
<feOffset dx="-4" dy="4"/>
<feGaussianBlur stdDeviation="2"/>
<feComposite in2="hardAlpha" operator="out"/>
<feColorMatrix type="matrix" values="0 0 0 0 0 0 0 0 0 0 0 0 0 0 0 0 0 0 0.1 0"/>
<feBlend mode="normal" in2="BackgroundImageFix" result="effect1_dropShadow_3058_16173"/>
<feBlend mode="normal" in="SourceGraphic" in2="effect1_dropShadow_3058_16173" result="shape"/>
</filter>
<filter id="filter1_i_3058_16173" x="8.32788" y="14.5615" width="70.7729" height="55.6719" filterUnits="userSpaceOnUse" color-interpolation-filters="sRGB">
<feFlood flood-opacity="0" result="BackgroundImageFix"/>
<feBlend mode="normal" in="SourceGraphic" in2="BackgroundImageFix" result="shape"/>
<feColorMatrix in="SourceAlpha" type="matrix" values="0 0 0 0 0 0 0 0 0 0 0 0 0 0 0 0 0 0 127 0" result="hardAlpha"/>
<feOffset dx="7" dy="-4"/>
<feComposite in2="hardAlpha" operator="arithmetic" k2="-1" k3="1"/>
<feColorMatrix type="matrix" values="0 0 0 0 0 0 0 0 0 0 0 0 0 0 0 0 0 0 0.1 0"/>
<feBlend mode="normal" in2="shape" result="effect1_innerShadow_3058_16173"/>
</filter>
<filter id="filter2_i_3058_16173" x="113.008" y="54.1455" width="71.4033" height="50.5625" filterUnits="userSpaceOnUse" color-interpolation-filters="sRGB">
<feFlood flood-opacity="0" result="BackgroundImageFix"/>
<feBlend mode="normal" in="SourceGraphic" in2="BackgroundImageFix" result="shape"/>
<feColorMatrix in="SourceAlpha" type="matrix" values="0 0 0 0 0 0 0 0 0 0 0 0 0 0 0 0 0 0 127 0" result="hardAlpha"/>
<feOffset dx="7" dy="-4"/>
<feComposite in2="hardAlpha" operator="arithmetic" k2="-1" k3="1"/>
<feColorMatrix type="matrix" values="0 0 0 0 0 0 0 0 0 0 0 0 0 0 0 0 0 0 0.1 0"/>
<feBlend mode="normal" in2="shape" result="effect1_innerShadow_3058_16173"/>
</filter>
<filter id="filter3_ii_3058_16173" x="72.5798" y="30.916" width="47.5386" height="56.4609" filterUnits="userSpaceOnUse" color-interpolation-filters="sRGB">
<feFlood flood-opacity="0" result="BackgroundImageFix"/>
<feBlend mode="normal" in="SourceGraphic" in2="BackgroundImageFix" result="shape"/>
<feColorMatrix in="SourceAlpha" type="matrix" values="0 0 0 0 0 0 0 0 0 0 0 0 0 0 0 0 0 0 127 0" result="hardAlpha"/>
<feOffset dx="6" dy="2"/>
<feComposite in2="hardAlpha" operator="arithmetic" k2="-1" k3="1"/>
<feColorMatrix type="matrix" values="0 0 0 0 0 0 0 0 0 0 0 0 0 0 0 0 0 0 0.19 0"/>
<feBlend mode="normal" in2="shape" result="effect1_innerShadow_3058_16173"/>
<feColorMatrix in="SourceAlpha" type="matrix" values="0 0 0 0 0 0 0 0 0 0 0 0 0 0 0 0 0 0 127 0" result="hardAlpha"/>
<feOffset dx="17" dy="2"/>
<feComposite in2="hardAlpha" operator="arithmetic" k2="-1" k3="1"/>
<feColorMatrix type="matrix" values="0 0 0 0 0 0 0 0 0 0 0 0 0 0 0 0 0 0 0.11 0"/>
<feBlend mode="normal" in2="effect1_innerShadow_3058_16173" result="effect2_innerShadow_3058_16173"/>
</filter>
<filter id="filter4_ii_3058_16173" x="72.2852" y="60.3301" width="37.8164" height="28.8545" filterUnits="userSpaceOnUse" color-interpolation-filters="sRGB">
<feFlood flood-opacity="0" result="BackgroundImageFix"/>
<feBlend mode="normal" in="SourceGraphic" in2="BackgroundImageFix" result="shape"/>
<feColorMatrix in="SourceAlpha" type="matrix" values="0 0 0 0 0 0 0 0 0 0 0 0 0 0 0 0 0 0 127 0" result="hardAlpha"/>
<feOffset dx="6" dy="-4"/>
<feComposite in2="hardAlpha" operator="arithmetic" k2="-1" k3="1"/>
<feColorMatrix type="matrix" values="0 0 0 0 0 0 0 0 0 0 0 0 0 0 0 0 0 0 0.19 0"/>
<feBlend mode="normal" in2="shape" result="effect1_innerShadow_3058_16173"/>
<feColorMatrix in="SourceAlpha" type="matrix" values="0 0 0 0 0 0 0 0 0 0 0 0 0 0 0 0 0 0 127 0" result="hardAlpha"/>
<feOffset dx="17" dy="-8"/>
<feComposite in2="hardAlpha" operator="arithmetic" k2="-1" k3="1"/>
<feColorMatrix type="matrix" values="0 0 0 0 0 0 0 0 0 0 0 0 0 0 0 0 0 0 0.11 0"/>
<feBlend mode="normal" in2="effect1_innerShadow_3058_16173" result="effect2_innerShadow_3058_16173"/>
</filter>
<filter id="filter5_i_3058_16173" x="27.8999" y="34.7285" width="5.78516" height="5.78516" filterUnits="userSpaceOnUse" color-interpolation-filters="sRGB">
<feFlood flood-opacity="0" result="BackgroundImageFix"/>
<feBlend mode="normal" in="SourceGraphic" in2="BackgroundImageFix" result="shape"/>
<feColorMatrix in="SourceAlpha" type="matrix" values="0 0 0 0 0 0 0 0 0 0 0 0 0 0 0 0 0 0 127 0" result="hardAlpha"/>
<feOffset dx="-1" dy="-2"/>
<feComposite in2="hardAlpha" operator="arithmetic" k2="-1" k3="1"/>
<feColorMatrix type="matrix" values="0 0 0 0 1 0 0 0 0 1 0 0 0 0 1 0 0 0 0.9 0"/>
<feBlend mode="normal" in2="shape" result="effect1_innerShadow_3058_16173"/>
</filter>
<filter id="filter6_i_3058_16173" x="48.1428" y="42.5781" width="5.78516" height="5.78516" filterUnits="userSpaceOnUse" color-interpolation-filters="sRGB">
<feFlood flood-opacity="0" result="BackgroundImageFix"/>
<feBlend mode="normal" in="SourceGraphic" in2="BackgroundImageFix" result="shape"/>
<feColorMatrix in="SourceAlpha" type="matrix" values="0 0 0 0 0 0 0 0 0 0 0 0 0 0 0 0 0 0 127 0" result="hardAlpha"/>
<feOffset dx="-1" dy="-2"/>
<feComposite in2="hardAlpha" operator="arithmetic" k2="-1" k3="1"/>
<feColorMatrix type="matrix" values="0 0 0 0 1 0 0 0 0 1 0 0 0 0 1 0 0 0 0.9 0"/>
<feBlend mode="normal" in2="shape" result="effect1_innerShadow_3058_16173"/>
</filter>
<filter id="filter7_i_3058_16173" x="137.683" y="74.6543" width="5.78516" height="5.78516" filterUnits="userSpaceOnUse" color-interpolation-filters="sRGB">
<feFlood flood-opacity="0" result="BackgroundImageFix"/>
<feBlend mode="normal" in="SourceGraphic" in2="BackgroundImageFix" result="shape"/>
<feColorMatrix in="SourceAlpha" type="matrix" values="0 0 0 0 0 0 0 0 0 0 0 0 0 0 0 0 0 0 127 0" result="hardAlpha"/>
<feOffset dx="-1" dy="-2"/>
<feComposite in2="hardAlpha" operator="arithmetic" k2="-1" k3="1"/>
<feColorMatrix type="matrix" values="0 0 0 0 1 0 0 0 0 1 0 0 0 0 1 0 0 0 0.9 0"/>
<feBlend mode="normal" in2="shape" result="effect1_innerShadow_3058_16173"/>
</filter>
<filter id="filter8_i_3058_16173" x="159.552" y="81.458" width="5.78516" height="5.78516" filterUnits="userSpaceOnUse" color-interpolation-filters="sRGB">
<feFlood flood-opacity="0" result="BackgroundImageFix"/>
<feBlend mode="normal" in="SourceGraphic" in2="BackgroundImageFix" result="shape"/>
<feColorMatrix in="SourceAlpha" type="matrix" values="0 0 0 0 0 0 0 0 0 0 0 0 0 0 0 0 0 0 127 0" result="hardAlpha"/>
<feOffset dx="-1" dy="-2"/>
<feComposite in2="hardAlpha" operator="arithmetic" k2="-1" k3="1"/>
<feColorMatrix type="matrix" values="0 0 0 0 1 0 0 0 0 1 0 0 0 0 1 0 0 0 0.9 0"/>
<feBlend mode="normal" in2="shape" result="effect1_innerShadow_3058_16173"/>
</filter>
<filter id="filter9_ii_3058_16173" x="71.6069" y="66.5107" width="36.729" height="25.2471" filterUnits="userSpaceOnUse" color-interpolation-filters="sRGB">
<feFlood flood-opacity="0" result="BackgroundImageFix"/>
<feBlend mode="normal" in="SourceGraphic" in2="BackgroundImageFix" result="shape"/>
<feColorMatrix in="SourceAlpha" type="matrix" values="0 0 0 0 0 0 0 0 0 0 0 0 0 0 0 0 0 0 127 0" result="hardAlpha"/>
<feOffset dx="6" dy="-3"/>
<feComposite in2="hardAlpha" operator="arithmetic" k2="-1" k3="1"/>
<feColorMatrix type="matrix" values="0 0 0 0 0 0 0 0 0 0 0 0 0 0 0 0 0 0 0.19 0"/>
<feBlend mode="normal" in2="shape" result="effect1_innerShadow_3058_16173"/>
<feColorMatrix in="SourceAlpha" type="matrix" values="0 0 0 0 0 0 0 0 0 0 0 0 0 0 0 0 0 0 127 0" result="hardAlpha"/>
<feOffset dx="13"/>
<feComposite in2="hardAlpha" operator="arithmetic" k2="-1" k3="1"/>
<feColorMatrix type="matrix" values="0 0 0 0 0 0 0 0 0 0 0 0 0 0 0 0 0 0 0.11 0"/>
<feBlend mode="normal" in2="effect1_innerShadow_3058_16173" result="effect2_innerShadow_3058_16173"/>
</filter>
<filter id="filter10_i_3058_16173" x="78.4319" y="71.6113" width="22.8914" height="14.4434" filterUnits="userSpaceOnUse" color-interpolation-filters="sRGB">
<feFlood flood-opacity="0" result="BackgroundImageFix"/>
<feBlend mode="normal" in="SourceGraphic" in2="BackgroundImageFix" result="shape"/>
<feColorMatrix in="SourceAlpha" type="matrix" values="0 0 0 0 0 0 0 0 0 0 0 0 0 0 0 0 0 0 127 0" result="hardAlpha"/>
<feOffset dx="4" dy="-3"/>
<feComposite in2="hardAlpha" operator="arithmetic" k2="-1" k3="1"/>
<feColorMatrix type="matrix" values="0 0 0 0 0 0 0 0 0 0 0 0 0 0 0 0 0 0 0.18 0"/>
<feBlend mode="normal" in2="shape" result="effect1_innerShadow_3058_16173"/>
</filter>
</defs>
</svg>
