<svg width="141" height="140" viewBox="0 0 141 140" fill="none" xmlns="http://www.w3.org/2000/svg">
<g filter="url(#filter0_d_3058_16319)">
<g filter="url(#filter1_i_3058_16319)">
<path d="M42.4006 112.431C42.4006 112.431 43.1206 115.12 48.6938 117.562C54.2669 120.005 56.7315 118.712 56.7315 118.712L58.4762 114.731L44.1453 108.451L42.4006 112.431Z" fill="#7083D1"/>
</g>
<path d="M44.4025 109.109L42.94 112.446C42.9643 112.502 42.9974 112.572 43.0415 112.655C43.1772 112.909 43.4181 113.288 43.8295 113.747C44.6515 114.664 46.163 115.907 48.8945 117.104C51.626 118.301 53.5648 118.57 54.7958 118.553C55.4118 118.545 55.8539 118.465 56.1331 118.392C56.224 118.368 56.2978 118.345 56.355 118.326L57.8175 114.989L44.4025 109.109Z" stroke="black"/>
<rect x="0.286272" y="-0.111808" width="8.25802" height="0.434632" transform="matrix(0.915901 0.401405 0.401405 -0.915901 72.4481 89.1758)" fill="#D9D9D9" stroke="black" stroke-width="0.434632"/>
<rect x="0.286272" y="-0.111808" width="8.25802" height="0.434632" transform="matrix(0.915901 0.401405 0.401405 -0.915901 77.3334 78.0293)" fill="#D9D9D9" stroke="black" stroke-width="0.434632"/>
<path d="M81.0616 91.1116L77.7392 98.9417L85.4375 102.316L93.4108 105.81L101.338 109.284L109.266 112.759L112.773 105.012L116.279 97.2653L119.786 89.5186L111.826 85.862L103.625 82.0949L95.9044 78.5487L87.9437 74.8921L84.5027 83.0019L81.0616 91.1116Z" fill="#BDACFF"/>
<path d="M81.0616 91.1116L77.7392 98.9417L85.4375 102.316M81.0616 91.1116L88.8653 94.5323M81.0616 91.1116L84.5027 83.0019M112.772 105.012L109.266 112.759L101.338 109.284M112.772 105.012L104.813 101.523M112.772 105.012L116.279 97.2653M88.8653 94.5323L96.7747 97.9994M88.8653 94.5323L92.3851 86.54M88.8653 94.5323L85.4375 102.316M96.7747 97.9994L104.813 101.523M96.7747 97.9994L93.4108 105.81M96.7747 97.9994L100.199 90.0476M104.813 101.523L101.338 109.284M104.813 101.523L108.32 93.6924M116.279 97.2653L119.786 89.5186L111.826 85.862M116.279 97.2653L108.32 93.6924M84.5027 83.0019L87.9437 74.8921L95.9044 78.5487M84.5027 83.0019L92.3851 86.54M108.32 93.6924L100.199 90.0476M108.32 93.6924L111.826 85.862M100.199 90.0476L92.3851 86.54M100.199 90.0476L103.625 82.0949M92.3851 86.54L95.9044 78.5487M95.9044 78.5487L103.625 82.0949M85.4375 102.316L93.4108 105.81M93.4108 105.81L101.338 109.284M103.625 82.0949L111.826 85.862" stroke="black"/>
<path d="M15.2574 62.2728L11.935 70.1029L19.6333 73.4767L27.6066 76.9711L35.534 80.4454L43.4614 83.9197L46.9683 76.173L50.4752 68.4264L53.9821 60.6797L46.0215 57.0231L37.8204 53.2561L30.1002 49.7099L22.1395 46.0532L18.6985 54.163L15.2574 62.2728Z" fill="#BDACFF"/>
<path d="M15.2574 62.2728L11.935 70.1029L19.6333 73.4767M15.2574 62.2728L23.0611 65.6934M15.2574 62.2728L18.6985 54.163M46.9683 76.173L43.4614 83.9197L35.534 80.4454M46.9683 76.173L39.0091 72.6842M46.9683 76.173L50.4752 68.4264M23.0611 65.6934L30.9705 69.1605M23.0611 65.6934L26.5809 57.7011M23.0611 65.6934L19.6333 73.4767M30.9705 69.1605L39.0091 72.6842M30.9705 69.1605L27.6066 76.9711M30.9705 69.1605L34.3953 61.2087M39.0091 72.6842L35.534 80.4454M39.0091 72.6842L42.5154 64.8535M50.4752 68.4264L53.9821 60.6797L46.0215 57.0231M50.4752 68.4264L42.5154 64.8535M18.6985 54.163L22.1395 46.0532L30.1002 49.7099M18.6985 54.163L26.5809 57.7011M42.5154 64.8535L34.3953 61.2087M42.5154 64.8535L46.0215 57.0231M34.3953 61.2087L26.5809 57.7011M34.3953 61.2087L37.8204 53.256M26.5809 57.7011L30.1002 49.7099M30.1002 49.7099L37.8204 53.256M19.6333 73.4767L27.6066 76.9711M27.6066 76.9711L35.534 80.4454M37.8204 53.256L46.0215 57.0231" stroke="black"/>
<path d="M31.3229 78.1552L17.7882 72.2234L23.1301 47.0412L35.0725 52.2751L31.3229 78.1552Z" fill="white" fill-opacity="0.33"/>
<path d="M85.0638 101.708L98.5985 107.64L113.494 86.6447L101.552 81.4108L85.0638 101.708Z" fill="white" fill-opacity="0.33"/>
<g filter="url(#filter2_ii_3058_16319)">
<path d="M38.474 104.067C38.474 104.067 39.7396 109.842 50.4877 114.553C61.2359 119.263 66.3396 116.28 66.3396 116.28L71.0502 105.532L43.1845 93.3192L38.474 104.067Z" fill="#151E2F"/>
</g>
<path d="M38.962 103.958C38.9619 103.958 38.9619 103.958 38.962 103.958L38.962 103.958ZM39.0037 104.105C39.0096 104.124 39.0163 104.144 39.0238 104.167C39.0736 104.316 39.158 104.543 39.2929 104.832C39.5626 105.411 40.0348 106.244 40.8376 107.227C42.4417 109.191 45.3782 111.767 50.6884 114.095C55.9987 116.422 59.8829 116.835 62.4143 116.684C63.6812 116.608 64.6142 116.39 65.2224 116.196C65.5267 116.099 65.7501 116.008 65.8939 115.943C65.9155 115.933 65.9353 115.924 65.9534 115.916L70.3915 105.789L43.4418 93.9779L39.0037 104.105ZM66.0891 115.847C66.0894 115.847 66.0894 115.847 66.0891 115.847L66.0891 115.847Z" stroke="black"/>
<path d="M70.2431 106.127C70.4774 105.592 70.4351 104.899 70.0359 104.045C69.6373 103.192 68.9069 102.236 67.8763 101.239C65.8182 99.2486 62.643 97.1728 58.8355 95.5041C55.0281 93.8354 51.3498 92.9076 48.4913 92.7433C47.06 92.6611 45.8621 92.7719 44.9645 93.057C44.0658 93.3425 43.5277 93.7809 43.2934 94.3157C43.059 94.8505 43.1013 95.5433 43.5005 96.3975C43.8992 97.2507 44.6296 98.2067 45.6601 99.2034C47.7182 101.194 50.8934 103.27 54.7009 104.938C58.5084 106.607 62.1867 107.535 65.0452 107.699C66.4764 107.781 67.6744 107.671 68.5719 107.385C69.4706 107.1 70.0087 106.662 70.2431 106.127Z" fill="#BBDAEF" stroke="black"/>
<g filter="url(#filter3_i_3058_16319)">
<path d="M49.3792 96.5076C49.3792 96.5076 50.0992 99.1959 55.6723 101.638C61.2454 104.081 63.71 102.788 63.71 102.788L67.1993 94.8267L52.8684 88.546L49.3792 96.5076Z" fill="#7083D1"/>
</g>
<path d="M53.1257 89.2047L49.9185 96.5226C49.9428 96.578 49.9759 96.6479 50.02 96.7308C50.1557 96.9854 50.3967 97.3646 50.808 97.8232C51.63 98.7397 53.1415 99.9833 55.873 101.18C58.6045 102.378 60.5433 102.646 61.7743 102.629C62.3903 102.621 62.8324 102.541 63.1116 102.468C63.2025 102.445 63.2763 102.422 63.3335 102.402L66.5407 95.084L53.1257 89.2047Z" stroke="black"/>
<g filter="url(#filter4_ii_3058_16319)">
<path d="M46.4993 85.7555C46.4993 85.7555 47.5412 90.9576 58.6874 95.8425C69.8337 100.728 74.3649 97.968 74.3649 97.968L85.1816 73.287L57.316 61.0746L46.4993 85.7555Z" fill="#272E4B"/>
</g>
<path d="M57.5733 61.7332L47.0283 85.794C47.0321 85.8058 47.0361 85.8182 47.0405 85.8314C47.0841 85.9632 47.1603 86.1654 47.2866 86.4276C47.5392 86.9515 47.9933 87.7175 48.7916 88.64C50.3878 90.4846 53.3695 92.966 58.8881 95.3846C64.4068 97.8032 68.2522 98.3139 70.6903 98.2374C71.9097 98.1991 72.7807 98.0139 73.3371 97.8445C73.6155 97.7597 73.8158 97.6787 73.9423 97.6215C73.9549 97.6157 73.9669 97.6103 73.978 97.605L84.523 73.5442L57.5733 61.7332Z" stroke="black"/>
<path d="M84.5492 73.4842C84.7836 72.9494 84.7413 72.2566 84.3421 71.4023C83.9434 70.5491 83.213 69.5931 82.1825 68.5965C80.1244 66.606 76.9492 64.5302 73.1417 62.8615C69.3342 61.1929 65.6559 60.2651 62.7974 60.1008C61.3662 60.0185 60.1682 60.1294 59.2707 60.4145C58.372 60.6999 57.8339 61.1383 57.5995 61.6731C57.3651 62.2079 57.4075 62.9007 57.8066 63.755C58.2053 64.6082 58.9357 65.5641 59.9662 66.5608C62.0244 68.5513 65.1996 70.6271 69.007 72.2957C72.8145 73.9644 76.4928 74.8922 79.3513 75.0565C80.7826 75.1388 81.9805 75.0279 82.8781 74.7428C83.7768 74.4574 84.3149 74.0189 84.5492 73.4842Z" fill="#BBDAEF" stroke="black"/>
<g filter="url(#filter5_ii_3058_16319)">
<path d="M80.4045 71.1936C81.9462 67.6759 79.7946 61.4354 74.7379 59.2193C69.6813 57.0032 63.6345 59.6506 62.0928 63.1682C60.8717 65.9545 64.7965 68.1491 69.8531 70.3652C74.9097 72.5813 79.3579 73.5817 80.4045 71.1936Z" fill="#7083D1"/>
</g>
<path d="M79.9466 70.9929C80.6453 69.3985 80.5276 67.1089 79.5861 64.9156C78.65 62.7345 76.9302 60.726 74.5372 59.6772C72.1443 58.6285 69.5018 58.7253 67.2637 59.5151C65.0128 60.3094 63.2495 61.7746 62.5508 63.3689C62.302 63.9365 62.3173 64.451 62.5376 64.957C62.7672 65.4844 63.2324 66.0285 63.9321 66.5908C65.3345 67.718 67.5221 68.7977 70.0538 69.9072C72.5687 71.0094 74.8915 71.79 76.6931 72.0097C77.5945 72.1196 78.3254 72.0836 78.8719 71.9074C79.4009 71.7368 79.751 71.4391 79.9466 70.9929Z" stroke="black"/>
<path d="M75.2449 60.0653L75.9716 58.4071L74.499 57.7617L73.7723 59.4199C73.7994 59.4517 73.8292 59.4856 73.8615 59.5205C74.0305 59.7029 74.2294 59.8735 74.4155 59.9551C74.6015 60.0366 74.8618 60.0672 75.1104 60.0678C75.158 60.0679 75.2031 60.0669 75.2449 60.0653ZM75.5106 60.0437C75.5109 60.0436 75.5109 60.0436 75.5108 60.0437L75.5106 60.0437Z" fill="#D9D9D9" stroke="black"/>
<rect x="0.286272" y="-0.111808" width="7.38875" height="0.434632" transform="matrix(0.915901 0.401405 0.401405 -0.915901 46.1749 77.6611)" fill="#D9D9D9" stroke="black" stroke-width="0.434632"/>
<rect x="0.286272" y="-0.111808" width="7.38875" height="0.434632" transform="matrix(0.915901 0.401405 0.401405 -0.915901 51.0599 66.5146)" fill="#D9D9D9" stroke="black" stroke-width="0.434632"/>
<g filter="url(#filter6_ii_3058_16319)">
<path d="M108.115 53.441C108.115 53.441 98.4534 44.4611 84.3828 38.2945C70.3121 32.1279 57.161 31.1096 57.161 31.1096C53.6717 39.0712 63.4936 52.3921 75.8341 57.8004C87.3784 62.8599 104.228 61.2281 108.115 53.441Z" fill="#7C7175"/>
</g>
<path d="M57.7023 31.6628C57.6212 31.6544 57.5482 31.6471 57.4835 31.6409C56.0705 35.3402 57.5391 40.3068 60.9687 45.1224C64.4799 50.0528 69.9501 54.6758 76.0348 57.3425C81.717 59.8328 88.7241 60.681 94.7855 59.9418C100.697 59.221 105.536 57.0171 107.491 53.5505C107.446 53.5106 107.397 53.4664 107.342 53.4178C107.053 53.1632 106.625 52.7915 106.066 52.3256C104.948 51.3938 103.309 50.0858 101.233 48.5855C97.0781 45.5839 91.1761 41.8176 84.1821 38.7524C77.1881 35.6872 70.4187 33.9001 65.3958 32.8796C62.8853 32.3695 60.8131 32.0513 59.3703 31.8608C58.6489 31.7655 58.085 31.7022 57.7023 31.6628Z" stroke="black"/>
<path d="M107.483 53.6388C107.549 53.4869 107.56 53.243 107.388 52.852C107.215 52.4621 106.886 51.9888 106.384 51.44C105.384 50.3452 103.78 49.0383 101.677 47.6045C97.4782 44.7416 91.3723 41.4296 84.3564 38.3548C77.3405 35.28 70.767 33.0351 65.816 31.8878C63.3364 31.3132 61.2887 31.02 59.8055 31.0262C59.0621 31.0294 58.4907 31.108 58.0873 31.2455C57.6827 31.3835 57.5109 31.557 57.4443 31.7089C57.3778 31.8608 57.3667 32.1047 57.5394 32.4957C57.7117 32.8856 58.0411 33.3589 58.5427 33.9077C59.5433 35.0025 61.1467 36.3094 63.2498 37.7432C67.4489 40.6061 73.5548 43.9181 80.5707 46.9929C87.5866 50.0677 94.1601 52.3126 99.1111 53.4599C101.591 54.0345 103.638 54.3277 105.122 54.3215C105.865 54.3183 106.436 54.2397 106.84 54.1022C107.244 53.9642 107.416 53.7907 107.483 53.6388Z" fill="#101828" stroke="black"/>
<path d="M60.3185 35.8156C62.1615 33.7761 67.2662 29.2748 72.9415 27.5861C80.0356 25.4752 86.0338 24.7822 89.6165 26.3524M89.6165 26.3524C93.1993 27.9226 98.4456 35.4418 99.6128 39.2752C100.78 43.1085 103.387 52.3183 102.515 54.3087M89.6165 26.3524C92.2106 30.1784 96.3717 40.607 92.2632 51.7139M89.6165 26.3524C85.078 27.6851 74.5908 32.4849 68.951 41.0225M89.6165 26.3524L80.37 47.4507" stroke="black"/>
<rect x="0.658653" y="-0.257248" width="2.47706" height="5.08485" transform="matrix(0.915901 0.401405 0.401405 -0.915901 87.6596 26.0914)" fill="#E43838" stroke="black"/>
<rect x="0.658653" y="-0.257248" width="2.47706" height="14.6468" transform="matrix(0.915901 0.401405 0.401405 -0.915901 78.9362 45.9957)" fill="#BBDAEF" stroke="black"/>
</g>
<defs>
<filter id="filter0_d_3058_16319" x="3.28174" y="21.2754" width="117.165" height="105.778" filterUnits="userSpaceOnUse" color-interpolation-filters="sRGB">
<feFlood flood-opacity="0" result="BackgroundImageFix"/>
<feColorMatrix in="SourceAlpha" type="matrix" values="0 0 0 0 0 0 0 0 0 0 0 0 0 0 0 0 0 0 127 0" result="hardAlpha"/>
<feOffset dx="-4" dy="4"/>
<feGaussianBlur stdDeviation="2"/>
<feComposite in2="hardAlpha" operator="out"/>
<feColorMatrix type="matrix" values="0 0 0 0 0 0 0 0 0 0 0 0 0 0 0 0 0 0 0.1 0"/>
<feBlend mode="normal" in2="BackgroundImageFix" result="effect1_dropShadow_3058_16319"/>
<feBlend mode="normal" in="SourceGraphic" in2="effect1_dropShadow_3058_16319" result="shape"/>
</filter>
<filter id="filter1_i_3058_16319" x="42.4006" y="108.45" width="16.0754" height="10.6035" filterUnits="userSpaceOnUse" color-interpolation-filters="sRGB">
<feFlood flood-opacity="0" result="BackgroundImageFix"/>
<feBlend mode="normal" in="SourceGraphic" in2="BackgroundImageFix" result="shape"/>
<feColorMatrix in="SourceAlpha" type="matrix" values="0 0 0 0 0 0 0 0 0 0 0 0 0 0 0 0 0 0 127 0" result="hardAlpha"/>
<feOffset dx="-5" dy="2"/>
<feComposite in2="hardAlpha" operator="arithmetic" k2="-1" k3="1"/>
<feColorMatrix type="matrix" values="0 0 0 0 1 0 0 0 0 1 0 0 0 0 1 0 0 0 0.25 0"/>
<feBlend mode="normal" in2="shape" result="effect1_innerShadow_3058_16319"/>
</filter>
<filter id="filter2_ii_3058_16319" x="38.4741" y="93.3193" width="32.5759" height="23.8916" filterUnits="userSpaceOnUse" color-interpolation-filters="sRGB">
<feFlood flood-opacity="0" result="BackgroundImageFix"/>
<feBlend mode="normal" in="SourceGraphic" in2="BackgroundImageFix" result="shape"/>
<feColorMatrix in="SourceAlpha" type="matrix" values="0 0 0 0 0 0 0 0 0 0 0 0 0 0 0 0 0 0 127 0" result="hardAlpha"/>
<feOffset dx="-17" dy="-3"/>
<feComposite in2="hardAlpha" operator="arithmetic" k2="-1" k3="1"/>
<feColorMatrix type="matrix" values="0 0 0 0 1 0 0 0 0 1 0 0 0 0 1 0 0 0 0.13 0"/>
<feBlend mode="normal" in2="shape" result="effect1_innerShadow_3058_16319"/>
<feColorMatrix in="SourceAlpha" type="matrix" values="0 0 0 0 0 0 0 0 0 0 0 0 0 0 0 0 0 0 127 0" result="hardAlpha"/>
<feOffset dx="-6" dy="-3"/>
<feComposite in2="hardAlpha" operator="arithmetic" k2="-1" k3="1"/>
<feColorMatrix type="matrix" values="0 0 0 0 1 0 0 0 0 1 0 0 0 0 1 0 0 0 0.13 0"/>
<feBlend mode="normal" in2="effect1_innerShadow_3058_16319" result="effect2_innerShadow_3058_16319"/>
</filter>
<filter id="filter3_i_3058_16319" x="49.3792" y="88.5459" width="17.8201" height="14.584" filterUnits="userSpaceOnUse" color-interpolation-filters="sRGB">
<feFlood flood-opacity="0" result="BackgroundImageFix"/>
<feBlend mode="normal" in="SourceGraphic" in2="BackgroundImageFix" result="shape"/>
<feColorMatrix in="SourceAlpha" type="matrix" values="0 0 0 0 0 0 0 0 0 0 0 0 0 0 0 0 0 0 127 0" result="hardAlpha"/>
<feOffset dx="-5" dy="-2"/>
<feComposite in2="hardAlpha" operator="arithmetic" k2="-1" k3="1"/>
<feColorMatrix type="matrix" values="0 0 0 0 1 0 0 0 0 1 0 0 0 0 1 0 0 0 0.25 0"/>
<feBlend mode="normal" in2="shape" result="effect1_innerShadow_3058_16319"/>
</filter>
<filter id="filter4_ii_3058_16319" x="46.4993" y="61.0742" width="38.6824" height="37.6699" filterUnits="userSpaceOnUse" color-interpolation-filters="sRGB">
<feFlood flood-opacity="0" result="BackgroundImageFix"/>
<feBlend mode="normal" in="SourceGraphic" in2="BackgroundImageFix" result="shape"/>
<feColorMatrix in="SourceAlpha" type="matrix" values="0 0 0 0 0 0 0 0 0 0 0 0 0 0 0 0 0 0 127 0" result="hardAlpha"/>
<feOffset dx="-17" dy="-3"/>
<feComposite in2="hardAlpha" operator="arithmetic" k2="-1" k3="1"/>
<feColorMatrix type="matrix" values="0 0 0 0 1 0 0 0 0 1 0 0 0 0 1 0 0 0 0.13 0"/>
<feBlend mode="normal" in2="shape" result="effect1_innerShadow_3058_16319"/>
<feColorMatrix in="SourceAlpha" type="matrix" values="0 0 0 0 0 0 0 0 0 0 0 0 0 0 0 0 0 0 127 0" result="hardAlpha"/>
<feOffset dx="-6" dy="-3"/>
<feComposite in2="hardAlpha" operator="arithmetic" k2="-1" k3="1"/>
<feColorMatrix type="matrix" values="0 0 0 0 1 0 0 0 0 1 0 0 0 0 1 0 0 0 0.13 0"/>
<feBlend mode="normal" in2="effect1_innerShadow_3058_16319" result="effect2_innerShadow_3058_16319"/>
</filter>
<filter id="filter5_ii_3058_16319" x="61.8682" y="58.4062" width="19.0264" height="14.166" filterUnits="userSpaceOnUse" color-interpolation-filters="sRGB">
<feFlood flood-opacity="0" result="BackgroundImageFix"/>
<feBlend mode="normal" in="SourceGraphic" in2="BackgroundImageFix" result="shape"/>
<feColorMatrix in="SourceAlpha" type="matrix" values="0 0 0 0 0 0 0 0 0 0 0 0 0 0 0 0 0 0 127 0" result="hardAlpha"/>
<feOffset dx="5"/>
<feComposite in2="hardAlpha" operator="arithmetic" k2="-1" k3="1"/>
<feColorMatrix type="matrix" values="0 0 0 0 0 0 0 0 0 0 0 0 0 0 0 0 0 0 0.25 0"/>
<feBlend mode="normal" in2="shape" result="effect1_innerShadow_3058_16319"/>
<feColorMatrix in="SourceAlpha" type="matrix" values="0 0 0 0 0 0 0 0 0 0 0 0 0 0 0 0 0 0 127 0" result="hardAlpha"/>
<feOffset dx="-6"/>
<feComposite in2="hardAlpha" operator="arithmetic" k2="-1" k3="1"/>
<feColorMatrix type="matrix" values="0 0 0 0 1 0 0 0 0 1 0 0 0 0 1 0 0 0 0.13 0"/>
<feBlend mode="normal" in2="effect1_innerShadow_3058_16319" result="effect2_innerShadow_3058_16319"/>
</filter>
<filter id="filter6_ii_3058_16319" x="56.4485" y="31.1094" width="51.6667" height="29.5898" filterUnits="userSpaceOnUse" color-interpolation-filters="sRGB">
<feFlood flood-opacity="0" result="BackgroundImageFix"/>
<feBlend mode="normal" in="SourceGraphic" in2="BackgroundImageFix" result="shape"/>
<feColorMatrix in="SourceAlpha" type="matrix" values="0 0 0 0 0 0 0 0 0 0 0 0 0 0 0 0 0 0 127 0" result="hardAlpha"/>
<feOffset dx="10"/>
<feComposite in2="hardAlpha" operator="arithmetic" k2="-1" k3="1"/>
<feColorMatrix type="matrix" values="0 0 0 0 0 0 0 0 0 0 0 0 0 0 0 0 0 0 0.25 0"/>
<feBlend mode="normal" in2="shape" result="effect1_innerShadow_3058_16319"/>
<feColorMatrix in="SourceAlpha" type="matrix" values="0 0 0 0 0 0 0 0 0 0 0 0 0 0 0 0 0 0 127 0" result="hardAlpha"/>
<feOffset dx="-10"/>
<feComposite in2="hardAlpha" operator="arithmetic" k2="-1" k3="1"/>
<feColorMatrix type="matrix" values="0 0 0 0 1 0 0 0 0 1 0 0 0 0 1 0 0 0 0.25 0"/>
<feBlend mode="normal" in2="effect1_innerShadow_3058_16319" result="effect2_innerShadow_3058_16319"/>
</filter>
</defs>
</svg>
