<svg width="173" height="112" viewBox="0 0 173 112" fill="none" xmlns="http://www.w3.org/2000/svg">
<g filter="url(#filter0_d_3058_15483)">
<g filter="url(#filter1_i_3058_15483)">
<ellipse cx="33.8792" cy="25.7447" rx="33.8792" ry="25.7447" transform="matrix(-0.95075 -0.309958 -0.309958 0.95075 124.054 55.3496)" fill="#E4A96F"/>
</g>
<path d="M75.6511 94.5152C66.6149 91.5692 59.3144 86.111 54.828 79.6347C50.3411 73.1578 48.6479 65.6215 50.9397 58.5917C53.2315 51.5619 59.0412 46.4716 66.4833 43.8838C73.9247 41.2961 83.0394 41.1895 92.0757 44.1354C101.112 47.0814 108.412 52.5396 112.899 59.0159C117.386 65.4928 119.079 73.029 116.787 80.0589C114.495 87.0887 108.686 92.1789 101.244 94.7668C93.8021 97.3545 84.6874 97.4611 75.6511 94.5152Z" stroke="black" stroke-width="1.5"/>
<path d="M76.803 87.4823C56.5158 80.8684 39.0149 72.1249 27.1198 63.3132C21.1755 58.9098 16.5959 54.4636 13.7769 50.2269C10.9637 45.9989 9.83345 41.8654 11.0368 38.1744C12.2401 34.4834 15.5894 31.8103 20.3539 30.0528C25.1284 28.2917 31.4485 27.3989 38.8459 27.3451C53.6489 27.2374 72.9403 30.4887 93.2275 37.1026C113.515 43.7164 131.015 52.46 142.911 61.2717C148.855 65.6751 153.434 70.1213 156.254 74.358C159.067 78.5859 160.197 82.7195 158.994 86.4104C157.79 90.1014 154.441 92.7746 149.676 94.5321C144.902 96.2932 138.582 97.1859 131.185 97.2398C116.382 97.3475 97.0901 94.0962 76.803 87.4823Z" fill="#D2873E" stroke="black" stroke-width="1.5"/>
<path d="M77.3374 85.0106C57.0503 78.3967 39.5493 69.6532 27.6542 60.8415C21.7099 56.4381 17.1304 51.9919 14.3113 47.7552C11.4981 43.5273 10.3679 39.3937 11.5712 35.7027C12.7745 32.0118 16.1238 29.3386 20.8883 27.5811C25.6628 25.82 31.9829 24.9273 39.3803 24.8734C54.1833 24.7657 73.4748 28.017 93.7619 34.6309C114.049 41.2448 131.55 49.9883 143.445 58.8C149.389 63.2034 153.969 67.6496 156.788 71.8863C159.601 76.1142 160.731 80.2478 159.528 83.9388C158.325 87.6297 154.975 90.3029 150.211 92.0604C145.436 93.8215 139.116 94.7142 131.719 94.7681C116.916 94.8758 97.6245 91.6245 77.3374 85.0106Z" fill="#79A58E" stroke="black" stroke-width="1.5"/>
<g filter="url(#filter2_i_3058_15483)">
<path d="M152.88 73.8246C155.571 74.217 157.446 76.6437 157.067 79.2447C157.01 79.633 156.906 80.0032 156.762 80.3508C155.998 80.5538 153.891 80.8073 151.569 80.1972C149.248 79.5871 147.769 78.3605 147.32 77.8235C147.699 75.2225 150.189 73.4321 152.88 73.8246Z" fill="#E4C594"/>
</g>
<path d="M157.455 80.6384L157.313 80.9805L156.955 81.0756C156.078 81.3087 153.838 81.5688 151.379 80.9226C148.912 80.2741 147.297 78.9646 146.745 78.3047L146.529 78.0473L146.578 77.7153C147.02 74.6807 149.911 72.6337 152.988 73.0824C156.065 73.5311 158.251 76.3183 157.809 79.3529C157.743 79.8034 157.623 80.2338 157.455 80.6384Z" stroke="black" stroke-width="1.5"/>
<g filter="url(#filter3_i_3058_15483)">
<path d="M133.603 52.4336C138.179 53.1008 141.365 57.2261 140.72 61.6478C140.624 62.3079 140.448 62.9373 140.202 63.5282C138.904 63.8733 135.321 64.3042 131.375 63.2671C127.429 62.2299 124.915 60.1447 124.151 59.2317C124.796 54.8101 129.028 51.7664 133.603 52.4336Z" fill="#E4C594"/>
</g>
<path d="M140.895 63.8158L140.753 64.1578L140.395 64.253C138.984 64.6281 135.268 65.0658 131.184 63.9924C127.092 62.917 124.442 60.7488 123.576 59.713L123.361 59.4556L123.409 59.1235C124.117 54.2683 128.75 50.968 133.711 51.6914C138.673 52.4149 142.17 56.9007 141.462 61.756C141.357 62.4783 141.164 63.1679 140.895 63.8158Z" stroke="black" stroke-width="1.5"/>
<g filter="url(#filter4_i_3058_15483)">
<path d="M22.8991 32.3085C25.4111 32.6747 27.1554 34.9748 26.7951 37.4457C26.7413 37.8146 26.6437 38.1664 26.5081 38.4969C25.7946 38.6915 23.8262 38.9372 21.6603 38.3634C19.4944 37.7895 18.1166 36.6282 17.6984 36.1193C18.0587 33.6483 20.3871 31.9422 22.8991 32.3085Z" fill="#E4C594"/>
</g>
<path d="M27.202 38.7816L27.0618 39.1233L26.7055 39.2204C25.8777 39.4462 23.7743 39.6993 21.4682 39.0884C19.1536 38.4751 17.6391 37.2285 17.1189 36.5954L16.9084 36.3392L16.9562 36.011C17.378 33.1187 20.097 31.1419 23.0073 31.5663C25.9176 31.9907 27.959 34.6616 27.5373 37.5539C27.4746 37.9839 27.3606 38.395 27.202 38.7816Z" stroke="black" stroke-width="1.5"/>
<g filter="url(#filter5_ii_3058_15483)">
<path d="M138.162 88.5926C139.369 88.4783 140.447 89.4492 140.572 90.7611C140.59 90.957 140.586 91.1494 140.563 91.3353C140.255 91.5211 139.372 91.8841 138.301 91.8501C137.231 91.8162 136.456 91.3858 136.202 91.1748C136.078 89.8629 136.955 88.7068 138.162 88.5926Z" fill="#B73849"/>
</g>
<path d="M140.91 91.3799L140.888 91.5475L140.744 91.6349C140.385 91.8513 139.436 92.2363 138.29 92.2C137.139 92.1635 136.29 91.7033 135.978 91.4439L135.867 91.3516L135.853 91.2078C135.714 89.7315 136.703 88.3791 138.129 88.2441C139.555 88.1091 140.78 89.2518 140.92 90.7281C140.941 90.9499 140.937 91.1683 140.91 91.3799Z" stroke="black" stroke-width="0.7"/>
<g filter="url(#filter6_ii_3058_15483)">
<path d="M127.885 88.5042C129.097 88.5283 130.058 89.6159 130.032 90.9334C130.028 91.1301 130.002 91.3208 129.957 91.5028C129.631 91.6523 128.712 91.9123 127.652 91.7564C126.592 91.6005 125.872 91.0846 125.644 90.8461C125.67 89.5286 126.673 88.4801 127.885 88.5042Z" fill="#B73849"/>
</g>
<path d="M130.297 91.5867L130.257 91.7508L130.103 91.8211C129.722 91.9952 128.736 92.2695 127.601 92.1027C126.462 91.9352 125.671 91.3811 125.391 91.0879L125.291 90.9835L125.294 90.8391C125.323 89.3565 126.46 88.1258 127.892 88.1543C129.324 88.1828 130.411 89.4577 130.382 90.9404C130.377 91.1631 130.348 91.3795 130.297 91.5867Z" stroke="black" stroke-width="0.7"/>
<g filter="url(#filter7_ii_3058_15483)">
<path d="M117.069 87.5911C118.281 87.6152 119.242 88.7028 119.216 90.0203C119.212 90.217 119.186 90.4077 119.142 90.5897C118.815 90.7392 117.896 90.9992 116.836 90.8433C115.776 90.6875 115.056 90.1715 114.828 89.933C114.854 88.6155 115.858 87.567 117.069 87.5911Z" fill="#B73849"/>
</g>
<path d="M119.481 90.6736L119.441 90.8377L119.287 90.908C118.906 91.0821 117.92 91.3564 116.785 91.1896C115.646 91.0221 114.855 90.468 114.575 90.1748L114.475 90.0704L114.478 89.926C114.507 88.4434 115.644 87.2127 117.076 87.2412C118.508 87.2697 119.596 88.5446 119.566 90.0273C119.562 90.25 119.532 90.4665 119.481 90.6736Z" stroke="black" stroke-width="0.7"/>
<g filter="url(#filter8_ii_3058_15483)">
<path d="M106.071 85.6546C107.282 85.6787 108.244 86.7663 108.217 88.0838C108.213 88.2805 108.188 88.4712 108.143 88.6532C107.816 88.8027 106.898 89.0627 105.838 88.9068C104.778 88.7509 104.057 88.235 103.829 87.9965C103.855 86.679 104.859 85.6305 106.071 85.6546Z" fill="#B73849"/>
</g>
<path d="M108.483 88.737L108.442 88.9011L108.288 88.9715C107.908 89.1456 106.921 89.4199 105.787 89.2531C104.647 89.0855 103.856 88.5315 103.576 88.2383L103.476 88.1339L103.479 87.9895C103.508 86.5068 104.645 85.2761 106.078 85.3046C107.51 85.3331 108.597 86.6081 108.567 88.0907C108.563 88.3134 108.534 88.5299 108.483 88.737Z" stroke="black" stroke-width="0.7"/>
<g filter="url(#filter9_ii_3058_15483)">
<path d="M96.7438 83.6311C97.9556 83.6553 98.9167 84.7428 98.8905 86.0603C98.8866 86.257 98.8609 86.4477 98.816 86.6297C98.4893 86.7792 97.5708 87.0392 96.5108 86.8834C95.4509 86.7275 94.73 86.2115 94.5021 85.973C94.5283 84.6555 95.5319 83.607 96.7438 83.6311Z" fill="#B73849"/>
</g>
<path d="M99.1558 86.7136L99.1153 86.8777L98.9616 86.948C98.5809 87.1222 97.5944 87.3965 96.4599 87.2296C95.3207 87.0621 94.5293 86.5081 94.2491 86.2148L94.1493 86.1104L94.1522 85.9661C94.1817 84.4834 95.3187 83.2527 96.7507 83.2812C98.1828 83.3097 99.27 84.5847 99.2404 86.0673C99.236 86.29 99.2069 86.5065 99.1558 86.7136Z" stroke="black" stroke-width="0.7"/>
<g filter="url(#filter10_ii_3058_15483)">
<path d="M85.7322 80.354C86.9389 80.4681 87.8166 81.6241 87.6926 82.936C87.6741 83.1318 87.6343 83.3201 87.576 83.4983C87.2391 83.6231 86.3038 83.8141 85.2584 83.58C84.2129 83.3458 83.5324 82.7777 83.3228 82.523C83.4468 81.2111 84.5255 80.24 85.7322 80.354Z" fill="#B73849"/>
</g>
<path d="M87.9086 83.6071L87.8561 83.7678L87.6976 83.8265C87.305 83.9719 86.3009 84.1721 85.1819 83.9215C84.0582 83.6698 83.3102 83.0586 83.0525 82.7453L82.9607 82.6338L82.9743 82.49C83.1139 81.0137 84.3391 79.8708 85.7651 80.0056C87.1911 80.1404 88.1806 81.4925 88.041 82.9689C88.0201 83.1907 87.975 83.4044 87.9086 83.6071Z" stroke="black" stroke-width="0.7"/>
<g filter="url(#filter11_ii_3058_15483)">
<path d="M75.7007 77.0796C76.9074 77.1937 77.7851 78.3496 77.6611 79.6616C77.6426 79.8574 77.6028 80.0457 77.5445 80.2239C77.2076 80.3487 76.2723 80.5397 75.2269 80.3056C74.1814 80.0714 73.5009 79.5033 73.2913 79.2485C73.4153 77.9366 74.494 76.9656 75.7007 77.0796Z" fill="#B73849"/>
</g>
<path d="M77.8771 80.3327L77.8246 80.4934L77.6661 80.5521C77.2735 80.6975 76.2694 80.8977 75.1504 80.6471C74.0267 80.3954 73.2787 79.7842 73.021 79.4709L72.9292 79.3594L72.9428 79.2156C73.0824 77.7393 74.3077 76.5964 75.7336 76.7312C77.1596 76.866 78.1491 78.2181 78.0096 79.6945C77.9886 79.9162 77.9435 80.13 77.8771 80.3327Z" stroke="black" stroke-width="0.7"/>
<g filter="url(#filter12_ii_3058_15483)">
<path d="M65.1063 73.5162C66.2982 73.7365 67.0703 74.9655 66.8308 76.2613C66.795 76.4548 66.7388 76.6388 66.6649 76.8111C66.3183 76.9056 65.3698 77.0133 64.3492 76.6876C63.3285 76.362 62.7008 75.736 62.5146 75.4637C62.7541 74.1678 63.9144 73.2959 65.1063 73.5162Z" fill="#B73849"/>
</g>
<path d="M66.9866 76.9489L66.9201 77.1043L66.757 77.1488C66.3531 77.2589 65.3352 77.3696 64.2428 77.0211C63.1458 76.6711 62.4547 75.9961 62.2257 75.6613L62.1442 75.5421L62.1704 75.4001C62.4399 73.9418 63.7614 72.9117 65.1699 73.172C66.5784 73.4323 67.4445 74.8667 67.175 76.3249C67.1345 76.544 67.0707 76.7529 66.9866 76.9489Z" stroke="black" stroke-width="0.7"/>
<g filter="url(#filter13_ii_3058_15483)">
<path d="M55.1241 69.2626C56.2932 69.5825 56.959 70.8722 56.6112 72.1432C56.5593 72.333 56.4877 72.5116 56.3996 72.6771C56.0463 72.742 55.0921 72.7694 54.1025 72.3589C53.1129 71.9484 52.5402 71.2718 52.3776 70.9847C52.7254 69.7137 53.955 68.9427 55.1241 69.2626Z" fill="#B73849"/>
</g>
<path d="M56.7086 72.8415L56.6292 72.9907L56.4629 73.0213C56.0512 73.097 55.0276 73.1216 53.9684 72.6822C52.9048 72.241 52.273 71.5102 52.0731 71.1573L52.0019 71.0316L52.04 70.8923C52.4314 69.462 53.835 68.5469 55.2165 68.925C56.5981 69.303 57.3402 70.8052 56.9488 72.2356C56.89 72.4504 56.8088 72.6532 56.7086 72.8415Z" stroke="black" stroke-width="0.7"/>
<g filter="url(#filter14_ii_3058_15483)">
<path d="M45.574 64.2206C46.7431 64.5405 47.4088 65.8302 47.0611 67.1012C47.0091 67.291 46.9376 67.4696 46.8495 67.6351C46.4961 67.7001 45.5419 67.7274 44.5523 67.3169C43.5627 66.9064 42.99 66.2298 42.8274 65.9427C43.1752 64.6717 44.4049 63.9007 45.574 64.2206Z" fill="#B73849"/>
</g>
<path d="M47.1584 67.7995L47.079 67.9487L46.9128 67.9793C46.501 68.055 45.4774 68.0796 44.4182 67.6402C43.3546 67.199 42.7229 66.4682 42.5229 66.1153L42.4517 65.9896L42.4898 65.8504C42.8812 64.42 44.2848 63.5049 45.6663 63.883C47.0479 64.261 47.79 65.7632 47.3986 67.1936C47.3398 67.4084 47.2587 67.6112 47.1584 67.7995Z" stroke="black" stroke-width="0.7"/>
<g filter="url(#filter15_ii_3058_15483)">
<path d="M36.7238 59.1073C37.8659 59.513 38.4344 60.8485 37.9934 62.0902C37.9275 62.2756 37.8429 62.4484 37.7428 62.6069C37.3856 62.6456 36.432 62.6022 35.4756 62.1195C34.5191 61.6368 33.9981 60.9196 33.8572 60.6213C34.2982 59.3795 35.5816 58.7017 36.7238 59.1073Z" fill="#B73849"/>
</g>
<path d="M38.0387 62.7938L37.9485 62.9367L37.7804 62.9549C37.3642 62.9999 36.3416 62.9486 35.3179 62.432C34.2899 61.9132 33.714 61.1376 33.5407 60.7708L33.479 60.6403L33.5273 60.5042C34.0236 59.1067 35.4911 58.2982 36.8409 58.7775C38.1906 59.2569 38.8195 60.8099 38.3232 62.2074C38.2486 62.4173 38.1526 62.6135 38.0387 62.7938Z" stroke="black" stroke-width="0.7"/>
<circle cx="1.2825" cy="1.2825" r="1.2825" transform="matrix(-0.989536 -0.144289 -0.144289 0.989536 156.538 76.2373)" fill="white" fill-opacity="0.59"/>
<circle cx="1.71" cy="1.71" r="1.71" transform="matrix(-0.989536 -0.144289 -0.144289 0.989536 139.547 56.4785)" fill="white" fill-opacity="0.59"/>
<circle cx="1.2825" cy="1.2825" r="1.2825" transform="matrix(-0.989536 -0.144289 -0.144289 0.989536 26.0696 34.7471)" fill="white" fill-opacity="0.59"/>
<path d="M56.0959 62.8878C83.621 77.9611 107.047 74.9255 115.32 71.5235C110.363 46.262 65.8514 34.5009 44.2153 31.778C36.7067 35.8674 28.5707 47.8145 56.0959 62.8878Z" fill="black" fill-opacity="0.1"/>
<g filter="url(#filter16_i_3058_15483)">
<path d="M48.9436 25.4893C53.519 26.1564 56.7055 30.2817 56.0607 34.7034C55.9645 35.3635 55.7883 35.9929 55.5429 36.5838C54.2447 36.9289 50.6618 37.3599 46.7156 36.3227C42.7694 35.2856 40.2554 33.2004 39.4916 32.2874C40.1364 27.8657 44.3682 24.8221 48.9436 25.4893Z" fill="#E4C594"/>
</g>
<path d="M56.2356 36.8714L56.0936 37.2135L55.7356 37.3087C54.3244 37.6838 50.6088 38.1214 46.5249 37.0481C42.4329 35.9726 39.7829 33.8044 38.9164 32.7686L38.7011 32.5112L38.7495 32.1792C39.4575 27.3239 44.0906 24.0237 49.0518 24.7471C54.013 25.4705 57.5109 29.9564 56.8029 34.8116C56.6976 35.534 56.5046 36.2236 56.2356 36.8714Z" stroke="black" stroke-width="1.5"/>
<circle cx="1.71" cy="1.71" r="1.71" transform="matrix(-0.989536 -0.144289 -0.144289 0.989536 52.9314 28.2969)" fill="white" fill-opacity="0.59"/>
<g filter="url(#filter17_i_3058_15483)">
<path d="M94.7182 11.9243C118.134 15.3386 134.411 36.652 131.076 59.5292C130.578 62.9445 129.671 66.2016 128.41 69.2602C121.762 71.0557 103.418 73.3136 83.2264 67.9804C63.0348 62.6473 50.1828 51.8812 46.2807 47.1648C49.6166 24.2877 71.3028 8.50994 94.7182 11.9243Z" fill="#E4A96F"/>
</g>
<path d="M129.103 69.546L128.962 69.8878L128.605 69.9842C121.844 71.8105 103.366 74.0755 83.0349 68.7055C62.6957 63.3334 49.7072 52.483 45.7029 47.6429L45.4905 47.3863L45.5386 47.0566C48.9365 23.7534 71.0175 7.71041 94.8264 11.1821C118.635 14.6538 135.216 36.3342 131.818 59.6374C131.311 63.1142 130.387 66.4309 129.103 69.546Z" stroke="black" stroke-width="1.5"/>
<path d="M124.72 41.683C122.973 35.4561 115.206 26.5265 111.541 22.84C114.617 26.7724 119.329 43.3854 120.063 46.3127C120.797 49.24 121.298 52.631 124.016 52.1977C126.733 51.7645 126.902 49.4666 124.72 41.683Z" fill="white" fill-opacity="0.76"/>
<circle cx="2.95488" cy="2.95488" r="2.95488" transform="matrix(-0.989536 -0.144289 -0.144289 0.989536 128.047 55.2705)" fill="white" fill-opacity="0.76"/>
</g>
<defs>
<filter id="filter0_d_3058_15483" x="1.80896" y="9.95996" width="158.947" height="96.0322" filterUnits="userSpaceOnUse" color-interpolation-filters="sRGB">
<feFlood flood-opacity="0" result="BackgroundImageFix"/>
<feColorMatrix in="SourceAlpha" type="matrix" values="0 0 0 0 0 0 0 0 0 0 0 0 0 0 0 0 0 0 127 0" result="hardAlpha"/>
<feOffset dx="-4" dy="4"/>
<feGaussianBlur stdDeviation="2"/>
<feComposite in2="hardAlpha" operator="out"/>
<feColorMatrix type="matrix" values="0 0 0 0 0 0 0 0 0 0 0 0 0 0 0 0 0 0 0.1 0"/>
<feBlend mode="normal" in2="BackgroundImageFix" result="effect1_dropShadow_3058_15483"/>
<feBlend mode="normal" in="SourceGraphic" in2="effect1_dropShadow_3058_15483" result="shape"/>
</filter>
<filter id="filter1_i_3058_15483" x="49.1704" y="41.1846" width="69.386" height="56.2822" filterUnits="userSpaceOnUse" color-interpolation-filters="sRGB">
<feFlood flood-opacity="0" result="BackgroundImageFix"/>
<feBlend mode="normal" in="SourceGraphic" in2="BackgroundImageFix" result="shape"/>
<feColorMatrix in="SourceAlpha" type="matrix" values="0 0 0 0 0 0 0 0 0 0 0 0 0 0 0 0 0 0 127 0" result="hardAlpha"/>
<feOffset dx="13.68"/>
<feComposite in2="hardAlpha" operator="arithmetic" k2="-1" k3="1"/>
<feColorMatrix type="matrix" values="0 0 0 0 0 0 0 0 0 0 0 0 0 0 0 0 0 0 0.2 0"/>
<feBlend mode="normal" in2="shape" result="effect1_innerShadow_3058_15483"/>
</filter>
<filter id="filter2_i_3058_15483" x="145.739" y="72.2705" width="12.8772" height="9.80957" filterUnits="userSpaceOnUse" color-interpolation-filters="sRGB">
<feFlood flood-opacity="0" result="BackgroundImageFix"/>
<feBlend mode="normal" in="SourceGraphic" in2="BackgroundImageFix" result="shape"/>
<feColorMatrix in="SourceAlpha" type="matrix" values="0 0 0 0 0 0 0 0 0 0 0 0 0 0 0 0 0 0 127 0" result="hardAlpha"/>
<feOffset dx="3.42" dy="-1.71"/>
<feComposite in2="hardAlpha" operator="arithmetic" k2="-1" k3="1"/>
<feColorMatrix type="matrix" values="0 0 0 0 0 0 0 0 0 0 0 0 0 0 0 0 0 0 0.15 0"/>
<feBlend mode="normal" in2="shape" result="effect1_innerShadow_3058_15483"/>
</filter>
<filter id="filter3_i_3058_15483" x="122.57" y="50.8418" width="19.7338" height="14.5762" filterUnits="userSpaceOnUse" color-interpolation-filters="sRGB">
<feFlood flood-opacity="0" result="BackgroundImageFix"/>
<feBlend mode="normal" in="SourceGraphic" in2="BackgroundImageFix" result="shape"/>
<feColorMatrix in="SourceAlpha" type="matrix" values="0 0 0 0 0 0 0 0 0 0 0 0 0 0 0 0 0 0 127 0" result="hardAlpha"/>
<feOffset dx="3.42" dy="-1.71"/>
<feComposite in2="hardAlpha" operator="arithmetic" k2="-1" k3="1"/>
<feColorMatrix type="matrix" values="0 0 0 0 0 0 0 0 0 0 0 0 0 0 0 0 0 0 0.15 0"/>
<feBlend mode="normal" in2="shape" result="effect1_innerShadow_3058_15483"/>
</filter>
<filter id="filter4_i_3058_15483" x="16.1184" y="30.7588" width="12.2242" height="9.46094" filterUnits="userSpaceOnUse" color-interpolation-filters="sRGB">
<feFlood flood-opacity="0" result="BackgroundImageFix"/>
<feBlend mode="normal" in="SourceGraphic" in2="BackgroundImageFix" result="shape"/>
<feColorMatrix in="SourceAlpha" type="matrix" values="0 0 0 0 0 0 0 0 0 0 0 0 0 0 0 0 0 0 127 0" result="hardAlpha"/>
<feOffset dx="3.42" dy="-1.71"/>
<feComposite in2="hardAlpha" operator="arithmetic" k2="-1" k3="1"/>
<feColorMatrix type="matrix" values="0 0 0 0 0 0 0 0 0 0 0 0 0 0 0 0 0 0 0.15 0"/>
<feBlend mode="normal" in2="shape" result="effect1_innerShadow_3058_15483"/>
</filter>
<filter id="filter5_ii_3058_15483" x="135.49" y="87.8828" width="5.79297" height="4.66992" filterUnits="userSpaceOnUse" color-interpolation-filters="sRGB">
<feFlood flood-opacity="0" result="BackgroundImageFix"/>
<feBlend mode="normal" in="SourceGraphic" in2="BackgroundImageFix" result="shape"/>
<feColorMatrix in="SourceAlpha" type="matrix" values="0 0 0 0 0 0 0 0 0 0 0 0 0 0 0 0 0 0 127 0" result="hardAlpha"/>
<feOffset dx="1.2825" dy="0.4275"/>
<feComposite in2="hardAlpha" operator="arithmetic" k2="-1" k3="1"/>
<feColorMatrix type="matrix" values="0 0 0 0 1 0 0 0 0 1 0 0 0 0 1 0 0 0 1 0"/>
<feBlend mode="normal" in2="shape" result="effect1_innerShadow_3058_15483"/>
<feColorMatrix in="SourceAlpha" type="matrix" values="0 0 0 0 0 0 0 0 0 0 0 0 0 0 0 0 0 0 127 0" result="hardAlpha"/>
<feOffset dx="-1.71" dy="-0.855"/>
<feComposite in2="hardAlpha" operator="arithmetic" k2="-1" k3="1"/>
<feColorMatrix type="matrix" values="0 0 0 0 0 0 0 0 0 0 0 0 0 0 0 0 0 0 0.25 0"/>
<feBlend mode="normal" in2="effect1_innerShadow_3058_15483" result="effect2_innerShadow_3058_15483"/>
</filter>
<filter id="filter6_ii_3058_15483" x="124.938" y="87.8037" width="5.79456" height="4.70117" filterUnits="userSpaceOnUse" color-interpolation-filters="sRGB">
<feFlood flood-opacity="0" result="BackgroundImageFix"/>
<feBlend mode="normal" in="SourceGraphic" in2="BackgroundImageFix" result="shape"/>
<feColorMatrix in="SourceAlpha" type="matrix" values="0 0 0 0 0 0 0 0 0 0 0 0 0 0 0 0 0 0 127 0" result="hardAlpha"/>
<feOffset dx="1.2825" dy="0.4275"/>
<feComposite in2="hardAlpha" operator="arithmetic" k2="-1" k3="1"/>
<feColorMatrix type="matrix" values="0 0 0 0 1 0 0 0 0 1 0 0 0 0 1 0 0 0 1 0"/>
<feBlend mode="normal" in2="shape" result="effect1_innerShadow_3058_15483"/>
<feColorMatrix in="SourceAlpha" type="matrix" values="0 0 0 0 0 0 0 0 0 0 0 0 0 0 0 0 0 0 127 0" result="hardAlpha"/>
<feOffset dx="-1.71" dy="-0.855"/>
<feComposite in2="hardAlpha" operator="arithmetic" k2="-1" k3="1"/>
<feColorMatrix type="matrix" values="0 0 0 0 0 0 0 0 0 0 0 0 0 0 0 0 0 0 0.25 0"/>
<feBlend mode="normal" in2="effect1_innerShadow_3058_15483" result="effect2_innerShadow_3058_15483"/>
</filter>
<filter id="filter7_ii_3058_15483" x="114.122" y="86.8906" width="5.79456" height="4.70117" filterUnits="userSpaceOnUse" color-interpolation-filters="sRGB">
<feFlood flood-opacity="0" result="BackgroundImageFix"/>
<feBlend mode="normal" in="SourceGraphic" in2="BackgroundImageFix" result="shape"/>
<feColorMatrix in="SourceAlpha" type="matrix" values="0 0 0 0 0 0 0 0 0 0 0 0 0 0 0 0 0 0 127 0" result="hardAlpha"/>
<feOffset dx="1.2825" dy="0.4275"/>
<feComposite in2="hardAlpha" operator="arithmetic" k2="-1" k3="1"/>
<feColorMatrix type="matrix" values="0 0 0 0 1 0 0 0 0 1 0 0 0 0 1 0 0 0 1 0"/>
<feBlend mode="normal" in2="shape" result="effect1_innerShadow_3058_15483"/>
<feColorMatrix in="SourceAlpha" type="matrix" values="0 0 0 0 0 0 0 0 0 0 0 0 0 0 0 0 0 0 127 0" result="hardAlpha"/>
<feOffset dx="-1.71" dy="-0.855"/>
<feComposite in2="hardAlpha" operator="arithmetic" k2="-1" k3="1"/>
<feColorMatrix type="matrix" values="0 0 0 0 0 0 0 0 0 0 0 0 0 0 0 0 0 0 0.25 0"/>
<feBlend mode="normal" in2="effect1_innerShadow_3058_15483" result="effect2_innerShadow_3058_15483"/>
</filter>
<filter id="filter8_ii_3058_15483" x="103.123" y="84.9541" width="5.79456" height="4.70117" filterUnits="userSpaceOnUse" color-interpolation-filters="sRGB">
<feFlood flood-opacity="0" result="BackgroundImageFix"/>
<feBlend mode="normal" in="SourceGraphic" in2="BackgroundImageFix" result="shape"/>
<feColorMatrix in="SourceAlpha" type="matrix" values="0 0 0 0 0 0 0 0 0 0 0 0 0 0 0 0 0 0 127 0" result="hardAlpha"/>
<feOffset dx="1.2825" dy="0.4275"/>
<feComposite in2="hardAlpha" operator="arithmetic" k2="-1" k3="1"/>
<feColorMatrix type="matrix" values="0 0 0 0 1 0 0 0 0 1 0 0 0 0 1 0 0 0 1 0"/>
<feBlend mode="normal" in2="shape" result="effect1_innerShadow_3058_15483"/>
<feColorMatrix in="SourceAlpha" type="matrix" values="0 0 0 0 0 0 0 0 0 0 0 0 0 0 0 0 0 0 127 0" result="hardAlpha"/>
<feOffset dx="-1.71" dy="-0.855"/>
<feComposite in2="hardAlpha" operator="arithmetic" k2="-1" k3="1"/>
<feColorMatrix type="matrix" values="0 0 0 0 0 0 0 0 0 0 0 0 0 0 0 0 0 0 0.25 0"/>
<feBlend mode="normal" in2="effect1_innerShadow_3058_15483" result="effect2_innerShadow_3058_15483"/>
</filter>
<filter id="filter9_ii_3058_15483" x="93.7965" y="82.9307" width="5.79456" height="4.70117" filterUnits="userSpaceOnUse" color-interpolation-filters="sRGB">
<feFlood flood-opacity="0" result="BackgroundImageFix"/>
<feBlend mode="normal" in="SourceGraphic" in2="BackgroundImageFix" result="shape"/>
<feColorMatrix in="SourceAlpha" type="matrix" values="0 0 0 0 0 0 0 0 0 0 0 0 0 0 0 0 0 0 127 0" result="hardAlpha"/>
<feOffset dx="1.2825" dy="0.4275"/>
<feComposite in2="hardAlpha" operator="arithmetic" k2="-1" k3="1"/>
<feColorMatrix type="matrix" values="0 0 0 0 1 0 0 0 0 1 0 0 0 0 1 0 0 0 1 0"/>
<feBlend mode="normal" in2="shape" result="effect1_innerShadow_3058_15483"/>
<feColorMatrix in="SourceAlpha" type="matrix" values="0 0 0 0 0 0 0 0 0 0 0 0 0 0 0 0 0 0 127 0" result="hardAlpha"/>
<feOffset dx="-1.71" dy="-0.855"/>
<feComposite in2="hardAlpha" operator="arithmetic" k2="-1" k3="1"/>
<feColorMatrix type="matrix" values="0 0 0 0 0 0 0 0 0 0 0 0 0 0 0 0 0 0 0.25 0"/>
<feBlend mode="normal" in2="effect1_innerShadow_3058_15483" result="effect2_innerShadow_3058_15483"/>
</filter>
<filter id="filter10_ii_3058_15483" x="82.5988" y="79.6445" width="5.8053" height="4.74609" filterUnits="userSpaceOnUse" color-interpolation-filters="sRGB">
<feFlood flood-opacity="0" result="BackgroundImageFix"/>
<feBlend mode="normal" in="SourceGraphic" in2="BackgroundImageFix" result="shape"/>
<feColorMatrix in="SourceAlpha" type="matrix" values="0 0 0 0 0 0 0 0 0 0 0 0 0 0 0 0 0 0 127 0" result="hardAlpha"/>
<feOffset dx="1.2825" dy="0.4275"/>
<feComposite in2="hardAlpha" operator="arithmetic" k2="-1" k3="1"/>
<feColorMatrix type="matrix" values="0 0 0 0 1 0 0 0 0 1 0 0 0 0 1 0 0 0 1 0"/>
<feBlend mode="normal" in2="shape" result="effect1_innerShadow_3058_15483"/>
<feColorMatrix in="SourceAlpha" type="matrix" values="0 0 0 0 0 0 0 0 0 0 0 0 0 0 0 0 0 0 127 0" result="hardAlpha"/>
<feOffset dx="-1.71" dy="-0.855"/>
<feComposite in2="hardAlpha" operator="arithmetic" k2="-1" k3="1"/>
<feColorMatrix type="matrix" values="0 0 0 0 0 0 0 0 0 0 0 0 0 0 0 0 0 0 0.25 0"/>
<feBlend mode="normal" in2="effect1_innerShadow_3058_15483" result="effect2_innerShadow_3058_15483"/>
</filter>
<filter id="filter11_ii_3058_15483" x="72.5673" y="76.3701" width="5.8053" height="4.74609" filterUnits="userSpaceOnUse" color-interpolation-filters="sRGB">
<feFlood flood-opacity="0" result="BackgroundImageFix"/>
<feBlend mode="normal" in="SourceGraphic" in2="BackgroundImageFix" result="shape"/>
<feColorMatrix in="SourceAlpha" type="matrix" values="0 0 0 0 0 0 0 0 0 0 0 0 0 0 0 0 0 0 127 0" result="hardAlpha"/>
<feOffset dx="1.2825" dy="0.4275"/>
<feComposite in2="hardAlpha" operator="arithmetic" k2="-1" k3="1"/>
<feColorMatrix type="matrix" values="0 0 0 0 1 0 0 0 0 1 0 0 0 0 1 0 0 0 1 0"/>
<feBlend mode="normal" in2="shape" result="effect1_innerShadow_3058_15483"/>
<feColorMatrix in="SourceAlpha" type="matrix" values="0 0 0 0 0 0 0 0 0 0 0 0 0 0 0 0 0 0 127 0" result="hardAlpha"/>
<feOffset dx="-1.71" dy="-0.855"/>
<feComposite in2="hardAlpha" operator="arithmetic" k2="-1" k3="1"/>
<feColorMatrix type="matrix" values="0 0 0 0 0 0 0 0 0 0 0 0 0 0 0 0 0 0 0.25 0"/>
<feBlend mode="normal" in2="effect1_innerShadow_3058_15483" result="effect2_innerShadow_3058_15483"/>
</filter>
<filter id="filter12_ii_3058_15483" x="61.7738" y="72.7812" width="5.7998" height="4.82617" filterUnits="userSpaceOnUse" color-interpolation-filters="sRGB">
<feFlood flood-opacity="0" result="BackgroundImageFix"/>
<feBlend mode="normal" in="SourceGraphic" in2="BackgroundImageFix" result="shape"/>
<feColorMatrix in="SourceAlpha" type="matrix" values="0 0 0 0 0 0 0 0 0 0 0 0 0 0 0 0 0 0 127 0" result="hardAlpha"/>
<feOffset dx="1.2825" dy="0.4275"/>
<feComposite in2="hardAlpha" operator="arithmetic" k2="-1" k3="1"/>
<feColorMatrix type="matrix" values="0 0 0 0 1 0 0 0 0 1 0 0 0 0 1 0 0 0 1 0"/>
<feBlend mode="normal" in2="shape" result="effect1_innerShadow_3058_15483"/>
<feColorMatrix in="SourceAlpha" type="matrix" values="0 0 0 0 0 0 0 0 0 0 0 0 0 0 0 0 0 0 127 0" result="hardAlpha"/>
<feOffset dx="-1.71" dy="-0.855"/>
<feComposite in2="hardAlpha" operator="arithmetic" k2="-1" k3="1"/>
<feColorMatrix type="matrix" values="0 0 0 0 0 0 0 0 0 0 0 0 0 0 0 0 0 0 0.25 0"/>
<feBlend mode="normal" in2="effect1_innerShadow_3058_15483" result="effect2_innerShadow_3058_15483"/>
</filter>
<filter id="filter13_ii_3058_15483" x="51.6261" y="68.4883" width="5.77612" height="4.92676" filterUnits="userSpaceOnUse" color-interpolation-filters="sRGB">
<feFlood flood-opacity="0" result="BackgroundImageFix"/>
<feBlend mode="normal" in="SourceGraphic" in2="BackgroundImageFix" result="shape"/>
<feColorMatrix in="SourceAlpha" type="matrix" values="0 0 0 0 0 0 0 0 0 0 0 0 0 0 0 0 0 0 127 0" result="hardAlpha"/>
<feOffset dx="1.2825" dy="0.4275"/>
<feComposite in2="hardAlpha" operator="arithmetic" k2="-1" k3="1"/>
<feColorMatrix type="matrix" values="0 0 0 0 1 0 0 0 0 1 0 0 0 0 1 0 0 0 1 0"/>
<feBlend mode="normal" in2="shape" result="effect1_innerShadow_3058_15483"/>
<feColorMatrix in="SourceAlpha" type="matrix" values="0 0 0 0 0 0 0 0 0 0 0 0 0 0 0 0 0 0 127 0" result="hardAlpha"/>
<feOffset dx="-1.71" dy="-0.855"/>
<feComposite in2="hardAlpha" operator="arithmetic" k2="-1" k3="1"/>
<feColorMatrix type="matrix" values="0 0 0 0 0 0 0 0 0 0 0 0 0 0 0 0 0 0 0.25 0"/>
<feBlend mode="normal" in2="effect1_innerShadow_3058_15483" result="effect2_innerShadow_3058_15483"/>
</filter>
<filter id="filter14_ii_3058_15483" x="42.0759" y="63.4463" width="5.77612" height="4.92676" filterUnits="userSpaceOnUse" color-interpolation-filters="sRGB">
<feFlood flood-opacity="0" result="BackgroundImageFix"/>
<feBlend mode="normal" in="SourceGraphic" in2="BackgroundImageFix" result="shape"/>
<feColorMatrix in="SourceAlpha" type="matrix" values="0 0 0 0 0 0 0 0 0 0 0 0 0 0 0 0 0 0 127 0" result="hardAlpha"/>
<feOffset dx="1.2825" dy="0.4275"/>
<feComposite in2="hardAlpha" operator="arithmetic" k2="-1" k3="1"/>
<feColorMatrix type="matrix" values="0 0 0 0 1 0 0 0 0 1 0 0 0 0 1 0 0 0 1 0"/>
<feBlend mode="normal" in2="shape" result="effect1_innerShadow_3058_15483"/>
<feColorMatrix in="SourceAlpha" type="matrix" values="0 0 0 0 0 0 0 0 0 0 0 0 0 0 0 0 0 0 127 0" result="hardAlpha"/>
<feOffset dx="-1.71" dy="-0.855"/>
<feComposite in2="hardAlpha" operator="arithmetic" k2="-1" k3="1"/>
<feColorMatrix type="matrix" values="0 0 0 0 0 0 0 0 0 0 0 0 0 0 0 0 0 0 0.25 0"/>
<feBlend mode="normal" in2="effect1_innerShadow_3058_15483" result="effect2_innerShadow_3058_15483"/>
</filter>
<filter id="filter15_ii_3058_15483" x="33.1008" y="58.2881" width="5.74036" height="5.0293" filterUnits="userSpaceOnUse" color-interpolation-filters="sRGB">
<feFlood flood-opacity="0" result="BackgroundImageFix"/>
<feBlend mode="normal" in="SourceGraphic" in2="BackgroundImageFix" result="shape"/>
<feColorMatrix in="SourceAlpha" type="matrix" values="0 0 0 0 0 0 0 0 0 0 0 0 0 0 0 0 0 0 127 0" result="hardAlpha"/>
<feOffset dx="1.2825" dy="0.4275"/>
<feComposite in2="hardAlpha" operator="arithmetic" k2="-1" k3="1"/>
<feColorMatrix type="matrix" values="0 0 0 0 1 0 0 0 0 1 0 0 0 0 1 0 0 0 1 0"/>
<feBlend mode="normal" in2="shape" result="effect1_innerShadow_3058_15483"/>
<feColorMatrix in="SourceAlpha" type="matrix" values="0 0 0 0 0 0 0 0 0 0 0 0 0 0 0 0 0 0 127 0" result="hardAlpha"/>
<feOffset dx="-1.71" dy="-0.855"/>
<feComposite in2="hardAlpha" operator="arithmetic" k2="-1" k3="1"/>
<feColorMatrix type="matrix" values="0 0 0 0 0 0 0 0 0 0 0 0 0 0 0 0 0 0 0.25 0"/>
<feBlend mode="normal" in2="effect1_innerShadow_3058_15483" result="effect2_innerShadow_3058_15483"/>
</filter>
<filter id="filter16_i_3058_15483" x="37.9105" y="23.8975" width="19.7338" height="14.5762" filterUnits="userSpaceOnUse" color-interpolation-filters="sRGB">
<feFlood flood-opacity="0" result="BackgroundImageFix"/>
<feBlend mode="normal" in="SourceGraphic" in2="BackgroundImageFix" result="shape"/>
<feColorMatrix in="SourceAlpha" type="matrix" values="0 0 0 0 0 0 0 0 0 0 0 0 0 0 0 0 0 0 127 0" result="hardAlpha"/>
<feOffset dx="3.42" dy="-1.71"/>
<feComposite in2="hardAlpha" operator="arithmetic" k2="-1" k3="1"/>
<feColorMatrix type="matrix" values="0 0 0 0 0 0 0 0 0 0 0 0 0 0 0 0 0 0 0.15 0"/>
<feBlend mode="normal" in2="shape" result="effect1_innerShadow_3058_15483"/>
</filter>
<filter id="filter17_i_3058_15483" x="44.7003" y="9.95996" width="88.3093" height="62.8457" filterUnits="userSpaceOnUse" color-interpolation-filters="sRGB">
<feFlood flood-opacity="0" result="BackgroundImageFix"/>
<feBlend mode="normal" in="SourceGraphic" in2="BackgroundImageFix" result="shape"/>
<feColorMatrix in="SourceAlpha" type="matrix" values="0 0 0 0 0 0 0 0 0 0 0 0 0 0 0 0 0 0 127 0" result="hardAlpha"/>
<feOffset dx="11.11" dy="-5.985"/>
<feComposite in2="hardAlpha" operator="arithmetic" k2="-1" k3="1"/>
<feColorMatrix type="matrix" values="0 0 0 0 0 0 0 0 0 0 0 0 0 0 0 0 0 0 0.14 0"/>
<feBlend mode="normal" in2="shape" result="effect1_innerShadow_3058_15483"/>
</filter>
</defs>
</svg>
